<svg width="24" height="25" viewBox="0 0 24 25" fill="none" xmlns="http://www.w3.org/2000/svg">
<path d="M2.25049 8.57422H21.7505" stroke="#5D2EDE" stroke-width="2" stroke-miterlimit="10" stroke-linecap="round" stroke-linejoin="round"/>
<path d="M5.25049 7.07422C5.02549 7.07422 4.87549 6.99922 4.72549 6.84922C4.57549 6.69922 4.50049 6.54922 4.50049 6.32422C4.50049 6.09922 4.57549 5.94922 4.72549 5.79922L4.80049 5.72422C4.87549 5.72422 4.87549 5.64922 4.95049 5.64922C5.02549 5.57422 5.02549 5.57422 5.10049 5.57422C5.17549 5.57422 5.32549 5.57422 5.40049 5.57422C5.47549 5.57422 5.47549 5.57422 5.55049 5.64922C5.62549 5.64922 5.62549 5.72422 5.70049 5.72422L5.77549 5.79922C5.85049 5.87422 5.92549 5.94922 5.92549 6.02422C6.00049 6.09922 6.00049 6.24922 6.00049 6.32422C6.00049 6.39922 6.00049 6.54922 5.92549 6.62422C5.92549 6.69922 5.85049 6.77422 5.77549 6.84922C5.62549 6.99922 5.47549 7.07422 5.25049 7.07422Z" fill="#5D2EDE"/>
<path d="M7.50049 7.07433C7.27549 7.07433 7.12549 6.99933 6.97549 6.84933C6.82549 6.69933 6.75049 6.54933 6.75049 6.32433C6.75049 6.24933 6.75049 6.09933 6.82549 6.02433C6.90049 5.94933 6.90049 5.87433 6.97549 5.79933C7.05049 5.72433 7.12549 5.64933 7.20049 5.64933C7.50049 5.49933 7.80049 5.57433 8.02549 5.79933C8.10049 5.87433 8.17549 5.94933 8.17549 6.02433C8.25049 6.09933 8.25049 6.24933 8.25049 6.32433C8.25049 6.54933 8.17549 6.69933 8.02549 6.84933C7.87549 6.99933 7.72549 7.07433 7.50049 7.07433Z" fill="#5D2EDE"/>
<path d="M9.75049 7.07422C9.67549 7.07422 9.52549 7.07422 9.45049 6.99922C9.37549 6.92422 9.30049 6.92422 9.22549 6.84922C9.15049 6.77422 9.07549 6.69922 9.07549 6.62422C9.00049 6.54922 9.00049 6.39922 9.00049 6.32422C9.00049 6.24922 9.00049 6.09922 9.07549 6.02422C9.15049 5.94922 9.15049 5.87422 9.22549 5.79922C9.52549 5.49922 9.97549 5.49922 10.2755 5.79922C10.3505 5.87422 10.4255 5.94922 10.4255 6.02422C10.5005 6.09922 10.5005 6.24922 10.5005 6.32422C10.5005 6.39922 10.5005 6.54922 10.4255 6.62422C10.3505 6.69922 10.3505 6.77422 10.2755 6.84922C10.1255 6.99922 9.97549 7.07422 9.75049 7.07422Z" fill="#5D2EDE"/>
<path d="M8.25049 20.5742H3.75049C2.92549 20.5742 2.25049 19.8992 2.25049 19.0742V5.57422C2.25049 4.74922 2.92549 4.07422 3.75049 4.07422H20.2505C21.0755 4.07422 21.7505 4.74922 21.7505 5.57422V19.0742C21.7505 19.8992 21.0755 20.5742 20.2505 20.5742H15.7505" stroke="#5D2EDE" stroke-width="2" stroke-miterlimit="10" stroke-linecap="round" stroke-linejoin="round"/>
<path d="M17.8505 15.3993C17.1005 15.4743 16.4255 15.1743 16.0505 14.4993C15.6755 13.8243 15.7505 12.9993 16.2005 12.4743C15.5255 11.7993 14.7005 11.3493 13.8005 11.0493C13.5005 11.7243 12.9005 12.1743 12.0755 12.1743C11.2505 12.1743 10.6505 11.7243 10.3505 11.0493C9.45049 11.3493 8.62549 11.7993 7.95049 12.4743C8.40049 13.0743 8.47549 13.8243 8.10049 14.4993C7.72549 15.1743 6.97549 15.4743 6.30049 15.3993C6.07549 15.8493 6.00049 16.3743 6.00049 16.8243C6.00049 17.2743 6.07549 17.7993 6.15049 18.2493C6.90049 18.1743 7.57549 18.4743 7.95049 19.1493C8.32549 19.8243 8.25049 20.6493 7.80049 21.1743C8.47549 21.8493 9.30049 22.2993 10.2005 22.5993C10.5005 21.9243 11.1005 21.4743 11.9255 21.4743C12.7505 21.4743 13.3505 21.9243 13.6505 22.5993C14.5505 22.2993 15.3755 21.8493 16.0505 21.1743C15.6005 20.5743 15.5255 19.8243 15.9005 19.1493C16.2755 18.4743 17.0255 18.1743 17.7005 18.2493C17.7755 17.7993 17.8505 17.3493 17.8505 16.8243C18.0005 16.3743 17.9255 15.8493 17.8505 15.3993Z" stroke="#5D2EDE" stroke-width="2" stroke-miterlimit="10" stroke-linecap="round" stroke-linejoin="round"/>
<path d="M12.0005 18.3242C12.8289 18.3242 13.5005 17.6526 13.5005 16.8242C13.5005 15.9958 12.8289 15.3242 12.0005 15.3242C11.1721 15.3242 10.5005 15.9958 10.5005 16.8242C10.5005 17.6526 11.1721 18.3242 12.0005 18.3242Z" stroke="#5D2EDE" stroke-width="2" stroke-miterlimit="10" stroke-linecap="round" stroke-linejoin="round"/>
</svg>
