<svg width="25" height="24" viewBox="0 0 25 24" fill="none" xmlns="http://www.w3.org/2000/svg">
<path d="M20.8961 16.965C20.8961 17.0407 20.8737 17.1146 20.8316 17.1775C20.7896 17.2404 20.7299 17.2895 20.66 17.3184C20.5901 17.3474 20.5132 17.3549 20.439 17.3402C20.3648 17.3254 20.2966 17.289 20.2431 17.2355C20.1896 17.182 20.1532 17.1138 20.1385 17.0396C20.1237 16.9654 20.1313 16.8885 20.1602 16.8186C20.1892 16.7487 20.2382 16.689 20.3011 16.647C20.364 16.605 20.438 16.5825 20.5136 16.5825C20.6149 16.5829 20.712 16.6233 20.7836 16.695C20.8553 16.7666 20.8957 16.8637 20.8961 16.965Z" fill="#5D2EDE"/>
<path d="M19.3662 16.965C19.3659 17.0401 19.3433 17.1135 19.3013 17.1758C19.2593 17.2381 19.1999 17.2866 19.1304 17.3152C19.0609 17.3437 18.9845 17.3511 18.9109 17.3364C18.8372 17.3216 18.7696 17.2854 18.7165 17.2323C18.6633 17.1792 18.6271 17.1115 18.6124 17.0379C18.5976 16.9642 18.605 16.8878 18.6336 16.8184C18.6622 16.7489 18.7107 16.6894 18.773 16.6474C18.8353 16.6055 18.9086 16.5829 18.9837 16.5825C19.034 16.5824 19.0838 16.5922 19.1302 16.6114C19.1767 16.6306 19.2189 16.6588 19.2544 16.6943C19.29 16.7299 19.3181 16.7721 19.3373 16.8185C19.3565 16.865 19.3663 16.9148 19.3662 16.965Z" fill="#5D2EDE"/>
<path d="M22.4299 15.255H21.2712V6.44629C21.2703 6.14819 21.1515 5.86256 20.9407 5.65178C20.7299 5.44099 20.4443 5.32218 20.1462 5.32129H4.83868C4.54059 5.32218 4.25496 5.44099 4.04417 5.65178C3.83338 5.86256 3.71457 6.14819 3.71368 6.44629V15.255H2.55493C2.35602 15.255 2.16525 15.3341 2.0246 15.4747C1.88395 15.6154 1.80493 15.8061 1.80493 16.005V16.4288C1.80602 17.0252 2.04343 17.5969 2.46515 18.0186C2.88687 18.4403 3.45853 18.6777 4.05493 18.6788H20.9299C21.5263 18.6777 22.098 18.4403 22.5197 18.0186C22.9414 17.5969 23.1788 17.0252 23.1799 16.4288V16.005C23.1799 15.8061 23.1009 15.6154 22.9603 15.4747C22.8196 15.3341 22.6288 15.255 22.4299 15.255ZM4.46368 6.44629C4.46368 6.34683 4.50319 6.25145 4.57352 6.18112C4.64384 6.1108 4.73923 6.07129 4.83868 6.07129H20.1462C20.2456 6.07129 20.341 6.1108 20.4113 6.18112C20.4817 6.25145 20.5212 6.34683 20.5212 6.44629V15.255H4.46368V6.44629ZM14.9412 16.005L14.5512 16.7813H10.4337L10.0437 16.005H14.9412ZM22.4299 16.4288C22.4294 16.8265 22.2712 17.2077 21.99 17.4889C21.7088 17.7701 21.3276 17.9283 20.9299 17.9288H4.05493C3.65726 17.9283 3.27602 17.7701 2.99482 17.4889C2.71362 17.2077 2.55543 16.8265 2.55493 16.4288V16.005H9.20368L9.86368 17.325C9.89513 17.3875 9.94339 17.4398 10.003 17.4763C10.0627 17.5127 10.1313 17.5318 10.2012 17.5313H14.7837C14.8536 17.5318 14.9222 17.5127 14.9818 17.4763C15.0415 17.4398 15.0897 17.3875 15.1212 17.325L15.7812 16.005H22.4299V16.4288Z" fill="#5D2EDE"/>
<path d="M16.6925 9.90755H15.5525L13.7375 7.1888C13.7115 7.1449 13.6769 7.10676 13.6357 7.0767C13.5945 7.04664 13.5476 7.0253 13.4979 7.01399C13.4482 7.00267 13.3966 7.00162 13.3465 7.01089C13.2963 7.02016 13.2486 7.03956 13.2062 7.06791C13.1638 7.09626 13.1277 7.13295 13.0999 7.17575C13.0722 7.21855 13.0535 7.26656 13.045 7.31684C13.0364 7.36711 13.0382 7.4186 13.0503 7.46816C13.0623 7.51771 13.0843 7.56429 13.115 7.60505L14.6487 9.90755H10.3362L11.87 7.60505C11.9006 7.56429 11.9227 7.51771 11.9347 7.46816C11.9467 7.4186 11.9485 7.36711 11.94 7.31684C11.9315 7.26656 11.9127 7.21855 11.885 7.17575C11.8573 7.13295 11.8211 7.09626 11.7787 7.06791C11.7363 7.03956 11.6886 7.02016 11.6385 7.01089C11.5883 7.00162 11.5368 7.00267 11.4871 7.01399C11.4374 7.0253 11.3905 7.04664 11.3493 7.0767C11.3081 7.10676 11.2734 7.1449 11.2475 7.1888L9.43248 9.90755H8.29248C8.19302 9.90755 8.09764 9.94706 8.02732 10.0174C7.95699 10.0877 7.91748 10.1831 7.91748 10.2826C7.91748 10.382 7.95699 10.4774 8.02732 10.5477C8.09764 10.618 8.19302 10.6576 8.29248 10.6576H8.58498L9.07248 13.4401C9.1113 13.7207 9.24818 13.9786 9.45889 14.168C9.66959 14.3574 9.94053 14.4662 10.2237 14.475H14.7612C15.0444 14.4662 15.3154 14.3574 15.5261 14.168C15.7368 13.9786 15.8737 13.7207 15.9125 13.4401L16.4 10.6576H16.6925C16.7919 10.6576 16.8873 10.618 16.9576 10.5477C17.028 10.4774 17.0675 10.382 17.0675 10.2826C17.0675 10.1831 17.028 10.0877 16.9576 10.0174C16.8873 9.94706 16.7919 9.90755 16.6925 9.90755ZM15.1737 13.3125C15.1643 13.4188 15.1178 13.5183 15.0424 13.5937C14.967 13.6691 14.8675 13.7156 14.7612 13.725H10.2237C10.1175 13.7156 10.018 13.6691 9.94257 13.5937C9.86716 13.5183 9.82067 13.4188 9.81123 13.3125L9.34623 10.6576H15.6387L15.1737 13.3125Z" fill="#5D2EDE"/>
<path d="M12.4924 13.3299C12.5919 13.3299 12.6873 13.2904 12.7576 13.22C12.8279 13.1497 12.8674 13.0543 12.8674 12.9549V11.4275C12.8674 11.328 12.8279 11.2327 12.7576 11.1623C12.6873 11.092 12.5919 11.0525 12.4924 11.0525C12.393 11.0525 12.2976 11.092 12.2273 11.1623C12.1569 11.2327 12.1174 11.328 12.1174 11.4275V12.9549C12.1174 13.0543 12.1569 13.1497 12.2273 13.22C12.2976 13.2904 12.393 13.3299 12.4924 13.3299Z" fill="#5D2EDE"/>
<path d="M10.9646 13.3299C11.0641 13.3299 11.1594 13.2904 11.2298 13.22C11.3001 13.1497 11.3396 13.0543 11.3396 12.9549V11.4275C11.3396 11.328 11.3001 11.2327 11.2298 11.1623C11.1594 11.092 11.0641 11.0525 10.9646 11.0525C10.8651 11.0525 10.7698 11.092 10.6994 11.1623C10.6291 11.2327 10.5896 11.328 10.5896 11.4275V12.9549C10.5896 13.0543 10.6291 13.1497 10.6994 13.22C10.7698 13.2904 10.8651 13.3299 10.9646 13.3299Z" fill="#5D2EDE"/>
<path d="M14.0203 13.3299C14.1197 13.3299 14.2151 13.2904 14.2854 13.22C14.3558 13.1497 14.3953 13.0543 14.3953 12.9549V11.4275C14.3953 11.328 14.3558 11.2327 14.2854 11.1623C14.2151 11.092 14.1197 11.0525 14.0203 11.0525C13.9208 11.0525 13.8254 11.092 13.7551 11.1623C13.6848 11.2327 13.6453 11.328 13.6453 11.4275V12.9549C13.6453 13.0543 13.6848 13.1497 13.7551 13.22C13.8254 13.2904 13.9208 13.3299 14.0203 13.3299Z" fill="#5D2EDE"/>
</svg>
