<svg width="25" height="24" viewBox="0 0 25 24" fill="none" xmlns="http://www.w3.org/2000/svg">
<path d="M18.2525 12.7705V15.3549C18.2525 16.6372 17.7431 17.8669 16.8364 18.7736C15.9297 19.6803 14.7 20.1897 13.4178 20.1897C12.1355 20.1897 10.9058 19.6803 9.99909 18.7736C9.0924 17.8669 8.58303 16.6372 8.58303 15.3549V14.7865C7.50875 14.619 6.52965 14.0733 5.82231 13.2476C5.11496 12.4219 4.72592 11.3706 4.72534 10.2833V6.63155C4.7255 6.27835 4.81371 5.93076 4.98199 5.62022C5.15027 5.30969 5.39331 5.046 5.68913 4.85302C5.71016 4.51424 5.84363 4.19216 6.06842 3.93781C6.2932 3.68347 6.59643 3.51141 6.93006 3.4489C7.2637 3.38639 7.60865 3.43701 7.91026 3.59272C8.21187 3.74844 8.45289 4.00035 8.59514 4.30855C8.73738 4.61674 8.77271 4.96359 8.69553 5.29414C8.61834 5.62469 8.43306 5.92002 8.16904 6.13335C7.90502 6.34668 7.57736 6.46581 7.23797 6.47185C6.89859 6.47789 6.5669 6.3705 6.29545 6.16671C6.18554 6.29668 6.12513 6.46133 6.12492 6.63155V10.2821C6.12492 11.1196 6.45763 11.9228 7.04985 12.515C7.64207 13.1073 8.44529 13.44 9.28282 13.44C10.1203 13.44 10.9236 13.1073 11.5158 12.515C12.108 11.9228 12.4407 11.1196 12.4407 10.2821V6.63155C12.4408 6.48007 12.393 6.33243 12.3043 6.20965C12.0227 6.39936 11.6858 6.48971 11.3471 6.46641C11.0083 6.4431 10.687 6.30748 10.434 6.081C10.181 5.85452 10.0108 5.55013 9.95032 5.21602C9.88981 4.8819 9.94248 4.53715 10.1 4.23633C10.2575 3.93552 10.5108 3.69583 10.8199 3.55521C11.1289 3.41459 11.4761 3.38108 11.8063 3.45998C12.1366 3.53887 12.4311 3.72567 12.6432 3.9908C12.8554 4.25593 12.973 4.58424 12.9776 4.92376C13.245 5.12105 13.4623 5.37836 13.6122 5.67497C13.762 5.97159 13.8402 6.29923 13.8403 6.63155V10.2821C13.8397 11.3693 13.4507 12.4206 12.7433 13.2463C12.036 14.072 11.0569 14.6178 9.9826 14.7852V15.3537C9.9826 16.2645 10.3445 17.1381 10.9886 17.7822C11.6327 18.4263 12.5062 18.7882 13.4171 18.7882C14.328 18.7882 15.2016 18.4263 15.8457 17.7822C16.4898 17.1381 16.8517 16.2645 16.8517 15.3537V12.7705C16.2168 12.6007 15.6654 12.2059 15.3001 11.6596C14.9349 11.1133 14.7807 10.4529 14.8663 9.80135C14.952 9.14982 15.2716 8.55165 15.7656 8.11831C16.2596 7.68498 16.8943 7.44605 17.5514 7.44605C18.2086 7.44605 18.8433 7.68498 19.3373 8.11831C19.8313 8.55165 20.1509 9.14982 20.2366 9.80135C20.3222 10.4529 20.168 11.1133 19.8027 11.6596C19.4375 12.2059 18.8861 12.6007 18.2512 12.7705H18.2525ZM18.8588 10.1558C18.8588 9.89719 18.7821 9.64442 18.6385 9.42942C18.4948 9.21443 18.2906 9.04686 18.0518 8.94791C17.8129 8.84896 17.55 8.82307 17.2964 8.87351C17.0428 8.92396 16.8098 9.04847 16.627 9.23131C16.4442 9.41415 16.3196 9.6471 16.2692 9.9007C16.2188 10.1543 16.2446 10.4172 16.3436 10.6561C16.4425 10.895 16.6101 11.0991 16.8251 11.2428C17.0401 11.3865 17.2929 11.4631 17.5514 11.4631C17.8982 11.4628 18.2307 11.325 18.476 11.0799C18.7213 10.8348 18.8594 10.5025 18.8601 10.1558H18.8588Z" fill="#5D2EDE"/>
</svg>
