<svg width="25" height="24" viewBox="0 0 25 24" fill="none" xmlns="http://www.w3.org/2000/svg">
<g clip-path="url(#clip0_9_634)">
<path d="M8.18546 4.47277C8.18546 4.47277 7.2758 5.03238 7.2758 6.14975V11.7346C7.2758 11.7346 7.2758 12.8537 6.36613 12.2942C5.45646 11.7347 5.45646 10.6173 5.45646 10.6173V5.03248C5.45646 4.96271 5.45972 4.89477 5.46624 4.82847C5.56606 3.84543 6.3645 3.35386 6.3645 3.35386L4.54689 2.23638C4.54689 2.23638 4.54526 2.23638 4.54363 2.23812C4.48965 2.27122 3.63723 2.83083 3.63723 3.91326V9.4981C3.63723 9.4981 3.63723 10.6172 2.72746 10.0577C1.8178 9.4982 1.8178 8.38082 1.8178 8.38082V2.79599C1.8178 1.67862 2.72746 1.11911 2.72746 1.11911L0.909666 0C0.909666 0 0 0.559505 0 1.67688V7.26171C0 7.26171 0 10.6172 2.72737 12.2941C3.56349 12.8083 4.14264 12.8484 4.54517 12.6584C4.9476 13.3434 5.52684 14.0163 6.36287 14.5305C9.09024 16.2074 9.09024 12.8536 9.09024 12.8536V7.26876C9.09024 6.14965 10 5.59188 10 5.59188C9.7203 5.21717 9.47167 4.9626 9.25401 4.82837C9.06847 4.71396 8.71226 4.59536 8.18546 4.47277Z" fill="#5D2EDE"/>
<path d="M17.9344 13.8637C17.9344 10.6616 20.5343 12.2424 20.5343 12.2424L24 14.4046V16.567L20.5343 14.4046C20.5343 14.4046 20.5234 14.3978 20.5041 14.3872L20.4926 14.3812C20.3195 14.2897 19.6672 14.0075 19.6672 14.9473C19.6672 16.0276 20.5343 16.5686 20.5343 16.5686L22.2672 17.6489C22.2672 17.6489 24 18.7309 24 21.9734C24 25.216 21.4 23.5946 21.4 23.5946L17.9344 21.4324V19.2701L21.4016 21.4324C21.4016 21.4324 22.2688 21.9734 22.2688 20.8914C22.2688 19.8111 21.4016 19.2701 21.4016 19.2701L20.5343 18.7292C20.4826 18.6957 17.9344 17.0337 17.9344 13.8637ZM15.3344 9C15.8526 9.0643 16.2039 9.15408 16.3883 9.26924C16.589 9.39448 16.8152 9.6654 17.0672 10.0819C17.0672 10.0819 16.2 10.623 16.2 11.7032L16.1999 17.1115C16.1976 17.2932 16.122 20.2968 13.6 18.7243C11.0781 17.1516 11.0023 14.0519 11.0001 13.8673L11 13.8587L12.7328 14.9407V14.9443C12.7337 15.0129 12.762 16.0392 13.6 16.5619C14.4406 17.0864 14.4664 16.0857 14.4671 16.0239V10.6213C14.4671 9.54096 15.3344 9 15.3344 9ZM11.0031 9.55271L12.7359 10.633V12.7953L11.0031 11.715V9.55271Z" fill="#5D2EDE"/>
<path d="M20.5222 4.11644C19.6979 3.57346 18.959 3.30918 18.3295 3.20284C18.1653 2.79373 17.7628 2.31301 16.9449 1.78101C14.2611 0.0344653 11.579 1.76273 11.579 1.76273L8 4.11633L9.78872 5.29237L13.366 2.93856C13.366 2.93856 14.2611 2.34957 15.1547 2.93856C16.0498 3.52744 15.1547 4.11633 15.1547 4.11633L11.5774 6.47014L13.366 7.64619L16.9465 5.29044C16.9997 5.25571 17.8658 4.72177 18.732 5.29237C19.6271 5.88126 18.732 6.46831 18.732 6.46831L15.1547 8.82223L16.9433 10L21.4158 7.0572C21.4158 7.0572 23.2044 5.88126 20.5223 4.11633" fill="#5D2EDE"/>
</g>
<defs>
<clipPath id="clip0_9_634">
<rect width="24" height="24" fill="white" transform="translate(0.492432)"/>
</clipPath>
</defs>
</svg>
