<svg width="24" height="25" viewBox="0 0 24 25" fill="none" xmlns="http://www.w3.org/2000/svg">
<path d="M15.0075 13.6306C15.0075 13.6969 15.0338 13.7604 15.0807 13.8073C15.1276 13.8541 15.1911 13.8805 15.2574 13.8805H15.623C15.8982 13.8802 16.162 13.7708 16.3566 13.5762C16.5511 13.3816 16.6606 13.1178 16.6608 12.8426V12.6884C16.8544 12.6343 17.025 12.5185 17.1467 12.3586C17.2685 12.1987 17.3347 12.0035 17.3353 11.8025V9.98374C17.3351 9.73866 17.2376 9.50368 17.0643 9.33038C16.891 9.15708 16.656 9.05961 16.411 9.05937H16.3364V7.46796L17.1019 5.14671C17.1145 5.10918 17.118 5.06918 17.112 5.03005C17.1061 4.99091 17.0909 4.95375 17.0677 4.92167C17.0445 4.88959 17.014 4.8635 16.9787 4.84557C16.9434 4.82764 16.9043 4.81839 16.8647 4.81858H14.1314C14.0652 4.81858 14.0016 4.84491 13.9548 4.89176C13.9079 4.93862 13.8816 5.00216 13.8816 5.06843V6.49952H13.0749C13.3003 6.24292 13.4251 5.9134 13.4264 5.57186C13.4197 5.19773 13.2663 4.8412 12.9993 4.57901C12.7323 4.31682 12.3731 4.16992 11.9989 4.16992C11.6247 4.16992 11.2654 4.31682 10.9984 4.57901C10.7314 4.8412 10.5781 5.19773 10.5713 5.57186C10.5726 5.9134 10.6974 6.24292 10.9228 6.49952H10.1199V5.06843C10.1199 5.0356 10.1135 5.00308 10.101 4.97274C10.0884 4.9424 10.07 4.91484 10.0468 4.89162C10.0236 4.86841 9.99605 4.85001 9.96571 4.83748C9.93537 4.82494 9.90285 4.81852 9.87002 4.81858H7.13627C7.09669 4.81839 7.05762 4.82764 7.02233 4.84557C6.98703 4.8635 6.95652 4.88959 6.93333 4.92167C6.91013 4.95375 6.89493 4.99091 6.88898 5.03005C6.88302 5.06918 6.88649 5.10918 6.89909 5.14671L7.66502 7.46796V9.05937H7.59002C7.34494 9.05961 7.10997 9.15708 6.93667 9.33038C6.76337 9.50368 6.6659 9.73866 6.66565 9.98374V11.8025C6.6663 12.0035 6.73252 12.1987 6.85427 12.3586C6.97601 12.5185 7.14662 12.6343 7.34018 12.6884V12.8426C7.34043 13.1179 7.44991 13.3818 7.64459 13.5764C7.83926 13.771 8.10321 13.8803 8.37846 13.8805H8.74362C8.80988 13.8805 8.87343 13.8541 8.92028 13.8073C8.96714 13.7604 8.99346 13.6969 8.99346 13.6306V9.37811L9.62018 8.3314V14.4936C9.30584 14.5486 9.02088 14.7125 8.8152 14.9564C8.60952 15.2004 8.49623 15.509 8.49518 15.8281V18.2455C8.03932 18.3486 7.632 18.6035 7.33998 18.9684C7.04795 19.3334 6.88853 19.7867 6.88784 20.2541C6.88796 20.3204 6.91439 20.3839 6.96132 20.4307C7.00825 20.4776 7.07184 20.5039 7.13815 20.5039H11.1422C11.2085 20.5039 11.272 20.4776 11.3189 20.4307C11.3657 20.3839 11.3921 20.3203 11.3921 20.2541V12.297H12.6108V20.2541C12.6108 20.3203 12.6371 20.3839 12.684 20.4307C12.7308 20.4776 12.7944 20.5039 12.8606 20.5039H16.8647C16.931 20.5039 16.9946 20.4776 17.0415 20.4307C17.0885 20.3839 17.1149 20.3204 17.115 20.2541C17.1143 19.7867 16.9549 19.3334 16.6629 18.9684C16.3709 18.6035 15.9635 18.3486 15.5077 18.2455V15.8281C15.5065 15.5091 15.3932 15.2006 15.1875 14.9567C14.9818 14.7128 14.6969 14.5491 14.3827 14.4941V12.0472C14.3827 12.0401 14.3794 12.0345 14.3789 12.0275V8.32436L15.0089 9.37718V13.6297L15.0075 13.6306ZM16.1611 12.8426C16.161 12.9853 16.1043 13.1221 16.0034 13.223C15.9025 13.3239 15.7657 13.3806 15.623 13.3808H15.5077V12.7273H16.1611V12.8426ZM16.8356 9.98327V11.802C16.8356 11.9147 16.7909 12.0227 16.7113 12.1023C16.6316 12.182 16.5236 12.2267 16.411 12.2267H15.5077V9.55858H16.411C16.5236 9.55871 16.6317 9.60356 16.7113 9.68327C16.7909 9.76299 16.8356 9.87106 16.8356 9.98374V9.98327ZM14.3813 5.3178H16.5192L15.9056 7.1778H14.3813V5.3178ZM11.071 5.57421C11.0705 5.39072 11.1245 5.21121 11.226 5.05839C11.3276 4.90557 11.4722 4.7863 11.6416 4.71568C11.8109 4.64505 11.9974 4.62624 12.1775 4.66161C12.3575 4.69699 12.523 4.78497 12.6531 4.91442C12.7831 5.04388 12.8718 5.20899 12.908 5.38888C12.9442 5.56877 12.9263 5.75535 12.8564 5.92502C12.7866 6.0947 12.668 6.23985 12.5156 6.34211C12.3632 6.44437 12.184 6.49915 12.0005 6.49952C11.7546 6.49977 11.5187 6.4025 11.3444 6.22903C11.1702 6.05557 11.0718 5.82008 11.071 5.57421ZM13.8778 7.00202V11.7969H10.1199V6.99968L13.8778 7.00202ZM9.62018 5.32061V7.18061H8.09581L7.48174 5.32061H9.62018ZM7.16534 11.8025V9.98374C7.16546 9.87114 7.21024 9.76319 7.28986 9.68358C7.36948 9.60396 7.47743 9.55918 7.59002 9.55905H8.49331V12.2272H7.59002C7.47739 12.2272 7.36937 12.1824 7.28973 12.1028C7.21008 12.0231 7.16534 11.9151 7.16534 11.8025ZM8.49331 13.3808H8.37846C8.23574 13.3806 8.09889 13.3239 7.99792 13.223C7.89696 13.1222 7.84012 12.9854 7.83987 12.8426V12.7273H8.49331V13.3808ZM8.60206 9.05937H8.16518V7.67796H9.43081L8.60206 9.05937ZM8.99346 15.8281C8.99371 15.6007 9.08417 15.3826 9.24498 15.2218C9.4058 15.061 9.62384 14.9706 9.85127 14.9703H10.8905V18.1911H8.99346V15.8281ZM10.8905 20.0037H7.40674C7.46691 19.6377 7.65502 19.3048 7.93761 19.0645C8.22019 18.8241 8.5789 18.6919 8.94987 18.6912H10.8914L10.8905 20.0037ZM10.8905 14.4725H10.1199V12.297H10.8905V14.4725ZM13.8816 12.2989V14.4725H13.1105V12.297L13.8816 12.2989ZM16.5942 20.0037H13.1105V18.6912H15.0525C15.4233 18.6921 15.7817 18.8245 16.064 19.0648C16.3463 19.3052 16.5342 19.6379 16.5942 20.0037ZM15.0066 15.8281V18.1911H13.1105V14.9703H14.1497C14.3771 14.9706 14.5952 15.061 14.756 15.2218C14.9168 15.3826 15.0073 15.6007 15.0075 15.8281H15.0066ZM15.8353 7.67796V9.05937H15.3989L14.5725 7.67796H15.8353Z" fill="#5D2EDE"/>
<path d="M10.9768 9.23052H13.0126C13.0788 9.23052 13.1424 9.20419 13.1892 9.15734C13.2361 9.11049 13.2624 9.04694 13.2624 8.98067V7.97567C13.2624 7.90941 13.2361 7.84586 13.1892 7.79901C13.1424 7.75215 13.0788 7.72583 13.0126 7.72583H10.9768C10.9105 7.72583 10.847 7.75215 10.8001 7.79901C10.7533 7.84586 10.7269 7.90941 10.7269 7.97567V8.98021C10.7269 9.01305 10.7333 9.04559 10.7458 9.07596C10.7583 9.10633 10.7767 9.13392 10.7999 9.15717C10.8231 9.18042 10.8507 9.19887 10.8811 9.21145C10.9114 9.22404 10.9439 9.23052 10.9768 9.23052ZM11.2271 8.22599H12.7622V8.73083H11.2271V8.22599Z" fill="#5D2EDE"/>
</svg>
