<?xml version="1.0" encoding="UTF-8"?>
<!DOCTYPE svg PUBLIC "-//W3C//DTD SVG 1.1//EN" "http://www.w3.org/Graphics/SVG/1.1/DTD/svg11.dtd">
<svg xmlns="http://www.w3.org/2000/svg" version="1.1" width="512px" height="512px" style="shape-rendering:geometricPrecision; text-rendering:geometricPrecision; image-rendering:optimizeQuality; fill-rule:evenodd; clip-rule:evenodd" xmlns:xlink="http://www.w3.org/1999/xlink">
<g><path style="opacity:0.922" fill="#000000" d="M 323.5,27.5 C 357.573,25.2068 390.907,29.0401 423.5,39C 441.074,44.5196 455.574,54.353 467,68.5C 469.354,72.203 470.854,76.203 471.5,80.5C 491.404,83.9036 503.237,95.5702 507,115.5C 507.667,203.833 507.667,292.167 507,380.5C 503.121,399.103 491.954,410.603 473.5,415C 417.167,415.333 360.833,415.667 304.5,416C 295.54,434.326 295.207,452.826 303.5,471.5C 312.173,471.334 320.84,471.5 329.5,472C 332.068,473.127 333.402,475.127 333.5,478C 333.516,480.305 332.516,481.972 330.5,483C 280.5,483.667 230.5,483.667 180.5,483C 177.175,480.365 176.675,477.198 179,473.5C 179.75,472.874 180.584,472.374 181.5,472C 190.16,471.5 198.827,471.334 207.5,471.5C 210.995,462.682 212.995,453.516 213.5,444C 213.512,434.05 211.179,424.716 206.5,416C 150.167,415.667 93.8333,415.333 37.5,415C 18.595,411.03 7.42836,399.53 4,380.5C 3.33333,292.167 3.33333,203.833 4,115.5C 7.82434,95.6757 19.6577,83.8423 39.5,80C 99.4991,79.5 159.499,79.3333 219.5,79.5C 222.398,68.8905 228.398,60.3905 237.5,54C 256.11,42.0153 276.443,34.3487 298.5,31C 306.968,29.7353 315.301,28.5687 323.5,27.5 Z M 327.5,39.5 C 360.002,37.5209 391.669,41.6876 422.5,52C 434.049,56.0184 444.216,62.1851 453,70.5C 461.16,79.9267 461.494,89.5934 454,99.5C 441.114,111.696 425.948,119.863 408.5,124C 361.776,136.021 315.443,134.688 269.5,120C 255.861,115.609 244.361,108.109 235,97.5C 228.895,88.9145 229.229,80.5812 236,72.5C 244.205,63.644 254.039,57.144 265.5,53C 285.68,45.6173 306.347,41.1173 327.5,39.5 Z M 38.5,92.5 C 98.5,92.5 158.5,92.5 218.5,92.5C 218.333,135.168 218.5,177.835 219,220.5C 223.445,233.955 231.945,244.121 244.5,251C 276.11,266.657 309.61,274.157 345,273.5C 379.914,274.145 413.081,266.978 444.5,252C 452.773,247.114 459.939,240.948 466,233.5C 468.973,228.921 470.973,223.921 472,218.5C 472.5,176.835 472.667,135.168 472.5,93.5C 485.827,97.0009 493.327,105.668 495,119.5C 495.667,204.833 495.667,290.167 495,375.5C 493.155,390.389 484.988,399.556 470.5,403C 327.167,403.667 183.833,403.667 40.5,403C 25.6663,399.83 17.4997,390.664 16,375.5C 15.3333,290.167 15.3333,204.833 16,119.5C 17.9368,105.74 25.4368,96.74 38.5,92.5 Z M 230.5,112.5 C 253.009,129.068 278.342,138.902 306.5,142C 348.849,147.974 390.182,143.974 430.5,130C 441.087,125.797 450.587,119.964 459,112.5C 459.667,126.5 459.667,140.5 459,154.5C 457.69,159.124 455.356,163.124 452,166.5C 436.384,179.272 418.551,187.438 398.5,191C 353.393,200.415 309.06,197.748 265.5,183C 254.039,178.856 244.205,172.356 236,163.5C 233.522,160.211 231.856,156.544 231,152.5C 230.5,139.171 230.333,125.837 230.5,112.5 Z M 230.5,176.5 C 243.962,187.732 259.295,195.566 276.5,200C 319.673,210.542 363.007,211.208 406.5,202C 426.232,197.883 443.732,189.383 459,176.5C 469.774,212.118 457.941,235.952 423.5,248C 391.054,259.112 357.721,263.112 323.5,260C 295.055,258.643 268.722,250.643 244.5,236C 237.59,231.103 233.09,224.603 231,216.5C 230.5,203.171 230.333,189.837 230.5,176.5 Z M 220.5,415.5 C 243.843,415.167 267.176,415.5 290.5,416.5C 283.876,434.703 283.876,452.87 290.5,471C 267.167,471.667 243.833,471.667 220.5,471C 227.126,452.531 227.126,434.031 220.5,415.5 Z"/></g>
<g><path style="opacity:0.91" fill="#000000" d="M 50.5,135.5 C 64.1707,135.333 77.8374,135.5 91.5,136C 95.5,139.667 95.5,143.333 91.5,147C 77.8333,147.667 64.1667,147.667 50.5,147C 46.5808,143.173 46.5808,139.339 50.5,135.5 Z"/></g>
<g><path style="opacity:0.929" fill="#000000" d="M 120.5,135.5 C 144.169,135.333 167.836,135.5 191.5,136C 195.487,139.62 195.487,143.287 191.5,147C 167.833,147.667 144.167,147.667 120.5,147C 116.567,143.124 116.567,139.29 120.5,135.5 Z"/></g>
<g><path style="opacity:0.895" fill="#000000" d="M 134.5,180.5 C 139.658,179.331 142.658,181.331 143.5,186.5C 136.823,212.21 129.989,237.877 123,263.5C 120.512,268.798 116.845,269.798 112,266.5C 111.219,265.271 110.719,263.938 110.5,262.5C 117.177,236.79 124.011,211.123 131,185.5C 131.257,183.093 132.424,181.427 134.5,180.5 Z"/></g>
<g><path style="opacity:0.889" fill="#000000" d="M 89.5,185.5 C 95.773,185.386 98.273,188.386 97,194.5C 85.7504,205.087 73.9171,214.921 61.5,224C 73,233.5 84.5,243 96,252.5C 98.9572,258.221 97.2906,261.888 91,263.5C 75.3056,252.471 60.3056,240.471 46,227.5C 45.289,225.101 45.4557,222.768 46.5,220.5C 60.5869,208.401 74.9202,196.735 89.5,185.5 Z"/></g>
<g><path style="opacity:0.89" fill="#000000" d="M 161.5,185.5 C 164.516,185.841 167.182,187.007 169.5,189C 182.021,199.689 194.688,210.189 207.5,220.5C 208.544,222.768 208.711,225.101 208,227.5C 193.694,240.471 178.694,252.471 163,263.5C 156.709,261.888 155.043,258.221 158,252.5C 169.338,243.325 180.504,233.992 191.5,224.5C 180.207,214.843 168.874,205.177 157.5,195.5C 155.577,190.697 156.91,187.364 161.5,185.5 Z"/></g>
<g><path style="opacity:0.873" fill="#000000" d="M 52.5,305.5 C 84.5017,305.333 116.502,305.5 148.5,306C 152.292,308.053 153.458,311.219 152,315.5C 150.829,316.893 149.329,317.727 147.5,318C 115.833,318.667 84.1667,318.667 52.5,318C 45.9387,313.845 45.9387,309.678 52.5,305.5 Z"/></g>
<g><path style="opacity:0.868" fill="#000000" d="M 177.5,305.5 C 189.838,305.333 202.171,305.5 214.5,306C 221.167,310 221.167,314 214.5,318C 202.167,318.667 189.833,318.667 177.5,318C 171.069,313.9 171.069,309.734 177.5,305.5 Z"/></g>
<g><path style="opacity:0.862" fill="#000000" d="M 272.5,305.5 C 285.171,305.333 297.838,305.5 310.5,306C 314.292,308.053 315.458,311.219 314,315.5C 312.829,316.893 311.329,317.727 309.5,318C 297.5,318.667 285.5,318.667 273.5,318C 267.32,314.161 266.986,309.995 272.5,305.5 Z"/></g>
<g><path style="opacity:0.872" fill="#000000" d="M 339.5,305.5 C 380.168,305.333 420.835,305.5 461.5,306C 467.086,310.421 466.753,314.421 460.5,318C 420.167,318.667 379.833,318.667 339.5,318C 335.708,315.947 334.542,312.781 336,308.5C 337.145,307.364 338.312,306.364 339.5,305.5 Z"/></g>
<g><path style="opacity:0.932" fill="#000000" d="M 51.5,347.5 C 75.169,347.333 98.8357,347.5 122.5,348C 127.028,350.824 127.695,354.49 124.5,359C 99.8333,359.667 75.1667,359.667 50.5,359C 46.6387,354.767 46.972,350.933 51.5,347.5 Z"/></g>
<g><path style="opacity:0.942" fill="#000000" d="M 153.5,347.5 C 209.168,347.333 264.834,347.5 320.5,348C 325.285,351.26 325.619,354.927 321.5,359C 265.167,359.667 208.833,359.667 152.5,359C 148.434,354.819 148.767,350.986 153.5,347.5 Z"/></g>
<g><path style="opacity:0.916" fill="#000000" d="M 358.5,347.5 C 369.838,347.333 381.172,347.5 392.5,348C 397.371,351.178 397.704,354.845 393.5,359C 381.5,359.667 369.5,359.667 357.5,359C 353.434,354.819 353.767,350.986 358.5,347.5 Z"/></g>
<g><path style="opacity:0.92" fill="#000000" d="M 427.5,347.5 C 438.838,347.333 450.172,347.5 461.5,348C 466.028,350.824 466.695,354.49 463.5,359C 451.167,359.667 438.833,359.667 426.5,359C 422.972,355 423.305,351.166 427.5,347.5 Z"/></g>
</svg>
