<?xml version="1.0" encoding="UTF-8"?>
<!DOCTYPE svg PUBLIC "-//W3C//DTD SVG 1.1//EN" "http://www.w3.org/Graphics/SVG/1.1/DTD/svg11.dtd">
<svg xmlns="http://www.w3.org/2000/svg" version="1.1" width="512px" height="512px" style="shape-rendering:geometricPrecision; text-rendering:geometricPrecision; image-rendering:optimizeQuality; fill-rule:evenodd; clip-rule:evenodd" xmlns:xlink="http://www.w3.org/1999/xlink">
<g><path style="opacity:0.933" fill="#000000" d="M 113.5,-0.5 C 208.167,-0.5 302.833,-0.5 397.5,-0.5C 412.674,3.84599 421.84,13.846 425,29.5C 425.667,180.167 425.667,330.833 425,481.5C 421.84,497.154 412.674,507.154 397.5,511.5C 302.833,511.5 208.167,511.5 113.5,511.5C 97.8766,507.036 88.71,496.703 86,480.5C 85.3333,330.5 85.3333,180.5 86,30.5C 88.71,14.2974 97.8766,3.96404 113.5,-0.5 Z M 115.5,14.5 C 208.834,14.3333 302.167,14.5 395.5,15C 403.218,17.919 408.051,23.419 410,31.5C 410.5,50.1637 410.667,68.8304 410.5,87.5C 307.167,87.5 203.833,87.5 100.5,87.5C 100.333,68.8304 100.5,50.1637 101,31.5C 103.059,23.3334 107.892,17.6667 115.5,14.5 Z M 100.5,102.5 C 203.833,102.5 307.167,102.5 410.5,102.5C 410.5,204.5 410.5,306.5 410.5,408.5C 307.167,408.5 203.833,408.5 100.5,408.5C 100.5,306.5 100.5,204.5 100.5,102.5 Z M 221.5,136.5 C 244.167,136.5 266.833,136.5 289.5,136.5C 289.043,148.268 289.543,159.935 291,171.5C 297.794,175.729 304.794,179.395 312,182.5C 320.12,179.021 327.953,174.855 335.5,170C 337.402,168.699 339.402,168.032 341.5,168C 353.012,186.689 364.012,205.689 374.5,225C 366.197,230.823 357.53,236.157 348.5,241C 346.98,242.885 345.98,245.051 345.5,247.5C 346.833,252.833 346.833,258.167 345.5,263.5C 346.154,265.115 346.654,266.782 347,268.5C 355.584,274.21 364.418,279.544 373.5,284.5C 374.314,286.952 373.814,289.285 372,291.5C 361.667,309.167 351.333,326.833 341,344.5C 331.801,337.984 321.967,332.651 311.5,328.5C 310.5,328.667 309.5,328.833 308.5,329C 303.168,333.001 297.502,336.501 291.5,339.5C 291.192,340.308 290.692,340.975 290,341.5C 289.5,352.495 289.333,363.495 289.5,374.5C 266.833,374.5 244.167,374.5 221.5,374.5C 221.667,363.495 221.5,352.495 221,341.5C 219.833,340.333 218.667,339.167 217.5,338C 211.509,334.421 205.342,331.255 199,328.5C 197.112,328.796 195.278,329.296 193.5,330C 185.732,334.633 177.899,339.133 170,343.5C 158.208,324.756 147.041,305.589 136.5,286C 145.553,280.053 154.719,274.22 164,268.5C 164.667,259.833 164.667,251.167 164,242.5C 154.719,236.78 145.553,230.947 136.5,225C 147.041,205.411 158.208,186.244 170,167.5C 179.397,173.032 189.063,178.032 199,182.5C 207.099,179.388 214.432,175.054 221,169.5C 221.5,158.505 221.667,147.505 221.5,136.5 Z M 247.5,194.5 C 285.213,193.72 308.046,211.72 316,248.5C 316.899,285.271 299.399,307.771 263.5,316C 226.158,317.314 203.324,299.814 195,263.5C 193.883,226.139 211.383,203.139 247.5,194.5 Z M 100.5,423.5 C 203.833,423.5 307.167,423.5 410.5,423.5C 410.667,442.17 410.5,460.836 410,479.5C 408.451,486.379 404.618,491.546 398.5,495C 350.891,496.16 303.224,496.66 255.5,496.5C 207.776,496.66 160.109,496.16 112.5,495C 106.382,491.546 102.549,486.379 101,479.5C 100.5,460.836 100.333,442.17 100.5,423.5 Z"/></g>
<g><path style="opacity:0.914" fill="#000000" d="M 211.5,43.5 C 228.17,43.3334 244.837,43.5001 261.5,44C 268.167,48.6667 268.167,53.3333 261.5,58C 244.833,58.6667 228.167,58.6667 211.5,58C 208.484,56.4714 207.151,53.9714 207.5,50.5C 207.197,47.1558 208.53,44.8225 211.5,43.5 Z"/></g>
<g><path style="opacity:0.894" fill="#000000" d="M 278.5,43.5 C 285.508,43.3337 292.508,43.5004 299.5,44C 303.212,46.513 304.378,50.013 303,54.5C 302.5,56.3333 301.333,57.5 299.5,58C 292.5,58.6667 285.5,58.6667 278.5,58C 275.419,56.688 273.752,54.3546 273.5,51C 273.818,47.5297 275.484,45.0297 278.5,43.5 Z"/></g>
<g><path style="opacity:0.922" fill="#000000" d="M 218.5,121.5 C 243.169,121.333 267.836,121.5 292.5,122C 298.776,123.942 302.61,128.109 304,134.5C 304.333,143.5 304.667,152.5 305,161.5C 307.024,163.346 309.357,164.679 312,165.5C 319.726,161.721 327.226,157.554 334.5,153C 343.965,149.992 351.132,152.826 356,161.5C 367,180.833 378,200.167 389,219.5C 390.948,226.865 389.115,233.032 383.5,238C 375.423,242.361 367.757,247.194 360.5,252.5C 360.955,255.031 361.288,257.531 361.5,260C 370.596,264.628 379.096,270.128 387,276.5C 389.915,281.988 390.248,287.655 388,293.5C 375.898,314.595 363.398,335.429 350.5,356C 345.768,358.401 340.768,359.068 335.5,358C 327.422,353.879 319.589,349.379 312,344.5C 310.084,346.209 307.918,347.543 305.5,348.5C 304.876,359.197 304.043,369.864 303,380.5C 300.685,384.817 297.185,387.65 292.5,389C 266.771,389.972 241.104,389.639 215.5,388C 211.132,385.774 208.298,382.274 207,377.5C 206.667,368.167 206.333,358.833 206,349.5C 203.651,348.16 201.317,346.826 199,345.5C 190.198,350.151 181.365,354.651 172.5,359C 165.421,359.876 159.921,357.376 156,351.5C 144.065,330.629 132.399,309.629 121,288.5C 120.084,281.495 122.584,275.995 128.5,272C 135.33,268.419 141.997,264.586 148.5,260.5C 149.833,257.167 149.833,253.833 148.5,250.5C 141.295,246.133 133.962,241.967 126.5,238C 120.194,231.666 119.028,224.5 123,216.5C 134.253,197.664 145.253,178.664 156,159.5C 161.047,152.699 167.547,150.533 175.5,153C 182.663,156.747 189.663,160.747 196.5,165C 199.763,165.136 202.763,164.136 205.5,162C 206.32,152.244 206.82,142.41 207,132.5C 209.067,126.901 212.9,123.234 218.5,121.5 Z M 221.5,136.5 C 221.667,147.505 221.5,158.505 221,169.5C 214.432,175.054 207.099,179.388 199,182.5C 189.063,178.032 179.397,173.032 170,167.5C 158.208,186.244 147.041,205.411 136.5,225C 145.553,230.947 154.719,236.78 164,242.5C 164.667,251.167 164.667,259.833 164,268.5C 154.719,274.22 145.553,280.053 136.5,286C 147.041,305.589 158.208,324.756 170,343.5C 177.899,339.133 185.732,334.633 193.5,330C 195.278,329.296 197.112,328.796 199,328.5C 205.342,331.255 211.509,334.421 217.5,338C 218.667,339.167 219.833,340.333 221,341.5C 221.5,352.495 221.667,363.495 221.5,374.5C 244.167,374.5 266.833,374.5 289.5,374.5C 289.333,363.495 289.5,352.495 290,341.5C 290.692,340.975 291.192,340.308 291.5,339.5C 297.502,336.501 303.168,333.001 308.5,329C 309.5,328.833 310.5,328.667 311.5,328.5C 321.967,332.651 331.801,337.984 341,344.5C 351.333,326.833 361.667,309.167 372,291.5C 373.814,289.285 374.314,286.952 373.5,284.5C 364.418,279.544 355.584,274.21 347,268.5C 346.654,266.782 346.154,265.115 345.5,263.5C 346.833,258.167 346.833,252.833 345.5,247.5C 345.98,245.051 346.98,242.885 348.5,241C 357.53,236.157 366.197,230.823 374.5,225C 364.012,205.689 353.012,186.689 341.5,168C 339.402,168.032 337.402,168.699 335.5,170C 327.953,174.855 320.12,179.021 312,182.5C 304.794,179.395 297.794,175.729 291,171.5C 289.543,159.935 289.043,148.268 289.5,136.5C 266.833,136.5 244.167,136.5 221.5,136.5 Z M 247.5,194.5 C 211.383,203.139 193.883,226.139 195,263.5C 203.324,299.814 226.158,317.314 263.5,316C 299.399,307.771 316.899,285.271 316,248.5C 308.046,211.72 285.213,193.72 247.5,194.5 Z"/></g>
<g><path style="opacity:0.921" fill="#000000" d="M 246.5,179.5 C 283.574,177.609 310.074,193.276 326,226.5C 338.651,265.881 328.151,297.381 294.5,321C 257.334,339.167 224.501,333.334 196,303.5C 174,271.5 174,239.5 196,207.5C 209.501,192.003 226.334,182.67 246.5,179.5 Z M 247.5,194.5 C 211.383,203.139 193.883,226.139 195,263.5C 203.324,299.814 226.158,317.314 263.5,316C 299.399,307.771 316.899,285.271 316,248.5C 308.046,211.72 285.213,193.72 247.5,194.5 Z"/></g>
<g><path style="opacity:0.901" fill="#000000" d="M 257.5,217.5 C 266.032,216.198 269.865,219.865 269,228.5C 271.913,223.311 276.08,222.144 281.5,225C 290,233.5 298.5,242 307,250.5C 309,253.833 309,257.167 307,260.5C 298.5,269 290,277.5 281.5,286C 276.08,288.856 271.913,287.689 269,282.5C 268.294,280.029 268.627,277.695 270,275.5C 276.681,268.986 283.181,262.319 289.5,255.5C 283.181,248.681 276.681,242.014 270,235.5C 269.138,233.913 268.471,232.246 268,230.5C 264.255,250.559 260.255,270.559 256,290.5C 246.608,296.467 241.941,293.8 242,282.5C 239.087,287.689 234.92,288.856 229.5,286C 221,277.5 212.5,269 204,260.5C 202,257.167 202,253.833 204,250.5C 212.5,242 221,233.5 229.5,225C 234.92,222.144 239.087,223.311 242,228.5C 242.706,230.971 242.373,233.305 241,235.5C 234.319,242.014 227.819,248.681 221.5,255.5C 227.819,262.319 234.319,268.986 241,275.5C 241.862,277.087 242.529,278.754 243,280.5C 246.667,261.5 250.333,242.5 254,223.5C 254.564,221.113 255.73,219.113 257.5,217.5 Z"/></g>
<g><path style="opacity:0.906" fill="#000000" d="M 237.5,452.5 C 249.505,452.333 261.505,452.5 273.5,453C 279.729,457.171 280.062,461.837 274.5,467C 261.833,467.667 249.167,467.667 236.5,467C 231.003,461.683 231.336,456.85 237.5,452.5 Z"/></g>
</svg>
