<?xml version="1.0" encoding="UTF-8"?>
<!DOCTYPE svg PUBLIC "-//W3C//DTD SVG 1.1//EN" "http://www.w3.org/Graphics/SVG/1.1/DTD/svg11.dtd">
<svg xmlns="http://www.w3.org/2000/svg" version="1.1" width="512px" height="512px" style="shape-rendering:geometricPrecision; text-rendering:geometricPrecision; image-rendering:optimizeQuality; fill-rule:evenodd; clip-rule:evenodd" xmlns:xlink="http://www.w3.org/1999/xlink">
<g><path style="opacity:0.946" fill="#000000" d="M 61.5,-0.5 C 170.833,-0.5 280.167,-0.5 389.5,-0.5C 390.801,0.639972 391.968,1.97331 393,3.5C 393.5,33.4981 393.667,63.4981 393.5,93.5C 412.17,93.3334 430.836,93.5001 449.5,94C 451.049,95.214 452.215,96.714 453,98.5C 453.667,155.833 453.667,213.167 453,270.5C 449.108,276.259 444.441,276.926 439,272.5C 437.514,238.253 437.014,203.92 437.5,169.5C 407.165,169.667 376.832,169.5 346.5,169C 338.423,165.55 337.423,160.55 343.5,154C 374.832,153.5 406.165,153.333 437.5,153.5C 437.5,138.833 437.5,124.167 437.5,109.5C 346.167,109.5 254.833,109.5 163.5,109.5C 163.5,124.167 163.5,138.833 163.5,153.5C 214.501,153.333 265.501,153.5 316.5,154C 321.087,156.763 322.254,160.597 320,165.5C 318.681,167.487 316.848,168.654 314.5,169C 264.168,169.5 213.834,169.667 163.5,169.5C 163.5,252.833 163.5,336.167 163.5,419.5C 254.833,419.5 346.167,419.5 437.5,419.5C 437.333,379.499 437.5,339.499 438,299.5C 440.226,295.139 443.726,293.639 448.5,295C 450.667,295.833 452.167,297.333 453,299.5C 453.667,343.167 453.667,386.833 453,430.5C 452.215,432.286 451.049,433.786 449.5,435C 430.836,435.5 412.17,435.667 393.5,435.5C 393.667,459.502 393.5,483.502 393,507.5C 391.968,509.027 390.801,510.36 389.5,511.5C 280.167,511.5 170.833,511.5 61.5,511.5C 60.1986,510.36 59.0319,509.027 58,507.5C 57.0107,462.75 57.3441,418.083 59,373.5C 64.4414,369.074 69.1081,369.741 73,375.5C 73.5,415.832 73.6667,456.165 73.5,496.5C 174.833,496.5 276.167,496.5 377.5,496.5C 377.5,476.167 377.5,455.833 377.5,435.5C 372.833,435.5 368.167,435.5 363.5,435.5C 363.932,443.279 363.432,450.946 362,458.5C 354.137,466.698 345.97,474.531 337.5,482C 287.833,482.667 238.167,482.667 188.5,482C 182.741,478.108 182.074,473.441 186.5,468C 234.75,466.676 283.083,466.009 331.5,466C 336.667,460.833 341.833,455.667 347,450.5C 347.499,445.511 347.666,440.511 347.5,435.5C 282.166,435.667 216.832,435.5 151.5,435C 149.951,433.786 148.785,432.286 148,430.5C 147.333,319.833 147.333,209.167 148,98.5C 148.785,96.714 149.951,95.214 151.5,94C 216.832,93.5 282.166,93.3333 347.5,93.5C 347.5,77.1667 347.5,60.8333 347.5,44.5C 336.162,44.3335 324.828,44.5001 313.5,45C 306.803,52.0317 299.803,58.6984 292.5,65C 247.833,65.6667 203.167,65.6667 158.5,65C 151.197,58.6984 144.197,52.0317 137.5,45C 126.172,44.5001 114.838,44.3335 103.5,44.5C 103.333,179.834 103.5,315.167 104,450.5C 109.167,455.667 114.333,460.833 119.5,466C 132.833,466.333 146.167,466.667 159.5,467C 164.535,470.013 165.702,474.18 163,479.5C 162.097,480.701 160.931,481.535 159.5,482C 144.167,482.667 128.833,482.667 113.5,482C 104.333,474.167 95.8333,465.667 88,456.5C 87.0033,314.753 87.3367,173.086 89,31.5C 89.9025,30.2986 91.0692,29.4652 92.5,29C 109.5,28.3333 126.5,28.3333 143.5,29C 150.803,35.3016 157.803,41.9683 164.5,49C 205.167,49.6667 245.833,49.6667 286.5,49C 293.197,41.9683 300.197,35.3016 307.5,29C 324.5,28.3333 341.5,28.3333 358.5,29C 360.667,29.8333 362.167,31.3333 363,33.5C 363.5,53.4972 363.667,73.4972 363.5,93.5C 368.167,93.5 372.833,93.5 377.5,93.5C 377.5,67.1667 377.5,40.8333 377.5,14.5C 276.167,14.5 174.833,14.5 73.5,14.5C 73.6667,125.167 73.5,235.834 73,346.5C 70.5647,351.224 66.7314,352.724 61.5,351C 60.6667,350.167 59.8333,349.333 59,348.5C 57.3375,233.581 57.0041,118.581 58,3.5C 59.0319,1.97331 60.1986,0.639972 61.5,-0.5 Z"/></g>
<g><path style="opacity:0.853" fill="#000000" d="M 183.5,123.5 C 191.65,122.16 195.483,125.493 195,133.5C 190.852,140.621 185.852,141.288 180,135.5C 178.593,130.556 179.759,126.556 183.5,123.5 Z"/></g>
<g><path style="opacity:0.857" fill="#000000" d="M 212.5,123.5 C 220.65,122.16 224.483,125.493 224,133.5C 219.37,141.084 214.37,141.418 209,134.5C 207.663,129.872 208.83,126.205 212.5,123.5 Z"/></g>
<g><path style="opacity:0.857" fill="#000000" d="M 241.5,123.5 C 249.65,122.16 253.483,125.493 253,133.5C 248.37,141.084 243.37,141.418 238,134.5C 236.663,129.872 237.83,126.205 241.5,123.5 Z"/></g>
<g><path style="opacity:0.879" fill="#000000" d="M 253.5,212.5 C 262.778,211.376 266.278,215.376 264,224.5C 259.333,229.833 254.667,229.833 250,224.5C 248.593,219.556 249.759,215.556 253.5,212.5 Z"/></g>
<g><path style="opacity:0.853" fill="#000000" d="M 296.5,212.5 C 306.996,211.82 310.33,216.32 306.5,226C 302.202,229.385 298.035,229.219 294,225.5C 291.606,220.527 292.44,216.194 296.5,212.5 Z"/></g>
<g><path style="opacity:0.878" fill="#000000" d="M 340.5,212.5 C 349.778,211.376 353.278,215.376 351,224.5C 346.333,229.833 341.667,229.833 337,224.5C 335.593,219.556 336.759,215.556 340.5,212.5 Z"/></g>
<g><path style="opacity:0.933" fill="#000000" d="M 232.5,249.5 C 247.366,248.175 257.2,254.509 262,268.5C 262.667,291.833 262.667,315.167 262,338.5C 258.108,344.259 253.441,344.926 248,340.5C 246.559,331.942 246.059,323.276 246.5,314.5C 240.5,314.5 234.5,314.5 228.5,314.5C 228.91,323.25 228.41,331.916 227,340.5C 221.559,344.926 216.892,344.259 213,338.5C 212.333,315.167 212.333,291.833 213,268.5C 216.121,258.544 222.621,252.21 232.5,249.5 Z M 235.5,265.5 C 240.382,265.175 243.882,267.175 246,271.5C 246.5,280.494 246.666,289.494 246.5,298.5C 240.5,298.5 234.5,298.5 228.5,298.5C 228.334,289.494 228.5,280.494 229,271.5C 230.436,268.558 232.603,266.558 235.5,265.5 Z"/></g>
<g><path style="opacity:0.93" fill="#000000" d="M 281.5,249.5 C 292.231,249.097 302.898,249.597 313.5,251C 329.988,259.11 335.155,271.943 329,289.5C 320.372,302.55 308.206,307.55 292.5,304.5C 292.667,316.171 292.5,327.838 292,339.5C 286.046,345.172 281.046,344.505 277,337.5C 276.333,310.167 276.333,282.833 277,255.5C 277.599,252.746 279.099,250.746 281.5,249.5 Z M 292.5,265.5 C 297.511,265.334 302.511,265.501 307.5,266C 315.725,270.193 317.558,276.359 313,284.5C 311.745,285.211 310.579,286.044 309.5,287C 303.928,288.351 298.262,288.851 292.5,288.5C 292.5,280.833 292.5,273.167 292.5,265.5 Z"/></g>
<g><path style="opacity:0.93" fill="#000000" d="M 343.5,249.5 C 357.598,249.035 371.598,249.535 385.5,251C 389.926,256.441 389.259,261.108 383.5,265C 379.514,265.499 375.514,265.666 371.5,265.5C 371.5,286.167 371.5,306.833 371.5,327.5C 376.297,327.121 380.964,327.621 385.5,329C 388.349,331.559 389.183,334.726 388,338.5C 387.167,340.667 385.667,342.167 383.5,343C 370.167,343.667 356.833,343.667 343.5,343C 337.741,339.108 337.074,334.441 341.5,329C 346.036,327.621 350.703,327.121 355.5,327.5C 355.5,306.833 355.5,286.167 355.5,265.5C 351.486,265.666 347.486,265.499 343.5,265C 339.139,262.774 337.639,259.274 339,254.5C 340.025,252.313 341.525,250.646 343.5,249.5 Z"/></g>
<g><path style="opacity:0.87" fill="#000000" d="M 254.5,374.5 C 262.696,374.529 265.863,378.529 264,386.5C 261.487,390.212 257.987,391.378 253.5,390C 251.667,389.5 250.5,388.333 250,386.5C 248.309,381.131 249.809,377.131 254.5,374.5 Z"/></g>
<g><path style="opacity:0.845" fill="#000000" d="M 298.5,374.5 C 306.168,374.332 309.335,377.999 308,385.5C 305.565,390.224 301.731,391.724 296.5,390C 290.731,383.8 291.398,378.633 298.5,374.5 Z"/></g>
<g><path style="opacity:0.87" fill="#000000" d="M 341.5,374.5 C 349.696,374.529 352.863,378.529 351,386.5C 348.487,390.212 344.987,391.378 340.5,390C 338.667,389.5 337.5,388.333 337,386.5C 335.309,381.131 336.809,377.131 341.5,374.5 Z"/></g>
</svg>
