<?xml version="1.0" encoding="UTF-8"?>
<!DOCTYPE svg PUBLIC "-//W3C//DTD SVG 1.1//EN" "http://www.w3.org/Graphics/SVG/1.1/DTD/svg11.dtd">
<svg xmlns="http://www.w3.org/2000/svg" version="1.1" width="512px" height="512px" style="shape-rendering:geometricPrecision; text-rendering:geometricPrecision; image-rendering:optimizeQuality; fill-rule:evenodd; clip-rule:evenodd" xmlns:xlink="http://www.w3.org/1999/xlink">
<g><path style="opacity:0.952" fill="#000000" d="M 26.5,-0.5 C 179.167,-0.5 331.833,-0.5 484.5,-0.5C 498.27,4.26966 507.27,13.603 511.5,27.5C 511.5,147.5 511.5,267.5 511.5,387.5C 507.132,402.697 497.132,411.864 481.5,415C 426.834,415.5 372.168,415.667 317.5,415.5C 317.666,422.841 317.5,430.174 317,437.5C 314.567,443.448 310.4,444.948 304.5,442C 303.667,441.167 302.833,440.333 302,439.5C 301.5,431.507 301.334,423.507 301.5,415.5C 270.833,415.5 240.167,415.5 209.5,415.5C 209.5,442.5 209.5,469.5 209.5,496.5C 240.167,496.5 270.833,496.5 301.5,496.5C 301.334,486.828 301.5,477.161 302,467.5C 307.42,460.599 312.42,460.933 317,468.5C 317.5,477.827 317.666,487.161 317.5,496.5C 328.172,496.333 338.839,496.5 349.5,497C 352.366,498.393 353.699,500.726 353.5,504C 353.57,507.366 352.237,509.866 349.5,511.5C 286.833,511.5 224.167,511.5 161.5,511.5C 157.3,507.982 156.467,503.649 159,498.5C 159.75,497.874 160.584,497.374 161.5,497C 172.161,496.5 182.828,496.333 193.5,496.5C 193.5,469.5 193.5,442.5 193.5,415.5C 138.832,415.667 84.1657,415.5 29.5,415C 13.868,411.864 3.86805,402.697 -0.5,387.5C -0.5,267.5 -0.5,147.5 -0.5,27.5C 3.72974,13.603 12.7297,4.26966 26.5,-0.5 Z M 35.5,14.5 C 182.167,14.3333 328.834,14.5 475.5,15C 485.13,15.6306 491.63,20.464 495,29.5C 495.5,126.833 495.667,224.166 495.5,321.5C 335.5,321.5 175.5,321.5 15.5,321.5C 15.3333,224.166 15.5,126.833 16,29.5C 19.5563,20.4916 26.0563,15.4916 35.5,14.5 Z M 347.5,63.5 C 392.638,63.9729 425.804,83.9729 447,123.5C 466.72,173.251 456.553,215.751 416.5,251C 378.989,276.98 339.989,279.313 299.5,258C 256.286,228.714 240.786,188.547 253,137.5C 269.244,93.3006 300.744,68.6339 347.5,63.5 Z M 15.5,337.5 C 175.5,337.5 335.5,337.5 495.5,337.5C 495.667,353.17 495.5,368.837 495,384.5C 492.742,392.389 487.575,397.222 479.5,399C 330.167,399.667 180.833,399.667 31.5,399C 23.4245,397.222 18.2579,392.389 16,384.5C 15.5001,368.837 15.3334,353.17 15.5,337.5 Z"/></g>
<g><path style="opacity:0.927" fill="#000000" d="M 153.5,47.5 C 195.697,47.2687 229.697,63.602 255.5,96.5C 293.232,51.4777 340.232,37.9777 396.5,56C 434.906,72.0724 459.406,100.239 470,140.5C 479.872,196.562 461.372,240.395 414.5,272C 378.114,291.669 340.781,293.669 302.5,278C 284.202,268.844 268.535,256.344 255.5,240.5C 217.971,284.723 171.305,298.223 115.5,281C 66.3622,259.495 40.3622,221.829 37.5,168C 37.9195,141.13 46.0861,116.963 62,95.5C 65.9964,91.797 70.163,91.6303 74.5,95C 76.923,98.3793 77.0897,101.879 75,105.5C 49.1787,143.222 47.1787,182.222 69,222.5C 99.5236,266.235 140.69,281.068 192.5,267C 214.145,258.921 231.645,245.421 245,226.5C 245.667,225.167 245.667,223.833 245,222.5C 230.309,190.864 228.642,158.531 240,125.5C 241.766,120.802 243.933,116.302 246.5,112C 215.882,70.0143 175.382,55.8477 125,69.5C 114.72,72.8897 105.22,77.723 96.5,84C 88.3333,85.1667 84.8333,81.6667 86,73.5C 86.7845,71.714 87.9512,70.214 89.5,69C 109.086,56.305 130.419,49.1384 153.5,47.5 Z M 347.5,63.5 C 300.744,68.6339 269.244,93.3006 253,137.5C 240.786,188.547 256.286,228.714 299.5,258C 339.989,279.313 378.989,276.98 416.5,251C 456.553,215.751 466.72,173.251 447,123.5C 425.804,83.9729 392.638,63.9729 347.5,63.5 Z"/></g>
<g><path style="opacity:0.926" fill="#000000" d="M 115.5,126.5 C 120.023,126.345 123.189,128.345 125,132.5C 125.333,149.833 125.667,167.167 126,184.5C 131.749,193.781 139.582,195.948 149.5,191C 151.709,189.127 153.542,186.96 155,184.5C 155.333,167.167 155.667,149.833 156,132.5C 159.491,125.96 164.158,124.96 170,129.5C 171.641,148.743 171.975,168.077 171,187.5C 167.072,198.755 159.239,205.922 147.5,209C 133.111,211.543 121.611,207.043 113,195.5C 111.438,193.043 110.438,190.376 110,187.5C 109.333,168.833 109.333,150.167 110,131.5C 111.107,128.887 112.94,127.22 115.5,126.5 Z"/></g>
<g><path style="opacity:0.924" fill="#000000" d="M 197.5,126.5 C 202.062,126.361 205.229,128.361 207,132.5C 207.667,156.5 207.667,180.5 207,204.5C 204.565,209.224 200.731,210.724 195.5,209C 194.333,207.833 193.167,206.667 192,205.5C 191.333,180.833 191.333,156.167 192,131.5C 193.107,128.887 194.94,127.22 197.5,126.5 Z"/></g>
<g><path style="opacity:0.925" fill="#000000" d="M 287.5,126.5 C 291.31,126.379 294.477,127.712 297,130.5C 297.039,148.899 297.706,167.232 299,185.5C 304.351,193.281 311.518,195.448 320.5,192C 324.085,190.084 326.585,187.251 328,183.5C 328.333,166.167 328.667,148.833 329,131.5C 334.42,124.599 339.42,124.933 344,132.5C 344.667,150.167 344.667,167.833 344,185.5C 340.869,197.965 333.035,205.798 320.5,209C 305.545,211.576 293.711,206.742 285,194.5C 283.257,191.043 282.257,187.377 282,183.5C 281.333,166.5 281.333,149.5 282,132.5C 283.36,129.977 285.193,127.977 287.5,126.5 Z"/></g>
<g><path style="opacity:0.917" fill="#000000" d="M 366.5,126.5 C 369.675,126.503 372.508,127.503 375,129.5C 380,136.833 385,144.167 390,151.5C 395.833,143.667 401.667,135.833 407.5,128C 414.188,125.344 418.521,127.511 420.5,134.5C 420.101,136.197 419.601,137.863 419,139.5C 413.027,148.306 406.861,156.972 400.5,165.5C 407.805,176.637 415.305,187.637 423,198.5C 423.949,207.217 420.116,210.717 411.5,209C 404.212,199.59 397.045,190.09 390,180.5C 383.5,189.667 377,198.833 370.5,208C 360.32,211.66 356.154,208.16 358,197.5C 365.132,186.736 372.632,176.236 380.5,166C 374,156.833 367.5,147.667 361,138.5C 359.393,132.721 361.227,128.721 366.5,126.5 Z"/></g>
<g><path style="opacity:0.908" fill="#000000" d="M 237.5,360.5 C 249.505,360.333 261.505,360.5 273.5,361C 277.861,363.226 279.361,366.726 278,371.5C 277.167,373.667 275.667,375.167 273.5,376C 261.5,376.667 249.5,376.667 237.5,376C 232.465,372.987 231.298,368.82 234,363.5C 235.145,362.364 236.312,361.364 237.5,360.5 Z"/></g>
</svg>
