<?xml version="1.0" encoding="UTF-8"?>
<!DOCTYPE svg PUBLIC "-//W3C//DTD SVG 1.1//EN" "http://www.w3.org/Graphics/SVG/1.1/DTD/svg11.dtd">
<svg xmlns="http://www.w3.org/2000/svg" version="1.1" width="512px" height="512px" style="shape-rendering:geometricPrecision; text-rendering:geometricPrecision; image-rendering:optimizeQuality; fill-rule:evenodd; clip-rule:evenodd" xmlns:xlink="http://www.w3.org/1999/xlink">
<g><path style="opacity:0.946" fill="#000000" d="M 324.5,-0.5 C 346.5,-0.5 368.5,-0.5 390.5,-0.5C 403.131,4.39181 409.631,13.7251 410,27.5C 410.785,29.286 411.951,30.786 413.5,32C 439.771,33.3068 466.105,33.9734 492.5,34C 501.592,36.9284 507.925,42.7617 511.5,51.5C 511.5,79.1667 511.5,106.833 511.5,134.5C 508.241,144.256 501.575,150.422 491.5,153C 436.5,153.667 381.5,153.667 326.5,153C 317.596,151.096 311.429,145.929 308,137.5C 306.564,125.91 306.064,114.243 306.5,102.5C 297.161,102.334 287.827,102.5 278.5,103C 276.333,103.833 274.833,105.333 274,107.5C 273.5,153.832 273.333,200.165 273.5,246.5C 284.5,246.5 295.5,246.5 306.5,246.5C 306.333,230.163 306.5,213.83 307,197.5C 309.833,188 316,181.833 325.5,179C 347.167,178.333 368.833,178.333 390.5,179C 403.245,183.632 409.745,192.799 410,206.5C 411.167,209 413,210.833 415.5,212C 440.833,212.333 466.167,212.667 491.5,213C 501.575,215.578 508.241,221.744 511.5,231.5C 511.5,259.167 511.5,286.833 511.5,314.5C 507.95,323.211 501.617,329.045 492.5,332C 436.833,332.667 381.167,332.667 325.5,332C 316,329.167 309.833,323 307,313.5C 306.5,297.17 306.333,280.837 306.5,264.5C 295.5,264.5 284.5,264.5 273.5,264.5C 273.333,310.835 273.5,357.168 274,403.5C 274.833,405.667 276.333,407.167 278.5,408C 287.827,408.5 297.161,408.666 306.5,408.5C 299.228,366.939 316.395,349.939 358,357.5C 368.5,357.667 379,357.833 389.5,358C 402.742,362.259 409.576,371.426 410,385.5C 411.167,388 413,389.833 415.5,391C 440.5,391.333 465.5,391.667 490.5,392C 501.136,394.141 508.136,400.308 511.5,410.5C 511.5,438.167 511.5,465.833 511.5,493.5C 507.833,501.833 501.833,507.833 493.5,511.5C 437.167,511.5 380.833,511.5 324.5,511.5C 315.789,507.95 309.955,501.617 307,492.5C 306.5,470.503 306.333,448.503 306.5,426.5C 294.771,426.912 283.104,426.412 271.5,425C 263.48,421.649 258.313,415.816 256,407.5C 255.5,359.834 255.333,312.168 255.5,264.5C 244.167,264.5 232.833,264.5 221.5,264.5C 221.667,297.835 221.5,331.168 221,364.5C 218.949,369.214 216.115,373.381 212.5,377C 199.492,385.999 185.158,391.999 169.5,395C 131.529,402.668 93.5293,403.001 55.5,396C 38.3351,393.172 22.6684,386.839 8.5,377C 4.83235,373.189 1.83235,369.022 -0.5,364.5C -0.5,290.167 -0.5,215.833 -0.5,141.5C 4.49523,130.792 12.4952,122.959 23.5,118C 51.2798,106.278 80.2798,100.778 110.5,101.5C 138.013,101.141 164.68,105.641 190.5,115C 200.991,118.83 209.825,124.997 217,133.5C 218.608,136.382 219.941,139.382 221,142.5C 221.5,177.165 221.667,211.832 221.5,246.5C 232.833,246.5 244.167,246.5 255.5,246.5C 255.333,198.832 255.5,151.166 256,103.5C 258.313,95.1841 263.48,89.3508 271.5,86C 283.104,84.5878 294.771,84.0878 306.5,84.5C 306.333,62.4975 306.5,40.4975 307,18.5C 309.955,9.38309 315.789,3.04976 324.5,-0.5 Z M 328.5,17.5 C 347.836,17.3334 367.17,17.5 386.5,18C 388.667,18.8333 390.167,20.3333 391,22.5C 391.272,35.75 397.438,44.9167 409.5,50C 436.126,51.2886 462.793,51.9553 489.5,52C 490.667,53.1667 491.833,54.3333 493,55.5C 493.981,81.2539 493.648,106.921 492,132.5C 491.097,133.701 489.931,134.535 488.5,135C 434.751,135.991 381.084,135.658 327.5,134C 326.299,133.097 325.465,131.931 325,130.5C 324.333,94.5 324.333,58.5 325,22.5C 325.997,20.6769 327.164,19.0103 328.5,17.5 Z M 94.5,119.5 C 121.299,118.205 147.633,121.038 173.5,128C 184.658,130.823 194.158,136.323 202,144.5C 203.373,146.695 203.706,149.029 203,151.5C 197.959,158.196 191.459,163.029 183.5,166C 138.936,180.931 93.9361,182.264 48.5,170C 7.65703,156.377 7.3237,142.377 47.5,128C 63.0344,123.635 78.7011,120.802 94.5,119.5 Z M 17.5,176.5 C 35.7251,185.727 55.0584,191.56 75.5,194C 112.503,198.867 148.836,195.867 184.5,185C 190.663,182.449 196.663,179.616 202.5,176.5C 203.666,192.156 203.833,207.823 203,223.5C 198.108,228.7 192.275,232.534 185.5,235C 139.895,248.738 93.8947,250.071 47.5,239C 36.2919,236.314 26.4586,231.147 18,223.5C 17.5001,207.837 17.3334,192.17 17.5,176.5 Z M 329.5,196.5 C 348.503,196.333 367.503,196.5 386.5,197C 388.667,197.833 390.167,199.333 391,201.5C 390.914,214.506 396.747,223.673 408.5,229C 435.88,229.973 463.213,230.973 490.5,232C 491.701,232.903 492.535,234.069 493,235.5C 493.667,260.5 493.667,285.5 493,310.5C 491.786,312.049 490.286,313.215 488.5,314C 434.751,314.991 381.084,314.658 327.5,313C 326.299,312.097 325.465,310.931 325,309.5C 324.333,273.5 324.333,237.5 325,201.5C 326.025,199.313 327.525,197.646 329.5,196.5 Z M 17.5,246.5 C 37.1142,255.738 57.7809,261.238 79.5,263C 115.444,266.838 150.777,263.838 185.5,254C 191.597,252.08 197.43,249.58 203,246.5C 203.667,261.5 203.667,276.5 203,291.5C 197.814,297.522 191.314,301.688 183.5,304C 152.841,313.333 121.508,316.667 89.5,314C 69.8631,312.939 50.8631,308.939 32.5,302C 27.7334,299.562 23.2334,296.729 19,293.5C 17.5311,277.929 17.0311,262.263 17.5,246.5 Z M 17.5,314.5 C 39.866,325.175 63.5327,331.008 88.5,332C 119.625,334.383 150.291,331.716 180.5,324C 188.506,321.999 196.006,318.832 203,314.5C 203.667,329.5 203.667,344.5 203,359.5C 201.5,362.333 199.333,364.5 196.5,366C 180.182,374.414 162.849,379.414 144.5,381C 114.032,384.385 83.6982,383.052 53.5,377C 40.1737,374.565 28.3404,369.065 18,360.5C 17.5001,345.17 17.3334,329.837 17.5,314.5 Z M 329.5,375.5 C 348.503,375.333 367.503,375.5 386.5,376C 388.726,377.227 390.226,379.061 391,381.5C 391.365,395.527 398.199,404.694 411.5,409C 437.895,409.027 464.229,409.693 490.5,411C 491.701,411.903 492.535,413.069 493,414.5C 493.667,439.5 493.667,464.5 493,489.5C 491.833,490.667 490.667,491.833 489.5,493C 435.833,493.667 382.167,493.667 328.5,493C 326.951,491.786 325.785,490.286 325,488.5C 324.333,452.5 324.333,416.5 325,380.5C 326.025,378.313 327.525,376.646 329.5,375.5 Z"/></g>
<g><path style="opacity:0.864" fill="#000000" d="M 345.5,67.5 C 356.165,66.6594 359.998,71.326 357,81.5C 351.328,87.1016 345.995,86.7683 341,80.5C 339.379,74.9227 340.879,70.5894 345.5,67.5 Z"/></g>
<g><path style="opacity:0.864" fill="#000000" d="M 345.5,101.5 C 354.495,100.663 358.661,104.663 358,113.5C 352.785,121.09 347.118,121.423 341,114.5C 339.379,108.923 340.879,104.589 345.5,101.5 Z"/></g>
<g><path style="opacity:0.885" fill="#000000" d="M 40.5,203.5 C 49.4053,204.317 52.572,208.983 50,217.5C 47.0453,221.277 43.212,222.443 38.5,221C 33.8451,218.103 32.3451,213.937 34,208.5C 35.8049,206.174 37.9716,204.508 40.5,203.5 Z"/></g>
<g><path style="opacity:0.874" fill="#000000" d="M 346.5,246.5 C 354.986,246.151 358.82,250.151 358,258.5C 352.785,266.09 347.118,266.423 341,259.5C 339.104,253.434 340.938,249.101 346.5,246.5 Z"/></g>
<g><path style="opacity:0.878" fill="#000000" d="M 37.5,272.5 C 49.9818,271.658 53.6484,276.824 48.5,288C 38.0616,292.228 33.2283,288.728 34,277.5C 34.9973,275.677 36.1639,274.01 37.5,272.5 Z"/></g>
<g><path style="opacity:0.864" fill="#000000" d="M 346.5,280.5 C 354.986,280.151 358.82,284.151 358,292.5C 355.549,298.089 351.383,299.922 345.5,298C 340.845,295.103 339.345,290.937 341,285.5C 342.73,283.598 344.563,281.931 346.5,280.5 Z"/></g>
<g><path style="opacity:0.871" fill="#000000" d="M 38.5,340.5 C 48.8427,339.999 52.6761,344.666 50,354.5C 45.3144,359.302 40.3144,359.636 35,355.5C 32.2062,349.408 33.3729,344.408 38.5,340.5 Z"/></g>
<g><path style="opacity:0.864" fill="#000000" d="M 346.5,425.5 C 355.006,425.17 358.839,429.17 358,437.5C 355.598,443.092 351.431,444.925 345.5,443C 340.845,440.103 339.345,435.937 341,430.5C 342.73,428.598 344.563,426.931 346.5,425.5 Z"/></g>
<g><path style="opacity:0.868" fill="#000000" d="M 347.5,459.5 C 355.491,459.654 358.991,463.654 358,471.5C 355.646,477.095 351.479,478.928 345.5,477C 340.931,474.459 339.431,470.625 341,465.5C 342.436,462.558 344.603,460.558 347.5,459.5 Z"/></g>
</svg>
