<?xml version="1.0" encoding="UTF-8"?>
<!DOCTYPE svg PUBLIC "-//W3C//DTD SVG 1.1//EN" "http://www.w3.org/Graphics/SVG/1.1/DTD/svg11.dtd">
<svg xmlns="http://www.w3.org/2000/svg" version="1.1" width="512px" height="512px" style="shape-rendering:geometricPrecision; text-rendering:geometricPrecision; image-rendering:optimizeQuality; fill-rule:evenodd; clip-rule:evenodd" xmlns:xlink="http://www.w3.org/1999/xlink">
<g><path style="opacity:0.965" fill="#000000" d="M 107.5,31.5 C 120.837,31.3334 134.171,31.5001 147.5,32C 148.416,32.3742 149.25,32.8742 150,33.5C 151.477,54.0748 151.977,74.7415 151.5,95.5C 158.947,95.0714 166.281,95.5714 173.5,97C 175.429,100.256 175.929,103.756 175,107.5C 161.192,125.303 146.692,142.47 131.5,159C 127.171,160.151 123.338,159.318 120,156.5C 106.427,140.35 93.094,124.017 80,107.5C 79.0715,103.756 79.5715,100.256 81.5,97C 88.7194,95.5714 96.0528,95.0714 103.5,95.5C 103.333,75.4972 103.5,55.4972 104,35.5C 104.69,33.6498 105.856,32.3164 107.5,31.5 Z M 119.5,47.5 C 124.833,47.5 130.167,47.5 135.5,47.5C 135.333,67.5028 135.5,87.5028 136,107.5C 136.5,109.333 137.667,110.5 139.5,111C 142.833,111.333 146.167,111.667 149.5,112C 142.324,120.673 134.991,129.173 127.5,137.5C 120.009,129.173 112.676,120.673 105.5,112C 108.833,111.667 112.167,111.333 115.5,111C 117.333,110.5 118.5,109.333 119,107.5C 119.5,87.5028 119.667,67.5028 119.5,47.5 Z"/></g>
<g><path style="opacity:0.965" fill="#000000" d="M 235.5,31.5 C 248.837,31.3334 262.171,31.5001 275.5,32C 276.416,32.3742 277.25,32.8742 278,33.5C 279.477,54.0748 279.977,74.7415 279.5,95.5C 286.947,95.0714 294.281,95.5714 301.5,97C 303.429,100.256 303.929,103.756 303,107.5C 289.192,125.303 274.692,142.47 259.5,159C 255.171,160.151 251.338,159.318 248,156.5C 234.427,140.35 221.094,124.017 208,107.5C 207.071,103.756 207.571,100.256 209.5,97C 216.719,95.5714 224.053,95.0714 231.5,95.5C 231.333,75.4972 231.5,55.4972 232,35.5C 232.69,33.6498 233.856,32.3164 235.5,31.5 Z M 247.5,47.5 C 252.833,47.5 258.167,47.5 263.5,47.5C 263.333,67.5028 263.5,87.5028 264,107.5C 264.5,109.333 265.667,110.5 267.5,111C 270.833,111.333 274.167,111.667 277.5,112C 270.324,120.673 262.991,129.173 255.5,137.5C 248.009,129.173 240.676,120.673 233.5,112C 236.833,111.667 240.167,111.333 243.5,111C 245.333,110.5 246.5,109.333 247,107.5C 247.5,87.5028 247.667,67.5028 247.5,47.5 Z"/></g>
<g><path style="opacity:0.965" fill="#000000" d="M 363.5,31.5 C 376.837,31.3334 390.171,31.5001 403.5,32C 404.416,32.3742 405.25,32.8742 406,33.5C 407.477,54.0748 407.977,74.7415 407.5,95.5C 414.947,95.0714 422.281,95.5714 429.5,97C 431.429,100.256 431.929,103.756 431,107.5C 417.192,125.303 402.692,142.47 387.5,159C 383.171,160.151 379.338,159.318 376,156.5C 362.427,140.35 349.094,124.017 336,107.5C 335.071,103.756 335.571,100.256 337.5,97C 344.719,95.5714 352.053,95.0714 359.5,95.5C 359.333,75.4972 359.5,55.4972 360,35.5C 360.69,33.6498 361.856,32.3164 363.5,31.5 Z M 375.5,47.5 C 380.833,47.5 386.167,47.5 391.5,47.5C 391.333,67.5028 391.5,87.5028 392,107.5C 392.5,109.333 393.667,110.5 395.5,111C 398.833,111.333 402.167,111.667 405.5,112C 398.324,120.673 390.991,129.173 383.5,137.5C 376.009,129.173 368.676,120.673 361.5,112C 364.833,111.667 368.167,111.333 371.5,111C 373.333,110.5 374.5,109.333 375,107.5C 375.5,87.5028 375.667,67.5028 375.5,47.5 Z"/></g>
<g><path style="opacity:0.961" fill="#000000" d="M 59.5,175.5 C 190.167,175.333 320.834,175.5 451.5,176C 453.333,176.5 454.5,177.667 455,179.5C 455.667,195.833 455.667,212.167 455,228.5C 418.237,272.352 381.237,316.019 344,359.5C 343.667,381.833 343.333,404.167 343,426.5C 342.167,427.333 341.333,428.167 340.5,429C 287.299,446.067 233.966,462.733 180.5,479C 177.5,479.667 174.5,479.667 171.5,479C 169.667,478.5 168.5,477.333 168,475.5C 167.667,436.833 167.333,398.167 167,359.5C 130.096,316.686 93.4296,273.686 57,230.5C 55.3625,213.591 55.0291,196.591 56,179.5C 56.6897,177.65 57.8564,176.316 59.5,175.5 Z M 71.5,191.5 C 194.167,191.5 316.833,191.5 439.5,191.5C 439.5,199.833 439.5,208.167 439.5,216.5C 316.833,216.5 194.167,216.5 71.5,216.5C 71.5,208.167 71.5,199.833 71.5,191.5 Z M 82.5,234.5 C 197.666,233.334 312.999,233.167 428.5,234C 394.959,272.539 361.792,311.372 329,350.5C 327.849,372.318 327.016,394.151 326.5,416C 278.953,430.969 231.286,445.469 183.5,459.5C 183.667,423.832 183.5,388.165 183,352.5C 150.193,312.538 116.693,273.204 82.5,234.5 Z"/></g>
</svg>
