<?xml version="1.0" encoding="UTF-8"?>
<svg version="1.1" xmlns="http://www.w3.org/2000/svg" width="512" height="512">
<path d="M0 0 C0.74668945 0.20367188 1.49337891 0.40734375 2.26269531 0.6171875 C19.07879641 5.29193375 34.27941226 13.17010277 47.83837891 24.15283203 C52.37365892 27.83563997 52.37365892 27.83563997 58 29 C61.3326268 28.50952558 61.3326268 28.50952558 64.8125 27.625 C95.31425409 20.38041024 129.45661569 25.59099047 156.27783203 41.92871094 C156.84614746 42.28223633 157.41446289 42.63576172 158 43 C158.85053955 43.52255371 158.85053955 43.52255371 159.71826172 44.05566406 C185.93231863 60.51686803 204.9371906 87.25433662 213 117 C213.16886719 118.19367188 213.33773438 119.38734375 213.51171875 120.6171875 C214.00288179 124.08283392 214.48502201 126.83928699 216 130 C219.05984105 132.15701004 222.01675706 133.38126763 225.51953125 134.69140625 C235.08032366 138.28609251 242.80030362 144.91718181 250 152 C250.7734375 152.76054687 251.546875 153.52109375 252.34375 154.3046875 C267.75454497 170.40157951 275.63690885 192.2195942 275.4375 214.3125 C275.42722778 216.07799194 275.42722778 216.07799194 275.41674805 217.87915039 C275.24632644 227.16170274 274.10341103 235.23922328 271 244 C270.63777344 245.05832031 270.27554687 246.11664063 269.90234375 247.20703125 C261.76767962 268.68805959 243.43603622 286.96063 222.73828125 296.50390625 C209.23005694 301.96259762 196.49120499 303.45681123 182.10546875 303.51171875 C180.42009712 303.52860472 178.73473777 303.54676008 177.0493927 303.56611633 C172.6585169 303.61319784 168.26769093 303.64327581 163.87664795 303.66955566 C159.37795165 303.69957488 154.87942651 303.74603058 150.38085938 303.79101562 C141.58732454 303.87657126 132.79377335 303.94412617 124 304 C124.46103911 305.43742377 124.92680099 306.8733333 125.39453125 308.30859375 C125.65339111 309.10837646 125.91225098 309.90815918 126.17895508 310.73217773 C127.00439016 313.19589987 127.00439016 313.19589987 128.6875 316.0625 C130.45747607 320.02387501 130.27927245 322.6712771 130 327 C129.72430176 327.62503418 129.44860352 328.25006836 129.16455078 328.89404297 C128.73834594 331.2796403 128.73834594 331.2796403 131.07373047 333.62548828 C132.07568939 334.61987951 133.09122922 335.60070164 134.1171875 336.5703125 C134.64893585 337.09261444 135.1806842 337.61491638 135.72854614 338.15304565 C137.43266105 339.82251076 139.15297838 341.47402917 140.875 343.125 C142.58634149 344.78641736 144.29419691 346.45130664 146.00003052 348.11837769 C147.06336114 349.15526099 148.13054718 350.18820778 149.20187378 351.21682739 C153.92687409 355.78342582 153.92687409 355.78342582 154.15821838 359.63223267 C154.17376266 360.74697968 154.18930695 361.86172668 154.20532227 363.01025391 C154.22526749 364.27141022 154.24521271 365.53256653 154.26576233 366.8319397 C154.28274665 368.21347937 154.29962546 369.59502034 154.31640625 370.9765625 C154.3369756 372.38618582 154.35797207 373.79580297 154.37937927 375.20541382 C154.43460195 378.91747035 154.48401031 382.62958257 154.53222656 386.34173584 C154.58244018 390.12891603 154.63812697 393.91601526 154.69335938 397.703125 C154.80094333 405.13534812 154.90238773 412.56763852 155 420 C155.68761414 420.26545624 156.37522827 420.53091248 157.0836792 420.80441284 C157.98515686 421.15754547 158.88663452 421.5106781 159.81542969 421.87451172 C160.70929382 422.22246796 161.60315796 422.57042419 162.52410889 422.92892456 C171.73355555 426.91294958 178.18838487 435.93001634 181.8046875 445.0234375 C184.82298742 455.15334818 183.10452653 465.44698692 179 475 C173.96155326 483.53347055 166.33959844 489.88588051 157.03125 493.3046875 C146.92105797 495.62377794 135.08337269 495.30218782 126 490 C119.66203181 485.35823624 114.41452138 480.12052628 111 473 C110.68289063 472.34902344 110.36578125 471.69804687 110.0390625 471.02734375 C106.50880811 462.36364604 106.68966252 451.94163917 109.5625 443.125 C113.83463884 433.12700842 120.37269192 426.9437528 130 422 C131.99409053 421.3158601 133.99351599 420.64688975 136 420 C136.51386477 412.25147854 136.85992506 404.50742664 137.09863281 396.74560547 C137.19825095 394.11600803 137.33402988 391.48749074 137.50878906 388.86181641 C138.76519078 371.6711833 138.76519078 371.6711833 131.45898438 356.67773438 C126.70042438 351.63743239 121.53975056 347.16016556 116 343 C114.88333096 343.9389313 113.76925078 344.88094201 112.65625 345.82421875 C111.72522461 346.61058716 111.72522461 346.61058716 110.77539062 347.4128418 C108.79611958 349.12134674 108.79611958 349.12134674 106.5 351.8125 C103.24269734 354.66263983 101.29885816 354.80015639 97 355 C93.32282144 353.68672194 89.98981789 351.99490895 86.5 350.25 C79.95121665 347.9111488 75.00465172 350.2049445 68.9375 353 C64.57321395 355.00612486 60.77950329 356.41802091 56 357 C55.84144531 357.60585938 55.68289063 358.21171875 55.51953125 358.8359375 C53.73598635 365.24093301 51.48525024 371.30627436 48 377 C46 378 46 378 35 378 C35 392.19 35 406.38 35 421 C36.98 421.33 38.96 421.66 41 422 C49.92524557 425.98670165 57.14930459 432.65501531 61.21484375 441.61328125 C64.9171703 452.86761719 64.73604703 463.53564651 59.75 474.25 C54.65140197 483.59004045 48.11284383 489.07471775 38.2265625 493.140625 C28.24965803 495.7979119 16.79023227 495.10967286 7.546875 490.5390625 C-1.23804403 485.23038444 -6.22328289 478.34678197 -10.3125 469 C-13.03787038 457.1074747 -12.14254303 446.18332073 -5.83203125 435.54296875 C-0.94788354 428.76348014 5.30773533 424.12905682 13 421 C14.32 421 15.64 421 17 421 C17 406.81 17 392.62 17 378 C13.37 378 9.74 378 6 378 C1.75083728 375.39438135 0.44668882 370.89373248 -1.25 366.375 C-1.518125 365.694375 -1.78625 365.01375 -2.0625 364.3125 C-4 359.31058673 -4 359.31058673 -4 357 C-5.216875 356.79375 -6.43375 356.5875 -7.6875 356.375 C-13.17684243 355.20428716 -17.84817254 352.74917324 -22.7890625 350.14453125 C-27.7180221 348.38761499 -31.2954699 349.3173183 -36.0625 351.2265625 C-38.02285931 352.15981866 -39.98119761 353.09733183 -41.9375 354.0390625 C-45.84249841 355.26435537 -48.06294216 355.12173156 -52 354 C-54.2515182 352.17544479 -56.02705351 350.55405275 -57.9375 348.4375 C-58.67709961 347.65729492 -58.67709961 347.65729492 -59.43164062 346.86132812 C-60.63532929 345.58752167 -61.81972352 344.29552951 -63 343 C-63.41966034 343.36886322 -63.83932068 343.73772644 -64.271698 344.11776733 C-67.33204151 346.77828981 -70.38710484 349.29695279 -73.71533203 351.61572266 C-78.91887718 355.56490121 -83.17526145 359.53730793 -84.7322998 366.07458496 C-85.75093357 374.83118953 -85.27622159 383.59138342 -84.875 392.375 C-84.79663995 395.05700641 -84.73984892 397.73932557 -84.68359375 400.421875 C-84.53033489 406.9518357 -84.29699401 413.47507918 -84 420 C-83.32670654 420.2582959 -82.65341309 420.5165918 -81.9597168 420.78271484 C-81.06937744 421.13027832 -80.17903809 421.4778418 -79.26171875 421.8359375 C-78.38217529 422.1767334 -77.50263184 422.5175293 -76.59643555 422.86865234 C-67.25610761 426.93852349 -60.84482082 434.82006993 -57.0625 444.1875 C-53.67393866 456.15335722 -55.88759685 467.62603572 -61.8125 478.25 C-67.89913294 485.90176712 -75.01347015 492.25014787 -85 494 C-97.70352899 494.80552523 -107.87336209 494.06458776 -118.12109375 485.7421875 C-126.1192993 478.32597196 -130.06737313 469.93792639 -131.34375 459.07421875 C-131.73498305 447.54914528 -127.73886006 438.18961343 -119.9609375 429.80078125 C-116.12362883 426.13296501 -112.78350152 423.82090744 -107.82910156 421.88598633 C-106.92565002 421.53119705 -106.02219849 421.17640778 -105.09136963 420.81086731 C-104.40121765 420.5432811 -103.71106567 420.27569489 -103 420 C-103.00452431 418.84274414 -103.00452431 418.84274414 -103.00914001 417.66210938 C-103.03145375 410.36494868 -103.02007147 403.06896329 -102.97153378 395.7719574 C-102.94775346 392.0210323 -102.93666836 388.27099266 -102.95532227 384.52001953 C-102.97287102 380.89491554 -102.95612352 377.27139622 -102.91632271 373.64648438 C-102.9070811 372.26874519 -102.90986939 370.89086729 -102.92530632 369.51318359 C-103.04787524 357.38980147 -103.04787524 357.38980147 -98.73461914 352.37597656 C-97.51777547 351.22039969 -96.27498778 350.0910878 -95 349 C-94.18724609 348.1759668 -93.37449219 347.35193359 -92.53710938 346.50292969 C-91.81330078 345.81618164 -91.08949219 345.12943359 -90.34375 344.421875 C-89.5496875 343.65359375 -88.755625 342.8853125 -87.9375 342.09375 C-86.28843897 340.50811439 -84.63194932 338.93017435 -82.96875 337.359375 C-82.185 336.59625 -81.40125 335.833125 -80.59375 335.046875 C-79.52157227 334.02352051 -79.52157227 334.02352051 -78.42773438 332.97949219 C-76.75068305 331.12626628 -76.75068305 331.12626628 -77.24804688 328.96191406 C-77.49619141 328.31448242 -77.74433594 327.66705078 -78 327 C-78.91096834 319.84239163 -76.50745011 315.13292128 -73.3125 308.7578125 C-71.856755 306.20804963 -71.856755 306.20804963 -72 304 C-72.90994217 303.99857498 -73.81988434 303.99714996 -74.75740051 303.99568176 C-83.41953991 303.97769939 -92.08117866 303.93564184 -100.74307728 303.86790943 C-105.1940997 303.83391666 -109.64478902 303.80857331 -114.09594727 303.80444336 C-147.33300359 303.76276762 -173.20138195 300.90798537 -198.625 276.875 C-214.97734139 259.93274731 -223.63596524 238.46582994 -223.5 214.875 C-223.49427979 213.70428955 -223.48855957 212.5335791 -223.48266602 211.32739258 C-222.96900356 186.06799807 -212.051894 165.18545878 -194.05078125 147.6171875 C-188.89943238 143.00275911 -182.91139845 139.53906092 -177 136 C-176.01 135.34 -175.02 134.68 -174 134 C-173.7102941 131.32250757 -173.58879171 128.8073199 -173.5625 126.125 C-172.38529938 91.93439912 -158.31693785 61.66749302 -135 37 C-134.25363281 36.18917969 -133.50726563 35.37835938 -132.73828125 34.54296875 C-115.63741966 16.59413055 -93.68445576 5.55081591 -70 -1 C-69.32420898 -1.19207031 -68.64841797 -1.38414063 -67.95214844 -1.58203125 C-47.03845743 -7.22216202 -20.62448626 -5.93194279 0 0 Z M-126.46630859 52.62988281 C-133.45563025 60.76881035 -139.06637552 69.49402331 -144 79 C-144.47050781 79.89976563 -144.94101563 80.79953125 -145.42578125 81.7265625 C-148.073556 87.15327112 -149.95978721 92.72886655 -151.6875 98.5 C-151.89012451 99.17587158 -152.09274902 99.85174316 -152.30151367 100.5480957 C-155.44814978 111.54753831 -156.3319728 122.16397892 -156.47851562 133.56640625 C-156.73801975 143.5541503 -156.73801975 143.5541503 -160 147 C-162.96875 148.703125 -162.96875 148.703125 -166.5 150.25 C-183.55671112 158.19682652 -195.69736879 172.55746463 -202.61328125 189.87109375 C-209.30286821 208.44549268 -207.42627335 228.25300279 -199.6484375 246.1015625 C-190.63302648 263.98128826 -174.92462541 277.09241621 -156.19140625 283.71875 C-142.69533309 287.90072356 -127.74547276 286.5474973 -113.77404785 286.34332275 C-109.84494565 286.29149169 -105.91567613 286.2691947 -101.98632812 286.24414062 C-94.32376997 286.19106639 -86.66202707 286.10612359 -79 286 C-80.03203167 281.76562874 -80.03203167 281.76562874 -82.84765625 278.73974609 C-83.57855469 278.50336426 -84.30945313 278.26698242 -85.0625 278.0234375 C-86.25746094 277.60578125 -86.25746094 277.60578125 -87.4765625 277.1796875 C-88.30929688 276.91414063 -89.14203125 276.64859375 -90 276.375 C-91.650202 275.83344764 -93.29631914 275.27924285 -94.9375 274.7109375 C-95.66839844 274.47681152 -96.39929688 274.24268555 -97.15234375 274.00146484 C-99.68776115 272.62722037 -100.12678647 271.76415717 -101 269 C-101.21622353 266.11314329 -101.32788404 263.3250847 -101.3359375 260.4375 C-101.3459227 259.19504517 -101.3459227 259.19504517 -101.35610962 257.92749023 C-101.36621795 256.17922176 -101.3709272 254.43091485 -101.37060547 252.68261719 C-101.37498506 250.00912084 -101.41133933 247.33726761 -101.44921875 244.6640625 C-101.45508605 242.9635473 -101.45905602 241.26302428 -101.4609375 239.5625 C-101.47530853 238.76448975 -101.48967957 237.96647949 -101.50448608 237.14428711 C-101.47520191 233.58647564 -101.32212612 231.44171316 -99.19677734 228.52734375 C-96.69118304 226.78529019 -94.31270662 226.21324942 -91.36376953 225.53125 C-86.56722052 224.32574172 -82.43853528 223.05478159 -79.50683594 218.8671875 C-76.9728292 213.87353098 -75.20267126 208.62342842 -73.66845703 203.24633789 C-73 201 -73 201 -71.625 197.80859375 C-70.72996405 193.78652595 -72.06562484 191.7013545 -73.875 188.0625 C-76.31676491 183.11874727 -77.98411166 179.53410937 -77 174 C-75.01311875 170.9851525 -72.55527289 168.53780691 -70 166 C-69.26313965 165.23961426 -68.5262793 164.47922852 -67.76708984 163.69580078 C-65.42884698 161.29549375 -63.06275935 158.92614439 -60.6875 156.5625 C-59.87732422 155.74845703 -59.06714844 154.93441406 -58.23242188 154.09570312 C-57.07129883 152.93651367 -57.07129883 152.93651367 -55.88671875 151.75390625 C-55.18764404 151.05595947 -54.48856934 150.3580127 -53.76831055 149.63891602 C-51.48422024 147.52196196 -50.40303021 147.03758531 -47.27734375 146.74609375 C-42.32237294 147.12997111 -38.65130222 149.48468799 -34.31640625 151.78515625 C-27.93740072 154.12187088 -22.86751751 151.74841048 -16.9375 149.0625 C-10.22676629 146.04452363 -10.22676629 146.04452363 -6.796875 145.37109375 C-2.99063579 143.50518598 -2.50898603 141.40353896 -1.13085938 137.5234375 C-0.86080078 136.69070312 -0.59074219 135.85796875 -0.3125 135 C0.24518533 133.3511912 0.81124719 131.70518557 1.38671875 130.0625 C1.62608154 129.33160156 1.86544434 128.60070312 2.11206055 127.84765625 C3 126 3 126 6 124 C9.01049301 123.79145292 11.92621544 123.69599013 14.9375 123.69921875 C15.81398193 123.69493362 16.69046387 123.6906485 17.59350586 123.68623352 C19.44611751 123.68049204 21.29875171 123.67998862 23.15136719 123.68432617 C25.98932202 123.6874881 28.82623644 123.6640184 31.6640625 123.63867188 C33.46354035 123.6363991 35.26302101 123.63569528 37.0625 123.63671875 C37.91255615 123.627509 38.7626123 123.61829926 39.63842773 123.60881042 C45.58438529 123.65563704 45.58438529 123.65563704 47.70222473 125.41040039 C49.16678147 127.20428479 49.6668947 128.57230474 50.26171875 130.80078125 C52.54781691 138.97805617 52.54781691 138.97805617 57.79199219 145.33251953 C61.13037387 147.01628846 64.55128392 148.05348866 68.16015625 148.9921875 C71.79006294 149.94489953 74.67081494 151.31616362 78 153 C83.76250852 153 88.23099813 150.63201402 93.25390625 148.05859375 C96.64969005 146.74955049 98.38804468 146.32582787 102 147 C104.97296436 149.01932704 107.45197968 151.47613154 110 154 C110.7616748 154.73686035 111.52334961 155.4737207 112.30810547 156.23291016 C114.70575931 158.57240918 117.0745743 160.93796287 119.4375 163.3125 C120.25154297 164.12267578 121.06558594 164.93285156 121.90429688 165.76757812 C122.67708984 166.54166016 123.44988281 167.31574219 124.24609375 168.11328125 C125.29301392 169.16189331 125.29301392 169.16189331 126.36108398 170.23168945 C128.65907093 172.71110543 128.97942737 173.74595922 129.2578125 177.18359375 C128.88701948 182.672454 126.53811128 186.72890953 124.1171875 191.59765625 C122.74160724 195.78692341 123.23799072 197.02063072 125 201 C125.53583534 202.47005556 126.0638808 203.94296378 126.5859375 205.41796875 C127.18056282 207.00845992 127.77695269 208.59829238 128.375 210.1875 C128.66632813 210.99380859 128.95765625 211.80011719 129.2578125 212.63085938 C131.3424181 218.34935492 131.3424181 218.34935492 136 222 C139.20737604 223.30451846 142.4219211 224.5148274 145.6875 225.66210938 C150.63324118 227.51431877 150.63324118 227.51431877 152.19189453 229.57836914 C153.3786706 233.13475339 153.2849639 236.63626113 153.265625 240.34375 C153.26753845 241.14985718 153.2694519 241.95596436 153.27142334 242.78649902 C153.27278194 244.48771477 153.2691082 246.188941 153.26074219 247.89013672 C153.25003788 250.49079729 153.26064828 253.09076711 153.2734375 255.69140625 C153.27211585 257.34635569 153.26955333 259.0013047 153.265625 260.65625 C153.26967346 261.43238647 153.27372192 262.20852295 153.27789307 263.00817871 C153.21591691 270.16058318 153.21591691 270.16058318 151 273 C149.15234375 274.00146484 149.15234375 274.00146484 146.9375 274.7109375 C146.14085937 274.98679687 145.34421875 275.26265625 144.5234375 275.546875 C142.84344561 276.09820361 141.16113043 276.6425033 139.4765625 277.1796875 C138.28160156 277.59734375 138.28160156 277.59734375 137.0625 278.0234375 C135.96615234 278.37801025 135.96615234 278.37801025 134.84765625 278.73974609 C132.13866144 280.58750392 131.92540191 282.94375357 131 286 C139.4420246 286.11692702 147.88369922 286.20522941 156.32633877 286.25906086 C160.24853477 286.28492461 164.1701685 286.3198841 168.09204102 286.37719727 C194.33676681 286.75044332 216.79167063 285.21729006 236.94116211 266.20629883 C250.75955932 252.54746198 258.31784589 234.35770706 258.5 215.0625 C258.30074831 195.64781092 251.59796244 178.10788603 238 164 C227.98691382 154.32826903 216.96166583 148.50972377 203.890625 143.921875 C202 143 202 143 200 140 C199.50097656 138.07739258 199.50097656 138.07739258 199.140625 135.89453125 C198.92647949 134.67854248 198.92647949 134.67854248 198.70800781 133.43798828 C198.55686523 132.57157715 198.40572266 131.70516602 198.25 130.8125 C194.72349377 112.16231991 187.41681888 95.51282036 175 81 C174.00226563 79.80310547 174.00226563 79.80310547 172.984375 78.58203125 C155.04196747 57.7675477 129.42666364 44.52781743 102 42 C87.44056105 41.17869832 73.29521476 42.20077319 59.375 46.75 C55.09376755 48.07617301 52.3657503 48.55919654 48 47 C45.3925732 44.9193708 42.99135916 42.68910532 40.5703125 40.39453125 C27.95599791 28.64289775 10.54988383 20.39187856 -6 16 C-7.71509766 15.52433594 -7.71509766 15.52433594 -9.46484375 15.0390625 C-51.93655385 5.15770412 -97.49708419 20.42899335 -126.46630859 52.62988281 Z M15 140 C14.195625 142.5575 13.39125 145.115 12.5625 147.75 C9.93434159 155.11525191 9.93434159 155.11525191 7.16015625 157.7421875 C4.80221632 158.76501749 2.49495264 159.37453403 0 160 C-2.68753885 160.92388642 -5.34141065 161.93384719 -8 162.9375 C-8.69851074 163.19104248 -9.39702148 163.44458496 -10.11669922 163.70581055 C-14.00432619 165.13811829 -17.47153614 166.73221009 -21 168.9375 C-24.37727888 170.90651731 -26.83886609 171.52977361 -30.8203125 170.73828125 C-34.54466305 169.47680768 -38.0147614 167.70217646 -41.484375 165.86328125 C-43.89258491 164.77504137 -43.89258491 164.77504137 -45.96484375 165.52734375 C-48.785084 167.56809341 -51.31931388 169.83138252 -53.8125 172.25 C-54.32748047 172.71535156 -54.84246094 173.18070313 -55.37304688 173.66015625 C-57.06482998 175.22843615 -57.06482998 175.22843615 -59 178 C-58.92761056 182.76563785 -57.01537812 186.32664799 -54.83984375 190.4609375 C-53.16690585 195.51865673 -53.27559163 200.00528663 -55.57421875 204.75390625 C-56.26488556 206.03097574 -56.96992246 207.30035516 -57.6875 208.5625 C-60.65699274 214.03685332 -62.81459254 219.2608898 -64.5 225.25 C-66.46868418 231.48307648 -66.46868418 231.48307648 -68.73046875 233.68359375 C-70.80346292 234.74698597 -72.75598196 235.37816368 -75 236 C-76.83859343 236.73701106 -78.67194206 237.48723183 -80.5 238.25 C-81.985 238.8275 -83.47 239.405 -85 240 C-85 246.93 -85 253.86 -85 261 C-79.55065715 263.01691539 -79.55065715 263.01691539 -74.08081055 264.97680664 C-70.04424599 266.55380549 -68.35425095 267.38136051 -66.13671875 271.25390625 C-65.76160156 272.49011719 -65.38648438 273.72632813 -65 275 C-64.5312953 276.29194034 -64.05454952 277.58098827 -63.5703125 278.8671875 C-63.08845133 280.20309242 -62.60668258 281.53903068 -62.125 282.875 C-60.44266621 287.50274469 -58.70999918 291.78468884 -56.125 296 C-53.80784666 299.98730932 -52.93109644 303.44696042 -54 308 C-55.21139938 310.90897911 -56.53449278 313.69686977 -58.00390625 316.484375 C-59.14759788 319.372757 -59.03988294 320.14984964 -58 323 C-56.70860726 324.70078688 -56.70860726 324.70078688 -55.05859375 326.234375 C-54.47529297 326.80800781 -53.89199219 327.38164062 -53.29101562 327.97265625 C-52.67935547 328.55917969 -52.06769531 329.14570313 -51.4375 329.75 C-50.82197266 330.35199219 -50.20644531 330.95398438 -49.57226562 331.57421875 C-48.05485187 333.05634381 -46.52829404 334.5290967 -45 336 C-43.49759766 335.33291016 -43.49759766 335.33291016 -41.96484375 334.65234375 C-40.62277017 334.07985082 -39.28030075 333.50828524 -37.9375 332.9375 C-36.95233398 332.49567383 -36.95233398 332.49567383 -35.94726562 332.04492188 C-30.59825748 329.8051894 -26.61989024 329.53858774 -21.0690918 331.77954102 C-18.97725992 332.74268116 -16.92645602 333.76625271 -14.875 334.8125 C-8.50851529 337.96157393 -2.44911507 340.30123221 4.4609375 342.015625 C7.54590505 343.21164319 8.37449408 344.1408512 10 347 C10.93194645 349.20596574 11.80378111 351.43796481 12.625 353.6875 C13.8177082 357.63085991 13.8177082 357.63085991 16 361 C17.4887186 361.08669432 18.981445 361.10703494 20.47265625 361.09765625 C21.37177734 361.09443359 22.27089844 361.09121094 23.19726562 361.08789062 C24.14279297 361.07951172 25.08832031 361.07113281 26.0625 361.0625 C27.01189453 361.05798828 27.96128906 361.05347656 28.93945312 361.04882812 C31.29303065 361.0370011 33.64648477 361.02052025 36 361 C38.1675861 356.78777912 40.17052858 352.65998285 41.75 348.1875 C43.34420082 344.61429126 43.74873604 344.1279162 47.4375 342.25 C48.95591853 341.82461744 50.47713129 341.40916504 52 341 C54.09213794 340.25339391 56.17491072 339.48025866 58.25 338.6875 C59.36246094 338.26597656 60.47492188 337.84445312 61.62109375 337.41015625 C64.98710154 336.00538306 68.11158437 334.36911458 71.3125 332.625 C75.42195292 330.54610029 78.28504743 329.19128204 82.84375 330.234375 C87.65687171 331.94338198 92.34638211 333.89811592 97 336 C99.3784607 333.79560567 101.72282389 331.55796096 104.0625 329.3125 C104.73861328 328.68666016 105.41472656 328.06082031 106.11132812 327.41601562 C109.91880126 324.00463339 109.91880126 324.00463339 111.0625 319.3125 C110.711875 318.549375 110.36125 317.78625 110 317 C109.51853516 315.92298828 109.51853516 315.92298828 109.02734375 314.82421875 C108.30340087 313.40487553 107.57426207 311.98817003 106.83984375 310.57421875 C105.18264745 305.4947194 105.26717742 301.01272363 107.57421875 296.24609375 C108.26469807 294.96892289 108.96974985 293.69954668 109.6875 292.4375 C112.6614091 286.97066012 114.74993587 281.81004419 116.375 275.8125 C118.31863719 269.58893447 118.31863719 269.58893447 121.24609375 267.05859375 C123.81709496 265.74765706 126.24283283 264.84835913 129 264 C132.96 262.515 132.96 262.515 137 261 C137 254.07 137 247.14 137 240 C131.55065715 237.98308461 131.55065715 237.98308461 126.08081055 236.02319336 C122.04424599 234.44619451 120.35425095 233.61863949 118.13671875 229.74609375 C117.76160156 228.50988281 117.38648438 227.27367187 117 226 C116.5312953 224.70805966 116.05454952 223.41901173 115.5703125 222.1328125 C115.08845133 220.79690758 114.60668258 219.46096932 114.125 218.125 C112.44266621 213.49725531 110.70999918 209.21531116 108.125 205 C105.80835066 201.01355796 104.92934518 197.55232622 106 193 C107.21306792 190.1235279 108.53337409 187.36704201 110.00390625 184.61328125 C111.23497942 181.38352459 111.29194285 180.21028224 110 177 C108.15622179 174.70202728 106.08113531 172.70374212 103.9375 170.6875 C103.36966797 170.13771484 102.80183594 169.58792969 102.21679688 169.02148438 C100.82009075 167.67172635 99.41121163 166.33458475 98 165 C93.67511549 166.3827862 89.45120915 167.73510846 85.375 169.75 C80.38304808 171.59887108 76.65672777 170.74614414 71.8515625 168.58203125 C70.78679687 167.99808594 69.72203125 167.41414063 68.625 166.8125 C63.899694 164.26570192 59.28831574 162.37901702 54.15063477 160.8215332 C44.84902312 157.97446765 44.84902312 157.97446765 42.17578125 154.90625 C41.1875 152.625 41.1875 152.625 40.66796875 150.5390625 C39.69043869 146.82330498 37.71827931 143.43655862 36 140 C29.07 140 22.14 140 15 140 Z M10.4765625 443.41796875 C5.81515456 448.4123344 5.41022164 453.4292209 5.58203125 460.0234375 C6.4019928 465.86278987 9.33678151 469.45848043 13.5625 473.375 C19.63205197 477.42136798 24.74439038 477.91160223 32 477 C37.94783579 474.67842538 41.8129096 470.62930218 45.078125 465.2109375 C47.12965023 460.29075411 46.89753174 453.92907063 45.34765625 448.87109375 C42.28886489 443.00294036 37.41364348 438.90000265 31.3125 436.625 C22.96852949 435.05066594 16.49443209 437.77106372 10.4765625 443.41796875 Z M-106.8125 440.75 C-111.74091194 445.81922371 -113.67750047 450.53750794 -114.08984375 457.515625 C-113.8376256 464.49000503 -110.78139291 468.7762581 -105.9140625 473.5546875 C-100.46043713 477.67273115 -94.56700284 477.71941885 -88 477 C-81.30009782 475.18735523 -77.4664248 470.84134559 -74 465 C-72.09051724 459.27155171 -72.08814285 453.22437495 -74.625 447.6875 C-78.26592597 441.39516801 -83.2012993 438.58992198 -89.94921875 436.48046875 C-95.8828202 435.0903107 -101.81382392 437.63971266 -106.8125 440.75 Z M129 444 C124.97417359 449.61859886 123.96018902 455.1979032 125 462 C126.89837219 468.69176196 131.12882526 472.51587372 137 476 C142.57266221 477.85755407 148.65504227 477.72152545 154.25 476 C159.72629656 472.01723886 164.89782945 466.88856591 166 460 C166.31738654 452.29015193 164.18213685 446.71902491 159 441 C149.44610583 432.91936988 137.14739089 435.4736607 129 444 Z " fill="#000000" transform="translate(230,11)"/>
<path d="M0 0 C14.19689505 11.0534809 22.96271135 26.94414532 25.30957031 44.78027344 C26.5802141 64.524123 21.23745672 81.79473308 8.30957031 96.78027344 C0.94485132 104.90199316 -7.74622775 109.53776705 -17.69042969 113.78027344 C-18.58117187 114.16441406 -19.47191406 114.54855469 -20.38964844 114.94433594 C-35.50734973 120.15397857 -53.71787462 117.53633971 -68.00683594 111.34277344 C-83.54738335 103.71010788 -95.22849878 91.08208627 -101.03637695 74.74804688 C-107.1318209 56.40938386 -105.5862811 38.92003651 -97.62792969 21.53027344 C-89.41505412 6.13990618 -75.91603807 -4.1468743 -59.69042969 -10.21972656 C-39.29259414 -16.26016069 -17.12562289 -12.35696302 0 0 Z M-71.69042969 16.78027344 C-72.30273438 17.27914062 -72.91503906 17.77800781 -73.54589844 18.29199219 C-82.18533579 25.86341962 -86.97894461 38.11069607 -87.90136719 49.35058594 C-88.39909211 62.78915894 -84.08291562 73.86479773 -75.44042969 83.96777344 C-67.26037317 92.68866014 -56.31692696 99.28515439 -44.15136719 99.98339844 C-29.39823961 100.26888456 -16.91427703 97.01109994 -5.87792969 86.53027344 C3.53711682 76.49204854 8.75280453 64.21520962 8.52050781 50.39355469 C7.39515768 36.45171694 2.08057241 25.56093409 -8.04980469 16.00683594 C-19.598557 6.26898266 -31.66064357 3.53293474 -46.46142578 4.52587891 C-56.30197914 5.64897382 -64.49025653 10.15726847 -71.69042969 16.78027344 Z " fill="#000000" transform="translate(295.6904296875,209.2197265625)"/>
</svg>
