<?xml version="1.0" encoding="UTF-8"?>
<svg version="1.1" xmlns="http://www.w3.org/2000/svg" width="512" height="580">
<path d="M0 0 C0.75772013 -0.00282738 1.51544025 -0.00565475 2.2961216 -0.00856781 C6.32526601 -0.02344157 10.35437586 -0.03273905 14.38354492 -0.03710938 C17.62422259 -0.04144258 20.86462627 -0.05514848 24.10522461 -0.078125 C53.432592 -0.28153621 82.5795868 1.12609762 111.61328125 5.515625 C112.31556854 5.61917297 113.01785583 5.72272095 113.74142456 5.82940674 C167.09079449 13.72068158 232.47793559 27.76292217 267.70703125 72.4375 C273.41091049 80.7128002 276.858595 90.10551721 276.87055016 100.18418407 C276.87405623 100.85388506 276.8775623 101.52358604 276.88117462 102.213581 C276.89045247 104.44977823 276.88557476 106.68571296 276.88070679 108.92192078 C276.88444488 110.54458334 276.88904704 112.16724411 276.89443743 113.78990203 C276.90666332 118.24316 276.90640744 122.69634282 276.90404868 127.14961374 C276.90364041 131.95482119 276.91468072 136.76000458 276.92416382 141.56520081 C276.9407729 150.97775645 276.94627334 160.39028704 276.94738857 169.80285611 C276.94833916 177.45514574 276.95244998 185.10742711 276.95878983 192.75971413 C276.97640253 214.46055952 276.98562873 236.16138513 276.98412888 257.86223771 C276.98400901 259.61688634 276.98400901 259.61688634 276.98388672 261.40698242 C276.98380496 262.57817841 276.9837232 263.74937439 276.98363896 264.95606116 C276.98282621 283.93326515 277.00196104 302.91038974 277.03016345 321.88757076 C277.05890022 341.37830986 277.07270329 360.86901025 277.0709759 380.35977107 C277.07031224 391.30025734 277.075794 402.24066038 277.097332 413.18112755 C277.11555427 422.49698817 277.11988255 431.81272785 277.10631315 441.12859859 C277.09978862 445.87946867 277.0996477 450.63010681 277.11701965 455.38095474 C277.1327783 459.73549026 277.12985834 464.08961044 277.11245139 468.444136 C277.10938762 470.01411829 277.11299029 471.58413179 277.12417154 473.15407725 C277.24763513 491.72906749 271.34374621 505.02555969 258.53125 518.31640625 C250.49693679 526.39338425 241.46670723 532.55173017 231.61328125 538.203125 C230.47246094 538.86183594 229.33164062 539.52054688 228.15625 540.19921875 C218.05467264 545.88291405 207.47061901 550.18669232 196.61328125 554.203125 C195.81245117 554.5007373 195.01162109 554.79834961 194.18652344 555.10498047 C164.00421894 566.14473403 131.92420565 572.45230432 100.11328125 576.390625 C98.24845093 576.62313965 98.24845093 576.62313965 96.34594727 576.86035156 C92.10537959 577.35710919 87.86348028 577.79817208 83.61328125 578.203125 C82.69295105 578.29139557 81.77262085 578.37966614 80.82440186 578.47061157 C61.7385967 580.23725682 42.7410297 580.56712087 23.59191513 580.52118301 C21.20203331 580.5155394 18.8121586 580.51272098 16.42227173 580.51010132 C-6.62843473 580.47337284 -29.49001842 580.0895985 -52.38671875 577.203125 C-53.85998952 577.02411326 -55.33329801 576.84541166 -56.80664062 576.66699219 C-112.81667326 569.78922 -186.39012955 557.46615431 -224.2578125 510.90234375 C-230.97263874 501.8481587 -235.50156591 491.90956682 -235.52373314 480.57838535 C-235.52638497 479.91075712 -235.52903679 479.2431289 -235.53176898 478.55526951 C-235.53945571 476.30811821 -235.54002091 474.0610216 -235.5406189 471.81385803 C-235.54463395 470.1903736 -235.54907224 468.56689017 -235.55389845 466.94340795 C-235.56586533 462.47392239 -235.57151268 458.00444763 -235.57607961 453.53494918 C-235.58203536 448.71740439 -235.59364537 443.89987251 -235.60437012 439.08233643 C-235.62889617 427.44276067 -235.64352231 415.80318065 -235.65643018 404.163587 C-235.66014221 400.87572056 -235.66411544 397.58785453 -235.66818285 394.29998851 C-235.69342131 373.88111113 -235.71547364 353.46223308 -235.727911 333.04334354 C-235.73084068 328.3133195 -235.73380234 323.58329548 -235.73681641 318.85327148 C-235.73756246 317.67765069 -235.73830851 316.5020299 -235.73907717 315.29078423 C-235.75172683 296.25262149 -235.78494442 277.21455222 -235.82661824 258.17643315 C-235.86905775 238.6281586 -235.89260843 219.07993188 -235.89783156 199.53161138 C-235.90124356 188.55692519 -235.91297385 177.58238503 -235.9459343 166.60774422 C-235.97396373 157.2596246 -235.98492143 147.91168096 -235.97373883 138.56352258 C-235.96855948 133.79629133 -235.97139195 129.02942842 -235.99620438 124.2622509 C-236.01876318 119.89144146 -236.01790586 115.52126353 -235.9990005 111.15044253 C-235.99620974 109.57563533 -236.00174732 108.0007847 -236.01681344 106.42604709 C-236.20284981 85.70126781 -227.43402235 72.50725096 -213.37109375 58.14453125 C-206.52372788 51.64998766 -198.49671641 46.93551634 -190.38671875 42.203125 C-189.73735352 41.8201123 -189.08798828 41.43709961 -188.41894531 41.04248047 C-147.02553648 16.93296591 -96.03511508 8.01367897 -49.01171875 2.953125 C-47.85390396 2.82849884 -47.85390396 2.82849884 -46.67269897 2.70135498 C-31.11157523 1.04763621 -15.65102322 0.04060679 0 0 Z M-203.19921875 82.046875 C-208.52000828 87.89974348 -211.90847604 94.42069788 -212.69921875 102.328125 C-211.70888469 114.60826729 -203.60087432 123.98166371 -194.60546875 131.7578125 C-128.24577007 183.94066646 -17.18788819 186.27243693 95.31738281 177.78564453 C145.22065849 171.80195539 212.42916372 160.78742612 246.921875 120.44140625 C251.88103015 113.87882911 254.15413005 107.45106912 253.61328125 99.203125 C252.14891738 91.85443657 248.50760019 86.74273954 243.61328125 81.203125 C243.04996094 80.54570313 242.48664063 79.88828125 241.90625 79.2109375 C201.20751687 35.05414207 118.0798758 28.86652002 62.61328125 24.203125 C61.57478027 24.11546875 60.5362793 24.0278125 59.46630859 23.9375 C53.51501676 23.47099587 47.58151054 23.28098314 41.61328125 23.203125 C40.57998688 23.18829071 40.57998688 23.18829071 39.52581787 23.17315674 C-36.68460475 22.11397813 -146.21989184 24.0851459 -203.19921875 82.046875 Z M-212.38671875 147.203125 C-212.47966419 157.98258317 -212.55060796 168.76194499 -212.59396744 179.54172325 C-212.61478466 184.54797969 -212.64299452 189.55396066 -212.68847656 194.56005859 C-212.73214431 199.39708769 -212.75589991 204.23385289 -212.76622772 209.071064 C-212.77358168 210.91054052 -212.78794179 212.75000366 -212.80963898 214.58936691 C-212.99019196 230.53931407 -210.58847764 240.74216163 -199.16796875 252.484375 C-144.70085871 304.12202478 -40.73412711 309.01046151 29.99658203 307.3125 C97.46266545 305.27221342 194.39410843 300.96362512 244.31982422 248.66699219 C251.04743643 241.05303167 253.93515546 232.88463041 253.84033203 222.81103516 C253.84077011 221.58077103 253.84077011 221.58077103 253.84121704 220.32565308 C253.83983044 217.63105466 253.82430096 214.93673726 253.80859375 212.2421875 C253.80486124 210.36746369 253.80201539 208.49273793 253.80001831 206.61801147 C253.79240064 201.69592861 253.7727682 196.77396473 253.75061035 191.85192871 C253.73011169 186.82447926 253.721008 181.79701049 253.7109375 176.76953125 C253.68952052 166.91401037 253.65540714 157.0585776 253.61328125 147.203125 C253.08196091 147.60561462 252.55064056 148.00810425 252.0032196 148.42279053 C251.29663712 148.95583801 250.59005463 149.4888855 249.86206055 150.03808594 C248.81758003 150.82744537 248.81758003 150.82744537 247.7519989 151.63275146 C197.48426039 188.54231088 128.45951038 199.16169734 67.61328125 203.203125 C66.41912598 203.28925049 65.2249707 203.37537598 63.99462891 203.46411133 C49.79520553 204.41836767 35.58921174 204.40290206 21.36328125 204.390625 C20.07204346 204.39002075 18.78080566 204.3894165 17.45043945 204.38879395 C-1.25149691 204.36501784 -19.77009075 204.11691015 -38.38671875 202.203125 C-39.670625 202.07953613 -40.95453125 201.95594727 -42.27734375 201.82861328 C-74.0563359 198.74410037 -105.81571595 193.54926001 -136.38671875 184.203125 C-137.40894531 183.89262207 -138.43117188 183.58211914 -139.484375 183.26220703 C-153.60351819 178.91292779 -167.11734363 173.69949891 -180.38671875 167.203125 C-181.07588379 166.86812988 -181.76504883 166.53313477 -182.47509766 166.18798828 C-192.15019606 161.42745125 -200.74482372 155.62486468 -209.38671875 149.203125 C-210.37671875 148.543125 -211.36671875 147.883125 -212.38671875 147.203125 Z M-212.38671875 272.203125 C-212.47966419 282.98258317 -212.55060796 293.76194499 -212.59396744 304.54172325 C-212.61478466 309.54797969 -212.64299452 314.55396066 -212.68847656 319.56005859 C-212.73214431 324.39708769 -212.75589991 329.23385289 -212.76622772 334.071064 C-212.77358168 335.91054052 -212.78794179 337.75000366 -212.80963898 339.58936691 C-212.99120531 355.62883269 -210.3813124 365.85958466 -199.13671875 377.765625 C-144.92906474 429.85671117 -39.61282076 433.52866767 31.17503357 432.35548401 C97.68560539 431.01337127 188.3137221 425.33126671 239.61328125 378.203125 C240.27585937 377.63207031 240.9384375 377.06101562 241.62109375 376.47265625 C247.35264983 371.24974476 252.18782947 363.91844223 253.61328125 356.203125 C253.70275537 353.47251234 253.7395365 350.76826531 253.72680664 348.03808594 C253.72702568 346.80825989 253.72702568 346.80825989 253.72724915 345.55358887 C253.72655343 342.84819884 253.71877697 340.14287798 253.7109375 337.4375 C253.70907211 335.55991656 253.70764878 333.68233263 253.70664978 331.80474854 C253.70283414 326.86623793 253.69301196 321.92775679 253.6819458 316.98925781 C253.67171121 311.94857176 253.66714777 306.90788095 253.66210938 301.8671875 C253.65138886 291.97915373 253.63432385 282.09114182 253.61328125 272.203125 C253.06936234 272.61191391 252.52544342 273.02070282 251.96504211 273.44187927 C251.24866074 273.9798262 250.53227936 274.51777313 249.79418945 275.07202148 C248.73081108 275.87082985 248.73081108 275.87082985 247.64595032 276.68577576 C202.73705446 310.20942219 141.99410969 320.79721281 87.55078125 326.515625 C86.77815948 326.59702728 86.00553772 326.67842957 85.20950317 326.76229858 C65.26331755 328.82972669 45.46762269 329.39147696 25.4140625 329.38842773 C21.41268289 329.38830736 17.41149087 329.40877187 13.41015625 329.42773438 C-10.14968861 329.47979663 -33.62715134 328.37671404 -57.01171875 325.390625 C-57.68496185 325.30597992 -58.35820496 325.22133484 -59.05184937 325.13412476 C-111.36550146 318.52492804 -166.43928377 306.3832852 -209.38671875 274.203125 C-210.37671875 273.543125 -211.36671875 272.883125 -212.38671875 272.203125 Z M-212.38671875 398.203125 C-212.45639371 408.86950231 -212.50961869 419.53582499 -212.54215527 430.202384 C-212.55777541 435.15591947 -212.57894672 440.10929862 -212.61303711 445.06274414 C-212.64576111 449.84788603 -212.6635992 454.63287805 -212.67135048 459.41812325 C-212.67687065 461.23887044 -212.68764998 463.05960993 -212.70390892 464.88029289 C-212.72585689 467.44112405 -212.72867849 470.00134498 -212.72729492 472.56225586 C-212.73808075 473.30600967 -212.74886658 474.04976349 -212.75997925 474.8160553 C-212.70191861 484.82247579 -208.89070382 491.84161654 -202.38671875 499.203125 C-201.82339844 499.86054688 -201.26007813 500.51796875 -200.6796875 501.1953125 C-159.98095437 545.35210793 -76.8533133 551.53972998 -21.38671875 556.203125 C-20.34821777 556.29078125 -19.3097168 556.3784375 -18.23974609 556.46875 C-12.28845426 556.93525413 -6.35494804 557.12526686 -0.38671875 557.203125 C0.30214417 557.21301453 0.99100708 557.22290405 1.70074463 557.23309326 C76.6836938 558.27521234 182.39384231 556.67131786 240.42578125 502.359375 C247.56720276 495.31997379 253.38962244 487.9582396 253.73353577 477.57110596 C253.736427 476.09069937 253.73379392 474.61027574 253.72680664 473.12988281 C253.72702568 471.91468712 253.72702568 471.91468712 253.72724915 470.67494202 C253.72655349 468.00201727 253.71877731 465.32916255 253.7109375 462.65625 C253.70907209 460.80108681 253.70764877 458.94592313 253.70664978 457.09075928 C253.7028343 452.21143226 253.69301227 447.33213507 253.6819458 442.45281982 C253.67171086 437.4724569 253.66714769 432.49208916 253.66210938 427.51171875 C253.65138915 417.7421744 253.63432434 407.97265218 253.61328125 398.203125 C250.11591969 399.89092957 247.13895557 401.92356735 243.98828125 404.203125 C196.70721752 437.31472089 135.62153585 446.81425023 79.43359375 452.40625 C78.45357895 452.50589806 78.45357895 452.50589806 77.45376587 452.6075592 C64.80707635 453.82829806 52.17999791 454.36292527 39.4765625 454.40625 C38.07530185 454.41323369 36.67404147 454.4202746 35.27278137 454.42736816 C30.82377723 454.44661905 26.37482252 454.4515438 21.92578125 454.453125 C20.78853733 454.45400871 20.78853733 454.45400871 19.62831879 454.45491028 C-3.84124589 454.46777894 -27.05809598 453.98290953 -50.38671875 451.203125 C-51.65193359 451.06390625 -52.91714844 450.9246875 -54.22070312 450.78125 C-84.50199314 447.4252938 -114.33841732 441.40742394 -143.38671875 432.203125 C-144.31500488 431.90937988 -145.24329102 431.61563477 -146.19970703 431.31298828 C-168.25554951 424.21478893 -190.92826163 414.94065382 -208.6015625 399.6015625 C-210.2711754 397.99756508 -210.2711754 397.99756508 -212.38671875 398.203125 Z " fill="#000000" transform="translate(235.38671875,-0.203125)"/>
<path d="M0 0 C2.70552388 2.19823815 4.44778333 3.89556667 6 7 C6.39431433 11.73177192 6.45299639 14.09400722 4.3125 18.375 C1.09516256 22.02711277 -1.19650435 22.76976651 -5.9375 23.375 C-9.98961521 22.87882263 -11.91984733 21.66946564 -15 19 C-17.40464553 15.09245102 -18.36668766 12.28760838 -17.5 7.8125 C-16.30617181 3.96240407 -14.44370343 2.15231464 -11 0 C-7.49337774 -1.75331113 -3.70839169 -0.95431841 0 0 Z " fill="#000000" transform="translate(404,478)"/>
<path d="M0 0 C3.63591862 2.01995479 5.25551558 3.9206578 6.5 7.8125 C7.3837728 12.23962355 6.22982821 15.07857797 4 19 C1.98060136 21.5242483 1.15499404 21.94833532 -2 23 C-6.25160217 23.40109454 -8.5006973 23.26378256 -12.3125 21.25 C-16.15824916 18.03030303 -16.15824916 18.03030303 -17 15 C-17.33156904 10.82223011 -17.41180849 8.09008128 -15.9375 4.1875 C-11.47094973 -0.85537933 -6.31434967 -1.75398602 0 0 Z " fill="#000000" transform="translate(358,239)"/>
<path d="M0 0 C2.70552388 2.19823815 4.44778333 3.89556667 6 7 C6.34444547 12.25279338 6.57741751 15.82634624 3 20 C-0.40670633 22.37677186 -2.97438457 23.25375044 -7.0625 22.9375 C-10.97527179 22.21928568 -13.33094573 21.06156225 -16 18 C-18.01706746 13.74380261 -18.21762408 10.81609028 -17 6.25 C-12.75354494 -0.65048947 -7.57300349 -2.4546015 0 0 Z " fill="#000000" transform="translate(404,353)"/>
<path d="M0 0 C3.87816033 1.43323316 4.79564744 2.6457889 6.875 6.25 C8.14849453 10.49498178 8.25641626 12.75959514 7 17 C4.5 19.875 4.5 19.875 2 22 C1.67 22.33 1.34 22.66 1 23 C-3.07493843 23.53718586 -7.23242614 23.91195544 -10.9609375 21.98828125 C-13.59390581 19.84979723 -14.92257423 18.23227732 -16 15 C-16.3711875 9.98896872 -16.11788946 7.00871501 -13 3 C-9.43503881 -0.97630287 -4.97437235 -0.63180758 0 0 Z " fill="#000000" transform="translate(448,341)"/>
<path d="M0 0 C3.10352458 1.60923497 5.21701424 3.00347267 7.375 5.75 C8.60446616 10.17607817 9.10547599 13.94641115 6.90234375 18.0390625 C4.3537073 21.34209534 2.57985625 22.81022886 -1.4375 24.125 C-6.45356689 23.94899765 -10.22473687 22.71608769 -13.875 19.1875 C-16.10202289 14.85717772 -16.32508004 12.04748012 -14.875 7.375 C-11.35094697 1.03170454 -7.31388333 -1.43128832 0 0 Z " fill="#000000" transform="translate(402,227)"/>
<path d="M0 0 C2.92323127 2.58914769 4.47917731 5.13300388 5.1875 8.9375 C5.0097465 13.52044887 4.01545374 16.87668427 1.1875 20.5 C-3.18561831 22.59545253 -7.05522416 22.8342389 -11.8125 21.9375 C-15.42956278 20.03454729 -17.49931024 17.87706929 -18.8125 13.9375 C-19.21359454 9.68589783 -19.07628256 7.4368027 -17.0625 3.625 C-12.44856534 -1.88608862 -6.6264418 -2.50332246 0 0 Z " fill="#000000" transform="translate(450.8125,467.0625)"/>
<path d="M0 0 C3.48335895 1.45667738 5.33595155 2.53001242 6.9140625 6.0234375 C8.01398065 9.90628109 8.35113737 13.04842987 6.9375 16.875 C4.79161927 20.33609795 3.80323152 21.59445792 0 23 C-4.6091918 23.6704279 -7.88311045 23.66538101 -11.9375 21.25 C-15.02255654 17.88448377 -15.89459487 16.15945644 -16.3125 11.5625 C-15.90272984 6.89112022 -14.44548761 4.61227464 -11.375 1.1875 C-7.61602798 -0.69198601 -4.11210736 -0.61289642 0 0 Z " fill="#000000" transform="translate(448,216)"/>
<path d="M0 0 C3.63467079 1.62400184 4.77408696 2.66113044 7 6 C8.40635491 10.6517893 7.86640078 13.87275621 6 18.23046875 C4.40525907 21.05241266 3.05929964 21.93589578 0 23 C-3.87519999 23.63034676 -7.37197563 23.91385983 -10.87890625 21.9453125 C-13.70569395 19.64301312 -15.75916501 17.72024996 -16.2734375 14.046875 C-16.46329043 9.75327801 -16.4342668 6.90417036 -13.625 3.5 C-9.31091151 -0.6086557 -5.76419538 -0.56844141 0 0 Z " fill="#000000" transform="translate(357,489)"/>
<path d="M0 0 C3.08085647 1.54042823 4.38588317 2.68931546 5.84375 5.80078125 C7.10854565 9.67798219 7.07163373 11.74717507 5.9375 15.75 C3.86208421 19.23134261 2.5418636 21.032298 -1 23 C-5.91336509 23.62391938 -7.9727839 23.53263057 -12.375 21.25 C-16.33169339 17.85854852 -16.85083268 16.32119623 -17.4375 11.125 C-17.33897037 6.33287732 -15.35822174 4.27826408 -12 1 C-8.28708669 -0.85645665 -4.05256766 -0.44035775 0 0 Z " fill="#000000" transform="translate(358,364)"/>
</svg>
