<?xml version="1.0" standalone="no"?>
<!DOCTYPE svg PUBLIC "-//W3C//DTD SVG 20010904//EN"
 "http://www.w3.org/TR/2001/REC-SVG-20010904/DTD/svg10.dtd">
<svg version="1.0" xmlns="http://www.w3.org/2000/svg"
 width="512.000000pt" height="512.000000pt" viewBox="0 0 512.000000 512.000000"
 preserveAspectRatio="xMidYMid meet">

<g transform="translate(0.000000,512.000000) scale(0.100000,-0.100000)"
fill="#000000" stroke="none">
<path d="M1645 5114 c-189 -39 -314 -105 -437 -231 -89 -92 -146 -193 -183
-325 -16 -55 -18 -58 -58 -68 -79 -21 -142 -43 -192 -68 -274 -137 -453 -407
-472 -712 -6 -109 6 -205 41 -316 l25 -77 -78 -76 c-127 -125 -216 -277 -262
-451 -33 -123 -33 -339 -1 -460 48 -175 136 -327 263 -451 l78 -77 -25 -76
c-35 -111 -47 -207 -41 -316 19 -305 198 -575 472 -712 50 -25 113 -47 192
-68 40 -10 42 -13 58 -68 40 -143 104 -250 209 -350 89 -85 172 -134 288 -173
213 -72 444 -41 635 84 169 110 286 283 327 479 14 69 16 277 16 1958 0 1681
-2 1889 -16 1958 -72 351 -387 606 -741 601 -43 -1 -87 -3 -98 -5z m197 -305
c171 -36 310 -175 347 -347 8 -37 11 -303 11 -888 l0 -835 -22 6 c-42 13 -118
67 -161 114 -70 78 -117 194 -117 289 0 61 -32 117 -80 142 -50 25 -90 25
-140 0 -77 -39 -96 -123 -64 -277 31 -151 88 -257 203 -375 l74 -78 -74 -77
c-115 -119 -172 -225 -203 -376 -32 -154 -13 -238 64 -277 50 -25 90 -25 140
0 48 25 80 81 80 142 0 107 50 220 134 303 49 49 135 105 161 105 11 0 5
-1669 -6 -1722 -27 -127 -114 -242 -228 -302 -180 -94 -384 -64 -526 79 -52
51 -115 152 -115 183 0 5 30 17 67 27 90 24 215 88 263 133 67 64 64 160 -5
221 -54 47 -123 46 -205 -5 -99 -61 -161 -77 -290 -77 -93 0 -126 4 -174 21
-168 62 -292 186 -348 350 -18 53 -23 89 -23 172 0 120 14 173 76 286 67 123
50 181 -76 265 -232 153 -345 420 -290 684 38 184 176 361 345 444 90 44 193
71 273 71 93 0 167 67 167 150 0 51 -35 107 -82 131 -38 19 -53 21 -133 16
-49 -4 -124 -15 -164 -26 -41 -11 -78 -18 -82 -16 -17 11 -34 109 -34 200 0
77 6 115 23 167 73 212 259 357 482 375 42 3 92 14 112 25 45 22 78 80 78 137
0 115 49 231 135 316 110 111 257 155 407 124z"/>
<path d="M3183 5104 c-23 -12 -80 -81 -192 -233 -87 -120 -166 -231 -175 -249
-14 -28 -16 -119 -16 -912 0 -863 0 -882 20 -920 23 -45 80 -80 130 -80 50 0
107 35 130 80 19 37 20 58 20 430 l0 390 440 0 c416 0 443 1 478 19 20 11 95
78 167 150 l130 131 193 0 c173 0 197 2 232 20 45 23 80 80 80 130 0 50 -35
107 -80 130 -36 18 -58 20 -283 20 l-243 0 -45 -29 c-24 -16 -98 -83 -164
-150 l-120 -121 -392 0 -393 0 0 301 0 301 113 154 112 153 88 1 87 0 0 -245
c0 -227 2 -249 20 -285 23 -45 80 -80 130 -80 50 0 107 35 130 80 18 36 20 58
20 285 l0 245 96 0 96 0 142 -139 c77 -76 155 -146 173 -155 123 -62 261 79
195 201 -22 40 -347 355 -389 376 -28 15 -82 17 -465 17 -376 0 -437 -3 -465
-16z"/>
<path d="M4448 3439 c-43 -22 -78 -81 -78 -129 0 -56 37 -103 244 -310 l206
-205 0 -335 0 -335 -181 -180 c-183 -182 -219 -229 -219 -285 0 -50 35 -107
80 -130 49 -25 90 -25 138 -1 46 24 444 424 466 468 14 28 16 88 16 463 0 375
-2 435 -16 463 -22 44 -470 494 -516 518 -47 24 -93 24 -140 -2z"/>
<path d="M3528 3189 c-43 -22 -78 -81 -78 -129 0 -17 9 -47 19 -68 24 -45 423
-443 468 -466 26 -13 67 -16 223 -16 171 0 195 2 230 20 45 23 80 80 80 130 0
50 -35 107 -80 130 -34 17 -59 20 -182 20 l-143 0 -180 181 c-99 99 -197 189
-217 200 -47 24 -93 24 -140 -2z"/>
<path d="M2878 2389 c-23 -12 -46 -35 -58 -59 -20 -38 -20 -57 -20 -972 l0
-933 23 -39 c18 -32 47 -53 172 -124 416 -234 469 -262 502 -262 40 0 95 27
413 208 215 121 248 144 267 178 13 21 23 54 23 72 0 71 -21 93 -261 273 -210
157 -234 172 -277 176 -85 7 -162 -62 -162 -145 0 -63 32 -102 154 -192 63
-47 115 -87 116 -91 0 -8 -255 -149 -270 -149 -7 0 -100 48 -206 108 l-193
107 -1 433 0 432 90 0 c71 0 99 4 130 20 45 23 80 80 80 130 0 50 -35 107 -80
130 -31 16 -59 20 -130 20 l-90 0 0 200 0 200 140 0 c121 0 146 3 180 20 45
23 80 80 80 130 0 50 -35 107 -80 130 -36 18 -58 20 -272 20 -212 -1 -236 -3
-270 -21z"/>
<path d="M3878 2189 c-23 -12 -46 -35 -58 -59 -19 -37 -20 -58 -20 -472 0
-394 2 -436 18 -466 18 -33 644 -546 696 -570 39 -17 81 -15 124 7 46 24 444
424 466 468 47 94 -28 213 -134 213 -54 0 -102 -35 -259 -193 l-153 -155 -229
185 -229 185 0 379 c0 361 -1 382 -20 419 -37 73 -127 99 -202 59z"/>
</g>
</svg>
