<?xml version="1.0" encoding="UTF-8"?>
<!DOCTYPE svg PUBLIC "-//W3C//DTD SVG 1.1//EN" "http://www.w3.org/Graphics/SVG/1.1/DTD/svg11.dtd">
<svg xmlns="http://www.w3.org/2000/svg" version="1.1" width="512px" height="512px" style="shape-rendering:geometricPrecision; text-rendering:geometricPrecision; image-rendering:optimizeQuality; fill-rule:evenodd; clip-rule:evenodd" xmlns:xlink="http://www.w3.org/1999/xlink">
<g><path style="opacity:0.93" fill="#000000" d="M 123.5,30.5 C 211.501,30.3333 299.501,30.5 387.5,31C 388.333,31.8333 389.167,32.6667 390,33.5C 391.663,180.753 391.997,328.086 391,475.5C 390.215,477.286 389.049,478.786 387.5,480C 299.5,480.667 211.5,480.667 123.5,480C 122.667,479.167 121.833,478.333 121,477.5C 119.337,330.247 119.003,182.914 120,35.5C 120.997,33.6769 122.164,32.0103 123.5,30.5 Z M 136.5,46.5 C 156.167,46.5 175.833,46.5 195.5,46.5C 193.444,64.2625 200.777,75.7625 217.5,81C 242.833,81.6667 268.167,81.6667 293.5,81C 310.223,75.7625 317.556,64.2625 315.5,46.5C 335.167,46.5 354.833,46.5 374.5,46.5C 374.5,168.5 374.5,290.5 374.5,412.5C 295.167,412.5 215.833,412.5 136.5,412.5C 136.5,290.5 136.5,168.5 136.5,46.5 Z M 212.5,46.5 C 241.167,46.5 269.833,46.5 298.5,46.5C 298.666,50.5138 298.499,54.5138 298,58.5C 296.833,61 295,62.8333 292.5,64C 280.22,65.1262 267.887,65.6262 255.5,65.5C 243.113,65.6262 230.78,65.1262 218.5,64C 216,62.8333 214.167,61 213,58.5C 212.501,54.5138 212.334,50.5138 212.5,46.5 Z M 180.5,172.5 C 193.167,172.5 205.833,172.5 218.5,172.5C 218.5,184.833 218.5,197.167 218.5,209.5C 205.833,209.5 193.167,209.5 180.5,209.5C 180.5,197.167 180.5,184.833 180.5,172.5 Z M 292.5,172.5 C 305.167,172.5 317.833,172.5 330.5,172.5C 330.5,184.833 330.5,197.167 330.5,209.5C 317.833,209.5 305.167,209.5 292.5,209.5C 292.5,197.167 292.5,184.833 292.5,172.5 Z M 180.5,284.5 C 193.167,284.5 205.833,284.5 218.5,284.5C 218.5,297.167 218.5,309.833 218.5,322.5C 205.833,322.5 193.167,322.5 180.5,322.5C 180.5,309.833 180.5,297.167 180.5,284.5 Z M 292.5,284.5 C 305.167,284.5 317.833,284.5 330.5,284.5C 330.5,297.167 330.5,309.833 330.5,322.5C 317.833,322.5 305.167,322.5 292.5,322.5C 292.5,309.833 292.5,297.167 292.5,284.5 Z M 136.5,429.5 C 215.833,429.5 295.167,429.5 374.5,429.5C 374.5,441.167 374.5,452.833 374.5,464.5C 295.167,464.5 215.833,464.5 136.5,464.5C 136.5,452.833 136.5,441.167 136.5,429.5 Z"/></g>
<g><path style="opacity:0.924" fill="#000000" d="M 176.5,155.5 C 191.837,155.333 207.17,155.5 222.5,156C 227.91,157.743 231.744,161.243 234,166.5C 234.667,182.833 234.667,199.167 234,215.5C 231.744,220.757 227.91,224.257 222.5,226C 207.167,226.667 191.833,226.667 176.5,226C 168.66,223.83 164.493,218.664 164,210.5C 163.104,195.459 163.437,180.459 165,165.5C 167.566,160.645 171.399,157.311 176.5,155.5 Z M 180.5,172.5 C 180.5,184.833 180.5,197.167 180.5,209.5C 193.167,209.5 205.833,209.5 218.5,209.5C 218.5,197.167 218.5,184.833 218.5,172.5C 205.833,172.5 193.167,172.5 180.5,172.5 Z"/></g>
<g><path style="opacity:0.924" fill="#000000" d="M 288.5,155.5 C 303.837,155.333 319.17,155.5 334.5,156C 342.34,158.17 346.507,163.336 347,171.5C 347.896,186.541 347.563,201.541 346,216.5C 343.673,221.423 339.84,224.59 334.5,226C 319.167,226.667 303.833,226.667 288.5,226C 283.09,224.257 279.256,220.757 277,215.5C 276.333,199.167 276.333,182.833 277,166.5C 279.437,161.226 283.271,157.56 288.5,155.5 Z M 292.5,172.5 C 292.5,184.833 292.5,197.167 292.5,209.5C 305.167,209.5 317.833,209.5 330.5,209.5C 330.5,197.167 330.5,184.833 330.5,172.5C 317.833,172.5 305.167,172.5 292.5,172.5 Z"/></g>
<g><path style="opacity:0.935" fill="#000000" d="M 177.5,267.5 C 191.837,267.333 206.171,267.5 220.5,268C 227.049,268.884 231.549,272.384 234,278.5C 234.667,294.833 234.667,311.167 234,327.5C 232.167,332.667 228.667,336.167 223.5,338C 207.5,338.667 191.5,338.667 175.5,338C 168.348,335.844 164.515,331.01 164,323.5C 163.333,310.167 163.333,296.833 164,283.5C 165.157,275.188 169.657,269.855 177.5,267.5 Z M 180.5,284.5 C 180.5,297.167 180.5,309.833 180.5,322.5C 193.167,322.5 205.833,322.5 218.5,322.5C 218.5,309.833 218.5,297.167 218.5,284.5C 205.833,284.5 193.167,284.5 180.5,284.5 Z"/></g>
<g><path style="opacity:0.935" fill="#000000" d="M 290.5,267.5 C 304.837,267.333 319.171,267.5 333.5,268C 341.563,270.063 346.063,275.23 347,283.5C 347.915,298.546 347.582,313.546 346,328.5C 344.073,333.428 340.573,336.594 335.5,338C 319.5,338.667 303.5,338.667 287.5,338C 282.333,336.167 278.833,332.667 277,327.5C 276.333,311.167 276.333,294.833 277,278.5C 279.616,272.372 284.116,268.706 290.5,267.5 Z M 292.5,284.5 C 292.5,297.167 292.5,309.833 292.5,322.5C 305.167,322.5 317.833,322.5 330.5,322.5C 330.5,309.833 330.5,297.167 330.5,284.5C 317.833,284.5 305.167,284.5 292.5,284.5 Z"/></g>
<g><path style="opacity:0.901" fill="#000000" d="M 222.5,438.5 C 244.503,438.333 266.503,438.5 288.5,439C 293.069,441.541 294.569,445.375 293,450.5C 291.661,453.094 289.494,454.594 286.5,455C 265.833,455.667 245.167,455.667 224.5,455C 217.537,452.77 215.704,448.27 219,441.5C 220.145,440.364 221.312,439.364 222.5,438.5 Z"/></g>
</svg>
