<?xml version="1.0" encoding="UTF-8"?>
<!DOCTYPE svg PUBLIC "-//W3C//DTD SVG 1.1//EN" "http://www.w3.org/Graphics/SVG/1.1/DTD/svg11.dtd">
<svg xmlns="http://www.w3.org/2000/svg" version="1.1" width="512px" height="512px" style="shape-rendering:geometricPrecision; text-rendering:geometricPrecision; image-rendering:optimizeQuality; fill-rule:evenodd; clip-rule:evenodd" xmlns:xlink="http://www.w3.org/1999/xlink">
<g><path style="opacity:1" fill="#000000" d="M 247.5,7.5 C 252.833,7.5 258.167,7.5 263.5,7.5C 263.5,15.5 263.5,23.5 263.5,31.5C 258.167,31.5 252.833,31.5 247.5,31.5C 247.5,23.5 247.5,15.5 247.5,7.5 Z"/></g>
<g><path style="opacity:0.879" fill="#000000" d="M 158.5,32.5 C 165.09,37.4195 171.09,43.0862 176.5,49.5C 172.833,53.8333 168.833,57.8333 164.5,61.5C 158.5,56.1667 152.833,50.5 147.5,44.5C 151.189,40.4799 154.855,36.4799 158.5,32.5 Z"/></g>
<g><path style="opacity:0.89" fill="#000000" d="M 352.5,33.5 C 357.239,36.7308 361.572,40.5642 365.5,45C 359.652,51.0149 353.652,56.8482 347.5,62.5C 343.301,59.1356 339.635,55.3023 336.5,51C 341.658,45.0085 346.991,39.1752 352.5,33.5 Z"/></g>
<g><path style="opacity:0.996" fill="#000000" d="M 187.5,55.5 C 232.835,55.3333 278.168,55.5 323.5,56C 324.416,56.3742 325.25,56.8742 326,57.5C 327.157,80.7476 327.657,104.081 327.5,127.5C 327.333,150.167 327.167,172.833 327,195.5C 326.626,196.416 326.126,197.25 325.5,198C 302.252,199.157 278.919,199.657 255.5,199.5C 232.833,199.333 210.167,199.167 187.5,199C 186.584,198.626 185.75,198.126 185,197.5C 183.344,151.583 183.01,105.583 184,59.5C 184.69,57.6498 185.856,56.3164 187.5,55.5 Z M 199.5,71.5 C 210.167,71.5 220.833,71.5 231.5,71.5C 231.333,86.1705 231.5,100.837 232,115.5C 232.5,117.333 233.667,118.5 235.5,119C 248.833,119.667 262.167,119.667 275.5,119C 276.416,118.626 277.25,118.126 278,117.5C 279.468,102.263 279.968,86.9296 279.5,71.5C 290.167,71.5 300.833,71.5 311.5,71.5C 311.5,108.833 311.5,146.167 311.5,183.5C 274.167,183.5 236.833,183.5 199.5,183.5C 199.5,146.167 199.5,108.833 199.5,71.5 Z M 247.5,71.5 C 252.833,71.5 258.167,71.5 263.5,71.5C 263.5,82.1667 263.5,92.8333 263.5,103.5C 258.167,103.5 252.833,103.5 247.5,103.5C 247.5,92.8333 247.5,82.1667 247.5,71.5 Z"/></g>
<g><path style="opacity:1" fill="#000000" d="M 135.5,111.5 C 143.5,111.5 151.5,111.5 159.5,111.5C 159.5,116.833 159.5,122.167 159.5,127.5C 151.5,127.5 143.5,127.5 135.5,127.5C 135.5,122.167 135.5,116.833 135.5,111.5 Z"/></g>
<g><path style="opacity:1" fill="#000000" d="M 351.5,111.5 C 359.5,111.5 367.5,111.5 375.5,111.5C 375.5,116.833 375.5,122.167 375.5,127.5C 367.5,127.5 359.5,127.5 351.5,127.5C 351.5,122.167 351.5,116.833 351.5,111.5 Z"/></g>
<g><path style="opacity:0.999" fill="#000000" d="M 247.5,215.5 C 252.833,215.5 258.167,215.5 263.5,215.5C 263.5,226.167 263.5,236.833 263.5,247.5C 320.834,247.333 378.168,247.5 435.5,248C 437.333,248.5 438.5,249.667 439,251.5C 439.5,268.83 439.667,286.163 439.5,303.5C 434.167,303.5 428.833,303.5 423.5,303.5C 423.5,290.167 423.5,276.833 423.5,263.5C 370.167,263.5 316.833,263.5 263.5,263.5C 263.5,274.167 263.5,284.833 263.5,295.5C 258.167,295.5 252.833,295.5 247.5,295.5C 247.5,284.833 247.5,274.167 247.5,263.5C 191.5,263.5 135.5,263.5 79.5,263.5C 79.5,276.833 79.5,290.167 79.5,303.5C 74.1667,303.5 68.8333,303.5 63.5,303.5C 63.3334,286.163 63.5001,268.83 64,251.5C 64.5,249.667 65.6667,248.5 67.5,248C 127.499,247.5 187.499,247.333 247.5,247.5C 247.5,236.833 247.5,226.167 247.5,215.5 Z"/></g>
<g><path style="opacity:0.949" fill="#000000" d="M 254.5,310.5 C 286.995,312.173 309.828,327.839 323,357.5C 330.646,380.736 328.646,403.069 317,424.5C 310.713,433.122 304.047,441.455 297,449.5C 295.835,459.458 295.168,469.458 295,479.5C 291.833,492 284,499.833 271.5,503C 260.833,503.667 250.167,503.667 239.5,503C 227,499.833 219.167,492 216,479.5C 215.832,469.458 215.165,459.458 214,449.5C 210.414,443.909 206.08,438.909 201,434.5C 184.252,413.433 179.252,389.767 186,363.5C 197.371,330.957 220.204,313.29 254.5,310.5 Z M 254.5,327.5 C 282.493,329.322 300.66,343.655 309,370.5C 313.271,388.741 309.937,405.408 299,420.5C 292.758,426.071 287.258,432.238 282.5,439C 264.158,439.833 245.824,439.666 227.5,438.5C 223.268,431.763 218.102,425.763 212,420.5C 196.691,398.13 196.024,375.463 210,352.5C 221.167,337.503 236,329.17 254.5,327.5 Z M 231.5,455.5 C 247.5,455.5 263.5,455.5 279.5,455.5C 279.5,458.167 279.5,460.833 279.5,463.5C 263.5,463.5 247.5,463.5 231.5,463.5C 231.5,460.833 231.5,458.167 231.5,455.5 Z M 234.5,480.5 C 248.327,479.339 262.327,479.173 276.5,480C 270.81,485.916 263.81,488.416 255.5,487.5C 247.347,488.282 240.347,485.949 234.5,480.5 Z"/></g>
<g><path style="opacity:0.899" fill="#000000" d="M 240.5,335.5 C 242.144,335.286 243.644,335.62 245,336.5C 246.811,341.398 247.811,346.398 248,351.5C 239.833,354.333 234.333,359.833 231.5,368C 226.474,367.497 221.474,366.497 216.5,365C 215.941,364.275 215.608,363.442 215.5,362.5C 219.527,349.398 227.861,340.398 240.5,335.5 Z"/></g>
<g><path style="opacity:0.929" fill="#000000" d="M 67.5,338.5 C 105.129,335.044 129.962,351.044 142,386.5C 147.943,417.036 138.11,440.87 112.5,458C 90.7462,469.115 68.9129,469.282 47,458.5C 38.7281,468.278 30.2281,477.945 21.5,487.5C 16.9863,484.409 12.653,481.075 8.5,477.5C 16.5,467.5 24.5,457.5 32.5,447.5C 16.2578,428.464 11.4245,406.798 18,382.5C 26.5626,358.764 43.0626,344.097 67.5,338.5 Z M 78.5,354.5 C 103.518,356.354 119.352,369.354 126,393.5C 128.803,422.405 116.303,440.905 88.5,449C 59.7538,451.577 41.2538,439.077 33,411.5C 29.9269,390.486 37.0936,373.986 54.5,362C 62.1546,357.946 70.1546,355.446 78.5,354.5 Z"/></g>
<g><path style="opacity:0.932" fill="#000000" d="M 419.5,343.5 C 430.628,342.921 441.628,343.755 452.5,346C 454.667,346.833 456.167,348.333 457,350.5C 457.175,354.211 457.675,357.878 458.5,361.5C 461.251,363.293 464.084,364.959 467,366.5C 471.771,361.631 477.271,360.464 483.5,363C 492.44,371.95 498.94,382.45 503,394.5C 503.956,398.572 503.456,402.405 501.5,406C 498.705,407.3 496.039,408.8 493.5,410.5C 492.167,413.833 492.167,417.167 493.5,420.5C 496.251,422.293 499.084,423.959 502,425.5C 504.03,431.255 503.696,436.922 501,442.5C 496.551,452.922 490.051,461.755 481.5,469C 475.839,469.843 470.839,468.343 466.5,464.5C 463.995,466.253 461.329,467.753 458.5,469C 460.307,480.734 455.307,486.734 443.5,487C 432.376,488.078 421.376,487.412 410.5,485C 408.333,484.167 406.833,482.667 406,480.5C 405.825,476.789 405.325,473.122 404.5,469.5C 401.749,467.707 398.916,466.041 396,464.5C 391.229,469.369 385.729,470.536 379.5,468C 370.56,459.05 364.06,448.55 360,436.5C 359.044,432.428 359.544,428.595 361.5,425C 364.295,423.7 366.961,422.2 369.5,420.5C 370.833,417.167 370.833,413.833 369.5,410.5C 366.749,408.707 363.916,407.041 361,405.5C 358.97,399.745 359.304,394.078 362,388.5C 366.449,378.078 372.949,369.245 381.5,362C 387.161,361.157 392.161,362.657 396.5,366.5C 399.005,364.747 401.671,363.247 404.5,362C 405.095,357.471 405.928,352.971 407,348.5C 407.903,347.299 409.069,346.465 410.5,346C 413.678,345.34 416.678,344.507 419.5,343.5 Z M 430.5,359.5 C 433.728,360.414 437.061,360.747 440.5,360.5C 440.489,365.633 442.155,370.133 445.5,374C 451.04,377.27 456.707,380.27 462.5,383C 467.357,383.998 471.857,383.165 476,380.5C 479.6,384.7 482.433,389.367 484.5,394.5C 481.798,396.942 478.965,399.276 476,401.5C 475.333,410.833 475.333,420.167 476,429.5C 478.965,431.724 481.798,434.058 484.5,436.5C 482.42,441.666 479.587,446.333 476,450.5C 471.857,447.835 467.357,447.002 462.5,448C 455.026,450.81 448.526,454.977 443,460.5C 441.241,463.608 440.408,466.941 440.5,470.5C 434.599,471.364 428.599,471.364 422.5,470.5C 422.511,465.367 420.845,460.867 417.5,457C 411.96,453.73 406.293,450.73 400.5,448C 395.643,447.002 391.143,447.835 387,450.5C 383.4,446.3 380.567,441.633 378.5,436.5C 381.202,434.058 384.035,431.724 387,429.5C 387.667,420.167 387.667,410.833 387,401.5C 384.512,399.257 381.846,397.257 379,395.5C 380.294,389.919 382.961,384.919 387,380.5C 391.143,383.165 395.643,383.998 400.5,383C 406.293,380.27 411.96,377.27 417.5,374C 420.845,370.133 422.511,365.633 422.5,360.5C 425.385,360.806 428.052,360.473 430.5,359.5 Z M 426.5,400.5 C 443.765,400.257 449.598,408.257 444,424.5C 437.749,431.011 430.582,432.177 422.5,428C 415.989,421.749 414.823,414.582 419,406.5C 421.114,403.879 423.614,401.879 426.5,400.5 Z"/></g>
<g><path style="opacity:0.906" fill="#000000" d="M 70.5,362.5 C 80.2097,361.554 89.543,362.887 98.5,366.5C 99.6139,367.723 99.7805,369.056 99,370.5C 96.3021,374.367 93.8021,378.367 91.5,382.5C 83.1183,377.334 74.785,377.501 66.5,383C 63.9518,385.885 61.1185,388.385 58,390.5C 53.2687,388.218 48.7687,385.551 44.5,382.5C 50.5975,372.392 59.2642,365.725 70.5,362.5 Z"/></g>
<g><path style="opacity:0.931" fill="#000000" d="M 423.5,383.5 C 451.978,381.811 465.145,395.144 463,423.5C 456.645,442.438 443.478,450.272 423.5,447C 404.562,440.645 396.728,427.478 400,407.5C 403.349,394.985 411.182,386.985 423.5,383.5 Z M 426.5,400.5 C 423.614,401.879 421.114,403.879 419,406.5C 414.823,414.582 415.989,421.749 422.5,428C 430.582,432.177 437.749,431.011 444,424.5C 449.598,408.257 443.765,400.257 426.5,400.5 Z"/></g>
</svg>
