<?xml version="1.0" encoding="UTF-8"?>
<!DOCTYPE svg PUBLIC "-//W3C//DTD SVG 1.1//EN" "http://www.w3.org/Graphics/SVG/1.1/DTD/svg11.dtd">
<svg xmlns="http://www.w3.org/2000/svg" version="1.1" width="512px" height="512px" style="shape-rendering:geometricPrecision; text-rendering:geometricPrecision; image-rendering:optimizeQuality; fill-rule:evenodd; clip-rule:evenodd" xmlns:xlink="http://www.w3.org/1999/xlink">
<g><path style="opacity:0.958" fill="#000000" d="M 235.5,-0.5 C 248.833,-0.5 262.167,-0.5 275.5,-0.5C 278.758,0.920984 281.258,3.25432 283,6.5C 283.998,11.0044 284.831,15.5044 285.5,20C 290.08,21.6378 294.58,23.4712 299,25.5C 302.156,23.0139 305.322,20.5139 308.5,18C 312.926,17.2093 317.259,17.5427 321.5,19C 330,27.5 338.5,36 347,44.5C 348.457,48.7411 348.791,53.0745 348,57.5C 345.486,60.6777 342.986,63.8444 340.5,67C 342.504,71.6837 344.504,76.3504 346.5,81C 362.952,81.0403 369.619,89.207 366.5,105.5C 409.168,105.333 451.835,105.5 494.5,106C 502.492,106.506 508.158,110.339 511.5,117.5C 511.5,215.167 511.5,312.833 511.5,410.5C 509.021,415.143 505.355,418.643 500.5,421C 446.83,421.167 393.164,421.667 339.5,422.5C 346.167,435.167 352.833,447.833 359.5,460.5C 369.149,461.332 378.816,461.832 388.5,462C 395.094,462.593 399.261,466.093 401,472.5C 401.667,482.167 401.667,491.833 401,501.5C 399.787,505.869 397.287,509.203 393.5,511.5C 365.833,511.5 338.167,511.5 310.5,511.5C 306.537,506.666 306.537,501.832 310.5,497C 335.498,496.5 360.498,496.333 385.5,496.5C 385.5,490.167 385.5,483.833 385.5,477.5C 298.167,477.5 210.833,477.5 123.5,477.5C 123.5,483.833 123.5,490.167 123.5,496.5C 177.168,496.333 230.834,496.5 284.5,497C 288.463,501.832 288.463,506.666 284.5,511.5C 228.167,511.5 171.833,511.5 115.5,511.5C 111.768,509.595 109.268,506.595 108,502.5C 107.067,491.094 107.4,479.761 109,468.5C 111.412,464.704 114.912,462.538 119.5,462C 130.182,461.832 140.849,461.332 151.5,460.5C 158.167,447.833 164.833,435.167 171.5,422.5C 154.51,421.667 137.51,421.167 120.5,421C 116.024,417.339 115.357,413.006 118.5,408C 120.087,407.138 121.754,406.471 123.5,406C 247.501,405.833 371.501,405.333 495.5,404.5C 496.46,398.227 496.793,391.893 496.5,385.5C 335.833,385.5 175.167,385.5 14.5,385.5C 14.2071,391.893 14.5404,398.227 15.5,404.5C 40.1599,405.333 64.8266,405.833 89.5,406C 98.2974,408.983 99.6307,413.983 93.5,421C 65.8333,421.667 38.1667,421.667 10.5,421C 5.64549,418.643 1.97883,415.143 -0.5,410.5C -0.5,312.833 -0.5,215.167 -0.5,117.5C 2.84156,110.339 8.50823,106.506 16.5,106C 27.8333,105.333 39.1667,105.333 50.5,106C 58.5774,109.45 59.5774,114.45 53.5,121C 41.5,121.333 29.5,121.667 17.5,122C 16.3333,122.5 15.5,123.333 15,124.5C 14.5,206.499 14.3333,288.499 14.5,370.5C 175.167,370.5 335.833,370.5 496.5,370.5C 496.83,288.126 496.497,205.792 495.5,123.5C 494.975,122.808 494.308,122.308 493.5,122C 451.168,121.5 408.835,121.333 366.5,121.5C 367.003,135.12 360.337,141.287 346.5,140C 344.042,145.045 342.209,150.212 341,155.5C 348.809,161.463 350.475,168.797 346,177.5C 337.435,186.735 328.268,195.235 318.5,203C 315.167,203.667 311.833,203.667 308.5,203C 304.742,201.077 301.409,198.577 298.5,195.5C 294.024,197.601 289.524,199.601 285,201.5C 283.808,220.055 273.975,226.722 255.5,221.5C 248.833,221.333 242.167,221.167 235.5,221C 230.901,219.402 228.068,216.235 227,211.5C 226.667,208.167 226.333,204.833 226,201.5C 221.35,199.504 216.684,197.504 212,195.5C 208.789,198.373 205.289,200.873 201.5,203C 197.406,203.767 193.406,203.434 189.5,202C 181,193.5 172.5,185 164,176.5C 161.784,172.168 161.45,167.835 163,163.5C 164.923,159.742 167.423,156.409 170.5,153.5C 168.08,149.162 166.08,144.662 164.5,140C 150.791,141.178 143.791,135.012 143.5,121.5C 122.497,121.667 101.497,121.5 80.5,121C 74.4226,114.45 75.4226,109.45 83.5,106C 103.497,105.5 123.497,105.333 143.5,105.5C 140.872,88.8731 147.872,80.7064 164.5,81C 165.941,76.6845 167.774,72.5179 170,68.5C 170.667,67.5 170.667,66.5 170,65.5C 162.505,60.1073 160.505,53.1073 164,44.5C 172.863,35.3027 182.03,26.4694 191.5,18C 195.167,17.3333 198.833,17.3333 202.5,18C 206.258,19.9229 209.591,22.4229 212.5,25.5C 216.603,23.1153 220.936,21.2819 225.5,20C 226.169,15.5044 227.002,11.0044 228,6.5C 229.742,3.25432 232.242,0.920984 235.5,-0.5 Z M 242.5,14.5 C 251.167,14.5 259.833,14.5 268.5,14.5C 268.334,19.5111 268.501,24.5111 269,29.5C 270.167,30.6667 271.333,31.8333 272.5,33C 282.17,35.8314 291.504,39.3314 300.5,43.5C 302.634,43.4847 304.634,42.9847 306.5,42C 309,39.5 311.5,37 314,34.5C 319.833,40.3333 325.667,46.1667 331.5,52C 329,54.5 326.5,57 324,59.5C 323.015,61.3659 322.515,63.3659 322.5,65.5C 326.272,74.6405 329.772,83.9738 333,93.5C 333.5,95.3333 334.667,96.5 336.5,97C 341.155,97.4992 345.821,97.6658 350.5,97.5C 350.5,106.167 350.5,114.833 350.5,123.5C 345.821,123.334 341.155,123.501 336.5,124C 334.667,124.5 333.5,125.667 333,127.5C 330.037,137.23 326.204,146.563 321.5,155.5C 323.454,160.964 326.788,165.464 331.5,169C 325.652,175.015 319.652,180.848 313.5,186.5C 310.349,183.85 307.349,181.016 304.5,178C 303.167,177.833 301.833,177.667 300.5,177.5C 290.679,181.568 280.679,185.401 270.5,189C 269.874,189.75 269.374,190.584 269,191.5C 268.501,196.155 268.334,200.821 268.5,205.5C 259.833,205.5 251.167,205.5 242.5,205.5C 242.666,201.154 242.499,196.821 242,192.5C 241.215,190.714 240.049,189.214 238.5,188C 228.83,185.169 219.496,181.669 210.5,177.5C 208.366,177.515 206.366,178.015 204.5,179C 202,181.5 199.5,184 197,186.5C 190.985,180.652 185.152,174.652 179.5,168.5C 182.15,165.349 184.984,162.349 188,159.5C 188.167,158.167 188.333,156.833 188.5,155.5C 184.331,146.504 180.831,137.17 178,127.5C 176.833,126.333 175.667,125.167 174.5,124C 169.511,123.501 164.511,123.334 159.5,123.5C 159.5,114.833 159.5,106.167 159.5,97.5C 164.179,97.6658 168.845,97.4992 173.5,97C 175.286,96.2155 176.786,95.0488 178,93.5C 180.817,83.7087 184.317,74.2087 188.5,65C 188.458,63.0326 187.958,61.1992 187,59.5C 184.5,57 182,54.5 179.5,52C 185.333,46.1667 191.167,40.3333 197,34.5C 200.307,39.1654 204.64,42.1654 210,43.5C 219.248,39.4163 228.748,35.9163 238.5,33C 239.667,31.8333 240.833,30.6667 242,29.5C 242.499,24.5111 242.666,19.5111 242.5,14.5 Z M 248.5,65.5 C 267.009,64.1739 281.842,70.8406 293,85.5C 305.743,109.784 301.576,130.618 280.5,148C 254.483,161.266 232.983,156.099 216,132.5C 205.019,107.118 210.853,86.6181 233.5,71C 238.434,68.6369 243.434,66.8035 248.5,65.5 Z M 150.5,222.5 C 185.854,222.69 207.354,240.024 215,274.5C 216.514,305.316 203.014,326.482 174.5,338C 141.662,345.328 117.496,334.161 102,304.5C 91.5176,269.64 102.351,243.807 134.5,227C 139.874,225.16 145.207,223.66 150.5,222.5 Z M 190.5,421.5 C 233.835,421.333 277.168,421.5 320.5,422C 327.5,435 334.5,448 341.5,461C 337.167,461.667 332.833,461.667 328.5,461C 295.586,431.884 258.253,424.551 216.5,439C 203.838,444.328 192.504,451.661 182.5,461C 178.167,461.667 173.833,461.667 169.5,461C 176.64,447.886 183.64,434.719 190.5,421.5 Z M 248.5,447.5 C 267.607,446.527 285.274,451.027 301.5,461C 270.833,461.667 240.167,461.667 209.5,461C 221.602,453.578 234.602,449.078 248.5,447.5 Z"/></g>
<g><path style="opacity:0.926" fill="#000000" d="M 246.5,49.5 C 279.532,47.5852 302.032,61.9185 314,92.5C 320.944,123.019 311.444,146.852 285.5,164C 256.168,177.418 230.334,172.585 208,149.5C 191.186,125.501 190.186,100.834 205,75.5C 215.645,61.6019 229.478,52.9352 246.5,49.5 Z M 248.5,65.5 C 243.434,66.8035 238.434,68.6369 233.5,71C 210.853,86.6181 205.019,107.118 216,132.5C 232.983,156.099 254.483,161.266 280.5,148C 301.576,130.618 305.743,109.784 293,85.5C 281.842,70.8406 267.009,64.1739 248.5,65.5 Z"/></g>
<g><path style="opacity:0.926" fill="#000000" d="M 150.5,206.5 C 188.261,206.283 214.094,223.616 228,258.5C 237.08,294.265 226.914,323.098 197.5,345C 172.348,359.158 146.682,360.158 120.5,348C 88.4467,327.711 76.28,298.877 84,261.5C 94.8928,229.433 117.06,211.1 150.5,206.5 Z M 150.5,222.5 C 145.207,223.66 139.874,225.16 134.5,227C 102.351,243.807 91.5176,269.64 102,304.5C 117.496,334.161 141.662,345.328 174.5,338C 203.014,326.482 216.514,305.316 215,274.5C 207.354,240.024 185.854,222.69 150.5,222.5 Z"/></g>
<g><path style="opacity:0.923" fill="#000000" d="M 348.5,206.5 C 387.81,206.339 413.976,224.673 427,261.5C 434.714,298.888 422.547,327.722 390.5,348C 362.874,360.715 336.207,359.048 310.5,343C 294.134,330.755 284.634,314.588 282,294.5C 285.368,289.872 289.535,288.872 294.5,291.5C 308.422,332.126 336.089,346.96 377.5,336C 406.843,320.809 418.01,296.976 411,264.5C 401.292,238.638 382.625,224.638 355,222.5C 335.894,223.22 320.227,230.887 308,245.5C 303.091,253.489 298.591,261.656 294.5,270C 284.667,272.167 280.833,268.333 283,258.5C 294.594,228.136 316.427,210.803 348.5,206.5 Z"/></g>
<g><path style="opacity:0.917" fill="#000000" d="M 133.5,253.5 C 136.271,253.421 138.937,253.921 141.5,255C 146.348,260.015 151.348,264.848 156.5,269.5C 161.652,264.848 166.652,260.015 171.5,255C 182.019,252.186 185.853,256.019 183,266.5C 177.985,271.348 173.152,276.348 168.5,281.5C 173.851,287.017 179.018,292.684 184,298.5C 185,307.164 181.166,310.664 172.5,309C 167.319,303.652 161.985,298.485 156.5,293.5C 151.015,298.485 145.681,303.652 140.5,309C 130.302,310.432 126.802,306.265 130,296.5C 135.015,291.652 139.848,286.652 144.5,281.5C 139.515,276.015 134.348,270.681 129,265.5C 127.474,260.239 128.974,256.239 133.5,253.5 Z"/></g>
<g><path style="opacity:0.911" fill="#000000" d="M 380.5,253.5 C 391.397,252.964 394.563,257.631 390,267.5C 378.952,280.88 368.285,294.547 358,308.5C 354.786,313.339 350.62,314.506 345.5,312C 337.667,303.5 329.833,295 322,286.5C 319.516,276.317 323.35,272.484 333.5,275C 338.667,280.833 343.833,286.667 349,292.5C 359.364,279.312 369.864,266.312 380.5,253.5 Z"/></g>
</svg>
