<?xml version="1.0" encoding="UTF-8"?>
<!DOCTYPE svg PUBLIC "-//W3C//DTD SVG 1.1//EN" "http://www.w3.org/Graphics/SVG/1.1/DTD/svg11.dtd">
<svg xmlns="http://www.w3.org/2000/svg" version="1.1" width="512px" height="512px" style="shape-rendering:geometricPrecision; text-rendering:geometricPrecision; image-rendering:optimizeQuality; fill-rule:evenodd; clip-rule:evenodd" xmlns:xlink="http://www.w3.org/1999/xlink">
<g><path style="opacity:0.939" fill="#000000" d="M 511.5,127.5 C 511.5,213.167 511.5,298.833 511.5,384.5C 508.932,389.564 504.932,393.064 499.5,395C 445.167,395.667 390.833,395.667 336.5,395C 332.359,393.865 329.025,391.531 326.5,388C 318.479,387.168 310.479,387.335 302.5,388.5C 304.374,394.12 306.041,399.787 307.5,405.5C 328.275,402.124 341.441,410.457 347,430.5C 347.667,439.833 347.667,449.167 347,458.5C 345.99,462.843 343.49,466.01 339.5,468C 257.167,468.667 174.833,468.667 92.5,468C 88.9421,466.108 86.4421,463.275 85,459.5C 84.0909,448.108 84.4243,436.775 86,425.5C 92.7505,410.037 104.584,403.203 121.5,405C 123.299,399.269 125.299,393.602 127.5,388C 92.5,387.667 57.5,387.333 22.5,387C 10.5531,383.221 2.88643,375.388 -0.5,363.5C -0.5,264.167 -0.5,164.833 -0.5,65.5C 2.87762,53.6208 10.5443,45.7874 22.5,42C 159.5,41.3333 296.5,41.3333 433.5,42C 444.333,45.5 451.5,52.6667 455,63.5C 456.444,80.7772 456.944,98.1106 456.5,115.5C 470.171,115.333 483.837,115.5 497.5,116C 504.417,117.268 509.083,121.101 511.5,127.5 Z M 25.5,57.5 C 160.167,57.3333 294.834,57.5 429.5,58C 434.757,60.2563 438.257,64.0896 440,69.5C 440.5,84.8297 440.667,100.163 440.5,115.5C 436.5,115.5 432.5,115.5 428.5,115.5C 428.667,104.828 428.5,94.1615 428,83.5C 427.014,77.8488 423.847,74.0154 418.5,72C 359.5,71.3333 300.5,71.3333 241.5,72C 237.247,75.4204 236.413,79.5871 239,84.5C 240.171,85.8932 241.671,86.7265 243.5,87C 299.832,87.5 356.166,87.6667 412.5,87.5C 412.5,96.8333 412.5,106.167 412.5,115.5C 387.831,115.333 363.164,115.5 338.5,116C 329.425,117.743 324.592,123.243 324,132.5C 323.5,153.831 323.333,175.164 323.5,196.5C 320.482,196.665 317.482,196.498 314.5,196C 311.293,182.56 302.96,177.56 289.5,181C 276.484,189.013 264.317,198.18 253,208.5C 247.136,219.741 248.969,229.574 258.5,238C 268.556,245.722 278.889,253.055 289.5,260C 302.931,263.452 311.265,258.452 314.5,245C 317.482,244.502 320.482,244.335 323.5,244.5C 323.094,255.564 323.594,266.564 325,277.5C 331.333,283.167 336.333,282.167 340,274.5C 340.5,264.506 340.666,254.506 340.5,244.5C 353.167,244.5 365.833,244.5 378.5,244.5C 382.062,259.283 391.062,264.116 405.5,259C 416.268,251.532 426.768,243.699 437,235.5C 443.477,226.626 444.144,217.292 439,207.5C 427.792,197.814 415.959,188.981 403.5,181C 389.463,177.017 381.13,182.183 378.5,196.5C 365.833,196.5 353.167,196.5 340.5,196.5C 340.5,184.5 340.5,172.5 340.5,160.5C 392.167,160.5 443.833,160.5 495.5,160.5C 495.5,223.833 495.5,287.167 495.5,350.5C 443.833,350.5 392.167,350.5 340.5,350.5C 340.954,334.429 340.454,318.429 339,302.5C 334.333,297.167 329.667,297.167 325,302.5C 324.047,305.432 323.547,308.432 323.5,311.5C 230.167,311.5 136.833,311.5 43.5,311.5C 43.5,236.833 43.5,162.167 43.5,87.5C 101.501,87.6667 159.501,87.5 217.5,87C 222.738,83.7262 223.904,79.2262 221,73.5C 220.25,72.8742 219.416,72.3742 218.5,72C 157.833,71.3333 97.1667,71.3333 36.5,72C 31.9014,73.5981 29.0681,76.7647 28,81.5C 27.3333,160.167 27.3333,238.833 28,317.5C 29.9268,322.428 33.4268,325.594 38.5,327C 133.499,327.5 228.499,327.667 323.5,327.5C 323.5,331.5 323.5,335.5 323.5,339.5C 294.165,339.333 264.831,339.5 235.5,340C 228.537,342.23 226.704,346.73 230,353.5C 231.648,354.717 233.481,355.55 235.5,356C 264.857,356.801 294.19,356.635 323.5,355.5C 323.5,360.833 323.5,366.167 323.5,371.5C 224.166,371.667 124.833,371.5 25.5,371C 19.5915,367.928 16.2582,363.094 15.5,356.5C 79.1675,356.667 142.834,356.5 206.5,356C 212.467,354.357 214.634,350.524 213,344.5C 211.833,343.333 210.667,342.167 209.5,341C 144.837,339.958 80.1706,339.458 15.5,339.5C 15.3333,249.166 15.5,158.833 16,68.5C 17.5992,63.406 20.7658,59.7393 25.5,57.5 Z M 142.5,127.5 C 148.842,127.334 155.175,127.5 161.5,128C 162,128.5 162.5,129 163,129.5C 163.13,133.951 163.796,138.284 165,142.5C 170.212,144.856 175.379,147.356 180.5,150C 182.5,150.667 184.5,150.667 186.5,150C 189.463,148.039 192.129,145.706 194.5,143C 195.833,142.333 197.167,142.333 198.5,143C 203.088,147.081 207.088,151.581 210.5,156.5C 208.934,159.575 206.767,162.242 204,164.5C 203.042,166.199 202.542,168.033 202.5,170C 203.894,175.628 205.728,181.128 208,186.5C 208.903,187.701 210.069,188.535 211.5,189C 215.5,189.333 219.5,189.667 223.5,190C 224,190.5 224.5,191 225,191.5C 225.667,197.833 225.667,204.167 225,210.5C 224.5,211 224,211.5 223.5,212C 218.78,212.221 214.113,212.721 209.5,213.5C 206.725,218.298 204.225,223.298 202,228.5C 201.333,230.5 201.333,232.5 202,234.5C 204.295,237.797 206.962,240.797 210,243.5C 210.667,244.833 210.667,246.167 210,247.5C 205.911,252.262 201.244,256.262 196,259.5C 192.882,257.385 190.048,254.885 187.5,252C 185.966,251.077 184.299,250.577 182.5,250.5C 175.585,252.076 169.418,255.076 164,259.5C 163.667,263.833 163.333,268.167 163,272.5C 162.5,273 162,273.5 161.5,274C 155.167,274.667 148.833,274.667 142.5,274C 142,273.5 141.5,273 141,272.5C 140.891,267.386 140.224,262.386 139,257.5C 132.523,253.895 125.689,251.728 118.5,251C 115.203,253.295 112.203,255.962 109.5,259C 108.5,259.667 107.5,259.667 106.5,259C 101.786,254.622 97.4532,249.956 93.5,245C 95.6149,241.882 98.1149,239.048 101,236.5C 101.923,234.966 102.423,233.299 102.5,231.5C 100.634,225.739 98.4676,220.072 96,214.5C 95.2496,213.874 94.4162,213.374 93.5,213C 89.1667,212.667 84.8333,212.333 80.5,212C 80,211.5 79.5,211 79,210.5C 78.3333,204.167 78.3333,197.833 79,191.5C 79.5,191 80,190.5 80.5,190C 84.8333,189.667 89.1667,189.333 93.5,189C 94.3333,188.167 95.1667,187.333 96,186.5C 97.4715,182.419 99.1382,178.419 101,174.5C 101.667,171.5 101.667,168.5 101,165.5C 98.6667,163.167 96.3333,160.833 94,158.5C 93.3333,157.5 93.3333,156.5 94,155.5C 98.3777,150.786 103.044,146.453 108,142.5C 110.784,144.28 113.284,146.447 115.5,149C 117.034,149.923 118.701,150.423 120.5,150.5C 126.594,148.288 132.594,145.788 138.5,143C 139.8,137.767 141.133,132.601 142.5,127.5 Z M 341.5,131.5 C 392.501,131.333 443.501,131.5 494.5,132C 495.464,136.066 495.797,140.233 495.5,144.5C 443.833,144.5 392.167,144.5 340.5,144.5C 340.231,140.069 340.564,135.735 341.5,131.5 Z M 149.5,177.5 C 164.657,178.158 173.324,185.991 175.5,201C 172.597,218.913 162.263,226.247 144.5,223C 129.232,214.862 125.398,203.029 133,187.5C 137.443,182.205 142.943,178.871 149.5,177.5 Z M 295.5,195.5 C 296.931,195.881 297.764,196.881 298,198.5C 298.333,201.833 298.667,205.167 299,208.5C 300.167,209.667 301.333,210.833 302.5,212C 331.5,212.667 360.5,212.667 389.5,212C 391.667,211.167 393.167,209.667 394,207.5C 394.071,203.313 394.738,199.313 396,195.5C 406.101,202.468 415.935,209.801 425.5,217.5C 425.987,218.446 426.32,219.446 426.5,220.5C 425.441,223.068 423.774,225.235 421.5,227C 413.28,233.554 404.78,239.72 396,245.5C 394.738,241.687 394.071,237.687 394,233.5C 393.215,231.714 392.049,230.214 390.5,229C 361.167,228.333 331.833,228.333 302.5,229C 300.667,229.5 299.5,230.667 299,232.5C 298.792,236.918 298.126,241.251 297,245.5C 287.27,239.045 277.77,232.212 268.5,225C 264.5,222 264.5,219 268.5,216C 277.568,209.146 286.568,202.313 295.5,195.5 Z M 340.5,366.5 C 392.167,366.5 443.833,366.5 495.5,366.5C 495.5,370.833 495.5,375.167 495.5,379.5C 443.833,379.5 392.167,379.5 340.5,379.5C 340.5,375.167 340.5,370.833 340.5,366.5 Z M 144.5,387.5 C 191.505,387.167 238.505,387.5 285.5,388.5C 287.374,394.12 289.041,399.787 290.5,405.5C 239.832,405.667 189.166,405.5 138.5,405C 140.578,399.185 142.578,393.351 144.5,387.5 Z M 109.5,421.5 C 180.501,421.333 251.501,421.5 322.5,422C 327.149,424.455 329.983,428.288 331,433.5C 331.5,439.825 331.666,446.158 331.5,452.5C 254.5,452.5 177.5,452.5 100.5,452.5C 100.334,445.825 100.5,439.158 101,432.5C 102.553,427.788 105.386,424.121 109.5,421.5 Z"/></g>
<g><path style="opacity:0.93" fill="#000000" d="M 137.5,111.5 C 147.172,111.334 156.839,111.5 166.5,112C 169.603,113.439 172.436,115.273 175,117.5C 177.489,122.521 179.822,127.521 182,132.5C 187.711,126.883 194.545,125.05 202.5,127C 212.333,132.833 220.167,140.667 226,150.5C 226.667,154.833 226.667,159.167 226,163.5C 225.07,166.362 223.403,168.695 221,170.5C 220.517,171.448 220.351,172.448 220.5,173.5C 237.423,174.781 244.423,183.947 241.5,201C 243.873,218.114 236.54,227.614 219.5,229.5C 227.444,237.891 228.611,247.224 223,257.5C 217.049,264.458 210.215,270.291 202.5,275C 193.811,277.157 186.478,274.99 180.5,268.5C 178.628,285.535 169.128,292.868 152,290.5C 134.89,292.875 125.39,285.542 123.5,268.5C 114.503,276.778 104.836,277.611 94.5,271C 87.8734,265.38 82.3734,258.88 78,251.5C 75.843,242.811 78.0096,235.478 84.5,229.5C 80.1292,228.491 75.7959,227.324 71.5,226C 67.3383,223.188 64.505,219.355 63,214.5C 62.3333,205.5 62.3333,196.5 63,187.5C 66.3982,177.953 73.2315,173.286 83.5,173.5C 83.6495,172.448 83.4828,171.448 83,170.5C 77.8444,164.815 76.1777,158.148 78,150.5C 83.8333,140.667 91.6667,132.833 101.5,127C 109.455,125.05 116.289,126.883 122,132.5C 124.477,127.651 126.81,122.651 129,117.5C 131.736,115.248 134.569,113.248 137.5,111.5 Z M 142.5,127.5 C 141.133,132.601 139.8,137.767 138.5,143C 132.594,145.788 126.594,148.288 120.5,150.5C 118.701,150.423 117.034,149.923 115.5,149C 113.284,146.447 110.784,144.28 108,142.5C 103.044,146.453 98.3777,150.786 94,155.5C 93.3333,156.5 93.3333,157.5 94,158.5C 96.3333,160.833 98.6667,163.167 101,165.5C 101.667,168.5 101.667,171.5 101,174.5C 99.1382,178.419 97.4715,182.419 96,186.5C 95.1667,187.333 94.3333,188.167 93.5,189C 89.1667,189.333 84.8333,189.667 80.5,190C 80,190.5 79.5,191 79,191.5C 78.3333,197.833 78.3333,204.167 79,210.5C 79.5,211 80,211.5 80.5,212C 84.8333,212.333 89.1667,212.667 93.5,213C 94.4162,213.374 95.2496,213.874 96,214.5C 98.4676,220.072 100.634,225.739 102.5,231.5C 102.423,233.299 101.923,234.966 101,236.5C 98.1149,239.048 95.6149,241.882 93.5,245C 97.4532,249.956 101.786,254.622 106.5,259C 107.5,259.667 108.5,259.667 109.5,259C 112.203,255.962 115.203,253.295 118.5,251C 125.689,251.728 132.523,253.895 139,257.5C 140.224,262.386 140.891,267.386 141,272.5C 141.5,273 142,273.5 142.5,274C 148.833,274.667 155.167,274.667 161.5,274C 162,273.5 162.5,273 163,272.5C 163.333,268.167 163.667,263.833 164,259.5C 169.418,255.076 175.585,252.076 182.5,250.5C 184.299,250.577 185.966,251.077 187.5,252C 190.048,254.885 192.882,257.385 196,259.5C 201.244,256.262 205.911,252.262 210,247.5C 210.667,246.167 210.667,244.833 210,243.5C 206.962,240.797 204.295,237.797 202,234.5C 201.333,232.5 201.333,230.5 202,228.5C 204.225,223.298 206.725,218.298 209.5,213.5C 214.113,212.721 218.78,212.221 223.5,212C 224,211.5 224.5,211 225,210.5C 225.667,204.167 225.667,197.833 225,191.5C 224.5,191 224,190.5 223.5,190C 219.5,189.667 215.5,189.333 211.5,189C 210.069,188.535 208.903,187.701 208,186.5C 205.728,181.128 203.894,175.628 202.5,170C 202.542,168.033 203.042,166.199 204,164.5C 206.767,162.242 208.934,159.575 210.5,156.5C 207.088,151.581 203.088,147.081 198.5,143C 197.167,142.333 195.833,142.333 194.5,143C 192.129,145.706 189.463,148.039 186.5,150C 184.5,150.667 182.5,150.667 180.5,150C 175.379,147.356 170.212,144.856 165,142.5C 163.796,138.284 163.13,133.951 163,129.5C 162.5,129 162,128.5 161.5,128C 155.175,127.5 148.842,127.334 142.5,127.5 Z M 149.5,177.5 C 142.943,178.871 137.443,182.205 133,187.5C 125.398,203.029 129.232,214.862 144.5,223C 162.263,226.247 172.597,218.913 175.5,201C 173.324,185.991 164.657,178.158 149.5,177.5 Z"/></g>
<g><path style="opacity:0.925" fill="#000000" d="M 147.5,161.5 C 171.245,161.085 185.745,172.418 191,195.5C 192.377,219.788 181.211,234.621 157.5,240C 132.755,241.252 117.921,229.752 113,205.5C 112.423,181.255 123.923,166.588 147.5,161.5 Z M 149.5,177.5 C 142.943,178.871 137.443,182.205 133,187.5C 125.398,203.029 129.232,214.862 144.5,223C 162.263,226.247 172.597,218.913 175.5,201C 173.324,185.991 164.657,178.158 149.5,177.5 Z"/></g>
</svg>
