<?xml version="1.0" standalone="no"?>
<!DOCTYPE svg PUBLIC "-//W3C//DTD SVG 20010904//EN"
 "http://www.w3.org/TR/2001/REC-SVG-20010904/DTD/svg10.dtd">
<svg version="1.0" xmlns="http://www.w3.org/2000/svg"
 width="64.000000pt" height="64.000000pt" viewBox="0 0 64.000000 64.000000"
 preserveAspectRatio="xMidYMid meet">

<g transform="translate(0.000000,64.000000) scale(0.100000,-0.100000)"
fill="#000000" stroke="none">
<path d="M36 604 c-13 -13 -16 -42 -16 -164 0 -177 1 -180 91 -180 64 0 66 -3
45 -55 -13 -29 -20 -35 -45 -35 -35 0 -41 -19 -15 -44 11 -11 34 -16 78 -16
89 0 126 -9 126 -30 0 -29 28 -46 51 -32 22 14 39 8 39 -14 0 -9 11 -14 30
-14 19 0 30 5 30 14 0 22 17 28 39 14 23 -14 51 3 51 33 0 12 7 19 19 19 30 0
47 28 33 51 -14 22 -8 39 14 39 9 0 14 11 14 30 0 19 -5 30 -14 30 -22 0 -28
17 -14 39 14 23 -3 51 -33 51 -12 0 -19 7 -19 19 0 11 -5 23 -10 26 -6 3 -10
50 -10 105 0 76 -4 102 -16 114 -23 24 -445 24 -468 0z m462 -105 c2 -75 -1
-99 -12 -108 -17 -14 -36 -7 -36 15 0 9 -11 14 -30 14 -19 0 -30 -5 -30 -14 0
-22 -17 -28 -40 -14 -19 11 -24 10 -40 -9 -17 -21 -27 -23 -114 -23 l-96 0 0
60 0 60 50 0 c28 0 50 5 50 10 0 6 -22 10 -50 10 -49 0 -50 1 -50 30 l0 30
170 0 170 0 0 -60 c0 -33 4 -60 10 -60 6 0 10 30 10 70 l0 70 -190 0 -190 0 0
-110 c0 -103 -1 -110 -20 -110 -19 0 -20 7 -20 113 0 63 3 117 7 121 4 3 106
5 227 4 l221 -3 3 -96z m-68 -109 c0 -6 12 -16 26 -22 20 -9 27 -9 34 1 10 17
31 5 24 -12 -6 -16 28 -49 46 -45 7 2 15 -3 17 -9 3 -7 0 -13 -6 -13 -18 0
-13 -28 9 -50 l20 -20 -20 -20 c-22 -22 -27 -50 -9 -50 6 0 9 -6 6 -12 -2 -7
-10 -12 -17 -10 -17 4 -51 -28 -48 -46 2 -8 -3 -17 -9 -19 -7 -3 -13 0 -13 6
0 18 -28 13 -50 -9 l-20 -20 -20 20 c-22 22 -50 27 -50 9 0 -6 -6 -9 -12 -6
-7 2 -12 11 -10 19 3 18 -31 50 -48 46 -7 -2 -15 3 -17 10 -3 6 0 12 6 12 19
0 12 38 -10 54 l-21 14 21 21 c22 22 28 51 10 51 -6 0 -9 6 -6 13 2 6 10 11
17 9 18 -4 52 29 46 45 -7 17 14 29 24 12 7 -10 14 -10 34 -1 14 6 26 16 26
22 0 5 5 10 10 10 6 0 10 -5 10 -10z m-180 -65 c-7 -8 -10 -22 -6 -30 5 -14
-8 -15 -97 -13 l-102 3 -3 28 -3 27 112 0 c97 0 110 -2 99 -15z m-12 -72 c-23
-6 -25 -63 -4 -63 8 0 18 -4 21 -10 4 -6 -12 -10 -39 -10 -50 0 -53 4 -32 55
12 29 20 35 43 34 17 -1 21 -3 11 -6z m2 -113 c0 -13 -127 -13 -135 0 -4 6 20
10 64 10 41 0 71 -4 71 -10z"/>
<path d="M120 530 c0 -5 5 -10 10 -10 6 0 10 5 10 10 0 6 -4 10 -10 10 -5 0
-10 -4 -10 -10z"/>
<path d="M160 530 c0 -5 5 -10 10 -10 6 0 10 5 10 10 0 6 -4 10 -10 10 -5 0
-10 -4 -10 -10z"/>
<path d="M200 530 c0 -5 5 -10 10 -10 6 0 10 5 10 10 0 6 -4 10 -10 10 -5 0
-10 -4 -10 -10z"/>
<path d="M374 505 c4 -12 -6 -15 -64 -15 -82 0 -100 -13 -100 -71 0 -53 18
-50 22 4 l3 42 72 3 c62 2 72 1 67 -13 -9 -21 10 -19 31 5 17 19 17 21 0 40
-21 24 -40 26 -31 5z"/>
<path d="M445 320 c3 -5 8 -10 11 -10 2 0 4 5 4 10 0 6 -5 10 -11 10 -5 0 -7
-4 -4 -10z"/>
<path d="M350 310 c0 -5 5 -10 10 -10 6 0 10 5 10 10 0 6 -4 10 -10 10 -5 0
-10 -4 -10 -10z"/>
<path d="M490 300 c0 -5 5 -10 11 -10 5 0 7 5 4 10 -3 6 -8 10 -11 10 -2 0 -4
-4 -4 -10z"/>
<path d="M315 280 c-3 -5 1 -10 10 -10 9 0 13 5 10 10 -3 6 -8 10 -10 10 -2 0
-7 -4 -10 -10z"/>
<path d="M372 267 c-28 -30 -28 -68 1 -95 30 -28 68 -28 95 1 28 30 28 68 -1
95 -30 28 -68 28 -95 -1z m82 -13 c31 -30 9 -84 -34 -84 -24 0 -50 26 -50 50
0 24 26 50 50 50 10 0 26 -7 34 -16z"/>
<path d="M510 260 c0 -5 5 -10 10 -10 6 0 10 5 10 10 0 6 -4 10 -10 10 -5 0
-10 -4 -10 -10z"/>
<path d="M300 230 c0 -5 5 -10 10 -10 6 0 10 5 10 10 0 6 -4 10 -10 10 -5 0
-10 -4 -10 -10z"/>
<path d="M520 210 c0 -5 5 -10 10 -10 6 0 10 5 10 10 0 6 -4 10 -10 10 -5 0
-10 -4 -10 -10z"/>
<path d="M310 180 c0 -5 5 -10 10 -10 6 0 10 5 10 10 0 6 -4 10 -10 10 -5 0
-10 -4 -10 -10z"/>
<path d="M505 160 c4 -6 11 -8 16 -5 14 9 11 15 -7 15 -8 0 -12 -5 -9 -10z"/>
<path d="M335 140 c3 -5 8 -10 11 -10 2 0 4 5 4 10 0 6 -5 10 -11 10 -5 0 -7
-4 -4 -10z"/>
<path d="M470 130 c0 -5 5 -10 10 -10 6 0 10 5 10 10 0 6 -4 10 -10 10 -5 0
-10 -4 -10 -10z"/>
<path d="M380 120 c0 -5 5 -10 11 -10 5 0 7 5 4 10 -3 6 -8 10 -11 10 -2 0 -4
-4 -4 -10z"/>
<path d="M425 110 c3 -5 8 -10 11 -10 2 0 4 5 4 10 0 6 -5 10 -11 10 -5 0 -7
-4 -4 -10z"/>
</g>
</svg>
