<?xml version="1.0" standalone="no"?>
<!DOCTYPE svg PUBLIC "-//W3C//DTD SVG 20010904//EN"
 "http://www.w3.org/TR/2001/REC-SVG-20010904/DTD/svg10.dtd">
<svg version="1.0" xmlns="http://www.w3.org/2000/svg"
 width="512.000000pt" height="512.000000pt" viewBox="0 0 512.000000 512.000000"
 preserveAspectRatio="xMidYMid meet">

<g transform="translate(0.000000,512.000000) scale(0.100000,-0.100000)"
fill="#000000" stroke="none">
<path d="M2320 5110 c-853 -82 -1610 -586 -2014 -1339 -342 -638 -399 -1392
-158 -2067 60 -168 80 -204 120 -221 63 -26 135 19 135 85 0 15 -19 76 -42
135 -168 431 -206 924 -105 1375 166 740 702 1376 1403 1661 187 76 390 131
606 162 117 17 463 17 585 0 399 -55 755 -192 1065 -410 l80 -56 -165 -16
c-91 -8 -173 -19 -183 -23 -22 -10 -47 -57 -47 -88 0 -35 36 -87 66 -94 35 -9
594 42 627 57 14 6 33 26 41 43 13 28 12 60 -10 311 -13 154 -27 291 -30 303
-16 73 -110 97 -165 43 -34 -34 -35 -51 -15 -253 6 -71 10 -128 8 -128 -1 0
-27 18 -56 40 -327 241 -728 404 -1148 466 -125 18 -468 26 -598 14z"/>
<path d="M2325 4193 c-74 -39 -109 -95 -118 -191 -8 -74 -33 -128 -80 -169
-83 -73 -211 -83 -291 -24 -117 86 -165 102 -243 81 -41 -12 -68 -34 -185
-148 -81 -80 -146 -152 -158 -177 -37 -77 -22 -159 44 -237 62 -72 79 -155 51
-239 -33 -96 -129 -168 -225 -169 -96 -1 -179 -68 -200 -162 -8 -34 -11 -116
-9 -228 4 -170 5 -176 31 -222 37 -61 81 -87 171 -99 94 -13 150 -41 191 -95
77 -101 71 -223 -17 -323 -57 -66 -72 -145 -42 -219 21 -49 267 -298 320 -323
79 -37 161 -19 253 56 68 55 130 66 218 40 101 -30 157 -105 173 -233 11 -88
38 -133 99 -170 l47 -27 200 0 c110 0 212 3 227 8 36 9 95 61 115 100 8 17 19
62 24 100 11 84 40 140 96 183 89 68 211 67 296 -2 92 -75 173 -92 252 -54 25
12 98 77 177 158 113 115 138 146 148 182 22 80 5 130 -83 248 -30 40 -32 50
-32 121 0 69 3 83 30 126 51 83 94 105 256 130 44 7 116 66 135 112 10 24 14
87 14 238 0 183 -2 210 -19 243 -35 69 -104 112 -177 112 -170 0 -293 186
-224 338 11 24 36 62 55 85 57 67 69 140 35 215 -28 62 -249 285 -314 317 -82
41 -151 30 -236 -40 -112 -92 -238 -88 -335 10 -53 52 -75 102 -75 169 0 73
-43 142 -112 177 -33 17 -60 19 -245 19 -170 -1 -214 -4 -238 -17z m403 -253
c25 -148 113 -263 250 -328 74 -36 81 -37 187 -37 102 0 115 2 175 31 36 17
82 45 101 62 l35 31 113 -113 112 -112 -26 -24 c-15 -14 -42 -57 -61 -96 -82
-166 -45 -377 90 -508 73 -71 193 -126 279 -126 l27 0 0 -154 0 -154 -27 -6
c-16 -2 -46 -8 -68 -11 -105 -17 -241 -120 -293 -221 -66 -130 -69 -273 -9
-395 20 -41 47 -88 61 -104 l25 -31 -108 -108 -108 -108 -49 37 c-181 139
-432 119 -589 -46 -66 -69 -104 -146 -119 -241 l-10 -68 -152 0 -152 0 -7 52
c-27 197 -150 334 -345 384 -122 31 -254 3 -359 -77 l-54 -41 -110 110 -110
110 33 38 c74 85 113 224 93 339 -36 209 -184 351 -395 380 l-48 6 0 152 0
153 68 10 c96 15 172 53 243 120 162 155 183 404 50 581 l-38 50 106 108 c118
119 98 114 189 53 130 -87 320 -89 464 -5 61 35 145 128 173 189 13 29 29 83
35 121 l12 67 152 0 152 0 12 -70z"/>
<path d="M2405 3295 c-217 -47 -412 -199 -508 -397 -60 -123 -80 -207 -79
-338 2 -343 227 -633 561 -722 104 -28 267 -28 374 1 133 35 229 92 337 201
78 77 104 111 138 180 145 291 97 626 -121 857 -143 151 -338 234 -547 232
-52 0 -122 -6 -155 -14z m290 -200 c154 -39 290 -148 357 -286 107 -219 68
-459 -102 -630 -108 -110 -238 -163 -396 -162 -156 1 -280 58 -393 178 -164
176 -191 439 -66 650 69 117 206 219 338 251 72 17 192 17 262 -1z"/>
<path d="M4772 3635 c-41 -18 -65 -69 -53 -111 5 -16 27 -77 50 -136 91 -241
140 -485 148 -753 10 -298 -26 -542 -118 -820 -253 -759 -884 -1347 -1654
-1540 -218 -55 -342 -70 -590 -69 -248 0 -361 13 -579 68 -171 44 -299 92
-471 177 -139 69 -369 215 -369 234 0 12 -8 11 178 26 140 11 151 13 180 39
25 23 31 36 31 70 0 35 -6 47 -33 71 -18 16 -44 29 -59 29 -14 0 -152 -11
-305 -25 -197 -18 -287 -30 -303 -41 -48 -31 -49 -49 -20 -365 29 -319 31
-330 92 -355 31 -14 38 -13 71 3 60 29 65 49 49 225 -8 84 -13 154 -12 156 1
1 56 -33 121 -77 345 -230 700 -365 1114 -422 122 -17 515 -18 635 -1 591 83
1083 324 1488 727 206 205 355 413 486 676 312 627 356 1342 123 1995 -60 167
-80 204 -118 220 -40 17 -41 17 -82 -1z"/>
</g>
</svg>
