<?xml version="1.0" standalone="no"?>
<!DOCTYPE svg PUBLIC "-//W3C//DTD SVG 20010904//EN"
 "http://www.w3.org/TR/2001/REC-SVG-20010904/DTD/svg10.dtd">
<svg version="1.0" xmlns="http://www.w3.org/2000/svg"
 width="512.000000pt" height="512.000000pt" viewBox="0 0 512.000000 512.000000"
 preserveAspectRatio="xMidYMid meet">

<g transform="translate(0.000000,512.000000) scale(0.100000,-0.100000)"
fill="#000000" stroke="none">
<path d="M2510 4947 c-18 -9 -52 -66 -127 -217 -56 -113 -104 -209 -105 -213
-2 -5 -96 -21 -208 -37 -113 -16 -221 -34 -241 -40 -45 -12 -69 -47 -69 -97 0
-36 9 -47 169 -206 l170 -168 -39 -226 c-34 -203 -37 -230 -25 -259 7 -18 22
-37 33 -43 49 -26 88 -13 289 93 l198 105 201 -105 c222 -115 255 -124 299
-80 13 13 27 35 30 48 3 12 -12 123 -33 245 l-38 223 167 165 c177 175 188
193 164 252 -20 47 -54 58 -265 88 -102 14 -198 28 -214 31 -25 5 -38 26 -127
208 -54 111 -110 211 -124 224 -29 24 -67 28 -105 9z m210 -609 c20 -14 248
-57 313 -58 7 0 -41 -52 -105 -114 -137 -131 -131 -114 -98 -306 11 -63 20
-123 20 -132 0 -14 -27 -3 -133 52 -74 39 -146 70 -162 70 -15 0 -88 -31 -162
-70 -73 -39 -133 -66 -133 -61 0 6 11 74 25 152 21 123 23 145 11 172 -7 18
-59 76 -116 130 -56 54 -100 100 -98 103 2 2 69 13 149 25 79 11 154 27 166
34 12 8 51 77 89 155 l68 141 71 -138 c39 -77 81 -145 95 -155z"/>
<path d="M795 4038 c-21 -16 -135 -224 -156 -286 -2 -6 -67 -20 -144 -32 -182
-27 -183 -27 -211 -55 -18 -18 -24 -35 -24 -67 0 -42 4 -47 118 -161 l119
-118 -23 -127 c-38 -209 -31 -250 46 -273 37 -11 42 -10 185 65 l146 77 148
-77 c166 -85 189 -88 236 -32 31 36 31 36 0 219 l-25 148 116 113 c103 101
116 117 121 154 4 35 1 46 -24 73 -27 32 -34 33 -187 56 -87 13 -160 25 -161
27 -2 2 -35 67 -74 145 -55 111 -77 146 -100 158 -41 21 -73 19 -106 -7z m158
-472 c17 -11 136 -36 173 -36 4 0 -20 -29 -54 -64 -33 -35 -63 -74 -67 -87 -3
-13 1 -59 8 -101 8 -43 12 -78 10 -78 -2 0 -35 16 -73 35 -38 19 -84 35 -101
35 -18 0 -61 -16 -97 -35 -35 -20 -66 -34 -69 -31 -2 2 0 30 6 62 21 110 18
119 -54 194 l-66 67 75 12 c111 16 122 24 168 115 l40 81 39 -78 c22 -42 49
-83 62 -91z"/>
<path d="M4195 4038 c-21 -16 -135 -224 -156 -286 -2 -6 -67 -20 -144 -32
-182 -27 -183 -27 -211 -55 -18 -18 -24 -35 -24 -67 0 -42 4 -47 118 -161
l119 -118 -23 -127 c-38 -209 -31 -250 46 -273 37 -11 42 -10 185 65 l146 77
148 -77 c166 -85 189 -88 236 -32 31 36 31 36 0 219 l-25 148 116 113 c103
101 116 117 121 154 4 35 1 46 -24 73 -27 32 -34 33 -187 56 -87 13 -160 25
-161 27 -2 2 -35 67 -74 145 -55 111 -77 146 -100 158 -41 21 -73 19 -106 -7z
m158 -472 c17 -11 136 -36 173 -36 4 0 -20 -29 -54 -64 -33 -35 -63 -74 -67
-87 -3 -13 1 -59 8 -101 8 -43 12 -78 10 -78 -2 0 -35 16 -73 35 -38 19 -84
35 -101 35 -18 0 -61 -16 -97 -35 -35 -20 -66 -34 -69 -31 -2 2 0 30 6 62 21
110 18 119 -54 194 l-66 67 75 12 c111 16 122 24 168 115 l40 81 39 -78 c22
-42 49 -83 62 -91z"/>
<path d="M2411 3145 c-153 -35 -255 -84 -363 -175 -117 -98 -210 -238 -254
-385 -24 -79 -28 -107 -28 -225 0 -118 4 -146 28 -225 58 -194 188 -358 369
-468 65 -39 190 -84 264 -94 51 -7 58 -23 10 -23 -88 0 -250 -44 -376 -101
-133 -61 -246 -142 -359 -257 l-102 -104 -41 37 c-110 99 -279 180 -446 214
-56 12 -105 21 -110 22 -4 0 21 7 57 15 266 57 470 311 470 584 0 324 -276
600 -600 600 -324 0 -600 -276 -600 -600 0 -273 206 -529 470 -584 l65 -13
-40 -8 c-169 -30 -286 -73 -396 -143 -161 -104 -304 -274 -367 -438 -45 -118
-62 -224 -62 -395 l0 -149 29 -32 29 -33 2496 -3 2496 -2 32 29 33 29 3 151
c4 173 -12 280 -60 404 -63 165 -206 335 -367 439 -110 70 -227 113 -396 143
l-40 8 65 13 c264 55 470 311 470 584 0 324 -276 600 -600 600 -324 0 -600
-276 -600 -600 0 -273 204 -527 470 -584 36 -8 61 -15 57 -15 -5 -1 -54 -10
-110 -22 -168 -34 -336 -115 -447 -215 l-41 -37 -76 82 c-98 106 -211 192
-340 257 -140 71 -319 124 -420 124 -48 0 -41 16 10 23 74 10 199 55 264 94
181 110 311 274 369 468 24 79 28 107 28 225 0 118 -4 146 -28 225 -78 258
-286 466 -541 541 -113 33 -277 41 -374 19z m274 -200 c270 -57 475 -309 475
-585 0 -324 -276 -600 -600 -600 -276 0 -528 205 -585 475 -43 204 16 397 164
546 149 149 342 207 546 164z m-1662 -600 c162 -42 268 -157 299 -325 22 -116
-23 -252 -112 -340 -88 -89 -224 -134 -340 -112 -178 33 -299 154 -332 332
-22 115 23 252 110 339 102 102 240 141 375 106z m3260 0 c162 -42 268 -157
299 -325 30 -160 -67 -348 -217 -416 -119 -55 -231 -55 -350 0 -150 68 -247
256 -217 416 30 166 136 282 295 325 69 18 120 18 190 0z m-1483 -1015 c119
-29 288 -114 389 -195 139 -113 260 -288 320 -462 24 -71 51 -217 51 -274 l0
-39 -1000 0 -1000 0 0 39 c0 21 7 77 15 125 73 417 395 741 815 821 103 20
299 13 410 -15z m-1675 -196 c121 -33 265 -114 339 -193 l29 -30 -31 -73 c-58
-138 -84 -245 -98 -400 l-6 -78 -579 0 -579 0 0 83 c1 266 148 505 390 631 72
37 146 63 218 76 67 13 246 4 317 -16z m3270 -4 c203 -63 364 -198 455 -382
48 -98 70 -193 70 -305 l0 -83 -579 0 -579 0 -6 77 c-14 156 -40 263 -98 401
l-31 73 29 30 c95 101 269 187 429 213 68 10 241 -3 310 -24z"/>
<path d="M2524 1150 c-32 -13 -64 -59 -64 -91 0 -40 46 -88 91 -95 31 -5 42
-1 70 24 28 25 34 37 34 72 0 35 -6 47 -33 71 -33 29 -60 35 -98 19z"/>
<path d="M2875 1015 c-19 -18 -25 -35 -25 -68 0 -43 3 -47 88 -124 48 -45 103
-106 122 -138 50 -82 93 -125 124 -125 65 0 113 53 103 112 -13 81 -159 268
-265 338 -58 39 -112 41 -147 5z"/>
</g>
</svg>
