<?xml version="1.0" standalone="no"?>
<!DOCTYPE svg PUBLIC "-//W3C//DTD SVG 20010904//EN"
 "http://www.w3.org/TR/2001/REC-SVG-20010904/DTD/svg10.dtd">
<svg version="1.0" xmlns="http://www.w3.org/2000/svg"
 width="512.000000pt" height="512.000000pt" viewBox="0 0 512.000000 512.000000"
 preserveAspectRatio="xMidYMid meet">

<g transform="translate(0.000000,512.000000) scale(0.100000,-0.100000)"
fill="#000000" stroke="none">
<path d="M2370 4483 c-512 -40 -1028 -245 -1425 -568 -49 -40 -149 -133 -220
-206 -203 -209 -341 -405 -466 -664 -87 -180 -131 -302 -179 -489 -46 -183
-67 -325 -76 -512 l-7 -142 26 -26 26 -26 455 0 455 0 25 23 c22 20 25 33 35
158 37 482 264 885 656 1164 444 317 1053 367 1550 129 96 -46 235 -131 235
-144 0 -10 -422 -313 -435 -312 -5 0 -48 14 -95 30 -659 230 -1381 -192 -1516
-885 -21 -104 -23 -317 -5 -413 132 -708 827 -1128 1510 -913 172 54 331 153
467 288 162 164 275 378 319 607 20 109 20 317 0 426 -17 87 -63 230 -97 295
l-19 38 143 199 c164 228 142 222 218 65 91 -187 133 -346 151 -570 10 -128
13 -142 36 -162 l24 -23 455 0 455 0 24 25 c22 21 25 33 25 92 0 183 -37 437
-94 646 -88 319 -261 659 -463 909 -34 43 -63 80 -63 83 0 2 40 61 89 130 50
69 93 134 96 145 9 28 -15 72 -47 88 -37 17 -59 7 -199 -94 l-119 -85 -63 56
c-82 75 -228 184 -335 252 -110 69 -357 190 -486 238 -318 117 -728 174 -1066
148z m110 -502 l0 -348 -87 -7 c-373 -28 -770 -218 -1046 -500 l-69 -69 -243
243 -244 244 21 29 c29 41 205 196 319 282 373 280 826 442 1322 473 l27 2 0
-349z m385 328 c330 -38 705 -175 991 -360 153 -100 338 -250 323 -262 -2 -2
-131 -95 -287 -206 l-283 -201 -92 61 c-238 159 -533 265 -790 285 l-87 7 0
349 0 350 68 -7 c37 -3 108 -11 157 -16z m1378 -782 c-19 -31 -717 -1004 -732
-1019 -15 -17 -19 -14 -61 38 -46 59 -157 160 -223 204 -20 14 -37 27 -36 30
0 3 109 82 242 177 133 95 370 264 527 377 157 113 286 205 288 206 2 0 -1 -6
-5 -13z m199 -109 c60 -74 164 -230 218 -327 166 -300 265 -637 295 -1003 l7
-78 -351 0 -351 0 0 46 c0 196 -101 519 -229 737 -33 55 -49 92 -44 101 28 46
407 566 413 566 4 0 23 -19 42 -42z m-3505 -240 l242 -243 -45 -70 c-148 -228
-252 -523 -270 -767 l-7 -88 -349 0 -350 0 7 78 c33 402 145 757 345 1087 58
96 166 245 178 245 4 0 116 -109 249 -242z m1880 -412 c288 -79 515 -266 643
-530 83 -168 113 -335 98 -529 -31 -403 -310 -747 -704 -870 -512 -161 -1068
122 -1244 633 -70 205 -68 471 5 665 122 326 396 568 721 639 106 23 120 25
259 21 100 -3 151 -9 222 -29z"/>
<path d="M2455 2597 c-111 -37 -194 -106 -240 -200 -118 -243 45 -529 316
-554 107 -10 208 27 294 108 196 185 142 507 -102 622 -54 25 -82 31 -148 34
-48 2 -96 -2 -120 -10z m225 -181 c148 -98 135 -313 -25 -391 -47 -24 -64 -27
-111 -22 -104 11 -181 78 -203 179 -23 103 32 208 134 255 49 22 156 11 205
-21z"/>
<path d="M2458 1800 c-143 -26 -285 -104 -378 -208 -91 -101 -160 -271 -160
-393 0 -127 -41 -119 640 -119 681 0 640 -8 640 119 0 77 -23 160 -69 256
-101 204 -307 338 -540 350 -47 2 -107 0 -133 -5z m188 -161 c32 -6 88 -25
124 -41 120 -57 243 -209 258 -320 l5 -38 -471 0 c-259 0 -473 4 -476 8 -8 14
40 137 72 184 69 100 195 185 307 206 70 14 112 14 181 1z"/>
<path d="M4610 1790 c-17 -17 -20 -33 -20 -110 l0 -90 -74 0 c-117 0 -156 -22
-156 -88 0 -53 33 -71 135 -74 l90 -3 3 -90 c3 -103 21 -135 76 -135 63 1 86
42 86 156 l0 74 90 0 c102 0 130 15 130 69 0 69 -35 91 -145 91 l-75 0 0 69
c0 78 -14 127 -40 141 -31 16 -79 11 -100 -10z"/>
<path d="M230 1583 c-57 -21 -76 -80 -39 -127 l20 -26 260 0 c151 0 268 4 279
10 48 26 38 120 -15 140 -27 10 -478 13 -505 3z"/>
</g>
</svg>
