<?xml version="1.0" standalone="no"?>
<!DOCTYPE svg PUBLIC "-//W3C//DTD SVG 20010904//EN"
 "http://www.w3.org/TR/2001/REC-SVG-20010904/DTD/svg10.dtd">
<svg version="1.0" xmlns="http://www.w3.org/2000/svg"
 width="512.000000pt" height="512.000000pt" viewBox="0 0 512.000000 512.000000"
 preserveAspectRatio="xMidYMid meet">

<g transform="translate(0.000000,512.000000) scale(0.100000,-0.100000)"
fill="#000000" stroke="none">
<path d="M2505 5095 c-24 -23 -25 -28 -25 -175 0 -147 1 -152 25 -175 15 -16
36 -25 55 -25 19 0 40 9 55 25 24 23 25 28 25 175 0 147 -1 152 -25 175 -15
16 -36 25 -55 25 -19 0 -40 -9 -55 -25z"/>
<path d="M1505 4688 c-30 -17 -44 -40 -45 -72 0 -24 20 -49 107 -137 94 -96
111 -109 140 -109 42 0 83 38 83 77 0 21 -24 51 -113 140 -113 113 -132 124
-172 101z"/>
<path d="M3443 4587 c-89 -89 -113 -119 -113 -140 0 -39 41 -77 83 -77 29 0
46 13 140 109 87 88 107 113 107 137 -1 44 -41 84 -86 84 -10 0 -69 -51 -131
-113z"/>
<path d="M2365 4503 c-217 -46 -430 -187 -561 -370 -224 -312 -229 -766 -10
-1048 17 -22 75 -92 130 -155 62 -72 110 -139 130 -180 29 -62 31 -73 37 -240
8 -194 18 -240 76 -327 66 -100 171 -159 309 -175 232 -27 418 52 500 214 41
82 45 101 53 288 6 167 8 178 37 240 20 43 69 109 142 194 167 192 211 267
253 422 31 115 32 324 1 448 -87 348 -367 619 -714 690 -97 20 -288 20 -383
-1z m381 -163 c224 -56 404 -205 505 -415 58 -121 73 -190 73 -335 0 -229 -42
-321 -249 -556 -90 -101 -133 -164 -162 -234 l-22 -55 -125 -3 -126 -3 0 292
0 292 55 58 c65 68 70 96 26 140 -42 41 -74 37 -133 -19 l-28 -26 -27 26 c-60
56 -92 60 -134 19 -44 -44 -39 -72 26 -140 l55 -58 0 -292 0 -292 -126 3 -125
3 -22 55 c-29 70 -72 133 -162 234 -207 235 -249 327 -249 556 0 145 15 214
73 335 100 209 280 357 501 415 104 26 270 27 376 0z m124 -1825 l0 -65 -310
0 -310 0 0 65 0 65 310 0 310 0 0 -65z m-49 -244 c-15 -27 -70 -71 -111 -89
-25 -11 -69 -16 -150 -16 -81 0 -125 5 -150 16 -41 18 -96 62 -111 89 -9 18
-1 19 261 19 262 0 270 -1 261 -19z"/>
<path d="M1084 3666 c-50 -22 -61 -87 -21 -124 22 -21 33 -22 174 -22 132 0
154 2 174 19 31 25 32 83 1 114 -21 20 -33 22 -160 24 -100 2 -145 -1 -168
-11z"/>
<path d="M3730 3667 c-51 -26 -61 -93 -18 -129 17 -15 42 -18 172 -18 146 0
153 1 174 23 40 43 25 107 -29 126 -45 15 -267 14 -299 -2z"/>
<path d="M1685 2820 c-11 -4 -66 -55 -122 -113 -111 -113 -120 -132 -82 -181
16 -20 29 -26 58 -26 34 0 46 9 144 109 116 118 126 139 85 185 -27 29 -55 38
-83 26z"/>
<path d="M3384 2820 c-12 -5 -29 -19 -38 -32 -32 -45 -22 -65 91 -179 98 -100
110 -109 144 -109 29 0 42 6 58 26 39 49 30 68 -86 185 -111 110 -132 124
-169 109z"/>
<path d="M1003 1813 c-13 -2 -32 -16 -43 -30 -18 -23 -20 -40 -20 -195 0 -227
-8 -215 167 -271 l138 -45 31 -91 c17 -50 49 -127 71 -170 l40 -79 -64 -124
c-34 -67 -63 -134 -63 -148 0 -38 304 -340 343 -340 15 0 82 28 150 61 l123
62 86 -42 c47 -23 123 -54 169 -70 l83 -28 44 -134 c26 -82 51 -141 64 -151
18 -16 45 -18 238 -18 193 0 220 2 239 18 14 11 36 64 64 151 l42 134 85 29
c47 15 124 47 171 69 l86 41 121 -61 c73 -37 134 -61 154 -61 28 0 51 19 185
153 133 133 153 157 153 185 0 20 -24 78 -64 152 l-63 121 39 77 c21 42 53
119 71 171 l32 93 138 45 c175 56 167 44 167 272 0 165 -1 171 -24 198 l-24
28 -1554 1 c-854 1 -1563 -1 -1575 -3z m868 -248 c26 -361 324 -635 689 -635
270 0 504 145 620 385 47 98 60 146 68 255 l7 85 380 0 380 0 0 -84 0 -84
-115 -39 c-63 -21 -125 -43 -137 -49 -17 -9 -31 -41 -58 -127 -20 -63 -61
-162 -91 -219 -30 -57 -54 -109 -54 -116 -1 -7 28 -67 62 -134 l63 -123 -92
-92 -92 -92 -130 63 -129 63 -131 -65 c-72 -36 -168 -75 -213 -87 -46 -12 -92
-28 -103 -36 -12 -9 -35 -62 -60 -142 l-41 -127 -134 0 -134 0 -38 120 c-23
72 -47 129 -61 142 -12 12 -57 30 -102 42 -44 12 -140 51 -213 87 l-133 66
-130 -63 -130 -63 -92 92 -92 92 63 123 c34 67 62 127 62 134 0 7 -24 59 -54
116 -30 57 -71 156 -91 219 -27 86 -41 118 -58 127 -12 6 -74 28 -137 49
l-115 39 -3 73 c-2 40 -1 79 2 87 5 11 73 13 383 11 l378 -3 6 -90z m1219 37
c0 -127 -57 -259 -155 -358 -101 -102 -227 -154 -375 -154 -148 0 -274 52
-375 154 -98 99 -155 231 -155 358 l0 58 530 0 530 0 0 -58z"/>
</g>
</svg>
