<?xml version="1.0" encoding="UTF-8"?>
<svg version="1.1" xmlns="http://www.w3.org/2000/svg" width="512" height="512">
<path d="M0 0 C0.74630141 -0.00581376 1.49260283 -0.01162753 2.26151943 -0.01761746 C4.77651775 -0.03228152 7.29054987 -0.018303 9.80554199 -0.00457001 C11.6210607 -0.0091764 13.43657569 -0.01552756 15.25208282 -0.02347898 C20.25211632 -0.04023135 25.25184582 -0.03189918 30.25188065 -0.01953411 C35.6398249 -0.01051005 41.02771567 -0.02444018 46.41564941 -0.0354538 C56.97499475 -0.05327192 67.53422658 -0.04938438 78.09357643 -0.03780323 C86.67278604 -0.02878212 95.25196377 -0.02753917 103.83117676 -0.0318985 C105.05063885 -0.03251143 106.27010095 -0.03312436 107.52651644 -0.03375587 C110.00356739 -0.03503473 112.48061833 -0.03633158 114.95766926 -0.03764623 C138.20350517 -0.04906168 161.44927807 -0.0359232 184.69510365 -0.01444477 C204.65577612 0.00342707 224.61635557 0.00032323 244.57702637 -0.01811981 C267.73775516 -0.03950949 290.89842867 -0.04796296 314.05916595 -0.03567076 C316.52727762 -0.03439651 318.99538929 -0.03313903 321.46350098 -0.0318985 C323.28519955 -0.03097285 323.28519955 -0.03097285 325.14370012 -0.03002849 C333.71597142 -0.02656988 342.28820775 -0.03241493 350.86047363 -0.04181671 C361.30239191 -0.05301695 371.74418986 -0.05003831 382.18609428 -0.02869374 C387.51718649 -0.0181567 392.84807783 -0.01410658 398.1791687 -0.02729034 C403.05460708 -0.03916523 407.92965746 -0.03273308 412.80506039 -0.01138014 C414.57350243 -0.00689318 416.34197692 -0.00922691 418.11039829 -0.01888329 C420.50563091 -0.03096417 422.89951668 -0.01865855 425.29467773 0 C425.98893828 -0.00936466 426.68319883 -0.01872933 427.39849758 -0.02837777 C430.622236 0.02216925 432.41607167 0.3402566 435.0754199 2.21583986 C436.94165499 4.93166616 437.1483294 6.33349572 437.15070343 9.60712433 C437.16113442 10.64370682 437.17156541 11.68028931 437.18231249 12.74828339 C437.1733896 13.88562424 437.16446671 15.02296509 437.15527344 16.19477081 C437.16463338 18.00876122 437.16463338 18.00876122 437.17418242 19.85939789 C437.18739433 23.2178193 437.18261649 26.57534829 437.17023754 29.93371582 C437.16120156 33.55478261 437.17514952 37.17577041 437.18615723 40.79682159 C437.20396266 47.89104534 437.20009352 54.98510001 437.18850666 62.07933044 C437.17948054 67.84389893 437.17824477 73.60841995 437.18260193 79.37299347 C437.18321486 80.19280354 437.18382779 81.01261362 437.1844593 81.85726643 C437.18573817 83.52258938 437.18703503 85.18791232 437.18834966 86.85323524 C437.19976139 102.47642533 437.18663249 118.0995216 437.1651482 133.7226963 C437.14727667 147.13400772 437.15038061 160.54518065 437.16882324 173.95648956 C437.19021952 189.52299531 437.1986627 205.0894188 437.18637419 220.65593719 C437.18509996 222.31520334 437.18384248 223.97446949 437.18260193 225.63373566 C437.18167628 226.85838642 437.18167628 226.85838642 437.18073192 228.1077776 C437.17727529 233.86677586 437.1831141 239.62572202 437.19252014 245.38471222 C437.20372773 252.40109803 437.20072636 259.4173048 437.17939717 266.43367004 C437.16886986 270.01496487 437.16479312 273.59596097 437.17799377 277.17725372 C437.19207358 281.05565827 437.17528539 284.93357148 437.15527344 288.81195831 C437.16865777 290.51796959 437.16865777 290.51796959 437.18231249 292.25844574 C437.1718815 293.29502823 437.16145051 294.33161072 437.15070343 295.3996048 C437.15005402 296.29509537 437.14940461 297.19058594 437.14873552 298.11321259 C436.45207833 301.43416925 435.41466693 302.55162536 432.64733887 304.50336456 C430.05431295 304.89574142 427.88540643 305.04167466 425.29467773 305.00672913 C424.54837632 305.01254289 423.80207491 305.01835665 423.0331583 305.02434659 C420.51815998 305.03901064 418.00412786 305.02503213 415.48913574 305.01129913 C413.67361703 305.01590553 411.85810205 305.02225668 410.04259491 305.03020811 C405.04256141 305.04696048 400.04283192 305.0386283 395.04279709 305.02626324 C389.65485283 305.01723917 384.26696206 305.0311693 378.87902832 305.04218292 C368.31968298 305.06000105 357.76045115 305.0561135 347.2011013 305.04453236 C338.62189169 305.03551125 330.04271397 305.0342683 321.46350098 305.03862762 C320.24403888 305.03924056 319.02457679 305.03985349 317.7681613 305.04048499 C315.29111035 305.04176385 312.81405941 305.0430607 310.33700848 305.04437536 C287.09117256 305.05579081 263.84539967 305.04265232 240.59957409 305.02117389 C220.63890161 305.00330206 200.67832217 305.00640589 180.71765137 305.02484894 C157.55692258 305.04623861 134.39624907 305.05469208 111.23551178 305.04239988 C108.76740011 305.04112564 106.29928844 305.03986816 103.83117676 305.03862762 C102.00947818 305.03770197 102.00947818 305.03770197 100.15097761 305.03675762 C91.57870631 305.03329901 83.00646998 305.03914406 74.4342041 305.04854584 C63.99228583 305.05974607 53.55048788 305.05676743 43.10858345 305.03542286 C37.77749125 305.02488582 32.4465999 305.02083571 27.11550903 305.03401947 C22.24007065 305.04589436 17.36502027 305.0394622 12.48961735 305.01810926 C10.7211753 305.01362231 8.95270082 305.01595603 7.18427944 305.02561241 C4.78904683 305.03769329 2.39516105 305.02538767 0 305.00672913 C-0.69426055 305.01609379 -1.3885211 305.02545846 -2.10381985 305.0351069 C-5.32755827 304.98455988 -7.12139394 304.66647253 -9.78074217 302.79088926 C-11.64697726 300.07506296 -11.85365166 298.67323341 -11.8560257 295.3996048 C-11.86645669 294.36302231 -11.87688767 293.32643982 -11.88763475 292.25844574 C-11.87871187 291.12110489 -11.86978898 289.98376404 -11.8605957 288.81195831 C-11.86683567 287.60263138 -11.87307563 286.39330444 -11.87950468 285.14733124 C-11.8927166 281.78890983 -11.88793875 278.43138083 -11.87555981 275.07301331 C-11.86652382 271.45194651 -11.88047179 267.83095872 -11.89147949 264.20990753 C-11.90928492 257.11568378 -11.90541579 250.02162911 -11.89382893 242.92739868 C-11.88480281 237.1628302 -11.88356704 231.39830917 -11.88792419 225.63373566 C-11.88853713 224.81392558 -11.88915006 223.99411551 -11.88978156 223.1494627 C-11.89106044 221.48413975 -11.89235729 219.81881681 -11.89367193 218.15349388 C-11.90508365 202.53030379 -11.89195476 186.90720752 -11.87047046 171.28403282 C-11.85259893 157.87272141 -11.85570287 144.46154848 -11.87414551 131.05023956 C-11.89554179 115.48373381 -11.90398496 99.91731033 -11.89169645 84.35079193 C-11.89042223 82.69152579 -11.88916475 81.03225964 -11.88792419 79.37299347 C-11.88730709 78.55655963 -11.88668999 77.74012579 -11.88605419 76.89895153 C-11.88259755 71.13995327 -11.88843637 65.3810071 -11.89784241 59.62201691 C-11.90904999 52.6056311 -11.90604862 45.58942433 -11.88471943 38.57305908 C-11.87419213 34.99176426 -11.87011539 31.41076816 -11.88331604 27.8294754 C-11.89739585 23.95107085 -11.88060765 20.07315765 -11.8605957 16.19477081 C-11.86951859 15.05742996 -11.87844148 13.92008911 -11.88763475 12.74828339 C-11.87720376 11.7117009 -11.86677278 10.67511841 -11.8560257 9.60712433 C-11.85537629 8.71163376 -11.85472688 7.81614319 -11.85405779 6.89351654 C-10.49367973 0.4086103 -5.77586266 -0.07790881 0 0 Z M4.64733887 16.50336456 C4.64733887 106.26336456 4.64733887 196.02336456 4.64733887 288.50336456 C141.92733887 288.50336456 279.20733887 288.50336456 420.64733887 288.50336456 C420.64733887 198.74336456 420.64733887 108.98336456 420.64733887 16.50336456 C283.36733887 16.50336456 146.08733887 16.50336456 4.64733887 16.50336456 Z " fill="#000000" transform="translate(43.3526611328125,63.49663543701172)"/>
<path d="M0 0 C0.72746776 -0.00623996 1.45493551 -0.01247993 2.20444775 -0.01890898 C4.64289415 -0.03486824 7.08034496 -0.02222401 9.51879883 -0.00964355 C11.26657698 -0.0150634 13.01435057 -0.02218528 14.76211548 -0.03088379 C19.51004335 -0.04913654 24.25762399 -0.04204159 29.00555801 -0.02936745 C33.97116287 -0.01924988 38.93673774 -0.02862966 43.90234375 -0.03491211 C52.24167222 -0.04219214 60.58085905 -0.03259147 68.92016602 -0.0135498 C78.56555755 0.00821961 88.21061089 0.00116849 97.85599422 -0.02085543 C106.1329561 -0.03899929 114.40981609 -0.04157271 122.68679142 -0.03110075 C127.63218289 -0.02486024 132.57741534 -0.0240455 137.52279663 -0.0372467 C142.17189767 -0.04878983 146.82056213 -0.04080771 151.46961594 -0.01766968 C153.17724253 -0.01237434 154.88490578 -0.01391044 156.59251785 -0.02272034 C158.9210636 -0.0336274 161.24820432 -0.01997268 163.57666016 0 C164.88041092 0.0015081 166.18416168 0.0030162 167.52742004 0.00457001 C171.34501592 0.59386639 172.50358621 1.45207424 174.78833008 4.50793457 C175.78833008 7.50793457 175.78833008 7.50793457 175.78833008 17.50793457 C200.20833008 17.50793457 224.62833008 17.50793457 249.78833008 17.50793457 C249.78833008 14.20793457 249.78833008 10.90793457 249.78833008 7.50793457 C251.94050399 1.93184761 251.94050399 1.93184761 254.78833008 0.50793457 C257.11026816 0.4045607 259.43526535 0.36837122 261.75949097 0.36076355 C262.48524987 0.35708686 263.21100878 0.35341017 263.95876038 0.34962207 C266.40309666 0.33856396 268.84739047 0.33473783 271.29174805 0.33093262 C273.03922664 0.32466966 274.7867039 0.31802302 276.53417969 0.3110199 C281.29037185 0.29359668 286.04655396 0.28305494 290.80277014 0.27481437 C293.77209111 0.26966793 296.74140894 0.26359209 299.71072769 0.25730324 C308.99480523 0.23824907 318.27887479 0.22401737 327.56296813 0.21569127 C338.29183726 0.20591139 349.02050048 0.17957325 359.74929702 0.13919038 C368.03468342 0.10907076 376.32001065 0.09422642 384.60545075 0.09091026 C389.55761536 0.08855537 394.50956005 0.07953798 399.46166611 0.05444908 C404.1188948 0.03123534 408.77575772 0.02690798 413.43302917 0.03721046 C415.14389891 0.03770754 416.85478625 0.03133664 418.56560135 0.01765442 C420.8985775 0.00003787 423.23022632 0.00698974 425.5632019 0.02018738 C426.8695503 0.01779902 428.1758987 0.01541067 429.52183342 0.01294994 C433.33258589 0.59040772 434.51925822 1.44822879 436.78833008 4.50793457 C437.29626465 7.0880127 437.29626465 7.0880127 437.3059082 10.03918457 C437.31851685 11.14713379 437.33112549 12.25508301 437.34411621 13.39660645 C437.33197083 15.18421387 437.33197083 15.18421387 437.31958008 17.00793457 C437.32340698 18.2357666 437.32723389 19.46359863 437.33117676 20.7286377 C437.33389849 23.32434916 437.32651919 25.92008793 437.30981445 28.51574707 C437.28841082 32.49293056 437.30960971 36.46830739 437.33520508 40.44543457 C437.33256185 42.9662719 437.32743698 45.4871081 437.31958008 48.00793457 C437.327677 49.19967285 437.33577393 50.39141113 437.34411621 51.6192627 C437.32520325 53.28118652 437.32520325 53.28118652 437.3059082 54.97668457 C437.30272583 55.95057129 437.29954346 56.92445801 437.29626465 57.92785645 C436.61874628 61.36934366 435.55957043 62.37316298 432.78833008 64.50793457 C430.19530416 64.90031143 428.02639765 65.04624467 425.43566895 65.01129913 C424.68936753 65.0171129 423.94306612 65.02292666 423.17414951 65.0289166 C420.6591512 65.04358065 418.14511907 65.02960214 415.63012695 65.01586914 C413.81460824 65.02047554 411.99909326 65.02682669 410.18358612 65.03477812 C405.18355262 65.05153049 400.18382313 65.04319831 395.1837883 65.03083324 C389.79584404 65.02180918 384.40795327 65.03573931 379.02001953 65.04675293 C368.46067419 65.06457106 357.90144236 65.06068351 347.34209251 65.04910237 C338.7628829 65.04008126 330.18370518 65.03883831 321.60449219 65.04319763 C320.38503009 65.04381056 319.165568 65.0444235 317.90915251 65.045055 C315.43210156 65.04633386 312.95505062 65.04763071 310.47799969 65.04894537 C287.23216377 65.06036082 263.98639088 65.04722233 240.7405653 65.0257439 C220.77989282 65.00787206 200.81931338 65.0109759 180.85864258 65.02941895 C157.69791379 65.05080862 134.53724028 65.05926209 111.37650299 65.04696989 C108.90839133 65.04569565 106.44027965 65.04443817 103.97216797 65.04319763 C102.75770225 65.04258053 101.54323653 65.04196343 100.29196882 65.04132763 C91.71969753 65.03786901 83.1474612 65.04371407 74.57519531 65.05311584 C64.13327704 65.06431608 53.69147909 65.06133744 43.24957466 65.03999287 C37.91848246 65.02945583 32.58759111 65.02540571 27.25650024 65.03858948 C22.38106186 65.05046437 17.50601149 65.04403221 12.63060856 65.02267927 C10.86216651 65.01819232 9.09369203 65.02052604 7.32527065 65.03018242 C4.93003804 65.0422633 2.53615226 65.02995768 0.14099121 65.01129913 C-0.55326934 65.0206638 -1.24752989 65.03002846 -1.96282864 65.0396769 C-5.29543322 64.98742291 -6.96655258 64.69675599 -9.63946533 62.63772917 C-11.64466325 59.92137805 -11.71827389 58.33505336 -11.72924805 54.97668457 C-11.74185669 53.86873535 -11.75446533 52.76078613 -11.76745605 51.6192627 C-11.75935913 50.42752441 -11.75126221 49.23578613 -11.74291992 48.00793457 C-11.74674683 46.78010254 -11.75057373 45.55227051 -11.7545166 44.28723145 C-11.75723834 41.69151998 -11.74985903 39.09578121 -11.7331543 36.50012207 C-11.71175067 32.52293858 -11.73294955 28.54756175 -11.75854492 24.57043457 C-11.7559017 22.04959724 -11.75077683 19.52876104 -11.74291992 17.00793457 C-11.75101685 15.81619629 -11.75911377 14.62445801 -11.76745605 13.39660645 C-11.75484741 12.28865723 -11.74223877 11.18070801 -11.72924805 10.03918457 C-11.72606567 9.06529785 -11.7228833 8.09141113 -11.71960449 7.0880127 C-10.43366688 0.55603063 -5.92297563 0.00685135 0 0 Z M4.78833008 16.50793457 C4.78833008 27.06793457 4.78833008 37.62793457 4.78833008 48.50793457 C142.06833008 48.50793457 279.34833008 48.50793457 420.78833008 48.50793457 C420.78833008 37.94793457 420.78833008 27.38793457 420.78833008 16.50793457 C369.96833008 16.50793457 319.14833008 16.50793457 266.78833008 16.50793457 C266.45833008 20.79793457 266.12833008 25.08793457 265.78833008 29.50793457 C263.78833008 32.50793457 263.78833008 32.50793457 260.78833008 33.50793457 C257.75093546 33.610021 254.73639033 33.65476152 251.69873047 33.65319824 C250.76837479 33.65655685 249.8380191 33.65991547 248.87947083 33.66337585 C245.79829582 33.67288937 242.71717512 33.67482911 239.63598633 33.67590332 C237.49751259 33.67911541 235.35903907 33.68247945 233.2205658 33.68598938 C228.73574311 33.69198151 224.25093969 33.69382917 219.76611328 33.6932373 C214.01467674 33.69313563 208.26336351 33.70679301 202.51195621 33.72400951 C198.09479706 33.73511822 193.67766783 33.73715687 189.26049614 33.73662758 C187.1397808 33.7378092 185.01906473 33.74224114 182.89836311 33.74995995 C179.93459512 33.7597378 176.97109638 33.75689056 174.00732422 33.75085449 C172.68945923 33.75928375 172.68945923 33.75928375 171.3449707 33.7678833 C170.53604874 33.76368881 169.72712677 33.75949432 168.89369202 33.75517273 C168.19333863 33.7557175 167.49298525 33.75626226 166.77140903 33.75682354 C164.40560259 33.45989985 162.81427823 32.75266984 160.78833008 31.50793457 C158.5324735 26.99622142 159.17520629 21.53732531 158.78833008 16.50793457 C107.96833008 16.50793457 57.14833008 16.50793457 4.78833008 16.50793457 Z " fill="#000000" transform="translate(43.211669921875,383.4920654296875)"/>
<path d="M0 0 C0.94093506 0.29801514 0.94093506 0.29801514 1.90087891 0.60205078 C16.46813424 5.29153375 28.51717411 12.87136844 40 23 C40.62261719 23.53882813 41.24523437 24.07765625 41.88671875 24.6328125 C59.3305324 40.81611747 68.27618555 64.71524479 70 88 C70.05260921 92.19704589 69.94487537 95.68458536 67.4150238 99.20653534 C64.16549507 101.61972686 61.37803622 101.55691065 57.48461914 101.50793457 C56.72448297 101.51417453 55.96434679 101.5204145 55.18117619 101.52684355 C52.63218804 101.54280797 50.08415161 101.53015635 47.53515625 101.51757812 C45.70856162 101.52299773 43.88197136 101.53011948 42.0553894 101.53881836 C37.0925973 101.55707389 32.13013733 101.54997497 27.16733932 101.53730202 C21.97751714 101.52718591 16.78772368 101.53656383 11.59790039 101.54284668 C2.88194667 101.55012713 -5.83387154 101.54052492 -14.54980469 101.52148438 C-24.63144382 101.4997149 -34.71275939 101.50676599 -44.79439068 101.52879 C-53.44502122 101.54693264 -62.09555428 101.54950787 -70.7461977 101.53903532 C-75.91515215 101.53279415 -81.08395445 101.5319819 -86.25289917 101.54518127 C-91.11211188 101.55672261 -95.97090681 101.54874546 -100.83007431 101.52560425 C-102.61510397 101.52030797 -104.40016869 101.5218466 -106.18518448 101.53065491 C-108.61880656 101.54155807 -111.05108321 101.52791148 -113.48461914 101.50793457 C-114.19395568 101.51685746 -114.90329222 101.52578034 -115.6341238 101.53497362 C-119.0207654 101.48090944 -120.71657747 101.22449826 -123.4072113 99.09325409 C-127.79254351 93.33001971 -125.80771702 84.87643168 -125 78 C-121.04840428 52.86459218 -107.08735199 30.51873253 -86.76025391 15.37548828 C-85.18491384 14.23440345 -83.59281075 13.11656834 -82 12 C-81.18015625 11.42507812 -80.3603125 10.85015625 -79.515625 10.2578125 C-72.23821782 5.54459241 -64.20139577 2.66874076 -56 0 C-54.9584375 -0.34417969 -53.916875 -0.68835938 -52.84375 -1.04296875 C-36.69150526 -5.38694366 -15.9081503 -5.23684451 0 0 Z M-86.625 38.25 C-98.52963566 50.20790025 -108 67.85588155 -108 85 C-55.2 85 -2.4 85 52 85 C50.0163618 65.16361798 42.13718694 49.79088697 28 36 C26.90558594 34.89205078 26.90558594 34.89205078 25.7890625 33.76171875 C-6.57879618 2.77761611 -56.05006015 8.96637233 -86.625 38.25 Z " fill="#000000" transform="translate(220,235)"/>
<path d="M0 0 C1.07672974 -0.0112793 2.15345947 -0.02255859 3.26281738 -0.03417969 C5.02716125 -0.0220343 5.02716125 -0.0220343 6.82714844 -0.00964355 C8.69107239 -0.02015747 8.69107239 -0.02015747 10.59265137 -0.03088379 C13.9978753 -0.04547416 17.40212726 -0.04205291 20.80729675 -0.02936745 C24.37154442 -0.01923659 27.9357507 -0.02863335 31.5 -0.03491211 C37.48542738 -0.04218831 43.47065729 -0.0326017 49.45605469 -0.0135498 C56.37491301 0.00821911 63.29329986 0.0011677 70.21214676 -0.02085543 C76.15368306 -0.03901038 82.09507746 -0.04156736 88.03663254 -0.03110075 C91.58476235 -0.02486625 95.13267058 -0.02402872 98.68078613 -0.0372467 C102.63600985 -0.05095221 106.59070592 -0.03195378 110.54589844 -0.00964355 C111.72212769 -0.01774048 112.89835693 -0.0258374 114.11022949 -0.03417969 C115.7253241 -0.01726074 115.7253241 -0.01726074 117.37304688 0 C118.30808044 0.0015081 119.24311401 0.0030162 120.20648193 0.00457001 C123.45880478 0.66468157 124.65710253 1.93126043 126.68652344 4.50793457 C127.19445801 7.5435791 127.19445801 7.5435791 127.20410156 11.14074707 C127.21111084 11.7981488 127.21812012 12.45555054 127.2253418 13.13287354 C127.24290775 15.29999374 127.23130579 17.46580173 127.21777344 19.63293457 C127.2204688 21.14221446 127.22435159 22.65149265 127.22937012 24.1607666 C127.2352632 27.32157956 127.22670894 30.48193991 127.20800781 33.6427002 C127.18521763 37.69162014 127.19834184 41.73947955 127.22229767 45.7883606 C127.23676122 48.9042559 127.23214727 52.01990031 127.2217865 55.13580322 C127.21912071 56.62852097 127.22238382 58.12126161 127.23170471 59.61395264 C127.24188039 61.70162161 127.22635912 63.78758031 127.20410156 65.87512207 C127.20091919 67.0621875 127.19773682 68.24925293 127.19445801 69.47229004 C126.68652344 72.50793457 126.68652344 72.50793457 125.19650269 74.90621948 C121.55649529 77.22904935 118.1750482 76.93660661 114.00927734 76.76818848 C112.69614059 76.74032509 112.69614059 76.74032509 111.35647583 76.7118988 C109.45529766 76.67101761 107.55428074 76.62201671 105.65349197 76.56587601 C101.59564115 76.45544833 97.53804606 76.4155791 93.47902489 76.37119102 C85.92724755 76.28732918 78.37841769 76.17381832 70.82958984 75.94250488 C65.57203829 75.78412139 60.31963323 75.71558882 55.05979538 75.70371628 C53.06674574 75.68279502 51.0737382 75.62953544 49.08250809 75.54185867 C38.17960961 74.9182646 38.17960961 74.9182646 28.5210495 79.21749115 C24.44731668 83.43106877 21.2634553 88.14025506 18.20057297 93.11770248 C15.67536472 97.10425224 12.78871741 100.81498251 9.93652344 104.57043457 C9.43690283 105.2511672 8.93728222 105.93189983 8.42252159 106.63326073 C4.91224757 111.3950725 4.91224757 111.3950725 2.68652344 112.50793457 C-4.45427202 113.08380517 -4.45427202 113.08380517 -7.41052246 111.10241699 C-10.32550008 107.12814448 -9.87197482 103.3806877 -9.83105469 98.57043457 C-9.83806396 97.5619043 -9.84507324 96.55337402 -9.85229492 95.51428223 C-9.86990875 92.17855343 -9.85823966 88.84367209 -9.84472656 85.50793457 C-9.84742049 83.19152666 -9.85130208 80.87511985 -9.85632324 78.55871582 C-9.8622229 73.70313759 -9.85363994 68.84785361 -9.83496094 63.99230957 C-9.81217152 57.76428811 -9.82529204 51.53695612 -9.84925079 45.30895996 C-9.86369589 40.52545972 -9.85910861 35.7421233 -9.84873962 30.95861816 C-9.84606879 28.66206786 -9.84935456 26.36550274 -9.85865784 24.06896973 C-9.86880183 20.86072317 -9.85335139 17.65359751 -9.83105469 14.44543457 C-9.83915161 13.49362305 -9.84724854 12.54181152 -9.85559082 11.56115723 C-9.84431152 10.68636719 -9.83303223 9.81157715 -9.82141113 8.91027832 C-9.81990303 8.152229 -9.81839493 7.39417969 -9.81684113 6.61315918 C-8.56114472 1.36145264 -4.97847675 0.00802971 0 0 Z M6.68652344 16.50793457 C6.68652344 37.29793457 6.68652344 58.08793457 6.68652344 79.50793457 C9.97281367 76.22164434 12.57786741 73.10399813 15.31152344 69.38293457 C19.49207899 63.70237901 19.49207899 63.70237901 21.68652344 61.50793457 C24.5162871 61.29020905 27.25106447 61.19650315 30.08349609 61.18908691 C30.95185593 61.17904129 31.82021576 61.16899567 32.71488953 61.15864563 C35.59344808 61.12768315 38.47191309 61.11074235 41.35058594 61.09387207 C43.34313774 61.07517092 45.33568154 61.05559831 47.32821655 61.03518677 C52.57905366 60.98374829 57.82991648 60.9441854 63.08087158 60.90704346 C69.37766184 60.86005337 75.67432336 60.79840557 81.9710083 60.73919678 C91.54279506 60.65084182 101.11455536 60.58117959 110.68652344 60.50793457 C110.68652344 45.98793457 110.68652344 31.46793457 110.68652344 16.50793457 C76.36652344 16.50793457 42.04652344 16.50793457 6.68652344 16.50793457 Z " fill="#000000" transform="translate(289.3134765625,95.4920654296875)"/>
<path d="M0 0 C2.38558247 1.65111913 3.79847053 2.97715473 4.37229919 5.88957214 C4.52246749 8.335327 4.5402009 10.7527744 4.51757812 13.203125 C4.5245874 14.13362671 4.53159668 15.06412842 4.53881836 16.02282715 C4.55642461 19.09885493 4.54476606 22.17396285 4.53125 25.25 C4.53394415 27.38704607 4.53782593 29.52409094 4.54284668 31.66113281 C4.5487453 36.14009267 4.54016683 40.61873347 4.52148438 45.09765625 C4.49869487 50.84142452 4.51181597 56.5844452 4.53577423 62.32818604 C4.55022221 66.74110557 4.54563076 71.1538476 4.53526306 75.56677246 C4.53259302 77.68469328 4.53587524 79.80263017 4.54518127 81.92053223 C4.55533018 84.87974795 4.5398686 87.83774979 4.51757812 90.796875 C4.52567505 91.67388062 4.53377197 92.55088623 4.54211426 93.45446777 C4.53083496 94.26194458 4.51955566 95.06942139 4.50793457 95.90136719 C4.50642647 96.60042175 4.50491837 97.29947632 4.50336456 98.01971436 C3.75473304 100.96490431 2.37991496 102.16300159 0 104 C-2.4800415 104.50336456 -2.4800415 104.50336456 -5.31347656 104.50793457 C-6.3902063 104.51921387 -7.46693604 104.53049316 -8.57629395 104.54211426 C-10.34063782 104.52996887 -10.34063782 104.52996887 -12.140625 104.51757812 C-14.00454895 104.52809204 -14.00454895 104.52809204 -15.90612793 104.53881836 C-19.31135186 104.55340873 -22.71560382 104.54998748 -26.12077332 104.53730202 C-29.68502098 104.52717116 -33.24922726 104.53656792 -36.81347656 104.54284668 C-42.79890394 104.55012288 -48.78413386 104.54053627 -54.76953125 104.52148438 C-61.68838958 104.49971546 -68.60677642 104.50676687 -75.52562332 104.52879 C-81.46715962 104.54694495 -87.40855402 104.54950193 -93.3501091 104.53903532 C-96.89823891 104.53280082 -100.44614714 104.53196329 -103.9942627 104.54518127 C-107.94948641 104.55888678 -111.90418248 104.53988835 -115.859375 104.51757812 C-117.03560425 104.52567505 -118.2118335 104.53377197 -119.42370605 104.54211426 C-121.03880066 104.52519531 -121.03880066 104.52519531 -122.68652344 104.50793457 C-123.62155701 104.50642647 -124.55659058 104.50491837 -125.5199585 104.50336456 C-128.77228135 103.843253 -129.97057909 102.57667414 -132 100 C-132.50793457 96.96435547 -132.50793457 96.96435547 -132.51757812 93.3671875 C-132.52809204 92.3810849 -132.52809204 92.3810849 -132.53881836 91.37506104 C-132.55638431 89.20794083 -132.54478235 87.04213284 -132.53125 84.875 C-132.53394536 83.36572011 -132.53782815 81.85644192 -132.54284668 80.34716797 C-132.54873976 77.18635501 -132.5401855 74.02599466 -132.52148438 70.86523438 C-132.49869419 66.81631443 -132.5118184 62.76845502 -132.53577423 58.71957397 C-132.55023778 55.60367867 -132.54562383 52.48803426 -132.53526306 49.37213135 C-132.53259728 47.8794136 -132.53586038 46.38667296 -132.54518127 44.89398193 C-132.55535695 42.80631296 -132.53983569 40.72035426 -132.51757812 38.6328125 C-132.51439575 37.44574707 -132.51121338 36.25868164 -132.50793457 35.03564453 C-132 32 -132 32 -130.53491211 29.60568237 C-126.72062647 27.18960996 -123.34598226 27.53801926 -118.92382812 27.67626953 C-118.00617676 27.68841995 -117.08852539 27.70057037 -116.14306641 27.71308899 C-114.15026795 27.74058425 -112.15757193 27.77649307 -110.16505432 27.81979752 C-107.00230441 27.88339454 -103.84092384 27.91368026 -100.6776123 27.93331909 C-91.68436089 27.9907608 -82.69268998 28.07289661 -73.70117188 28.26367188 C-68.19757207 28.37802645 -62.69698287 28.42314869 -57.19224548 28.42470932 C-55.1029377 28.4383273 -53.01362445 28.47736967 -50.92530823 28.54315567 C-38.6986404 29.24168541 -38.6986404 29.24168541 -28.16625977 24.02508545 C-25.51680902 21.17376107 -23.31895034 18.11407957 -21.2247467 14.83982468 C-19.17724514 11.76405081 -16.76323333 9.00071898 -14.375 6.1875 C-13.57835937 5.21167969 -12.78171875 4.23585937 -11.9609375 3.23046875 C-8.69275752 -0.48692322 -4.77332594 -0.98168401 0 0 Z M-13 31 C-15.34716054 33.78811438 -17.60197966 36.64422163 -19.87109375 39.49609375 C-22 42 -22 42 -24 43 C-26.89789023 43.12281725 -29.77328428 43.18576303 -32.67236328 43.20532227 C-33.56998383 43.21522186 -34.46760437 43.22512146 -35.39242554 43.23532104 C-38.36836075 43.266985 -41.34431194 43.29171281 -44.3203125 43.31640625 C-46.38012107 43.33697155 -48.43992539 43.35796791 -50.49972534 43.37937927 C-55.92812658 43.43464372 -61.35656617 43.4840337 -66.78503418 43.53222656 C-73.29454252 43.59122872 -79.80398057 43.65748071 -86.31343079 43.72252655 C-96.20891102 43.82059107 -106.10443579 43.90940952 -116 44 C-116 58.52 -116 73.04 -116 88 C-81.68 88 -47.36 88 -12 88 C-12 69.19 -12 50.38 -12 31 C-12.33 31 -12.66 31 -13 31 Z " fill="#000000" transform="translate(444,164)"/>
<path d="M0 0 C1.56548584 0.00749268 1.56548584 0.00749268 3.16259766 0.01513672 C21.50829628 0.42495436 35.31268913 7.74173967 48.3125 20.5 C48.951875 21.11488281 49.59125 21.72976562 50.25 22.36328125 C61.70308798 34.30210288 66.32240581 51.2166375 66.3828125 67.40185547 C65.88038975 82.39428981 60.38934531 95.70222682 51.3125 107.5 C50.590625 108.510625 49.86875 109.52125 49.125 110.5625 C37.10677904 124.38149674 20.19855363 129.93533451 2.63671875 131.78125 C-15.55490197 132.51502966 -32.56371485 125.18277066 -46 113.26171875 C-58.49016661 100.42662021 -65.68612618 83.36864533 -65.78515625 65.4140625 C-65.28436414 45.53333447 -57.68718618 30.18596772 -43.6875 16.5 C-31.44287418 5.25834695 -16.48867407 -0.10471557 0 0 Z M-35.9375 32.5625 C-45.33043544 44.00410037 -49.02389234 56.06266044 -48.59375 70.6875 C-46.97640535 84.50844515 -39.01962794 96.51371487 -28.53515625 105.3046875 C-18.8636398 112.3353378 -6.530039 115.40589659 5.3125 114.5 C19.64347982 112.10206267 31.30423047 105.72828038 40.19921875 94.015625 C47.83419266 81.93813479 51.01529901 68.7702877 48.22265625 54.640625 C44.02928228 40.17078521 35.57505896 29.36369652 22.5 21.97265625 C15.30185221 18.6470414 8.94810869 16.95873666 1 17.0625 C0.17113281 17.07079834 -0.65773437 17.07909668 -1.51171875 17.08764648 C-14.88342113 17.45344169 -26.61361151 22.91586153 -35.9375 32.5625 Z " fill="#000000" transform="translate(191.6875,95.5)"/>
</svg>
