<?xml version="1.0" encoding="UTF-8"?>
<!DOCTYPE svg PUBLIC "-//W3C//DTD SVG 1.1//EN" "http://www.w3.org/Graphics/SVG/1.1/DTD/svg11.dtd">
<svg xmlns="http://www.w3.org/2000/svg" version="1.1" width="512px" height="512px" style="shape-rendering:geometricPrecision; text-rendering:geometricPrecision; image-rendering:optimizeQuality; fill-rule:evenodd; clip-rule:evenodd" xmlns:xlink="http://www.w3.org/1999/xlink">
<g><path style="opacity:0.956" fill="#000000" d="M 72.5,72.5 C 194.5,72.3333 316.5,72.5 438.5,73C 455.784,78.2796 465.95,89.7796 469,107.5C 469.667,182.167 469.667,256.833 469,331.5C 465.617,350.55 454.45,362.05 435.5,366C 396.833,366.333 358.167,366.667 319.5,367C 325.627,385.505 331.294,404.171 336.5,423C 335.891,430.272 332.224,435.272 325.5,438C 278.5,438.667 231.5,438.667 184.5,438C 178.654,434.973 175.32,430.14 174.5,423.5C 178.52,404.752 182.854,386.085 187.5,367.5C 150.171,366.667 112.838,366.167 75.5,366C 56.5501,362.05 45.3834,350.55 42,331.5C 41.3333,256.5 41.3333,181.5 42,106.5C 45.6959,89.3068 55.8625,77.9735 72.5,72.5 Z M 76.5,94.5 C 195.834,94.3333 315.167,94.5 434.5,95C 441.545,97.3771 445.712,102.21 447,109.5C 447.667,182.833 447.667,256.167 447,329.5C 444.901,336.598 440.401,341.432 433.5,344C 314.833,344.667 196.167,344.667 77.5,344C 70.5993,341.432 66.0993,336.598 64,329.5C 63.3333,256.167 63.3333,182.833 64,109.5C 65.482,102.191 69.6486,97.1908 76.5,94.5 Z M 213.5,166.5 C 224.752,169.285 231.752,176.285 234.5,187.5C 227.5,187.5 220.5,187.5 213.5,187.5C 213.5,180.5 213.5,173.5 213.5,166.5 Z M 156.5,184.5 C 157.5,184.5 158.5,184.5 159.5,184.5C 159.5,203.833 159.5,223.167 159.5,242.5C 178.833,242.5 198.167,242.5 217.5,242.5C 208.614,270.285 189.614,282.452 160.5,279C 137.008,271.881 124.008,256.048 121.5,231.5C 123.728,208.629 135.395,192.963 156.5,184.5 Z M 210.5,366.5 C 239.169,366.333 267.835,366.5 296.5,367C 301.391,383.175 306.391,399.342 311.5,415.5C 273.833,416.833 236.167,416.833 198.5,415.5C 202.505,399.137 206.505,382.804 210.5,366.5 Z"/></g>
<g><path style="opacity:0.952" fill="#000000" d="M 201.5,143.5 C 231.907,143.44 250.74,158.106 258,187.5C 259.037,193.394 258.371,199.061 256,204.5C 254.457,206.378 252.624,207.878 250.5,209C 230.836,209.5 211.169,209.667 191.5,209.5C 191.333,191.83 191.5,174.164 192,156.5C 192.728,150.286 195.895,145.953 201.5,143.5 Z M 213.5,166.5 C 213.5,173.5 213.5,180.5 213.5,187.5C 220.5,187.5 227.5,187.5 234.5,187.5C 231.752,176.285 224.752,169.285 213.5,166.5 Z"/></g>
<g><path style="opacity:0.948" fill="#000000" d="M 300.5,153.5 C 303.85,153.335 307.183,153.502 310.5,154C 313.381,155.251 315.214,157.417 316,160.5C 316.667,201.5 316.667,242.5 316,283.5C 312.903,290.132 307.736,292.299 300.5,290C 297.619,288.749 295.786,286.583 295,283.5C 294.333,242.5 294.333,201.5 295,160.5C 295.967,157.379 297.8,155.046 300.5,153.5 Z"/></g>
<g><path style="opacity:0.951" fill="#000000" d="M 164.5,160.5 C 172.976,159.815 178.476,163.482 181,171.5C 181.5,187.83 181.667,204.163 181.5,220.5C 198.17,220.333 214.837,220.5 231.5,221C 237.708,223.374 241.042,227.874 241.5,234.5C 236.041,276.458 212.208,299.125 170,302.5C 135.526,299.935 112.86,282.268 102,249.5C 95.2848,216.293 105.785,190.126 133.5,171C 143.318,165.561 153.651,162.061 164.5,160.5 Z M 156.5,184.5 C 135.395,192.963 123.728,208.629 121.5,231.5C 124.008,256.048 137.008,271.881 160.5,279C 189.614,282.452 208.614,270.285 217.5,242.5C 198.167,242.5 178.833,242.5 159.5,242.5C 159.5,223.167 159.5,203.833 159.5,184.5C 158.5,184.5 157.5,184.5 156.5,184.5 Z"/></g>
<g><path style="opacity:0.947" fill="#000000" d="M 343.5,195.5 C 350.445,193.775 355.278,196.108 358,202.5C 358.667,229.5 358.667,256.5 358,283.5C 354.423,290.553 348.923,292.386 341.5,289C 339.19,287.363 337.69,285.196 337,282.5C 336.333,256.167 336.333,229.833 337,203.5C 338.277,200.062 340.443,197.395 343.5,195.5 Z"/></g>
<g><path style="opacity:0.942" fill="#000000" d="M 385.5,216.5 C 392.445,214.775 397.278,217.108 400,223.5C 400.667,243.5 400.667,263.5 400,283.5C 398.604,288.536 395.271,290.869 390,290.5C 384.366,290.533 380.7,287.866 379,282.5C 378.333,263.167 378.333,243.833 379,224.5C 380.277,221.062 382.443,218.395 385.5,216.5 Z"/></g>
</svg>
