<?xml version="1.0" encoding="UTF-8"?>
<!DOCTYPE svg PUBLIC "-//W3C//DTD SVG 1.1//EN" "http://www.w3.org/Graphics/SVG/1.1/DTD/svg11.dtd">
<svg xmlns="http://www.w3.org/2000/svg" version="1.1" width="512px" height="512px" style="shape-rendering:geometricPrecision; text-rendering:geometricPrecision; image-rendering:optimizeQuality; fill-rule:evenodd; clip-rule:evenodd" xmlns:xlink="http://www.w3.org/1999/xlink">
<g><path style="opacity:0.923" fill="#000000" d="M 511.5,49.5 C 511.5,147.167 511.5,244.833 511.5,342.5C 507.37,356.455 498.037,364.622 483.5,367C 433.834,367.5 384.168,367.667 334.5,367.5C 334.5,382.5 334.5,397.5 334.5,412.5C 369.92,412.013 405.253,412.513 440.5,414C 452.049,434.93 463.216,456.096 474,477.5C 475.123,480.956 474.29,483.79 471.5,486C 327.5,486.667 183.5,486.667 39.5,486C 36.7104,483.79 35.877,480.956 37,477.5C 48.1667,456.333 59.3333,435.167 70.5,414C 105.747,412.513 141.08,412.013 176.5,412.5C 176.5,397.5 176.5,382.5 176.5,367.5C 126.832,367.667 77.1655,367.5 27.5,367C 12.9634,364.622 3.63004,356.455 -0.5,342.5C -0.5,244.833 -0.5,147.167 -0.5,49.5C 3.21221,37.2862 11.2122,29.1196 23.5,25C 178.167,24.3333 332.833,24.3333 487.5,25C 499.761,29.0937 507.761,37.2604 511.5,49.5 Z M 26.5,37.5 C 179.167,37.3333 331.834,37.5 484.5,38C 491.667,39.8333 496.167,44.3333 498,51.5C 498.667,147.833 498.667,244.167 498,340.5C 495.296,347.873 490.13,352.373 482.5,354C 331.167,354.667 179.833,354.667 28.5,354C 20.8703,352.373 15.7036,347.873 13,340.5C 12.3333,244.167 12.3333,147.833 13,51.5C 15.0166,44.3185 19.5166,39.6518 26.5,37.5 Z M 377.5,113.5 C 388.167,113.5 398.833,113.5 409.5,113.5C 409.5,186.167 409.5,258.833 409.5,331.5C 398.833,331.5 388.167,331.5 377.5,331.5C 377.5,258.833 377.5,186.167 377.5,113.5 Z M 285.5,151.5 C 296.167,151.5 306.833,151.5 317.5,151.5C 317.5,211.5 317.5,271.5 317.5,331.5C 306.833,331.5 296.167,331.5 285.5,331.5C 285.5,271.5 285.5,211.5 285.5,151.5 Z M 193.5,195.5 C 204.167,195.5 214.833,195.5 225.5,195.5C 225.5,240.833 225.5,286.167 225.5,331.5C 214.833,331.5 204.167,331.5 193.5,331.5C 193.5,286.167 193.5,240.833 193.5,195.5 Z M 101.5,245.5 C 112.167,245.5 122.833,245.5 133.5,245.5C 133.5,274.167 133.5,302.833 133.5,331.5C 122.833,331.5 112.167,331.5 101.5,331.5C 101.5,302.833 101.5,274.167 101.5,245.5 Z M 189.5,367.5 C 233.5,367.5 277.5,367.5 321.5,367.5C 321.5,382.5 321.5,397.5 321.5,412.5C 277.5,412.5 233.5,412.5 189.5,412.5C 189.5,397.5 189.5,382.5 189.5,367.5 Z M 79.5,425.5 C 196.834,425.333 314.167,425.5 431.5,426C 440.215,441.261 448.548,456.761 456.5,472.5C 322.5,473.833 188.5,473.833 54.5,472.5C 62.5913,456.648 70.9247,440.981 79.5,425.5 Z"/></g>
<g><path style="opacity:0.908" fill="#000000" d="M 288.5,46.5 C 301.549,47.9117 314.549,49.745 327.5,52C 328.931,52.4652 330.097,53.2986 331,54.5C 331.701,57.9283 331.368,61.2617 330,64.5C 326.138,73.0851 322.472,81.7517 319,90.5C 316.928,95.1433 313.428,96.6433 308.5,95C 305.903,92.6833 305.07,89.85 306,86.5C 308.095,82.3433 309.595,78.3433 310.5,74.5C 257.003,105.081 203.67,135.914 150.5,167C 147.576,168.881 144.409,170.048 141,170.5C 136.107,170.059 134.107,167.392 135,162.5C 136.167,160 138,158.167 140.5,157C 195.663,125.586 250.663,93.9194 305.5,62C 299.833,61 294.167,60 288.5,59C 284.547,54.8353 284.547,50.6686 288.5,46.5 Z"/></g>
<g><path style="opacity:0.925" fill="#000000" d="M 367.5,100.5 C 385.17,100.333 402.836,100.5 420.5,101C 421.126,101.75 421.626,102.584 422,103.5C 422.667,182.833 422.667,262.167 422,341.5C 421.5,342.667 420.667,343.5 419.5,344C 402.167,344.667 384.833,344.667 367.5,344C 366.667,343.167 365.833,342.333 365,341.5C 364.333,262.167 364.333,182.833 365,103.5C 366.045,102.627 366.878,101.627 367.5,100.5 Z M 377.5,113.5 C 377.5,186.167 377.5,258.833 377.5,331.5C 388.167,331.5 398.833,331.5 409.5,331.5C 409.5,258.833 409.5,186.167 409.5,113.5C 398.833,113.5 388.167,113.5 377.5,113.5 Z"/></g>
<g><path style="opacity:0.924" fill="#000000" d="M 276.5,138.5 C 293.17,138.333 309.837,138.5 326.5,139C 327.931,139.465 329.097,140.299 330,141.5C 330.667,208.167 330.667,274.833 330,341.5C 329.5,342.667 328.667,343.5 327.5,344C 310.167,344.667 292.833,344.667 275.5,344C 274.667,343.167 273.833,342.333 273,341.5C 272.333,274.833 272.333,208.167 273,141.5C 274.145,140.364 275.312,139.364 276.5,138.5 Z M 285.5,151.5 C 285.5,211.5 285.5,271.5 285.5,331.5C 296.167,331.5 306.833,331.5 317.5,331.5C 317.5,271.5 317.5,211.5 317.5,151.5C 306.833,151.5 296.167,151.5 285.5,151.5 Z"/></g>
<g><path style="opacity:0.924" fill="#000000" d="M 184.5,182.5 C 201.17,182.333 217.837,182.5 234.5,183C 236.333,183.5 237.5,184.667 238,186.5C 238.667,238.167 238.667,289.833 238,341.5C 237.167,342.333 236.333,343.167 235.5,344C 218.167,344.667 200.833,344.667 183.5,344C 182.333,343.5 181.5,342.667 181,341.5C 180.333,289.5 180.333,237.5 181,185.5C 182.145,184.364 183.312,183.364 184.5,182.5 Z M 193.5,195.5 C 193.5,240.833 193.5,286.167 193.5,331.5C 204.167,331.5 214.833,331.5 225.5,331.5C 225.5,286.167 225.5,240.833 225.5,195.5C 214.833,195.5 204.167,195.5 193.5,195.5 Z"/></g>
<g><path style="opacity:0.927" fill="#000000" d="M 91.5,232.5 C 108.837,232.333 126.17,232.5 143.5,233C 144.333,233.833 145.167,234.667 146,235.5C 146.667,270.833 146.667,306.167 146,341.5C 145.167,342.333 144.333,343.167 143.5,344C 126.167,344.667 108.833,344.667 91.5,344C 90.3333,343.5 89.5,342.667 89,341.5C 88.3333,306.167 88.3333,270.833 89,235.5C 89.6979,234.309 90.5313,233.309 91.5,232.5 Z M 101.5,245.5 C 101.5,274.167 101.5,302.833 101.5,331.5C 112.167,331.5 122.833,331.5 133.5,331.5C 133.5,302.833 133.5,274.167 133.5,245.5C 122.833,245.5 112.167,245.5 101.5,245.5 Z"/></g>
</svg>
