<?xml version="1.0" encoding="UTF-8"?>
<svg version="1.1" xmlns="http://www.w3.org/2000/svg" width="512" height="512">
<path d="M0 0 C0.78153946 -0.00902847 1.56307892 -0.01805695 2.36830139 -0.02735901 C4.01820049 -0.04183966 5.66815674 -0.05074282 7.31811523 -0.05444336 C9.83611004 -0.06635164 12.35166186 -0.11556268 14.86914062 -0.16601562 C16.4752485 -0.1754794 18.08137137 -0.18271466 19.6875 -0.1875 C20.43660141 -0.20703232 21.18570282 -0.22656464 21.95750427 -0.24668884 C25.88549792 -0.21294372 27.71344216 0.21875948 30.85253906 2.6496582 C32.74287459 5.1498445 33.60295498 6.44476818 34.0546875 9.47265625 C34.17392578 10.21 34.29316406 10.94734375 34.41601562 11.70703125 C34.56780273 12.84011719 34.56780273 12.84011719 34.72265625 13.99609375 C34.84318359 14.75921875 34.96371094 15.52234375 35.08789062 16.30859375 C35.55532086 19.35356783 35.91015625 22.28735649 35.91015625 25.37109375 C37.32617339 25.8521765 38.74300062 26.33087516 40.16015625 26.80859375 C40.9490625 27.07542969 41.73796875 27.34226563 42.55078125 27.6171875 C43.329375 27.86597656 44.10796875 28.11476562 44.91015625 28.37109375 C45.55355957 28.59853271 46.19696289 28.82597168 46.85986328 29.06030273 C49.27149786 29.67008651 49.27149786 29.67008651 52.07421875 27.09765625 C53.23905658 26.07642857 54.392374 25.04194358 55.53515625 23.99609375 C62.77619319 17.55252784 62.77619319 17.55252784 67.03515625 16.87109375 C71.10785214 17.3966029 71.73355837 17.7349186 74.59375 20.3515625 C75.28984375 20.98690918 75.9859375 21.62225586 76.703125 22.27685547 C80.47556783 25.8565031 84.18002456 29.49677654 87.84765625 33.18359375 C88.99717773 34.32731445 88.99717773 34.32731445 90.16992188 35.49414062 C90.89759766 36.22310547 91.62527344 36.95207031 92.375 37.703125 C93.35907837 38.68889526 93.35907837 38.68889526 94.36303711 39.69458008 C96.54639574 42.06054563 96.89585963 43.26550865 97.3359375 46.515625 C96.75985242 51.73210186 94.35758557 54.11630866 91.09765625 58.05859375 C86.83665975 63.46573083 86.83665975 63.46573083 86.29296875 70.078125 C87.60177012 73.09265931 88.99599302 75.70439669 90.91015625 78.37109375 C92.77220703 78.53544922 92.77220703 78.53544922 94.671875 78.703125 C96.31386522 78.86263262 97.95578903 79.02282495 99.59765625 79.18359375 C100.41427734 79.25384766 101.23089844 79.32410156 102.07226562 79.39648438 C106.6724064 79.86208567 110.21908415 80.34342658 113.91015625 83.37109375 C116.3362921 86.95955272 116.21649949 90.62129921 116.2109375 94.8046875 C116.21522263 95.51963882 116.21950775 96.23459015 116.22392273 96.97120667 C116.22965279 98.47989851 116.23017605 99.98861798 116.22583008 101.49731445 C116.22267146 103.79752036 116.24613883 106.09643746 116.27148438 108.39648438 C116.27375776 109.8658838 116.27446068 111.33528667 116.2734375 112.8046875 C116.28264725 113.48816757 116.29185699 114.17164764 116.30134583 114.87583923 C116.25960226 119.21450393 115.57283458 121.92901874 112.91015625 125.37109375 C109.22158014 127.83014449 105.69394262 128.29524055 101.41015625 128.99609375 C100.63800781 129.13015625 99.86585938 129.26421875 99.0703125 129.40234375 C95.98394719 129.92654444 93.04611798 130.37109375 89.91015625 130.37109375 C89.78640625 131.21671875 89.66265625 132.06234375 89.53515625 132.93359375 C88.91015625 136.37109375 88.91015625 136.37109375 87.5390625 139.6484375 C86.58194634 143.12652153 86.58194634 143.12652153 87.76269531 145.13500977 C89.16591457 146.97602308 90.64654466 148.67578044 92.22265625 150.37109375 C96.30552422 154.85974369 98.98590494 157.95517963 98.91015625 164.37109375 C97.7578125 166.5234375 97.7578125 166.5234375 95.97265625 168.30859375 C95.32425781 168.97761719 94.67585938 169.64664063 94.0078125 170.3359375 C93.31558594 171.00753906 92.62335938 171.67914063 91.91015625 172.37109375 C91.24886719 173.03238281 90.58757812 173.69367188 89.90625 174.375 C88.5748569 175.7063931 87.23758551 177.0319336 85.89453125 178.3515625 C83.30414991 180.98783643 80.92000848 183.7743531 78.55078125 186.609375 C75.64550839 189.72908467 73.95800108 191.19561734 69.64453125 191.91796875 C64.58835203 191.17752409 62.0356729 188.78359472 58.16015625 185.62109375 C52.89213114 181.47019011 52.89213114 181.47019011 46.49609375 180.53125 C43.75887408 181.59652679 41.40188959 182.82927408 38.91015625 184.37109375 C38.25015625 184.37109375 37.59015625 184.37109375 36.91015625 184.37109375 C36.86117188 185.44488281 36.8121875 186.51867187 36.76171875 187.625 C36.68662227 189.06122017 36.61107749 190.49741694 36.53515625 191.93359375 C36.50421875 192.63806641 36.47328125 193.34253906 36.44140625 194.06835938 C36.18069544 198.7828799 35.52374768 202.91825609 33.91015625 207.37109375 C30.34598197 210.06595723 27.53189307 210.50470316 23.1953125 210.4375 C21.98887085 210.4231189 21.98887085 210.4231189 20.75805664 210.40844727 C20.14824951 210.39612061 19.53844238 210.38379395 18.91015625 210.37109375 C18.9190387 211.32385696 18.92792114 212.27662018 18.93707275 213.258255 C19.01846929 222.27575715 19.07826989 231.2931839 19.11740494 240.31097126 C19.13820172 244.94615915 19.16637318 249.58104839 19.21191406 254.21606445 C19.25565612 258.69648831 19.27935271 263.17662649 19.28966522 267.65724754 C19.29700605 269.35913776 19.31133987 271.06101391 19.33307648 272.76278114 C19.49382003 285.8795991 18.58248142 296.55330446 9.0703125 306.4921875 C2.39608867 312.29743463 -4.62256417 313.52032715 -13.21543884 313.53172302 C-14.16100303 313.53681084 -15.10656721 313.54189866 -16.08078486 313.54714066 C-19.26340912 313.56289246 -22.44601063 313.57139752 -25.62866211 313.57983398 C-27.90517319 313.58937045 -30.18168281 313.59926152 -32.45819092 313.60948181 C-39.94867222 313.64089805 -47.43916472 313.66114065 -54.9296875 313.6796875 C-56.20409675 313.68298482 -57.478506 313.68628214 -58.79153371 313.68967938 C-70.81193794 313.72046738 -82.83234268 313.74733615 -94.85277462 313.76409817 C-97.63695726 313.76804747 -100.42113981 313.77205048 -103.20532227 313.77612305 C-103.89729128 313.77713141 -104.58926029 313.77813977 -105.30219806 313.77917869 C-116.49726765 313.79616458 -127.69211537 313.83724979 -138.88707679 313.88814604 C-150.39076593 313.94001368 -161.89430597 313.96857078 -173.39811426 313.97629505 C-179.85295466 313.98124669 -186.30740107 313.99628179 -192.76212883 314.03603935 C-198.84022649 314.07298213 -204.91770639 314.08128978 -210.99589539 314.06803322 C-213.22104937 314.06808704 -215.44623124 314.0783326 -217.67128181 314.09978485 C-241.25551375 314.31492031 -241.25551375 314.31492031 -251.05706692 305.6274786 C-259.80630079 296.67213678 -260.24791494 285.16269262 -260.29296875 273.3671875 C-260.29866882 272.21114517 -260.3043689 271.05510284 -260.3102417 269.86402893 C-260.31966663 267.42571929 -260.32621569 264.98739706 -260.33007812 262.54907227 C-260.33981841 258.81829832 -260.37088018 255.08806749 -260.40234375 251.35742188 C-260.40887099 248.98568035 -260.41412256 246.61393489 -260.41796875 244.2421875 C-260.43031555 243.12750595 -260.44266235 242.0128244 -260.4553833 240.86436462 C-260.4523822 239.82300858 -260.4493811 238.78165253 -260.44628906 237.70874023 C-260.44993469 236.79640121 -260.45358032 235.88406219 -260.45733643 234.94407654 C-260.0065631 231.78800817 -258.95590922 229.93885742 -257.08984375 227.37109375 C-253.95558537 225.28158817 -253.26874073 225.12152834 -249.70703602 225.12499809 C-248.80583021 225.121016 -247.9046244 225.1170339 -246.97610933 225.11293113 C-245.98487414 225.11875682 -244.99363895 225.1245825 -243.97236633 225.13058472 C-242.9203301 225.12887587 -241.86829387 225.12716702 -240.78437775 225.12540638 C-237.24200717 225.12209936 -233.69982398 225.13313521 -230.1574707 225.14404297 C-227.62504074 225.14460682 -225.09261044 225.14429103 -222.56018066 225.14315796 C-217.09919645 225.1427018 -211.63827311 225.14839247 -206.17730141 225.15963364 C-198.28163056 225.17587596 -190.38598284 225.18109534 -182.4902971 225.18360962 C-169.68061141 225.18798872 -156.87095117 225.20130364 -144.0612793 225.22021484 C-131.61661914 225.23856809 -119.17196588 225.25272731 -106.72729492 225.26123047 C-105.96042523 225.26175592 -105.19355554 225.26228136 -104.40344737 225.26282273 C-100.556353 225.26543277 -96.70925859 225.2679602 -92.86216414 225.27044654 C-60.93803868 225.29118573 -29.01394517 225.32656559 2.91015625 225.37109375 C2.91015625 220.42109375 2.91015625 215.47109375 2.91015625 210.37109375 C0.60015625 210.37109375 -1.70984375 210.37109375 -4.08984375 210.37109375 C-6.83984375 209.74609375 -6.83984375 209.74609375 -9.08984375 208.37109375 C-11.64958084 204.22978214 -12.43180614 200.72581079 -12.91162109 195.99926758 C-13.51394332 188.93027483 -13.51394332 188.93027483 -17.328125 183.3046875 C-21.05489284 181.72012102 -23.60086231 180.97309557 -27.57421875 182.03515625 C-31.62937343 184.18867007 -34.7801996 187.31701941 -38.17578125 190.375 C-41.69436481 192.78518257 -43.82795425 193.40416828 -48.08984375 193.37109375 C-52.25572072 190.92758288 -55.61916059 188.08968798 -59.015625 184.67578125 C-59.89412109 183.79535156 -60.77261719 182.91492188 -61.67773438 182.0078125 C-62.57685547 181.09644531 -63.47597656 180.18507813 -64.40234375 179.24609375 C-65.7800293 177.86744141 -65.7800293 177.86744141 -67.18554688 176.4609375 C-74.95968764 168.63508405 -74.95968764 168.63508405 -75.46875 163.69140625 C-75.40654772 158.68129508 -73.15076994 155.9674449 -70.02734375 152.24609375 C-66.23281106 147.88667603 -66.23281106 147.88667603 -65.09375 142.37890625 C-65.42246094 141.38632812 -65.75117188 140.39375 -66.08984375 139.37109375 C-66.40179688 138.12585938 -66.71375 136.880625 -67.03515625 135.59765625 C-68.68656457 132.28698921 -68.68656457 132.28698921 -71.12792969 131.61621094 C-73.74506775 131.17984769 -76.31778967 130.92683144 -78.96484375 130.74609375 C-80.75557861 130.60735676 -82.54492241 130.44903406 -84.33203125 130.26953125 C-85.12464355 130.21458496 -85.91725586 130.15963867 -86.73388672 130.10302734 C-90.31607684 128.99013553 -91.83446687 127.34436964 -94.08984375 124.37109375 C-94.57751828 121.44014151 -94.77066403 119.10450219 -94.71875 116.18359375 C-94.72116196 115.40346924 -94.72357391 114.62334473 -94.72605896 113.81958008 C-94.72508253 112.17556661 -94.71173747 110.53151943 -94.68676758 108.88769531 C-94.6524439 106.37841551 -94.66611912 103.87265797 -94.68554688 101.36328125 C-94.67864801 99.76170384 -94.66897525 98.16013547 -94.65625 96.55859375 C-94.66120987 95.81262939 -94.66616974 95.06666504 -94.67127991 94.2980957 C-94.59025689 90.69505737 -94.18474167 88.52582644 -92.28662109 85.4309082 C-89.25156553 82.58507982 -86.13174849 82.12811658 -82.15234375 81.55859375 C-81.09756836 81.37780273 -81.09756836 81.37780273 -80.02148438 81.19335938 C-76.35209057 80.59153752 -72.80687783 80.232887 -69.08984375 80.37109375 C-68.78240234 79.34048828 -68.78240234 79.34048828 -68.46875 78.2890625 C-68.19933594 77.38800781 -67.92992187 76.48695313 -67.65234375 75.55859375 C-67.38550781 74.66527344 -67.11867188 73.77195312 -66.84375 72.8515625 C-66.28596502 71.0163632 -65.696398 69.19075649 -65.08984375 67.37109375 C-66.80763962 64.8888492 -68.53833695 62.61805251 -70.46484375 60.30859375 C-71.49478659 59.04793352 -72.52349057 57.78625986 -73.55078125 56.5234375 C-74.01274902 55.96648193 -74.4747168 55.40952637 -74.95068359 54.83569336 C-77.60951302 51.41727979 -77.53266055 48.62512029 -77.08984375 44.37109375 C-75.38921823 41.99474799 -73.90274233 40.24444446 -71.83203125 38.25390625 C-71.29136017 37.71128143 -70.75068909 37.16865662 -70.19363403 36.60958862 C-69.05023685 35.4701792 -67.89822122 34.339361 -66.73828125 33.21679688 C-64.97008338 31.50117758 -63.23610895 29.75578189 -61.50390625 28.00390625 C-60.38600773 26.89782293 -59.26627395 25.79359077 -58.14453125 24.69140625 C-57.62865448 24.17168243 -57.11277771 23.65195862 -56.58126831 23.1164856 C-53.22178808 19.90625545 -50.76600841 18.49315094 -46.08984375 18.37109375 C-42.55149862 20.00417612 -39.71272764 21.90539529 -36.59765625 24.234375 C-35.29441406 25.19923828 -35.29441406 25.19923828 -33.96484375 26.18359375 C-33.15789062 26.80878906 -32.3509375 27.43398437 -31.51953125 28.078125 C-29.15671941 29.61921272 -29.15671941 29.61921272 -26.44921875 29.13671875 C-24.76594332 28.5904903 -23.10524675 27.97256639 -21.46484375 27.30859375 C-19.08984375 26.37109375 -19.08984375 26.37109375 -16.08984375 26.37109375 C-15.96867188 25.05753906 -15.8475 23.74398437 -15.72265625 22.390625 C-15.55377586 20.65490988 -15.38448336 18.91923483 -15.21484375 17.18359375 C-15.13621094 16.31927734 -15.05757812 15.45496094 -14.9765625 14.56445312 C-14.10406749 5.80594549 -14.10406749 5.80594549 -12.08984375 2.37109375 C-8.40350165 -0.22076689 -4.3339014 0.03094212 0 0 Z M0.91015625 17.37109375 C0.53313554 20.14278503 0.20262786 22.90282848 -0.08984375 25.68359375 C-0.25403674 27.22162026 -0.42062819 28.75939298 -0.58984375 30.296875 C-0.66203125 30.98177002 -0.73421875 31.66666504 -0.80859375 32.37231445 C-1.10017534 34.44451802 -1.44369087 36.37878904 -2.08984375 38.37109375 C-3.91796875 39.20703125 -3.91796875 39.20703125 -6.33984375 39.74609375 C-11.9306899 41.18190646 -16.78766739 43.54021644 -21.9140625 46.1640625 C-25.70743223 47.60582295 -28.05851803 47.92242385 -32.08984375 47.37109375 C-34.8049426 45.99062535 -37.13419572 44.24509327 -39.52734375 42.37109375 C-40.16349609 41.89414063 -40.79964844 41.4171875 -41.45507812 40.92578125 C-43.01126321 39.75571727 -44.55218105 38.56539487 -46.08984375 37.37109375 C-47.1580082 38.23916976 -48.2190246 39.11604158 -49.27734375 39.99609375 C-49.86902344 40.48335937 -50.46070313 40.970625 -51.0703125 41.47265625 C-53.6752742 43.92142102 -55.8379828 46.5941875 -58.08984375 49.37109375 C-57.37957031 50.22832031 -56.66929687 51.08554688 -55.9375 51.96875 C-55.00838203 53.12310869 -54.08003731 54.27809004 -53.15234375 55.43359375 C-52.44948242 56.27567383 -52.44948242 56.27567383 -51.73242188 57.13476562 C-48.57155404 61.11427549 -47.06078201 64.11673102 -47.08984375 69.37109375 C-48.05885615 72.05867814 -49.02160036 74.31518462 -50.33984375 76.80859375 C-50.99849532 78.12249677 -51.65477288 79.43759272 -52.30859375 80.75390625 C-52.62183594 81.3768457 -52.93507813 81.99978516 -53.2578125 82.64160156 C-54.28291339 84.77241573 -55.08513397 86.9440745 -55.83984375 89.18359375 C-57.08984375 92.37109375 -57.08984375 92.37109375 -60.08984375 94.37109375 C-62.08276367 94.87353516 -62.08276367 94.87353516 -64.3203125 95.22265625 C-65.12275391 95.3515625 -65.92519531 95.48046875 -66.75195312 95.61328125 C-67.58533203 95.73960937 -68.41871094 95.8659375 -69.27734375 95.99609375 C-70.54481445 96.1971875 -70.54481445 96.1971875 -71.83789062 96.40234375 C-73.9208432 96.73185037 -76.00521802 97.05234364 -78.08984375 97.37109375 C-78.08984375 102.98109375 -78.08984375 108.59109375 -78.08984375 114.37109375 C-76.75308594 114.56445312 -75.41632813 114.7578125 -74.0390625 114.95703125 C-72.28509706 115.21965709 -70.53119398 115.48269964 -68.77734375 115.74609375 C-67.89626953 115.87242187 -67.01519531 115.99875 -66.10742188 116.12890625 C-65.25986328 116.2578125 -64.41230469 116.38671875 -63.5390625 116.51953125 C-62.75877686 116.63474121 -61.97849121 116.74995117 -61.17456055 116.86865234 C-59.08984375 117.37109375 -59.08984375 117.37109375 -56.08984375 119.37109375 C-54.98072386 121.97348182 -54.0026109 124.51422523 -53.08984375 127.18359375 C-51.44339879 131.92141063 -49.74272184 136.0850855 -47.08984375 140.37109375 C-46.02420753 145.69927483 -47.60225172 148.59172067 -50.40234375 152.99609375 C-51.62825714 154.78998798 -52.85734049 156.58172071 -54.08984375 158.37109375 C-55.07984375 160.02109375 -56.06984375 161.67109375 -57.08984375 163.37109375 C-53.45984375 167.00109375 -49.82984375 170.63109375 -46.08984375 174.37109375 C-41.53497425 171.33451408 -37.60753581 168.33503744 -33.53125 164.76171875 C-30.16101461 162.84203267 -27.92177851 162.96882354 -24.08984375 163.37109375 C-20.9140625 164.578125 -20.9140625 164.578125 -17.77734375 166.18359375 C-12.34742194 168.94283884 -6.93535969 170.74177588 -1.08984375 172.37109375 C-0.91594116 173.31746704 -0.91594116 173.31746704 -0.73852539 174.28295898 C-0.21383894 177.12560056 0.31682649 179.96709325 0.84765625 182.80859375 C1.12125977 184.29842773 1.12125977 184.29842773 1.40039062 185.81835938 C1.57763672 186.76259766 1.75488281 187.70683594 1.9375 188.6796875 C2.09984131 189.55423584 2.26218262 190.42878418 2.42944336 191.32983398 C2.71704015 193.35337439 2.71704015 193.35337439 3.91015625 194.37109375 C6.60670479 194.44428996 9.27707083 194.46351912 11.97265625 194.43359375 C13.11057617 194.42682617 13.11057617 194.42682617 14.27148438 194.41992188 C16.15107496 194.40810055 18.03062524 194.39016453 19.91015625 194.37109375 C20.02290894 193.48587036 20.02290894 193.48587036 20.13793945 192.58276367 C20.48637729 189.90613949 20.854278 187.23254334 21.22265625 184.55859375 C21.34060547 183.62982422 21.45855469 182.70105469 21.58007812 181.74414062 C21.70576172 180.85146484 21.83144531 179.95878906 21.9609375 179.0390625 C22.12589722 177.80579224 22.12589722 177.80579224 22.29418945 176.54760742 C23.01452437 174.00230983 23.85572325 173.00328415 25.91015625 171.37109375 C28.44140625 170.37890625 28.44140625 170.37890625 31.41015625 169.49609375 C35.75543492 168.15100144 39.6710233 166.55833569 43.72265625 164.49609375 C47.1214025 162.93974918 48.61351848 162.35520244 52.41015625 162.55859375 C57.65304609 165.2736617 62.25753352 168.753322 66.91015625 172.37109375 C70.25836523 170.90483519 72.60281984 169.03450928 75.22265625 166.49609375 C75.94066406 165.81804687 76.65867187 165.14 77.3984375 164.44140625 C79.0924521 162.54383634 79.0924521 162.54383634 78.92578125 160.48046875 C76.93289412 156.34139548 73.74030651 152.97511482 70.84375 149.44140625 C68.62777089 145.92270002 68.29733588 144.44423601 68.91015625 140.37109375 C70.1171875 137.2578125 70.1171875 137.2578125 71.72265625 134.05859375 C73.98101257 129.46310123 75.73182021 125.18657215 76.78125 120.17578125 C78.93691957 116.72969356 83.12763203 115.83405276 86.88793945 114.85742188 C88.8688993 114.42321222 90.85167128 114.04204836 92.84765625 113.68359375 C93.87342773 113.48926758 93.87342773 113.48926758 94.91992188 113.29101562 C96.58199423 112.97719777 98.24589752 112.67310209 99.91015625 112.37109375 C99.93700304 109.72519361 99.95691982 107.07956279 99.97265625 104.43359375 C99.98103516 103.67884766 99.98941406 102.92410156 99.99804688 102.14648438 C100.00668066 100.22115062 99.96239958 98.29573794 99.91015625 96.37109375 C97.58411694 94.04505444 91.55422885 94.52534175 88.25585938 94.20898438 C87.50626953 94.12970703 86.75667969 94.05042969 85.984375 93.96875 C85.29947998 93.90179932 84.61458496 93.83484863 83.90893555 93.76586914 C81.55925589 93.30178804 79.92077253 92.68301889 77.91015625 91.37109375 C76.84521484 89.53930664 76.84521484 89.53930664 76.05859375 87.34375 C75.7646875 86.55162109 75.47078125 85.75949219 75.16796875 84.94335938 C74.73097656 83.70102539 74.73097656 83.70102539 74.28515625 82.43359375 C73.69191558 80.79834629 73.09567595 79.16418293 72.49609375 77.53125 C72.23876465 76.80558838 71.98143555 76.07992676 71.71630859 75.33227539 C70.87772315 73.10933967 70.87772315 73.10933967 68.91015625 70.37109375 C67.78188601 64.16560742 69.30596584 61.31008203 72.84765625 56.12109375 C73.94400391 54.62835938 73.94400391 54.62835938 75.0625 53.10546875 C77.36254348 49.98663477 77.36254348 49.98663477 77.91015625 46.37109375 C75.81386308 43.66586737 75.81386308 43.66586737 72.97265625 41.12109375 C72.03550781 40.2290625 71.09835937 39.33703125 70.1328125 38.41796875 C69.39933594 37.7425 68.66585937 37.06703125 67.91015625 36.37109375 C63.33895747 38.42544426 59.61550355 41.55460271 55.6640625 44.59375 C52.76434307 46.46520013 51.34612313 47.31081363 47.91015625 47.37109375 C45.02881885 46.50642718 42.33314015 45.30243296 39.59765625 44.05859375 C34.074556 41.59565628 28.82374733 39.68745244 22.91015625 38.37109375 C22.73625366 37.47801514 22.73625366 37.47801514 22.55883789 36.56689453 C22.03311827 33.87602979 21.5029433 31.18606195 20.97265625 28.49609375 C20.69905273 27.09037109 20.69905273 27.09037109 20.41992188 25.65625 C20.24267578 24.76035156 20.06542969 23.86445313 19.8828125 22.94140625 C19.72047119 22.11398926 19.55812988 21.28657227 19.39086914 20.43408203 C18.98346683 18.32391009 18.98346683 18.32391009 17.91015625 16.37109375 C15.26425611 16.34424696 12.61862529 16.32433018 9.97265625 16.30859375 C8.84053711 16.29602539 8.84053711 16.29602539 7.68554688 16.28320312 C3.99823861 15.90583775 3.99823861 15.90583775 0.91015625 17.37109375 Z M-244.08984375 241.37109375 C-247.15990259 264.76877085 -247.15990259 264.76877085 -239.65234375 293.18359375 C-234.72361401 297.39104597 -231.41642836 297.66081129 -225.1516571 297.63851929 C-224.22636084 297.6430504 -223.30106457 297.64758151 -222.34772903 297.65224993 C-219.23396646 297.66495333 -216.12037748 297.66326973 -213.0065918 297.66162109 C-210.77945733 297.66760267 -208.55232495 297.67440735 -206.32519531 297.68197632 C-200.26523497 297.69968212 -194.20533106 297.70433365 -188.14534736 297.70560789 C-183.09059862 297.70750434 -178.03586311 297.71485902 -172.98111945 297.72195208 C-161.73841517 297.73731969 -150.49573762 297.74328844 -139.25302603 297.74194138 C-138.24086286 297.74182151 -138.24086286 297.74182151 -137.20825195 297.74169922 C-136.19485317 297.74157658 -136.19485317 297.74157658 -135.16098169 297.74145146 C-124.2141041 297.74063871 -113.26736416 297.7597723 -102.32052638 297.78797595 C-91.08129217 297.81670446 -79.84212303 297.83014997 -68.60284454 297.8287884 C-62.29250134 297.82827793 -55.98231384 297.8340082 -49.67200279 297.8551445 C-43.73681622 297.87448054 -37.80193457 297.87468293 -31.86673737 297.86011124 C-29.68746051 297.85801623 -27.50816481 297.86276501 -25.32892036 297.87483215 C-22.35524684 297.89023255 -19.38263151 297.88101052 -16.40898132 297.86557007 C-15.54525947 297.87585719 -14.68153761 297.88614432 -13.79164237 297.89674318 C-8.4356127 297.83522855 -5.21919163 297.0964801 -1.08984375 293.37109375 C7.53530334 278.27708634 2.91015625 258.7556335 2.91015625 241.37109375 C-78.59984375 241.37109375 -160.10984375 241.37109375 -244.08984375 241.37109375 Z " fill="#000000" transform="translate(328.08984375,183.62890625)"/>
<path d="M0 0 C0.95109858 -0.00538554 1.90219716 -0.01077108 2.88211691 -0.01631981 C6.05945299 -0.03059264 9.23637206 -0.02349719 12.41372681 -0.01637268 C14.69569737 -0.02207661 16.97766508 -0.02904096 19.2596283 -0.03717041 C25.45181049 -0.05511495 31.64385107 -0.05393086 37.83605146 -0.04822803 C43.00753285 -0.04513785 48.17898696 -0.05122678 53.35046446 -0.05726677 C66.2495519 -0.07211788 79.14855068 -0.06849495 92.04763658 -0.05640347 C103.23796567 -0.04647378 114.42812935 -0.05940841 125.61843292 -0.08333766 C137.12111703 -0.1077487 148.62370536 -0.11693213 160.1264168 -0.11068493 C166.57930837 -0.10731493 173.03206332 -0.10973346 179.48493576 -0.12693596 C185.55398241 -0.14240897 191.62271346 -0.13844517 197.69174767 -0.11963081 C199.91652682 -0.11594588 202.14132937 -0.11905057 204.36608696 -0.1295166 C207.40856452 -0.14273441 210.44999849 -0.13117128 213.49243164 -0.11352539 C214.80583245 -0.1279329 214.80583245 -0.1279329 216.14576662 -0.14263147 C225.02188023 -0.03707016 232.0995986 3.33218664 238.58023071 9.3212738 C244.90176811 16.60688009 246.51882387 24.49780888 246.55020142 33.84056091 C246.55677261 34.69142776 246.56334381 35.54229462 246.57011414 36.41894531 C246.58980006 39.23013908 246.60149692 42.04127964 246.61148071 44.8525238 C246.61555624 45.81348024 246.61963177 46.77443668 246.6238308 47.76451302 C246.6446677 52.84715178 246.65898182 57.92976371 246.66836548 63.01243591 C246.67944755 68.26279636 246.71387495 73.51273507 246.75353718 78.76294613 C246.77966348 82.80098261 246.78805358 86.83891775 246.79164696 90.87703133 C246.79652028 92.81273319 246.80815545 94.7484303 246.82668495 96.68404961 C246.85100008 99.39151057 246.85012589 102.09786823 246.84317017 104.80540466 C246.86238525 106.00331131 246.86238525 106.00331131 246.88198853 107.22541809 C246.84665082 110.99917268 246.51282285 113.16794201 244.46882629 116.38476562 C242.37319946 118.38768005 242.37319946 118.38768005 240.37319946 119.0165863 C239.71319946 118.99467224 239.05319946 118.97275818 238.37319946 118.95018005 C237.71319946 118.95146912 237.05319946 118.95275818 236.37319946 118.9540863 C234.37319946 118.38768005 234.37319946 118.38768005 230.37319946 114.38768005 C230.37319946 100.52768005 230.37319946 86.66768005 230.37319946 72.38768005 C148.86319946 72.38768005 67.35319946 72.38768005 -16.62680054 72.38768005 C-16.58039429 93.8531488 -16.53398804 115.31861755 -16.48617554 137.43455505 C-16.46574825 150.99705633 -16.44630368 164.5595482 -16.43148804 178.12205505 C-16.42365623 185.24380022 -16.41557421 192.36554503 -16.40707397 199.48728943 C-16.40549148 200.82623087 -16.40549148 200.82623087 -16.40387702 202.19222164 C-16.38646709 216.61387504 -16.35492487 231.03546481 -16.31818935 245.45708045 C-16.28081847 260.25121815 -16.25857285 275.04532247 -16.25044656 289.83950543 C-16.24495077 298.97256716 -16.22757633 308.10544915 -16.19513467 317.23845556 C-16.17403431 323.49641457 -16.1675903 329.7542803 -16.17279503 336.01227233 C-16.17536383 339.62596675 -16.17135268 343.23934653 -16.14997864 346.85298538 C-16.12699879 350.76658449 -16.13482161 354.67977017 -16.14578247 358.59342957 C-16.1341311 359.74128079 -16.12247974 360.88913202 -16.1104753 362.07176661 C-16.1184395 363.11778269 -16.12640369 364.16379877 -16.13460922 365.2415123 C-16.13309034 366.14524668 -16.13157146 367.04898107 -16.13000655 367.98010135 C-16.79317073 371.19394852 -18.07015235 372.39000787 -20.62680054 374.38768005 C-24.12680054 374.88768005 -24.12680054 374.88768005 -27.62680054 374.38768005 C-30.53397127 372.16904976 -31.46661697 370.86823077 -32.62680054 367.38768005 C-32.72046061 365.51009481 -32.75414149 363.62930712 -32.75543499 361.74938774 C-32.76027166 359.97744681 -32.76027166 359.97744681 -32.76520604 358.16970909 C-32.76365744 356.86555522 -32.76210883 355.56140135 -32.76051331 354.21772766 C-32.76238062 352.82324478 -32.764681 351.42876242 -32.76737863 350.0342809 C-32.77351323 346.19329499 -32.77336108 342.35233079 -32.77218425 338.51134109 C-32.77198066 334.37212028 -32.77749517 330.23290652 -32.78224182 326.09368896 C-32.79055873 317.97968492 -32.79329716 309.86568813 -32.7938542 301.75168018 C-32.794329 295.1557173 -32.79638195 288.55975683 -32.79955482 281.96379471 C-32.80836532 263.26768677 -32.81297375 244.57158458 -32.81222435 225.87547456 C-32.81216442 224.36267839 -32.81216442 224.36267839 -32.81210327 222.81932068 C-32.81206239 221.80955957 -32.81202151 220.79979846 -32.81197939 219.75943853 C-32.81157312 203.40215424 -32.82113687 187.044893 -32.83524164 170.68761538 C-32.8496062 153.89662104 -32.85651173 137.10563794 -32.85564786 120.3146373 C-32.85531585 110.88607252 -32.8580645 101.45753188 -32.86882591 92.02897263 C-32.8779321 83.99900225 -32.88010529 75.96906694 -32.87331649 67.93909363 C-32.87005149 63.84284428 -32.8699938 59.74666219 -32.87866974 55.65041924 C-32.88653688 51.89736914 -32.88510111 48.14443964 -32.87638561 44.39139248 C-32.8741264 42.39696187 -32.88167774 40.40252751 -32.88962525 38.40811145 C-32.84717812 27.36028698 -31.53090485 18.3492989 -24.62680054 9.38768005 C-17.33920247 2.35137847 -9.906115 -0.06765001 0 0 Z M-14.43930054 22.82518005 C-19.14500432 32.97959348 -16.62680054 46.34121865 -16.62680054 56.38768005 C64.88319946 56.38768005 146.39319946 56.38768005 230.37319946 56.38768005 C232.77120433 30.24047895 232.77120433 30.24047895 226.37319946 20.38768005 C221.47248772 15.9700248 217.35203448 15.81473729 211.07424927 15.87974548 C210.14638973 15.87350552 209.21853019 15.86726556 208.26255369 15.86083651 C205.15789999 15.84489996 202.05403067 15.8575136 198.94937134 15.87010193 C196.72179202 15.86468112 194.49421628 15.8575587 192.26664734 15.84886169 C186.21918263 15.83062069 180.17199076 15.83769926 174.12452126 15.85037804 C167.79720954 15.86050157 161.46992127 15.85111415 155.14260864 15.84483337 C143.83607031 15.83708884 132.52967058 15.84952337 121.22315997 15.86987072 C110.97574834 15.8877413 100.72851798 15.88463705 90.48110962 15.86619568 C78.57544145 15.84478005 66.66988336 15.83682661 54.76418924 15.84864473 C48.46396946 15.85488248 42.16387449 15.85570744 35.86366272 15.84249878 C29.94071963 15.83094859 24.01811901 15.83895125 18.09521294 15.86207581 C15.92078152 15.86736728 13.7463213 15.86584167 11.57190132 15.85702515 C8.60492763 15.84610374 5.6390532 15.85979271 2.67214966 15.87974548 C1.81047416 15.8708226 0.94879867 15.86189971 0.06101179 15.85270643 C-6.31274664 15.93591861 -10.48390326 17.50585268 -14.43930054 22.82518005 Z " fill="#000000" transform="translate(100.62680053710938,14.612319946289063)"/>
<path d="M0 0 C8.78241257 6.80119492 13.69508069 15.14021368 16.3203125 25.796875 C17.41357303 38.15326148 16.16756428 48.98833451 8.078125 58.88671875 C0.46827314 67.15609111 -7.69352447 73.2537803 -19.18359375 74.03515625 C-32.48374661 74.399544 -43.38176327 71.48993915 -53.39453125 62.20703125 C-60.99798629 53.98446537 -64.49580488 43.94179352 -64.74609375 32.85546875 C-64.25328554 21.4014112 -60.10043062 12.18744507 -52.125 3.98828125 C-37.25508325 -9.33763456 -16.74124197 -10.87373273 0 0 Z M-41.953125 16.84375 C-46.49701537 21.98389748 -48.77378715 27.92760086 -48.6796875 34.796875 C-47.62558756 42.17557457 -44.512728 48.78369874 -38.54296875 53.4765625 C-35.34274847 55.77154537 -35.34274847 55.77154537 -31.6796875 56.796875 C-31.66510498 55.84321045 -31.65052246 54.8895459 -31.63549805 53.90698242 C-31.57750958 50.36753915 -31.50027792 46.82873176 -31.41723633 43.28979492 C-31.38398932 41.75832441 -31.35595657 40.22673144 -31.33325195 38.69506836 C-31.29970032 36.49279613 -31.2473884 34.29164588 -31.19140625 32.08984375 C-31.18501633 31.40536667 -31.1786264 30.72088959 -31.17204285 30.01567078 C-31.08486092 27.1949108 -30.97704325 25.2322435 -29.36254883 22.8684082 C-26.4519028 21.01510406 -24.0130781 21.38751124 -20.6796875 21.796875 C-17.62423488 24.02461001 -16.77403604 25.24242964 -16.13378906 29.00488281 C-16.1128418 30.24077148 -16.09189453 31.47666016 -16.0703125 32.75 C-16.05377625 33.41022156 -16.03723999 34.07044312 -16.02020264 34.75067139 C-15.97180299 36.84950126 -15.95037231 38.94760722 -15.9296875 41.046875 C-15.90152067 42.4739946 -15.87159222 43.90108059 -15.83984375 45.328125 C-15.76604987 48.81755109 -15.71642471 52.30683972 -15.6796875 55.796875 C-9.78819994 54.48356423 -5.63614794 50.68808876 -2.2734375 45.71875 C1.06291355 39.09371006 1.74409146 32.16901038 -0.5625 25.0859375 C-3.55872883 18.47836001 -7.36893571 13.57109679 -14.17578125 10.76953125 C-24.9275876 7.30275268 -33.65537611 8.975765 -41.953125 16.84375 Z " fill="#000000" transform="translate(362.6796875,255.203125)"/>
<path d="M0 0 C2.3125 1.0625 2.3125 1.0625 4 3 C5.16250863 8.13794243 4.93895027 11.33592539 2.98022461 16.19482422 C2.27513512 17.97918381 2.27513512 17.97918381 1.55580139 19.79959106 C1.02575676 21.0930691 0.4954287 22.38643101 -0.03515625 23.6796875 C-0.58285912 25.04871752 -1.12905382 26.41835175 -1.67384338 27.7885437 C-2.83419644 30.69880448 -4.0041902 33.60491767 -5.1819458 36.50817871 C-6.98668705 40.95914085 -8.76522885 45.42024194 -10.53857422 49.88378906 C-13.84674493 58.20252371 -17.17685536 66.51234721 -20.51226807 74.82019043 C-22.98754791 80.98626453 -25.46018451 87.15339779 -27.93177986 93.32094955 C-28.77774696 95.43087747 -29.62492806 97.54031456 -30.47227478 99.64968872 C-30.73614518 100.30787535 -31.00001558 100.96606197 -31.27188206 101.64419365 C-31.78571032 102.92522162 -32.30083537 104.20573034 -32.81735897 105.4856739 C-34.05031768 108.55577646 -35.22955763 111.63462982 -36.35501099 114.74603271 C-36.77805511 115.91249329 -37.20109924 117.07895386 -37.63696289 118.28076172 C-37.99875137 119.31272675 -38.36053986 120.34469177 -38.73329163 121.40792847 C-40.13770174 124.28177974 -41.23355396 125.43730214 -44 127 C-47.88040089 127.48505011 -50.0761612 127.56851618 -53.4375 125.5 C-55.5970929 122.04465135 -55.42805875 118.93268253 -55 115 C-54.22224681 112.0185445 -53.10529748 109.22371765 -51.92993164 106.37866211 C-51.43955414 105.14485558 -51.43955414 105.14485558 -50.93927002 103.88612366 C-49.85914512 101.17782095 -48.75978278 98.47778032 -47.66015625 95.77734375 C-46.89578024 93.87138742 -46.1326542 91.96492937 -45.37071228 90.05799866 C-43.35917984 85.03303657 -41.33139937 80.01479173 -39.29992676 74.99786377 C-37.26817226 69.97299437 -35.25053529 64.94246944 -33.23242188 59.91210938 C-30.903242 54.10666543 -28.57203679 48.3021118 -26.22647095 42.50326538 C-23.09696784 34.76082606 -19.97743994 27.02075392 -17.03857422 19.20361328 C-16.62731796 18.11472305 -16.21606171 17.02583282 -15.79234314 15.90394592 C-15.08770757 14.02118428 -14.39530717 12.13376308 -13.71949768 10.24046326 C-11.18681711 3.47210836 -7.96077095 -1.18564674 0 0 Z " fill="#000000" transform="translate(230,104)"/>
<path d="M0 0 C3.27155869 2.36665948 4.70646942 3.89926032 5.75 7.8125 C3.74322845 16.34127908 -6.41871477 23.53754609 -12.4375 29.5 C-13.35982422 30.4178125 -14.28214844 31.335625 -15.23242188 32.28125 C-17.48599899 34.52315055 -19.74189075 36.762666 -22 39 C-16.32339181 45.87314815 -10.01305643 52.01725438 -3.63671875 58.23632812 C-2.81300781 59.04908203 -1.98929688 59.86183594 -1.140625 60.69921875 C-0.39329102 61.42971436 0.35404297 62.16020996 1.12402344 62.9128418 C4.13664578 66.26459978 5.0520784 68.01051044 4.8125 72.5625 C4 76 4 76 2.9375 77.9375 C-0.37840743 79.75590085 -3.41677136 79.89259638 -7 79 C-10.05075199 77.03383094 -12.47707985 74.59413161 -15 72 C-15.8971875 71.13761719 -15.8971875 71.13761719 -16.8125 70.2578125 C-20.37533964 66.8063116 -23.61437886 63.14894042 -26.828125 59.375 C-28.59968777 57.43775151 -30.40163114 55.62460043 -32.296875 53.8125 C-33.17835205 52.96292725 -33.17835205 52.96292725 -34.07763672 52.09619141 C-35.25621644 50.96755964 -36.44509741 49.84956677 -37.64501953 48.74365234 C-40.31940517 46.17312634 -41.83640485 44.47167946 -43.0703125 40.9140625 C-42.90959277 34.25312244 -37.13223143 29.76560259 -32.734375 25.29296875 C-32.02275208 24.56757401 -31.31112915 23.84217926 -30.57794189 23.09480286 C-29.07457166 21.56821825 -27.56821633 20.04456832 -26.05908203 18.52368164 C-23.75592523 16.19349477 -21.4778739 13.84044683 -19.19921875 11.48632812 C-17.73326704 10.00372743 -16.2658665 8.52255761 -14.796875 7.04296875 C-14.12058044 6.33681931 -13.44428589 5.63066986 -12.74749756 4.90312195 C-8.60582832 0.79918877 -6.12421241 -1.09788623 0 0 Z " fill="#000000" transform="translate(159,128)"/>
<path d="M0 0 C8.69475708 1.82309423 14.77461548 10.6131473 20.46533203 17.00561523 C23.09101163 19.93973588 25.79399206 22.73179182 28.6484375 25.4453125 C29.28749023 26.05802002 29.92654297 26.67072754 30.58496094 27.30200195 C31.83369193 28.49071617 33.09434289 29.66706992 34.36816406 30.82885742 C37.31012033 33.6452626 38.74280653 35.40467865 40.0234375 39.35546875 C39.71910213 46.44327923 33.78046521 51.19217789 28.9921875 55.92578125 C28.33670929 56.58080124 27.68123108 57.23582123 27.00588989 57.91069031 C25.62820465 59.28536929 24.2481047 60.65763212 22.86572266 62.02758789 C20.7444933 64.13045905 18.63147693 66.24132488 16.51953125 68.35351562 C15.17755605 69.69057879 13.83512415 71.02718376 12.4921875 72.36328125 C11.85884491 72.99551102 11.22550232 73.62774078 10.57296753 74.27912903 C9.9854068 74.86030991 9.39784607 75.44149078 8.79248047 76.0402832 C8.27603973 76.55291214 7.759599 77.06554108 7.22750854 77.59370422 C4.34079867 80.19502591 1.57265235 80.09212233 -2.21875 80.0234375 C-4.125 79.8125 -4.125 79.8125 -6.0625 78.6875 C-7.59349826 75.98573836 -8.0007742 73.91814495 -8.125 70.8125 C-6.02423074 66.52814829 -2.95330087 63.37718402 0.41796875 60.07421875 C0.94642899 59.54858841 1.47488922 59.02295807 2.0193634 58.48139954 C3.69574262 56.81614752 5.37896589 55.15801508 7.0625 53.5 C8.20553861 52.36700083 9.34812169 51.23354191 10.49023438 50.09960938 C13.27991332 47.33189172 16.07574873 44.57053452 18.875 41.8125 C17.28200539 37.887398 14.72642536 35.46471267 11.71875 32.53125 C11.21581421 32.03588745 10.71287842 31.5405249 10.19470215 31.03015137 C8.5928765 29.45268052 6.9847897 27.8818403 5.375 26.3125 C3.25461493 24.24539412 1.14098594 22.17171739 -0.96875 20.09375 C-1.90912109 19.17658203 -2.84949219 18.25941406 -3.81835938 17.31445312 C-5.82667983 15.13608013 -7.129265 13.57326965 -8.125 10.8125 C-7.97911447 7.3112473 -7.48342363 5.33634992 -5.5 2.4375 C-3.125 0.8125 -3.125 0.8125 0 0 Z " fill="#000000" transform="translate(259.125,127.1875)"/>
<path d="M0 0 C0.70616959 -0.00365067 1.41233917 -0.00730133 2.13990784 -0.01106262 C4.46916922 -0.01915434 6.79773188 -0.00557008 9.12695312 0.0090332 C10.7483317 0.00955198 12.36971091 0.0090336 13.99108887 0.00752258 C17.38722132 0.00761224 20.78311608 0.01802912 24.17919922 0.03613281 C28.53052493 0.05881981 32.88150343 0.05936344 37.23287201 0.05261517 C40.58033326 0.0492723 43.92771548 0.05591126 47.27516174 0.0657444 C48.87951748 0.0695912 50.48388201 0.07074677 52.08824158 0.06915855 C54.33113326 0.06878733 56.57358128 0.08142371 58.81640625 0.09765625 C60.73024109 0.10456734 60.73024109 0.10456734 62.68273926 0.11161804 C65.72219562 0.3572805 67.39828632 0.70551002 69.90820312 2.37231445 C71.98979332 5.04864471 71.90407903 6.48985113 71.78320312 9.93481445 C70.90820312 13.37231445 70.90820312 13.37231445 69.30822754 15.06190491 C65.98887559 16.87426584 63.40763554 16.7608151 59.6328125 16.77636719 C58.54429741 16.78666206 58.54429741 16.78666206 57.43379211 16.79716492 C55.0396457 16.81543783 52.64615418 16.81159537 50.25195312 16.8059082 C48.58573188 16.81046942 46.91951252 16.81577481 45.2532959 16.8217926 C41.76302441 16.83072436 38.27298173 16.82829949 34.78271484 16.81835938 C30.31012482 16.80686276 25.8383235 16.8270909 21.3658371 16.85627651 C17.9257099 16.8746216 14.48577236 16.87434959 11.04560852 16.86863899 C9.39657992 16.8684856 7.74753861 16.87454435 6.09855652 16.88693047 C3.79306512 16.90180945 1.48903927 16.8911885 -0.81640625 16.87402344 C-2.12782593 16.87385727 -3.43924561 16.8736911 -4.79040527 16.8735199 C-8.62143193 16.29190716 -9.7703804 15.40432932 -12.09179688 12.37231445 C-13.28431269 9.73174372 -13.16049503 8.6283712 -12.40429688 5.80981445 C-9.45074598 0.32464851 -5.95084613 -0.00293569 0 0 Z " fill="#000000" transform="translate(178.091796875,447.627685546875)"/>
<path d="M0 0 C0.98130386 -0.00619858 1.96260773 -0.01239716 2.97364807 -0.01878357 C5.04728199 -0.02588184 7.12097289 -0.02270762 9.19458008 -0.01000977 C12.36451369 0.00384335 15.53148818 -0.03020008 18.70117188 -0.06835938 C20.71744864 -0.06931071 22.73372909 -0.06745099 24.75 -0.0625 C25.69596542 -0.07575821 26.64193085 -0.08901642 27.61656189 -0.10267639 C32.20587145 -0.03787762 34.29004069 0.07397778 38.04711914 2.91430664 C39.94140625 5.56640625 39.94140625 5.56640625 40.44140625 8.62890625 C39.89395817 11.84516372 39.23383715 13.27397535 36.94140625 15.56640625 C34.21387054 16.47558482 32.54524912 16.70610396 29.73291016 16.7434082 C28.46611923 16.76266106 28.46611923 16.76266106 27.17373657 16.78230286 C25.8096315 16.79338326 25.8096315 16.79338326 24.41796875 16.8046875 C23.47964203 16.81275925 22.54131531 16.82083099 21.57455444 16.82914734 C19.58910972 16.84297597 17.60364135 16.85370358 15.61816406 16.86157227 C12.58482857 16.87880161 9.55257851 16.92270043 6.51953125 16.96679688 C4.58985176 16.97692272 2.66016301 16.98543916 0.73046875 16.9921875 C-0.17488617 17.00969559 -1.08024109 17.02720367 -2.01303101 17.04524231 C-6.23342622 17.03073056 -8.46839638 16.93168613 -12.13110352 14.66479492 C-14.20946478 12.40215843 -14.72136103 11.58622082 -14.62109375 8.56640625 C-14.62238281 7.90640625 -14.62367188 7.24640625 -14.625 6.56640625 C-12.56342464 -0.71308743 -6.27301213 -0.03282032 0 0 Z " fill="#000000" transform="translate(214.05859375,42.43359375)"/>
</svg>
