<?xml version="1.0" encoding="UTF-8"?>
<svg version="1.1" xmlns="http://www.w3.org/2000/svg" width="512" height="512">
<path d="M0 0 C1.1056337 -0.00905664 2.2112674 -0.01811328 3.35040516 -0.02744436 C5.1721217 -0.01945247 5.1721217 -0.01945247 7.0306406 -0.01129913 C8.96607923 -0.02043579 8.96607923 -0.02043579 10.94061762 -0.02975702 C14.52488943 -0.04618993 18.10894178 -0.04383189 21.69323814 -0.03838205 C25.55767619 -0.03571598 29.42205518 -0.05023565 33.28646946 -0.06247711 C40.85825032 -0.08355088 48.42995465 -0.08807087 56.00176137 -0.08628923 C62.15485594 -0.08498263 68.30792659 -0.08878048 74.46101665 -0.09621429 C76.23204519 -0.09831344 78.00307373 -0.10041104 79.77410227 -0.10250711 C80.65553483 -0.10355064 81.53696739 -0.10459417 82.44511003 -0.10566932 C99.12224012 -0.12457937 115.79932624 -0.12351908 132.47646261 -0.11669999 C147.74036845 -0.11112333 163.0041065 -0.13195382 178.26797312 -0.16506046 C193.93350029 -0.19877512 209.59894703 -0.21396862 225.26451117 -0.20934343 C234.06253122 -0.20709657 242.86039617 -0.2123736 251.65838528 -0.23723602 C259.14796233 -0.25822042 266.63729924 -0.2618697 274.12688606 -0.24293643 C277.94937212 -0.23376093 281.77141009 -0.23269029 285.59386158 -0.25329208 C289.73484174 -0.27536416 293.87476008 -0.25882906 298.01574802 -0.23834991 C299.227995 -0.25086776 300.44024197 -0.26338561 301.68922371 -0.27628279 C309.66523806 -0.19131976 309.66523806 -0.19131976 313.83578205 2.40859318 C316.06653819 6.19830493 316.26217766 9.32009457 316.17208958 13.5968399 C316.17480073 14.42019524 316.17751188 15.24355057 316.18030518 16.09185606 C316.18351768 18.84960325 316.15117072 21.60578838 316.11915684 24.36333466 C316.11451162 26.34132747 316.11217853 28.31932687 316.11198521 30.29732513 C316.10722308 34.55793846 316.08729034 38.81811884 316.05601025 43.078619 C316.00780975 49.82492122 316.00080323 56.57087787 316.00079441 63.31732941 C315.99436899 81.29333746 315.93386436 99.26909224 315.84786052 117.24488598 C315.79161261 129.04853047 315.75846955 140.85174251 315.7682969 152.6555329 C315.77200211 159.35174919 315.73931425 166.04646523 315.67883933 172.74239433 C315.64940777 176.92560561 315.65363492 181.10830325 315.66689014 185.29157639 C315.66632868 187.21921181 315.65223226 189.14690282 315.62295818 191.07431602 C315.46180764 202.23719091 316.27656394 210.01733524 322.66153336 219.36964512 C324.70823641 222.57337417 325.69995216 225.48450207 326.71168613 229.13311005 C327.72906762 232.11042433 327.72906762 232.11042433 329.58668613 234.38311005 C333.07513292 235.56108621 336.209049 235.82430838 339.87965488 236.0510788 C354.12995822 237.32744948 364.13822516 247.32605247 373.15699863 257.4417038 C374.58668613 259.38311005 374.58668613 259.38311005 375.64918613 262.50811005 C377.23633131 265.48775023 377.23633131 265.48775023 379.5822916 266.06499481 C382.20843485 266.47985696 384.81143731 266.73427306 387.46168613 266.94561005 C407.59122192 269.19686093 424.6582408 278.31781786 437.68434238 293.89092255 C451.03302778 312.13901555 455.14085523 332.47820608 452.28932285 354.70049286 C448.90437027 373.97148804 437.41616715 390.34921798 421.61402988 401.45342255 C406.86947114 410.85188967 391.55427084 414.54185155 374.26001072 414.52355194 C372.91783728 414.52800862 372.91783728 414.52800862 371.54854923 414.53255534 C368.57354024 414.54117292 365.59857182 414.54274467 362.62355137 414.54424286 C360.48072316 414.54887598 358.33789576 414.5539013 356.19506931 414.55928802 C350.38892831 414.57236699 344.58279884 414.57884825 338.77664542 414.58329868 C335.14301732 414.58623688 331.50939233 414.59034309 327.8757658 414.59480286 C316.48904512 414.60846633 305.1023316 414.61813844 293.71560329 414.62200475 C280.60474063 414.62648188 267.4939824 414.64401872 254.38315147 414.67300534 C244.22653857 414.69467522 234.06995493 414.70471187 223.91331917 414.70604587 C217.85763274 414.70709015 211.80204465 414.71291743 205.74638271 414.73086548 C200.04423198 414.74743797 194.34225253 414.74945739 188.64008617 414.74072647 C186.55853279 414.73996097 184.47696984 414.74423373 182.3954401 414.75418472 C157.25080494 414.86724951 135.12073671 410.69301314 116.01637363 392.99248505 C111.5774679 388.22530011 108.10297717 382.85458015 104.58668613 377.38311005 C103.59668613 375.89811005 103.59668613 375.89811005 102.58668613 374.38311005 C100.56071452 373.92731676 100.56071452 373.92731676 98.18360996 373.99784088 C97.25819401 373.98819305 96.33277805 373.97854523 95.37931919 373.96860504 C94.36107059 373.97318222 93.342822 373.9777594 92.29371738 373.98247528 C90.68875904 373.97200668 90.68875904 373.97200668 89.0513773 373.9613266 C85.50056798 373.94126616 81.95004722 373.94184976 78.39918613 373.9417038 C75.9406006 373.92994195 73.48202223 373.91658069 71.02345371 373.90167999 C64.54034573 373.86540383 58.05730128 373.84526474 51.57411289 373.83013153 C41.19551286 373.80534871 30.81705329 373.76583022 20.43858433 373.70823097 C16.80342983 373.69183569 13.16840635 373.68811802 9.53321934 373.68521881 C7.31536218 373.6754469 5.09750711 373.66518435 2.87965488 373.65435028 C1.86140629 373.65690323 0.84315769 373.65945618 -0.20594692 373.66208649 C-1.13136288 373.65525848 -2.05677883 373.64843048 -3.01023769 373.64139557 C-3.8169743 373.63976127 -4.6237109 373.63812696 -5.45489407 373.63644314 C-7.41331387 373.38311005 -7.41331387 373.38311005 -9.41331387 371.38311005 C-9.66631353 368.77853829 -9.66631353 368.77853829 -9.67058277 365.39820194 C-9.68025611 363.47216958 -9.68025611 363.47216958 -9.69012487 361.50722748 C-9.68718213 360.06884635 -9.68404665 358.6304656 -9.6807394 357.19208527 C-9.68447266 355.67456839 -9.68907287 354.15705344 -9.69447005 352.63954157 C-9.7067556 348.45405107 -9.70643309 344.26864016 -9.7040813 340.08313572 C-9.70367453 335.5752196 -9.71469879 331.06732948 -9.72419643 326.55942535 C-9.74083752 317.72204849 -9.74630737 308.8846983 -9.74742119 300.04730708 C-9.74837014 292.86726505 -9.75247275 285.68723185 -9.75882244 278.50719261 C-9.77644288 258.16999096 -9.78565999 237.83281046 -9.78416149 217.49560113 C-9.78408158 216.39830573 -9.78400167 215.30101033 -9.78391933 214.17046356 C-9.78383757 213.07183526 -9.78375581 211.97320696 -9.78367157 210.84128689 C-9.78285831 193.02812404 -9.80200394 175.21504568 -9.83019607 157.40190727 C-9.8588861 139.13065292 -9.87273853 120.85943983 -9.87100852 102.58816236 C-9.8703433 92.32249508 -9.87589317 82.05691636 -9.89736462 71.7912693 C-9.9155254 63.05217505 -9.91996592 54.31320951 -9.90634577 45.57410461 C-9.89979034 41.11196679 -9.89979103 36.65007627 -9.91705227 32.18796158 C-9.93267515 28.10754951 -9.93003116 24.02758307 -9.91248401 19.94718259 C-9.90939012 18.46671234 -9.91313536 16.98620971 -9.92420416 15.5057776 C-9.93820116 13.50184895 -9.92541706 11.49778563 -9.9110918 9.49385929 C-9.91152654 8.37818595 -9.91196128 7.2625126 -9.91240919 6.11303097 C-9.41331387 3.38311005 -9.41331387 3.38311005 -7.72053486 1.5251326 C-4.95077962 0.15416599 -3.08785835 0.00507652 0 0 Z M2.58668613 13.38311005 C2.58668613 49.02311005 2.58668613 84.66311005 2.58668613 121.38311005 C101.58668613 121.38311005 200.58668613 121.38311005 302.58668613 121.38311005 C302.58668613 85.74311005 302.58668613 50.10311005 302.58668613 13.38311005 C203.58668613 13.38311005 104.58668613 13.38311005 2.58668613 13.38311005 Z M2.58668613 134.38311005 C2.58668613 209.29311005 2.58668613 284.20311005 2.58668613 361.38311005 C33.93668613 361.38311005 65.28668613 361.38311005 97.58668613 361.38311005 C97.09168613 356.92811005 97.09168613 356.92811005 96.58668613 352.38311005 C95.21865526 329.29829666 98.47518208 309.02982464 114.12574863 290.92217255 C120.17621186 284.67963112 126.8382086 279.34344301 134.58668613 275.38311005 C134.56348301 274.64189911 134.54027988 273.90068817 134.51637363 273.1370163 C133.98706996 242.24836612 143.53580525 216.19442896 164.77418613 193.69561005 C184.49115641 174.67094912 210.45610073 165.92655834 237.58668613 166.38311005 C260.84000274 167.28337043 281.32606442 175.85620174 299.24293613 190.5120163 C301.21709913 192.48709347 301.21709913 192.48709347 302.58668613 192.38311005 C302.58668613 173.24311005 302.58668613 154.10311005 302.58668613 134.38311005 C203.58668613 134.38311005 104.58668613 134.38311005 2.58668613 134.38311005 Z M176.58668613 200.38311005 C175.6804752 201.19521942 174.77426426 202.0073288 173.84059238 202.84404755 C157.93312779 217.89105289 148.04288635 238.40040633 146.58668613 260.38311005 C146.62189657 262.18979314 146.68481449 263.99607486 146.77027988 265.8010788 C146.80959629 266.74531708 146.8489127 267.68955536 146.88942051 268.66240692 C146.97987322 270.61435024 147.0974447 272.56521054 147.24098301 274.51396942 C147.33189867 277.33622361 147.3174419 279.65291738 146.58668613 282.38311005 C144.23852688 284.78137178 141.61922787 286.01342568 138.58668613 287.38311005 C123.75306729 296.97752921 113.93730255 308.89751953 109.27418613 326.1135788 C105.7045701 343.08953685 108.49878801 358.76318992 117.37721348 373.53301239 C125.96013533 386.66207614 139.50072276 396.24373068 154.79463482 399.91280651 C165.11889371 401.91574816 175.45154812 401.67184186 185.92213535 401.65776825 C188.06865204 401.6621216 190.21516717 401.66730682 192.36168003 401.67325592 C198.16339497 401.68658966 203.96504453 401.6872309 209.76677179 401.68469262 C214.62239098 401.68361914 219.47799714 401.68851586 224.33361351 401.69329804 C235.79477143 401.70437365 247.25589656 401.70484151 258.71705723 401.69878387 C270.51407282 401.69274432 282.31096914 401.70505919 294.1079644 401.72635394 C304.26206432 401.74400456 314.4161264 401.74996587 324.57024109 401.7467162 C330.62357558 401.74490882 336.67682496 401.74748502 342.73014545 401.76143074 C348.42495344 401.77406095 354.11957626 401.77201599 359.8143816 401.75901985 C361.89516101 401.75666586 363.97595367 401.75934613 366.05671787 401.76764297 C380.17798419 401.81985701 393.96493189 401.57890892 406.77418613 394.82061005 C407.43926182 394.47691376 408.1043375 394.13321747 408.78956699 393.77910614 C423.42465515 385.85860844 432.80542008 372.86471269 438.30152988 357.36748505 C443.17019115 340.45155247 439.68147105 323.48369564 431.46168613 308.32061005 C422.67349158 293.92807955 408.87369318 284.47218841 392.58668613 280.38311005 C389.14105525 279.63385236 386.03081811 279.35508077 382.52809238 279.52373505 C373.70934273 279.84189622 373.70934273 279.84189622 369.58668613 278.38311005 C366.09824045 274.52271377 364.54978503 270.14984596 362.58668613 265.38311005 C358.24053404 258.80572172 352.52893485 254.92620349 345.58668613 251.38311005 C344.97438145 251.05311005 344.36207676 250.72311005 343.73121738 250.38311005 C338.456635 247.96122674 332.8506332 247.94061051 327.13307285 247.84868622 C322.08277105 247.7014312 322.08277105 247.7014312 319.71168613 246.17998505 C318.28161971 243.89585117 317.62652307 241.73023509 316.89918613 239.13311005 C313.11614483 227.25177121 306.94220737 216.63329513 298.58668613 207.38311005 C297.92281895 206.62643036 297.25895176 205.86975067 296.57496738 205.0901413 C281.5805583 188.98708829 258.892783 179.43177367 237.05152988 178.35186005 C214.37926655 178.55634495 193.69522019 185.03694479 176.58668613 200.38311005 Z " fill="#000000" transform="translate(34.41331386566162,48.61688995361328)"/>
<path d="M0 0 C3.91311618 0.5590166 4.54411661 1.40916791 7.0625 4.4375 C8.81314049 7.35626127 10.32794656 10.380885 11.84692383 13.42529297 C12.53783615 14.78696594 12.53783615 14.78696594 13.2427063 16.17614746 C14.76016235 19.17311486 16.26551391 22.17595583 17.76953125 25.1796875 C18.81972413 27.26721947 19.87015783 29.35463031 20.92082214 31.44192505 C23.11951708 35.81537543 25.31157995 40.19207872 27.49975586 44.57080078 C30.3059168 50.18352971 33.13394995 55.78491898 35.96776295 61.38372612 C38.14308957 65.68993607 40.30385806 70.0033271 42.46057701 74.31888199 C43.49726335 76.38753128 44.53914558 78.45358511 45.58628273 80.51696396 C47.0478323 83.40092424 48.48880383 86.29429156 49.92504883 89.19091797 C50.36184464 90.04203156 50.79864044 90.89314514 51.24867249 91.77005005 C53.49006492 96.34968018 54.79119855 99.34942916 53.0625 104.4375 C51.375 106.375 51.375 106.375 49.0625 107.4375 C44.62562074 107.03421744 41.5159405 105.84071734 37.703125 103.5859375 C36.68202637 102.989021 35.66092773 102.39210449 34.60888672 101.77709961 C33.5210791 101.12878174 32.43327148 100.48046387 31.3125 99.8125 C29.58170755 98.79546558 27.85090442 97.77844884 26.11947632 96.76249695 C24.92280138 96.05956842 23.72686621 95.35537909 22.53164673 94.64997864 C18.32547413 92.16867928 14.09642504 89.73084062 9.8515625 87.31640625 C8.68062783 86.64866379 7.50972892 85.98085862 6.33886719 85.31298828 C4.12516757 84.05169431 1.9097575 82.7933961 -0.30761719 81.53857422 C-13.03966208 74.24665838 -13.03966208 74.24665838 -16.9375 70.4375 C-17.6875 67.3125 -17.6875 67.3125 -16.9375 64.4375 C-15.3125 62 -15.3125 62 -12.9375 60.4375 C-8.4260644 60.79277457 -5.20549749 62.1231972 -1.3046875 64.3515625 C0.27699219 65.24681641 0.27699219 65.24681641 1.890625 66.16015625 C2.97859375 66.78792969 4.0665625 67.41570312 5.1875 68.0625 C6.25226563 68.66707031 7.31703125 69.27164063 8.4140625 69.89453125 C15.66288742 74.02037941 22.85750228 78.23458466 30.0625 82.4375 C20.1625 62.6375 10.2625 42.8375 0.0625 22.4375 C-5.55328688 32.42112111 -11.15753568 42.40674361 -16.6875 52.4375 C-17.19458496 53.35645554 -17.19458496 53.35645554 -17.71191406 54.29397583 C-22.4959165 62.96511983 -27.23360038 71.66007717 -31.9375 80.375 C-33.93417284 84.06431306 -35.93434838 87.75170103 -37.9375 91.4375 C-38.35531738 92.20803711 -38.77313477 92.97857422 -39.20361328 93.77246094 C-40.29232366 95.77076689 -41.39312456 97.76171392 -42.5 99.75 C-43.07878906 100.79800781 -43.65757812 101.84601563 -44.25390625 102.92578125 C-45.95372198 105.46170124 -47.29552973 106.92631385 -49.9375 108.4375 C-53.61043796 108.21712372 -55.30716546 108.06783454 -57.9375 105.4375 C-58.4220801 100.21423666 -57.6248873 96.9942127 -55.11328125 92.4375 C-54.50363525 91.31553223 -53.89398926 90.19356445 -53.26586914 89.03759766 C-52.59425559 87.8373732 -51.92229021 86.63734556 -51.25 85.4375 C-50.55929803 84.17951399 -49.86977909 82.92087777 -49.18139648 81.66162109 C-44.52163365 73.16664493 -39.74161974 64.73761167 -34.93603516 56.32446289 C-29.65441068 47.04011813 -24.64897321 37.61265909 -19.66821289 28.16455078 C-16.40060791 21.97575433 -13.08132843 15.81941137 -9.64453125 9.72265625 C-9.00620361 8.58836182 -8.36787598 7.45406738 -7.71020508 6.28540039 C-4.18584951 0.6234244 -4.18584951 0.6234244 0 0 Z " fill="#000000" transform="translate(295.9375,295.5625)"/>
<path d="M0 0 C0.89148743 -0.00365067 1.78297485 -0.00730133 2.70147705 -0.01106262 C5.64753281 -0.01916679 8.59303832 -0.00555901 11.5390625 0.0090332 C13.58642578 0.00955183 15.63378956 0.00903404 17.68115234 0.00752258 C21.97175532 0.0076123 26.26217038 0.01804091 30.55273438 0.03613281 C36.0541879 0.05881985 41.55536682 0.05936399 47.05685425 0.05261517 C51.28444868 0.04927465 55.51198044 0.05590686 59.73956299 0.0657444 C61.7681648 0.06959525 63.79677358 0.07074509 65.82537842 0.06915855 C68.65976255 0.06878795 71.49379384 0.08140692 74.328125 0.09765625 C75.58752899 0.09394012 75.58752899 0.09394012 76.87237549 0.09014893 C84.14365739 0.15672206 84.14365739 0.15672206 87.1640625 2.37231445 C88.56341263 5.17101472 88.41671655 7.27730237 88.1640625 10.37231445 C86.89513397 12.04033184 86.89513397 12.04033184 85.1640625 13.37231445 C82.09185899 13.66358471 79.2231928 13.77153899 76.15039062 13.74462891 C75.22818222 13.74827957 74.30597382 13.75193024 73.3558197 13.75569153 C70.30213099 13.76380904 67.24897091 13.75017682 64.1953125 13.7355957 C62.07686361 13.73507724 59.95841423 13.7355944 57.83996582 13.73710632 C53.39795764 13.73701655 48.95613074 13.72657577 44.51416016 13.70849609 C38.81416461 13.68580884 33.11443409 13.68526427 27.41440582 13.69201374 C23.03930294 13.6953518 18.6642607 13.68872668 14.28916931 13.67888451 C12.18717262 13.67502941 10.08516918 13.67388557 7.98316956 13.67547035 C5.04789322 13.67584032 2.11295937 13.66323984 -0.82226562 13.64697266 C-1.69508682 13.64945007 -2.56790802 13.65192749 -3.46717834 13.65447998 C-9.49282076 13.60105894 -9.49282076 13.60105894 -12.8359375 11.37231445 C-13.45244235 5.82377076 -13.45244235 5.82377076 -12.8359375 3.37231445 C-9.24444887 -0.51368425 -4.92729642 -0.04485808 0 0 Z " fill="#000000" transform="translate(75.8359375,283.627685546875)"/>
<path d="M0 0 C1.38331261 -0.00788544 1.38331261 -0.00788544 2.79457092 -0.01593018 C5.84824473 -0.02915277 8.90139885 -0.02038402 11.95507812 -0.01025391 C14.07352804 -0.01227399 16.19197728 -0.01518488 18.3104248 -0.01895142 C22.75242731 -0.02337784 27.19424896 -0.0169334 31.63623047 -0.00292969 C37.33629501 0.01416227 43.03593581 0.0043228 48.7359848 -0.01364708 C53.11109625 -0.02447627 57.48610687 -0.02104253 61.86122131 -0.0132637 C63.96322174 -0.01125931 66.06523125 -0.01372933 68.16722107 -0.02070236 C71.10261358 -0.02830253 74.03731532 -0.01673262 76.97265625 0 C77.84547745 -0.00607269 78.71829865 -0.01214539 79.61756897 -0.0184021 C85.54522262 0.04434692 85.54522262 0.04434692 87.70568085 1.72839928 C88.98632812 3.38818359 88.98632812 3.38818359 89.42382812 6.32568359 C88.98632812 9.38818359 88.98632812 9.38818359 87.51696777 11.54823303 C83.78932465 14.25848815 80.56049337 13.94116067 76.05859375 13.88989258 C75.15735275 13.89529556 74.25611176 13.90069855 73.32756042 13.90626526 C70.34889879 13.91877113 67.37120019 13.90224906 64.39257812 13.88427734 C62.32279408 13.88443229 60.25300974 13.88592051 58.18322754 13.88868713 C53.84549127 13.89007196 49.5080853 13.87749885 45.17041016 13.85473633 C39.60833327 13.82635164 34.04680531 13.82908799 28.48468781 13.84182644 C24.21074734 13.84877916 19.9369339 13.84099895 15.66300964 13.82856941 C13.61208076 13.82405097 11.56113826 13.82372153 9.51020813 13.82763481 C6.64454157 13.83054301 3.77963328 13.81405861 0.9140625 13.79223633 C-0.3593676 13.7989888 -0.3593676 13.7989888 -1.65852356 13.80587769 C-5.12243461 13.76201773 -7.43236841 13.68829542 -10.54431152 12.0816803 C-12.01367188 10.38818359 -12.01367188 10.38818359 -12.45117188 6.88818359 C-12.01367188 3.38818359 -12.01367188 3.38818359 -10.7330246 1.69324303 C-7.65369716 -0.64409315 -3.71935846 -0.0258776 0 0 Z " fill="#000000" transform="translate(75.013671875,246.61181640625)"/>
<path d="M0 0 C0.89148743 -0.00365067 1.78297485 -0.00730133 2.70147705 -0.01106262 C5.64753281 -0.01916679 8.59303832 -0.00555901 11.5390625 0.0090332 C13.58642578 0.00955183 15.63378956 0.00903404 17.68115234 0.00752258 C21.97175532 0.0076123 26.26217038 0.01804091 30.55273438 0.03613281 C36.0541879 0.05881985 41.55536682 0.05936399 47.05685425 0.05261517 C51.28444868 0.04927465 55.51198044 0.05590686 59.73956299 0.0657444 C61.7681648 0.06959525 63.79677358 0.07074509 65.82537842 0.06915855 C68.65976255 0.06878795 71.49379384 0.08140692 74.328125 0.09765625 C75.58752899 0.09394012 75.58752899 0.09394012 76.87237549 0.09014893 C84.14365739 0.15672206 84.14365739 0.15672206 87.1640625 2.37231445 C88.56341263 5.17101472 88.41671655 7.27730237 88.1640625 10.37231445 C86.89513397 12.04033184 86.89513397 12.04033184 85.1640625 13.37231445 C82.09185899 13.66358471 79.2231928 13.77153899 76.15039062 13.74462891 C75.22818222 13.74827957 74.30597382 13.75193024 73.3558197 13.75569153 C70.30213099 13.76380904 67.24897091 13.75017682 64.1953125 13.7355957 C62.07686361 13.73507724 59.95841423 13.7355944 57.83996582 13.73710632 C53.39795764 13.73701655 48.95613074 13.72657577 44.51416016 13.70849609 C38.81416461 13.68580884 33.11443409 13.68526427 27.41440582 13.69201374 C23.03930294 13.6953518 18.6642607 13.68872668 14.28916931 13.67888451 C12.18717262 13.67502941 10.08516918 13.67388557 7.98316956 13.67547035 C5.04789322 13.67584032 2.11295937 13.66323984 -0.82226562 13.64697266 C-1.69508682 13.64945007 -2.56790802 13.65192749 -3.46717834 13.65447998 C-9.49282076 13.60105894 -9.49282076 13.60105894 -12.8359375 11.37231445 C-13.45244235 5.82377076 -13.45244235 5.82377076 -12.8359375 3.37231445 C-9.24444887 -0.51368425 -4.92729642 -0.04485808 0 0 Z " fill="#000000" transform="translate(75.8359375,208.627685546875)"/>
<path d="M0 0 C5.04509856 0.14908818 7.66354358 2.44492656 11.3046875 5.7109375 C12.60192605 6.81383878 13.90148781 7.91401218 15.203125 9.01171875 C15.87053711 9.58100098 16.53794922 10.1502832 17.22558594 10.73681641 C21.3195104 14.13175471 25.6414061 17.23008448 29.9375 20.36230469 C39.94883476 27.75284433 39.94883476 27.75284433 40.9296875 32.4609375 C39.56281104 39.0219445 31.8779836 43.26471241 26.8046875 47.1484375 C25.19239786 48.38370946 23.58042084 49.61938955 21.96875 50.85546875 C21.17758789 51.46213379 20.38642578 52.06879883 19.57128906 52.69384766 C17.51982125 54.29321474 15.51130084 55.92957248 13.515625 57.59765625 C12.66194336 58.29725464 12.66194336 58.29725464 11.79101562 59.01098633 C10.2832372 60.2507914 8.78949788 61.50761493 7.296875 62.765625 C3.24008187 65.06412137 0.91930656 64.93963242 -3.6953125 64.4609375 C-5.8203125 62.3359375 -5.8203125 62.3359375 -6.6953125 59.4609375 C-5.62027234 53.86304979 -2.74377643 51.36415994 1.6796875 48.1484375 C2.60612061 47.44883911 2.60612061 47.44883911 3.55126953 46.73510742 C5.45991358 45.29764615 7.38191784 43.87942248 9.3046875 42.4609375 C10.50388036 41.55898594 11.70184761 40.65540199 12.8984375 39.75 C15.69043192 37.63996057 18.49387762 35.5458789 21.3046875 33.4609375 C20.01424943 29.58962329 18.3466283 28.77259899 15.0546875 26.3984375 C13.96848905 25.5993129 12.88256154 24.79981994 11.796875 24 C10.03453977 22.71494309 8.26879698 21.43516846 6.49707031 20.16308594 C4.71499415 18.87918325 2.94703136 17.57751398 1.1796875 16.2734375 C0.6237793 15.88212646 0.06787109 15.49081543 -0.50488281 15.08764648 C-4.23737224 12.31260662 -5.77938923 10.02198782 -6.6953125 5.4609375 C-5.38167698 1.14470651 -4.50805522 0.56231556 0 0 Z " fill="#000000" transform="translate(225.6953125,83.5390625)"/>
<path d="M0 0 C1.9375 1.125 1.9375 1.125 3 3 C3.52182546 8.28973756 3.52182546 8.28973756 1.59375 10.9140625 C0.9028125 11.47867188 0.211875 12.04328125 -0.5 12.625 C-1.30695313 13.29015625 -2.11390625 13.9553125 -2.9453125 14.640625 C-18.61290323 26.74193548 -18.61290323 26.74193548 -25 31 C-25 31.66 -25 32.32 -25 33 C-23.65030871 34.28347995 -23.65030871 34.28347995 -21.8515625 35.5390625 C-21.18012207 36.03349854 -20.50868164 36.52793457 -19.81689453 37.03735352 C-19.09356934 37.56127686 -18.37024414 38.0852002 -17.625 38.625 C-16.15543526 39.70853128 -14.68668498 40.79316804 -13.21875 41.87890625 C-12.49816406 42.41016113 -11.77757812 42.94141602 -11.03515625 43.48876953 C-8.36375004 45.47245528 -5.73637818 47.50027929 -3.125 49.5625 C-2.36445313 50.16191406 -1.60390625 50.76132813 -0.8203125 51.37890625 C1 53 1 53 3 56 C2.55555556 61.44444444 2.55555556 61.44444444 0 64 C-4.28436149 64.6022407 -7.03400014 64.30091251 -10.55078125 61.8671875 C-11.81810966 60.88690284 -13.07140362 59.88829122 -14.3125 58.875 C-14.98821045 58.34527588 -15.6639209 57.81555176 -16.36010742 57.26977539 C-17.81307915 56.12911385 -19.26059202 54.98147128 -20.703125 53.82763672 C-23.09591733 51.92367802 -25.51259894 50.05426617 -27.9375 48.19140625 C-34.23773785 43.34276418 -34.23773785 43.34276418 -37.33203125 40.93359375 C-37.96858643 40.43915771 -38.6051416 39.94472168 -39.26098633 39.43530273 C-43.91501967 35.59407544 -43.91501967 35.59407544 -44.421875 32.05078125 C-43.90873362 28.34000884 -43.11530531 27.51937081 -40.25 25.1875 C-39.0125 24.16849609 -39.0125 24.16849609 -37.75 23.12890625 C-33.93080821 20.17228761 -30.09306776 17.24729007 -26.20703125 14.37890625 C-22.18793111 11.39762491 -18.2301712 8.34097128 -14.27636719 5.27392578 C-9.21730161 1.36177157 -6.57725497 -0.58725491 0 0 Z " fill="#000000" transform="translate(152,84)"/>
<path d="M0 0 C2.8125 0.625 2.8125 0.625 5.8125 2.625 C6.80610756 5.94250201 7.09183238 7.88200606 5.86352539 11.14916992 C5.36328857 11.98037354 4.86305176 12.81157715 4.34765625 13.66796875 C3.78836426 14.6223584 3.22907227 15.57674805 2.65283203 16.56005859 C2.04552246 17.57148926 1.43821289 18.58291992 0.8125 19.625 C-0.40120183 21.76462551 -1.61070521 23.90663702 -2.81640625 26.05078125 C-4.12587597 28.34736674 -5.43666475 30.64312963 -6.75 32.9375 C-7.09388763 33.53851532 -7.43777527 34.13953064 -7.79208374 34.75875854 C-12.65733522 43.25670869 -17.54790096 51.73980164 -22.5 60.1875 C-23.29869507 61.55998901 -23.29869507 61.55998901 -24.11352539 62.96020508 C-24.85590454 64.21933716 -24.85590454 64.21933716 -25.61328125 65.50390625 C-26.04036377 66.2316626 -26.46744629 66.95941895 -26.9074707 67.70922852 C-28.19648989 69.63845483 -29.4010146 71.14364276 -31.1875 72.625 C-34.37399624 73.02331203 -36.3095528 73.23048083 -39 71.375 C-40.40994336 69.29718874 -40.91177561 68.13667688 -41.1875 65.625 C-40.10546875 62.76953125 -40.10546875 62.76953125 -38.375 59.4375 C-38.05660156 58.82293945 -37.73820313 58.20837891 -37.41015625 57.57519531 C-34.19750138 51.46563315 -30.68188051 45.53623698 -27.140625 39.61328125 C-24.85630211 35.78138536 -22.63138447 31.91847495 -20.421875 28.04296875 C-19.75718838 26.87921639 -19.0924747 25.71547949 -18.42773438 24.55175781 C-17.12700992 22.27398344 -15.83250943 19.99301873 -14.54101562 17.70996094 C-4.97071643 0.97465028 -4.97071643 0.97465028 0 0 Z " fill="#000000" transform="translate(204.1875,79.375)"/>
<path d="M0 0 C0.98790024 -0.01268417 1.97580048 -0.02536835 2.99363708 -0.03843689 C4.59212242 -0.03403343 4.59212242 -0.03403343 6.22290039 -0.02954102 C7.3189711 -0.03478287 8.41504181 -0.04002472 9.54432678 -0.04542542 C11.86352694 -0.05185208 14.18275967 -0.05050034 16.50195312 -0.04199219 C20.05340581 -0.03348833 23.60324758 -0.0622268 27.15454102 -0.09399414 C29.40649366 -0.09560633 31.65844915 -0.09502828 33.91040039 -0.09204102 C34.97403305 -0.10327499 36.03766571 -0.11450897 37.13352966 -0.12608337 C44.45635019 -0.05676815 44.45635019 -0.05676815 47.83447266 2.24365234 C49.13305664 4.40405273 49.13305664 4.40405273 49.13305664 7.46655273 C47.9744367 10.86999882 47.16061211 11.58984034 44.13305664 13.40405273 C41.85668945 13.78500366 41.85668945 13.78500366 39.33618164 13.79223633 C38.38839844 13.80169281 37.44061523 13.81114929 36.46411133 13.82089233 C35.44736328 13.81481964 34.43061523 13.80874695 33.38305664 13.80249023 C32.33279297 13.80536041 31.2825293 13.80823059 30.20043945 13.81118774 C27.98135844 13.81322795 25.76225943 13.80770119 23.54321289 13.79516602 C20.14566858 13.77911233 16.74931393 13.79501681 13.35180664 13.81420898 C11.19555401 13.81222655 9.03930213 13.80838286 6.88305664 13.80249023 C5.35793457 13.81159927 5.35793457 13.81159927 3.80200195 13.82089233 C2.85421875 13.81143585 1.90643555 13.80197937 0.92993164 13.79223633 C-0.31771973 13.78865616 -0.31771973 13.78865616 -1.59057617 13.78500366 C-4.43861473 13.30838331 -5.81392808 12.41779061 -7.86694336 10.40405273 C-8.61285209 4.43678287 -8.61285209 4.43678287 -6.64378357 1.71055603 C-4.31294967 -0.00329655 -2.87972717 0.01789396 0 0 Z " fill="#000000" transform="translate(70.866943359375,321.595947265625)"/>
</svg>
