<svg width="24" height="25" viewBox="0 0 24 25" fill="none" xmlns="http://www.w3.org/2000/svg">
<path fill-rule="evenodd" clip-rule="evenodd" d="M4.50049 6.32422C4.50049 5.49579 5.17206 4.82422 6.00049 4.82422H9.00049C9.82892 4.82422 10.5005 5.49579 10.5005 6.32422V7.32422H13.5005V6.32422C13.5005 5.49579 14.1721 4.82422 15.0005 4.82422H18.0005C18.8289 4.82422 19.5005 5.49579 19.5005 6.32422V9.32422C19.5005 10.1526 18.8289 10.8242 18.0005 10.8242H17.0005V13.8242H18.0005C18.8289 13.8242 19.5005 14.4958 19.5005 15.3242V18.3242C19.5005 19.1526 18.8289 19.8242 18.0005 19.8242H15.0005C14.1721 19.8242 13.5005 19.1526 13.5005 18.3242V17.3242H10.5005V18.3242C10.5005 19.1526 9.82892 19.8242 9.00049 19.8242H6.00049C5.17206 19.8242 4.50049 19.1526 4.50049 18.3242V15.3242C4.50049 14.4958 5.17206 13.8242 6.00049 13.8242H7.00049V10.8242H6.00049C5.17206 10.8242 4.50049 10.1526 4.50049 9.32422V6.32422ZM16.0005 10.8242H15.0005C14.1721 10.8242 13.5005 10.1526 13.5005 9.32422V8.32422H10.5005V9.32422C10.5005 10.1526 9.82892 10.8242 9.00049 10.8242H8.00049V13.8242H9.00049C9.82892 13.8242 10.5005 14.4958 10.5005 15.3242V16.3242H13.5005V15.3242C13.5005 14.4958 14.1721 13.8242 15.0005 13.8242H16.0005V10.8242ZM6.00049 5.82422C5.72435 5.82422 5.50049 6.04808 5.50049 6.32422V9.32422C5.50049 9.60036 5.72435 9.82422 6.00049 9.82422H9.00049C9.27663 9.82422 9.50049 9.60036 9.50049 9.32422V6.32422C9.50049 6.04808 9.27663 5.82422 9.00049 5.82422H6.00049ZM5.50049 15.3242C5.50049 15.0481 5.72435 14.8242 6.00049 14.8242H9.00049C9.27663 14.8242 9.50049 15.0481 9.50049 15.3242V18.3242C9.50049 18.6003 9.27663 18.8242 9.00049 18.8242H6.00049C5.72435 18.8242 5.50049 18.6003 5.50049 18.3242V15.3242ZM14.5005 15.3242C14.5005 15.0481 14.7244 14.8242 15.0005 14.8242H18.0005C18.2766 14.8242 18.5005 15.0481 18.5005 15.3242V18.3242C18.5005 18.6003 18.2766 18.8242 18.0005 18.8242H15.0005C14.7244 18.8242 14.5005 18.6003 14.5005 18.3242V15.3242ZM14.5005 6.32422C14.5005 6.04808 14.7244 5.82422 15.0005 5.82422H18.0005C18.2766 5.82422 18.5005 6.04808 18.5005 6.32422V9.32422C18.5005 9.60036 18.2766 9.82422 18.0005 9.82422H15.0005C14.7244 9.82422 14.5005 9.60036 14.5005 9.32422V6.32422Z" fill="#5D2EDE"/>
</svg>
