<?xml version="1.0" encoding="UTF-8"?>
<svg version="1.1" xmlns="http://www.w3.org/2000/svg" width="512" height="512">
<path d="M0 0 C2.93460956 0.52672479 3.658994 1.07845282 5.4375 3.4375 C5.81781673 5.94228745 5.81781673 5.94228745 5.82518005 8.99017334 C5.840037 10.72291504 5.840037 10.72291504 5.85519409 12.49066162 C5.85069244 13.7592804 5.8461908 15.02789917 5.84155273 16.33496094 C5.84725471 17.6836402 5.8542183 19.03231464 5.86235046 20.38098145 C5.88032207 24.0465155 5.87910538 27.71181068 5.87340808 31.3773756 C5.87032019 34.43880829 5.87640462 37.50019482 5.88244683 40.56162095 C5.89650525 47.78753883 5.89492151 55.01333853 5.88354492 62.23925781 C5.87207817 69.68685336 5.88611181 77.13408821 5.9129414 84.58163619 C5.93512333 90.97923113 5.94172971 97.37671307 5.93586498 103.77434373 C5.93249821 107.59366627 5.93489088 111.41275792 5.95211601 115.23204803 C5.96762169 118.82729197 5.96359017 122.42200398 5.94481087 126.01722717 C5.93938655 127.95890131 5.95361396 129.90059952 5.96850586 131.84222412 C5.91163288 138.58800645 5.57713082 143.00413873 1.4375 148.4375 C-5.00411833 154.0147713 -12.97937493 152.98262443 -21.05078125 152.8984375 C-22.56056053 152.89605055 -24.07034282 152.89514829 -25.5801239 152.8956604 C-28.73142302 152.89254389 -31.88226345 152.87606005 -35.03344727 152.84912109 C-39.07663069 152.81499623 -43.11931469 152.80749725 -47.16262531 152.80901146 C-50.27411177 152.80846857 -53.38548863 152.79751685 -56.49693871 152.78300858 C-57.9885087 152.77663921 -59.4800911 152.77270135 -60.97167397 152.77122116 C-63.04944841 152.76689773 -65.12668612 152.74942287 -67.2043457 152.72802734 C-68.38680374 152.72040375 -69.56926178 152.71278015 -70.78755188 152.70492554 C-73.5625 152.4375 -73.5625 152.4375 -75.5625 150.4375 C-75.9375 147 -75.9375 147 -75.5625 143.4375 C-73.32019263 141.11010531 -71.91109395 140.48517887 -68.69648743 140.04550171 C-67.58919785 140.03741486 -66.48190826 140.029328 -65.34106445 140.02099609 C-64.0832869 140.00442963 -62.82550934 139.98786316 -61.52961731 139.97079468 C-60.16167237 139.9673421 -58.79372698 139.96406041 -57.42578125 139.9609375 C-56.02140301 139.94662542 -54.61703882 139.93086803 -53.21269226 139.91372681 C-49.52239768 139.8719139 -45.83219023 139.84688739 -42.14172363 139.82623291 C-36.22403262 139.79038067 -30.3065561 139.72956192 -24.38908958 139.66774368 C-22.31890801 139.64860508 -20.248784 139.63691181 -18.17854309 139.62631226 C-16.93022202 139.61605011 -15.68190094 139.60578796 -14.39575195 139.59521484 C-13.29084915 139.58871918 -12.18594635 139.58222351 -11.04756165 139.57553101 C-8.62047924 139.71774698 -8.62047924 139.71774698 -7.5625 138.4375 C-7.2325 132.4975 -6.9025 126.5575 -6.5625 120.4375 C-100.2825 120.4375 -194.0025 120.4375 -290.5625 120.4375 C-290.5625 126.7075 -290.5625 132.9775 -290.5625 139.4375 C-286.83952385 139.44629936 -286.83952385 139.44629936 -283.04133606 139.45527649 C-259.68830263 139.51188937 -236.33536219 139.58494122 -212.98242664 139.67321491 C-200.97551665 139.71820385 -188.96863653 139.75761138 -176.96166992 139.78393555 C-166.49789046 139.80689052 -156.03420528 139.84026053 -145.57050055 139.88620156 C-140.02869905 139.91016749 -134.4869911 139.92887419 -128.94513893 139.93511391 C-123.73062516 139.94114949 -118.51635088 139.9610941 -113.30192566 139.99177551 C-111.38671212 140.00058024 -109.47146732 140.0042733 -107.55623436 140.00250816 C-104.94340535 140.0008602 -102.33131059 140.01751371 -99.71858215 140.03877258 C-98.5789804 140.03150122 -98.5789804 140.03150122 -97.41635638 140.02408296 C-92.99620124 140.08352877 -90.01927842 140.59447073 -86.5625 143.4375 C-86.04542051 146.53997696 -85.90244889 148.4258951 -87.65161133 151.10668945 C-90.58461301 153.1493357 -93.1033217 152.77373484 -96.63671875 152.73046875 C-97.3205513 152.72622391 -98.00438385 152.72197906 -98.7089386 152.71760559 C-100.88969561 152.70083353 -103.06952309 152.66318657 -105.25 152.625 C-106.72980435 152.60995114 -108.2096232 152.59626308 -109.68945312 152.58398438 C-113.31410336 152.55093569 -116.93821094 152.49916446 -120.5625 152.4375 C-120.44132813 153.03288574 -120.32015625 153.62827148 -120.1953125 154.24169922 C-119.64904036 156.93156424 -119.10573471 159.62201998 -118.5625 162.3125 C-118.37171875 163.24964844 -118.1809375 164.18679688 -117.984375 165.15234375 C-117.80390625 166.04824219 -117.6234375 166.94414062 -117.4375 167.8671875 C-117.26992188 168.69460449 -117.10234375 169.52202148 -116.9296875 170.37451172 C-116.5625 172.4375 -116.5625 172.4375 -116.5625 174.4375 C-115.98282471 174.41655273 -115.40314941 174.39560547 -114.8059082 174.37402344 C-112.16245076 174.29053193 -109.5192712 174.23873847 -106.875 174.1875 C-105.96298828 174.15398437 -105.05097656 174.12046875 -104.11132812 174.0859375 C-99.78641922 174.02302973 -97.26757489 174.01928068 -93.48046875 176.265625 C-89.68855705 180.55952094 -90.34504293 185.39410198 -90.3125 190.8125 C-90.291875 191.66328125 -90.27125 192.5140625 -90.25 193.390625 C-90.21989163 198.2230182 -90.35331998 201.55349241 -93.5625 205.4375 C-96.66171415 207.50364276 -97.32825222 207.68940021 -100.83786011 207.70492554 C-102.14581543 207.71772049 -102.14581543 207.71772049 -103.48019409 207.73077393 C-104.91094772 207.72941437 -104.91094772 207.72941437 -106.37060547 207.72802734 C-107.8807724 207.73810318 -107.8807724 207.73810318 -109.42144775 207.74838257 C-112.75757755 207.76741771 -116.09350675 207.77128958 -119.4296875 207.7734375 C-121.74512821 207.77986165 -124.0605681 207.78658972 -126.37600708 207.79360962 C-131.23327517 207.80559624 -136.09047206 207.80928902 -140.94775391 207.80810547 C-147.17453436 207.80790222 -153.40085872 207.83520496 -159.62753105 207.86964989 C-164.41104228 207.89187791 -169.19444305 207.89594426 -173.97800064 207.89488602 C-176.27373959 207.89724813 -178.56948131 207.90610581 -180.86516953 207.92155075 C-184.07564047 207.94112704 -187.28511884 207.93540501 -190.49560547 207.92333984 C-191.92028641 207.94019836 -191.92028641 207.94019836 -193.37374878 207.95739746 C-197.59228568 207.91707293 -199.94895352 207.80619937 -203.62918091 205.59463501 C-207.45170179 201.32958966 -206.77999845 196.47400759 -206.8125 191.0625 C-206.833125 190.21171875 -206.85375 189.3609375 -206.875 188.484375 C-206.90510837 183.6519818 -206.77168002 180.32150759 -203.5625 176.4375 C-200.35843538 174.30145692 -199.56649253 174.19541092 -195.89453125 174.2421875 C-195.00185547 174.24863281 -194.10917969 174.25507813 -193.18945312 174.26171875 C-191.79629883 174.28685547 -191.79629883 174.28685547 -190.375 174.3125 C-189.43462891 174.32152344 -188.49425781 174.33054687 -187.52539062 174.33984375 C-185.20417032 174.36340944 -182.88346356 174.39630884 -180.5625 174.4375 C-180.35753906 173.18453125 -180.15257812 171.9315625 -179.94140625 170.640625 C-179.66935726 168.98956909 -179.39721707 167.33852821 -179.125 165.6875 C-178.99029297 164.8625 -178.85558594 164.0375 -178.71679688 163.1875 C-178.51860352 161.98867188 -178.51860352 161.98867188 -178.31640625 160.765625 C-178.19595947 160.0324707 -178.0755127 159.29931641 -177.95141602 158.54394531 C-177.57051484 156.48090995 -177.07995787 154.46988531 -176.5625 152.4375 C-177.14872666 152.44118717 -177.73495333 152.44487434 -178.33894444 152.44867325 C-192.61997647 152.53710902 -206.90098402 152.60325073 -221.18222904 152.64474869 C-228.08862724 152.66535157 -234.99484237 152.69342825 -241.90112305 152.73925781 C-248.5665838 152.78346813 -255.23181511 152.80664077 -261.89742851 152.81700897 C-264.43993561 152.82439744 -266.98243235 152.83882531 -269.52485847 152.86042023 C-273.08719462 152.8894736 -276.648746 152.89345502 -280.21118164 152.89160156 C-281.26134964 152.90598267 -282.31151764 152.92036377 -283.39350891 152.93518066 C-289.67433487 152.89984058 -293.45858477 152.18489414 -298.5625 148.4375 C-303.32563412 142.49385084 -303.13482985 136.89420931 -303.05859375 129.484375 C-303.06004898 128.34720032 -303.06150421 127.21002563 -303.06300354 126.03839111 C-303.06134894 123.64470852 -303.04983716 121.2510148 -303.02905273 118.85742188 C-302.99998608 115.18574191 -303.00847618 111.51549663 -303.02148438 107.84375 C-303.01525006 105.51561796 -303.00686153 103.18749048 -302.99609375 100.859375 C-302.99902939 99.75938171 -303.00196503 98.65938843 -303.00498962 97.52606201 C-302.99230545 96.50780334 -302.97962128 95.48954468 -302.96655273 94.44042969 C-302.96114975 93.54443054 -302.95574677 92.6484314 -302.95018005 91.72528076 C-302.48272355 88.96672256 -301.80241712 88.07428422 -299.5625 86.4375 C-296.5625 86 -296.5625 86 -293.5625 86.4375 C-290.5625 90.4375 -290.5625 90.4375 -290.5625 108.4375 C-196.8425 108.4375 -103.1225 108.4375 -6.5625 108.4375 C-6.5625 74.1175 -6.5625 39.7975 -6.5625 4.4375 C-2.5625 0.4375 -2.5625 0.4375 0 0 Z M-164.5625 152.4375 C-165.8825 159.6975 -167.2025 166.9575 -168.5625 174.4375 C-155.3625 174.4375 -142.1625 174.4375 -128.5625 174.4375 C-129.8825 167.1775 -131.2025 159.9175 -132.5625 152.4375 C-143.1225 152.4375 -153.6825 152.4375 -164.5625 152.4375 Z M-194.5625 186.4375 C-194.5625 189.4075 -194.5625 192.3775 -194.5625 195.4375 C-164.2025 195.4375 -133.8425 195.4375 -102.5625 195.4375 C-102.5625 192.4675 -102.5625 189.4975 -102.5625 186.4375 C-132.9225 186.4375 -163.2825 186.4375 -194.5625 186.4375 Z " fill="#000000" transform="translate(404.5625,226.5625)"/>
<path d="M0 0 C1.50312744 -0.00717545 1.50312744 -0.00717545 3.03662109 -0.01449585 C5.15138319 -0.01789228 7.26619798 -0.00870791 9.38085938 0.01220703 C12.61447421 0.03897537 15.8446179 0.01244957 19.078125 -0.01953125 C21.13542431 -0.01622711 23.19272147 -0.00982078 25.25 0 C26.21470215 -0.01012115 27.1794043 -0.02024231 28.17333984 -0.03067017 C32.67628437 0.04779844 34.96965752 0.20812969 38.74291992 2.83325195 C40.91875972 6.10590242 41.21313286 7.72688078 41.11328125 11.62109375 C41.09716797 12.73291016 41.08105469 13.84472656 41.06445312 14.99023438 C41.02255859 16.14072266 40.98066406 17.29121094 40.9375 18.4765625 C40.90366211 20.23129883 40.90366211 20.23129883 40.86914062 22.02148438 C40.81032091 24.90365019 40.72817141 27.78319931 40.625 30.6640625 C41.62015625 30.76847656 42.6153125 30.87289062 43.640625 30.98046875 C47.827779 31.58029016 51.48881449 32.97777557 55.375 34.6015625 C56.03371094 34.86646484 56.69242188 35.13136719 57.37109375 35.40429688 C60.35142152 36.62242273 62.93645191 37.8716971 65.625 39.6640625 C70.23273523 39.18337728 72.65978005 35.92517217 75.6875 32.7265625 C83.70017252 24.38206188 83.70017252 24.38206188 88.8125 24.1015625 C92.6190839 24.25940233 94.42974585 24.91552102 97.21484375 27.50390625 C97.90263916 28.13917236 98.59043457 28.77443848 99.29907227 29.42895508 C100.06662842 30.16654053 100.83418457 30.90412598 101.625 31.6640625 C102.50663818 32.50799561 103.38827637 33.35192871 104.29663086 34.22143555 C106.72104095 36.57029686 109.1264681 38.9348467 111.51806641 41.31689453 C113.01156647 42.80055275 114.51541864 44.27320501 116.01953125 45.74609375 C116.97982059 46.69986289 117.9394794 47.65426739 118.8984375 48.609375 C120.18886963 49.88578857 120.18886963 49.88578857 121.50537109 51.18798828 C124.33791426 54.49686328 125.59072125 57.12151894 125.6875 61.4765625 C123.82662895 67.05917566 119.59809198 70.83311437 115.34765625 74.77734375 C114.61417969 75.46183594 113.88070312 76.14632812 113.125 76.8515625 C112.4340625 77.46386719 111.743125 78.07617188 111.03125 78.70703125 C109.34844981 80.60801609 109.34844981 80.60801609 109.80859375 83.203125 C110.7982243 86.18622187 112.19626927 88.86871977 113.625 91.6640625 C113.625 92.3240625 113.625 92.9840625 113.625 93.6640625 C115.37973633 93.6326416 115.37973633 93.6326416 117.16992188 93.60058594 C121.5382854 93.52781394 125.90659605 93.48212828 130.27539062 93.44433594 C132.16089916 93.42430483 134.04634623 93.39707177 135.93164062 93.36230469 C138.65249862 93.31340978 141.37253056 93.29100868 144.09375 93.2734375 C144.92741089 93.25279236 145.76107178 93.23214722 146.61999512 93.21087646 C152.4166325 93.20868795 156.78806534 94.39365741 161.625 97.6640625 C167.62539856 104.12603018 166.84015585 109.60394544 166.875 118.1015625 C166.9059375 119.98198242 166.9059375 119.98198242 166.9375 121.90039062 C166.94265625 123.09986328 166.9478125 124.29933594 166.953125 125.53515625 C166.9624707 126.63786865 166.97181641 127.74058105 166.98144531 128.87670898 C166.625 131.6640625 166.625 131.6640625 165.29199219 133.51977539 C162.66097769 135.32580424 160.71755926 135.11506073 157.625 134.6640625 C154.68669182 131.66725681 154.2277685 129.36372856 154.11328125 125.2421875 C154.06010742 123.70498047 154.06010742 123.70498047 154.00585938 122.13671875 C153.98330078 121.07324219 153.96074219 120.00976562 153.9375 118.9140625 C153.90333984 117.83511719 153.86917969 116.75617188 153.83398438 115.64453125 C153.75159337 112.98447873 153.68241355 110.32475215 153.625 107.6640625 C151.21945395 106.46128948 149.7297861 106.53873904 147.04286194 106.53822136 C146.07172927 106.53561361 145.1005966 106.53300586 144.10003567 106.53031909 C142.48829511 106.53366518 142.48829511 106.53366518 140.84399414 106.53707886 C139.70846887 106.53551887 138.57294359 106.53395888 137.40300846 106.53235161 C133.57204479 106.52834122 129.74112027 106.53153143 125.91015625 106.53466797 C123.17422401 106.53386439 120.43829347 106.53157038 117.70236206 106.52935791 C111.02702282 106.52490202 104.35169481 106.52587588 97.67635512 106.52877055 C92.25307736 106.53102529 86.82980275 106.5313368 81.40652466 106.53024673 C80.63582266 106.5300935 79.86512066 106.52994027 79.07106405 106.52978239 C77.50559258 106.52946268 75.94012111 106.52913847 74.37464964 106.5288098 C59.68150434 106.52595554 44.98836526 106.52924119 30.29522097 106.53461017 C17.67695409 106.53907816 5.0586964 106.53830221 -7.55957031 106.53369141 C-22.1987158 106.5283447 -36.83785582 106.52623023 -51.47700214 106.52930367 C-53.03684298 106.52962223 -54.59668382 106.5299366 -56.15652466 106.53024673 C-56.92407591 106.53040101 -57.69162717 106.53055529 -58.48243755 106.53071424 C-63.90169432 106.5315791 -69.32094763 106.53011717 -74.74020386 106.52776718 C-81.34088219 106.52496791 -87.94154863 106.52571014 -94.5422256 106.53104793 C-97.91254205 106.53368322 -101.28282211 106.53415817 -104.65314102 106.53139877 C-108.30011221 106.52868712 -111.94702662 106.53206863 -115.59399414 106.53707886 C-117.2057347 106.53373277 -117.2057347 106.53373277 -118.85003567 106.53031909 C-120.30673467 106.53423072 -120.30673467 106.53423072 -121.79286194 106.53822136 C-122.63551637 106.53838371 -123.4781708 106.53854606 -124.34636021 106.53871334 C-126.44398007 106.53555209 -126.44398007 106.53555209 -128.375 107.6640625 C-128.37738835 108.25305454 -128.37977671 108.84204659 -128.38223743 109.44888687 C-128.44136857 123.77911438 -128.51690645 138.10918587 -128.61071491 152.43922806 C-128.65568421 159.36913788 -128.69509616 166.29899617 -128.72143555 173.22900391 C-128.74685933 179.91400819 -128.78775618 186.59875265 -128.83818626 193.28362274 C-128.85490048 195.83692329 -128.86638629 198.39026348 -128.87261391 200.94361115 C-128.88220528 204.5137597 -128.91020601 208.08331643 -128.94262695 211.65332031 C-128.94119186 212.71427414 -128.93975677 213.77522797 -128.9382782 214.86833191 C-128.95081635 215.84145828 -128.96335449 216.81458466 -128.97627258 217.81719971 C-128.98088155 218.66156208 -128.98549051 219.50592445 -128.99023914 220.37587357 C-129.46771356 223.21543395 -130.38669091 224.60180346 -132.375 226.6640625 C-135.50630555 227.12071123 -137.43263365 227.35926394 -140.03869057 225.43672657 C-141.78535305 223.11971395 -141.7521523 221.75088373 -141.75595093 218.86393738 C-141.7644104 217.87561417 -141.77286987 216.88729095 -141.78158569 215.86901855 C-141.775513 214.78584351 -141.76944031 213.70266846 -141.76318359 212.58666992 C-141.77106903 210.87408745 -141.77106903 210.87408745 -141.77911377 209.12690735 C-141.79235051 205.34097738 -141.7835606 201.55546574 -141.7734375 197.76953125 C-141.77545759 195.14260273 -141.77836848 192.51567476 -141.78213501 189.88874817 C-141.78759519 184.37655082 -141.78039657 178.86447398 -141.76611328 173.35229492 C-141.74981041 166.98739595 -141.75505679 160.62278563 -141.7715925 154.25789374 C-141.78687357 148.12988611 -141.78522117 142.00200598 -141.7764473 135.8739872 C-141.77444583 133.2692797 -141.77690265 130.66456485 -141.78388596 128.05986595 C-141.79150823 124.41625892 -141.77988318 120.77320458 -141.76318359 117.12963867 C-141.76925629 116.05253632 -141.77532898 114.97543396 -141.78158569 113.86569214 C-141.73510636 108.38901618 -141.52315857 104.36258017 -138.375 99.6640625 C-132.36995633 93.97507376 -127.05002898 93.37255238 -119.13671875 93.46875 C-117.81556816 93.47299484 -117.81556816 93.47299484 -116.46772766 93.47732544 C-113.66584455 93.48848417 -110.86428584 93.51358079 -108.0625 93.5390625 C-106.15820775 93.54909787 -104.25391048 93.55822275 -102.34960938 93.56640625 C-97.69128203 93.58840941 -93.03319594 93.62290956 -88.375 93.6640625 C-88.06949219 92.71789062 -87.76398438 91.77171875 -87.44921875 90.796875 C-86.375 87.6640625 -86.375 87.6640625 -85.1875 85.5390625 C-84.13082718 83.10058676 -84.50180034 82.14453168 -85.375 79.6640625 C-86.64996834 77.99553315 -86.64996834 77.99553315 -88.28125 76.5 C-89.14943359 75.65308594 -89.14943359 75.65308594 -90.03515625 74.7890625 C-90.64230469 74.2115625 -91.24945313 73.6340625 -91.875 73.0390625 C-93.07500441 71.88237035 -94.27301974 70.72361001 -95.46875 69.5625 C-96.00177734 69.05380371 -96.53480469 68.54510742 -97.08398438 68.02099609 C-99.23628452 65.75880165 -99.70691107 63.70350323 -100 60.6640625 C-99.83437216 54.48711824 -96.40840924 51.51891072 -92.14501953 47.39160156 C-89.9499083 45.24917301 -87.80277244 43.06226414 -85.65234375 40.875 C-82.28142304 37.4606686 -78.90614141 34.05113528 -75.5078125 30.6640625 C-74.78480957 29.9421875 -74.06180664 29.2203125 -73.31689453 28.4765625 C-69.47294101 24.88874368 -66.87704467 24.03628229 -61.7734375 24.16015625 C-56.336931 25.30235387 -52.8916986 30.01768335 -49.2734375 33.9453125 C-48.58507812 34.6775 -47.89671875 35.4096875 -47.1875 36.1640625 C-46.57519531 36.855 -45.96289062 37.5459375 -45.33203125 38.2578125 C-43.47236914 39.89376501 -43.47236914 39.89376501 -41.12890625 39.6015625 C-36.75223653 38.11163238 -32.61305009 36.15867398 -28.43359375 34.19140625 C-24.02151821 32.18286139 -20.20815365 31.11835371 -15.375 30.6640625 C-15.40118408 29.93292236 -15.42736816 29.20178223 -15.4543457 28.44848633 C-15.55850144 25.12473168 -15.62338621 21.80132056 -15.6875 18.4765625 C-15.72939453 17.32607422 -15.77128906 16.17558594 -15.81445312 14.99023438 C-15.83056641 13.87841797 -15.84667969 12.76660156 -15.86328125 11.62109375 C-15.88946533 10.59991455 -15.91564941 9.57873535 -15.94262695 8.52661133 C-14.21428917 -0.1894147 -7.35083372 -0.07712114 0 0 Z M-3.375 12.6640625 C-3.62437296 20.42706005 -3.62437296 20.42706005 -3.85302734 28.19067383 C-3.8886377 29.1577124 -3.92424805 30.12475098 -3.9609375 31.12109375 C-4.00806885 32.6057312 -4.00806885 32.6057312 -4.05615234 34.12036133 C-4.375 36.6640625 -4.375 36.6640625 -6.375 39.6640625 C-8.32348633 40.53613281 -8.32348633 40.53613281 -10.70703125 41.2421875 C-11.58222412 41.51281006 -12.45741699 41.78343262 -13.35913086 42.06225586 C-14.29249268 42.34335205 -15.22585449 42.62444824 -16.1875 42.9140625 C-23.96350427 45.35145563 -30.73565689 48.07780248 -37.68359375 52.37890625 C-41.12251542 54.02100382 -42.60850713 54.48407386 -46.375 53.6640625 C-49.47661625 51.2876788 -52.08736789 48.51447518 -54.75 45.6640625 C-55.85408203 44.519375 -55.85408203 44.519375 -56.98046875 43.3515625 C-58.79289848 41.46851863 -60.58986682 39.57294291 -62.375 37.6640625 C-66.04252005 39.2032426 -68.36080573 41.41891702 -71.140625 44.234375 C-72.03007812 45.13027344 -72.91953125 46.02617188 -73.8359375 46.94921875 C-75.21652344 48.35494141 -75.21652344 48.35494141 -76.625 49.7890625 C-77.56984856 50.74394887 -78.51515633 51.69838109 -79.4609375 52.65234375 C-81.77018338 54.98515337 -84.07463203 57.32250336 -86.375 59.6640625 C-82.92242418 63.77722084 -79.41584364 67.72825037 -75.5625 71.4765625 C-70.57505884 76.33033689 -70.57505884 76.33033689 -70 80.1640625 C-70.38551725 83.76222348 -71.25317349 85.70646685 -72.8984375 88.8828125 C-73.35911621 89.77935547 -73.81979492 90.67589844 -74.29443359 91.59960938 C-74.65102051 92.28087891 -75.00760742 92.96214844 -75.375 93.6640625 C-70.51887639 93.86281766 -65.6651499 94.00743571 -60.8059082 94.10351562 C-59.15574889 94.14358608 -57.50587078 94.19806298 -55.85668945 94.26757812 C-46.41692449 94.97538309 -46.41692449 94.97538309 -37.81713867 91.95532227 C-36.07921024 89.94306901 -34.7634295 87.92317902 -33.375 85.6640625 C-20.83956668 73.92987347 -3.28485015 68.71614267 13.48828125 68.43359375 C15.625 68.6640625 15.625 68.6640625 17.625 70.6640625 C17.9375 73.6640625 17.9375 73.6640625 17.625 76.6640625 C14.08250352 79.02572682 11.96086916 79.07823704 7.75 79.4765625 C-3.30890793 80.74856501 -13.70753568 84.49026315 -22.375 91.6640625 C-22.705 92.3240625 -23.035 92.9840625 -23.375 93.6640625 C0.385 93.6640625 24.145 93.6640625 48.625 93.6640625 C44.56113784 89.43766358 44.56113784 89.43766358 40.07421875 86.42578125 C39.45869141 86.08095703 38.84316406 85.73613281 38.20898438 85.38085938 C37.58314453 85.04119141 36.95730469 84.70152344 36.3125 84.3515625 C35.66732422 83.99255859 35.02214844 83.63355469 34.35742188 83.26367188 C32.78410645 82.38960775 31.20512535 81.52575467 29.625 80.6640625 C29.625 78.3540625 29.625 76.0440625 29.625 73.6640625 C32.43977782 72.25667359 34.4949787 72.44884994 37.625 72.6640625 C45.75945262 75.6609661 54.91065484 80.66362241 60.17480469 87.75048828 C63.22694421 91.71863717 65.43734984 93.4637998 70.45605469 94.31005859 C75.02006756 94.54995236 79.56291179 94.36331316 84.125 94.1640625 C85.72647339 94.12387984 87.32804386 94.08738745 88.9296875 94.0546875 C92.83054525 93.96706716 96.72669248 93.82935277 100.625 93.6640625 C100.2640625 93.01179688 99.903125 92.35953125 99.53125 91.6875 C94.40190227 82.02722844 94.40190227 82.02722844 95.625 77.6640625 C98.02268261 74.57758546 100.77331266 71.9528853 103.625 69.2890625 C104.7696875 68.18498047 104.7696875 68.18498047 105.9375 67.05859375 C107.82054387 65.24616402 109.71611959 63.44919568 111.625 61.6640625 C110.0858199 57.99654245 107.87014548 55.67825677 105.0546875 52.8984375 C104.15878906 52.00898438 103.26289063 51.11953125 102.33984375 50.203125 C101.40269531 49.28273437 100.46554687 48.36234375 99.5 47.4140625 C98.54511363 46.46921394 97.59068141 45.52390617 96.63671875 44.578125 C94.30390913 42.26887912 91.96655914 39.96443047 89.625 37.6640625 C85.51184166 41.11663832 81.56081213 44.62321886 77.8125 48.4765625 C72.89877123 53.52560911 72.89877123 53.52560911 68.9296875 53.95703125 C64.88237597 53.59822704 62.15424142 52.02083747 58.75 49.9765625 C52.05066037 46.15777846 45.3888823 43.75818457 37.98828125 41.671875 C34.625 40.6640625 34.625 40.6640625 30.625 38.6640625 C30.13 25.7940625 30.13 25.7940625 29.625 12.6640625 C18.735 12.6640625 7.845 12.6640625 -3.375 12.6640625 Z " fill="#000000" transform="translate(243.375,77.3359375)"/>
<path d="M0 0 C3 0.4375 3 0.4375 4.6484375 1.59179688 C6.55333128 4.19313303 6.47939402 6.20100265 6.625 9.40625 C6.68977539 10.60749512 6.75455078 11.80874023 6.82128906 13.04638672 C6.88026367 14.3304541 6.93923828 15.61452148 7 16.9375 C9.89917837 66.48433699 27.0560121 112.50763096 58 151.4375 C58.66418945 152.27740479 58.66418945 152.27740479 59.34179688 153.13427734 C70.41174425 167.00500464 83.00655012 179.67574373 97.31298828 190.19482422 C98.97101549 191.41614961 100.60876498 192.66127916 102.24609375 193.91015625 C127.88719729 213.16003942 157.62269122 225.68936753 188.75 232.75 C189.81355713 232.99258545 190.87711426 233.2351709 191.97290039 233.48510742 C207.88567716 236.92075159 223.34193792 237.72287493 239.5625 237.5625 C241.36392722 237.55243344 243.16536 237.54331419 244.96679688 237.53515625 C249.31133918 237.51347219 253.65560517 237.47915287 258 237.4375 C255.33497228 234.74004174 252.81278974 232.21063196 249.6875 230.0625 C247 227.4375 247 227.4375 246.375 223.8125 C247 220.4375 247 220.4375 248.6875 218.4375 C251.72819226 217.12260605 252.8395728 217.43900114 256 218.4375 C258.32087219 220.04205361 260.45791332 221.64853651 262.625 223.4375 C263.23239014 223.92718262 263.83978027 224.41686523 264.46557617 224.92138672 C266.31765035 226.41806615 268.15923274 227.92694861 270 229.4375 C271.1075358 230.33659953 272.21558041 231.2350728 273.32421875 232.1328125 C281.96029718 239.15456516 281.96029718 239.15456516 282.37109375 242.08203125 C281.88551372 246.47269704 279.83255967 248.87501564 277.0625 252.125 C276.56685547 252.72860352 276.07121094 253.33220703 275.56054688 253.95410156 C274.54378488 255.19022898 273.52113986 256.42154081 272.49267578 257.64794922 C271.09588651 259.32254283 269.72814742 261.01579818 268.37109375 262.72265625 C262.43109125 270.15010583 262.43109125 270.15010583 259 272.4375 C255.67759676 272.1133631 254.39223697 271.82973697 252 269.4375 C251.40929459 265.12851501 251.68563053 262.41218345 254.1875 258.91015625 C255.10795286 257.75959017 256.04598862 256.62289717 257 255.5 C257.47695313 254.91154297 257.95390625 254.32308594 258.4453125 253.71679688 C259.61510473 252.27795243 260.80553415 250.8559282 262 249.4375 C261.41757034 249.59917664 260.83514069 249.76085327 260.23506165 249.9274292 C256.74621172 250.72363117 253.22953392 250.62056321 249.66796875 250.640625 C248.43807472 250.65121445 248.43807472 250.65121445 247.18333435 250.66201782 C229.61602535 250.77859554 212.30128374 250.86511282 195 247.4375 C193.97874023 247.23882324 192.95748047 247.04014648 191.90527344 246.83544922 C154.21068809 239.29088079 117.87622303 223.93355735 88 199.4375 C86.66001953 198.38369141 86.66001953 198.38369141 85.29296875 197.30859375 C34.57080181 156.98335708 2.54858873 96.60372113 -4.8125 32.4375 C-7.47570045 7.03507798 -7.47570045 7.03507798 -4.6640625 2.0859375 C-3 0.4375 -3 0.4375 0 0 Z " fill="#000000" transform="translate(17,239.5625)"/>
<path d="M0 0 C1.44566345 0.00081573 1.44566345 0.00081573 2.92053223 0.00164795 C18.81036065 0.04272137 34.04482204 1.02162509 49.625 4.375 C50.64352051 4.58930664 51.66204102 4.80361328 52.71142578 5.02441406 C75.81171969 10.01573406 106.35183815 17.72439905 124.625 33.375 C125.61368455 36.12919266 125.75863583 37.77363874 125.125 40.625 C123.625 42.375 123.625 42.375 120.62109375 43.2890625 C115.07890642 43.40824932 111.87975368 41.24715136 107.1875 38.5 C88.74593627 28.31548717 69.10427689 22.05168186 48.625 17.375 C47.90441406 17.20774414 47.18382812 17.04048828 46.44140625 16.86816406 C-9.19322088 4.26090207 -71.74325431 15.98172311 -119.97167969 45.99072266 C-130.23599527 52.53902666 -140.24680328 59.29531236 -149.375 67.375 C-150.5196875 68.35726562 -150.5196875 68.35726562 -151.6875 69.359375 C-165.50559402 81.45020726 -177.72361445 94.4225799 -188.375 109.375 C-188.81505371 109.98102051 -189.25510742 110.58704102 -189.70849609 111.21142578 C-203.27324989 128.80028824 -203.27324989 128.80028824 -210.375 148.375 C-209.56675781 148.1584375 -208.75851563 147.941875 -207.92578125 147.71875 C-206.32283203 147.30109375 -206.32283203 147.30109375 -204.6875 146.875 C-203.10388672 146.45734375 -203.10388672 146.45734375 -201.48828125 146.03125 C-194.64256166 144.58823759 -194.64256166 144.58823759 -191.5625 146.5 C-189.82301218 149.24655972 -189.97730872 151.19346974 -190.375 154.375 C-192.73946216 157.60017643 -195.52131102 158.21584171 -199.29296875 159.19921875 C-201.05157227 159.65844727 -201.05157227 159.65844727 -202.84570312 160.12695312 C-204.07224609 160.43568359 -205.29878906 160.74441406 -206.5625 161.0625 C-207.76970703 161.38283203 -208.97691406 161.70316406 -210.22070312 162.03320312 C-222.50206462 165.18244235 -222.50206462 165.18244235 -228.375 164.375 C-232.93066053 159.69005627 -233.61377875 152.69134174 -235.125 146.5625 C-235.45371094 145.30373047 -235.78242188 144.04496094 -236.12109375 142.74804688 C-236.42660156 141.52537109 -236.73210937 140.30269531 -237.046875 139.04296875 C-237.3262793 137.93203857 -237.60568359 136.8211084 -237.89355469 135.67651367 C-238.43899204 131.93617425 -238.25699355 129.04745794 -237.375 125.375 C-234.375 123.375 -234.375 123.375 -231.375 123.375 C-228.375 124.375 -228.375 124.375 -226.625 126.9375 C-224.74464722 132.10847014 -223.375 136.81291694 -223.375 142.375 C-222.715 142.375 -222.055 142.375 -221.375 142.375 C-221.1378125 141.56933594 -220.900625 140.76367188 -220.65625 139.93359375 C-208.88163439 107.23031686 -181.44561028 75.46808974 -154.375 54.375 C-153.1195289 53.36751485 -151.864339 52.35967923 -150.609375 51.3515625 C-107.68234628 17.25807856 -54.55258903 -0.11644975 0 0 Z " fill="#000000" transform="translate(255.375,0.625)"/>
<path d="M0 0 C6.03432879 0.34197779 11.64133118 1.98608458 17.46557617 3.52661133 C18.68825195 3.8353418 19.91092773 4.14407227 21.1706543 4.4621582 C22.3443457 4.76831055 23.51803711 5.07446289 24.72729492 5.38989258 C25.79294678 5.66744385 26.85859863 5.94499512 27.95654297 6.23095703 C30.78274492 7.21573814 32.61763164 8.15281377 34.77807617 10.21411133 C35.23751694 13.3645623 35.45500146 15.27930974 33.54760742 17.91333008 C31.16397171 19.66553911 29.9270425 19.40923887 27.02807617 19.02661133 C26.20823242 18.92993164 25.38838867 18.83325195 24.54370117 18.73364258 C21.21631056 18.10858191 18.01987203 17.18425467 14.77807617 16.21411133 C15.43291992 17.17446289 16.08776367 18.13481445 16.76245117 19.12426758 C53.61674565 74.08805874 67.78095343 139.91944849 55.65307617 205.15161133 C51.89702424 224.15972765 46.25194568 242.77188716 37.77807617 260.21411133 C37.4202002 260.97320801 37.06232422 261.73230469 36.69360352 262.5144043 C24.77838407 287.77184577 9.24355218 310.18694497 -10.22192383 330.21411133 C-10.71934082 330.73199219 -11.21675781 331.24987305 -11.72924805 331.78344727 C-18.48849625 338.80542243 -25.47913983 345.2667555 -33.22192383 351.21411133 C-33.78250488 351.64578613 -34.34308594 352.07746094 -34.9206543 352.5222168 C-41.81708183 357.79992295 -48.87686457 362.82784211 -56.22192383 367.46411133 C-56.82037109 367.85920898 -57.41881836 368.25430664 -58.03540039 368.66137695 C-61.33149025 370.67473391 -63.19613539 371.2150472 -67.09692383 371.07348633 C-68.12817383 370.78989258 -69.15942383 370.50629883 -70.22192383 370.21411133 C-71.65927629 367.3394064 -71.60365032 365.39516544 -71.22192383 362.21411133 C-68.18332392 359.46922494 -64.90441291 357.32761654 -61.40942383 355.21411133 C-39.76489176 341.56991034 -19.98623625 324.37451087 -4.22192383 304.21411133 C-3.44461914 303.26536133 -2.66731445 302.31661133 -1.86645508 301.33911133 C9.37182274 287.33146457 18.28204155 271.5028972 25.77807617 255.21411133 C26.10759277 254.50528809 26.43710937 253.79646484 26.77661133 253.06616211 C51.51045364 199.21002435 53.74023246 135.51372982 33.79980469 79.76611328 C22.5975699 47.51290188 22.5975699 47.51290188 1.77807617 22.21411133 C1.67495117 23.34848633 1.57182617 24.48286133 1.46557617 25.65161133 C0.87089296 30.28518465 0.00490726 35.06997008 -2.22192383 39.21411133 C-4.73637544 40.85837043 -5.81757372 41.24299348 -8.84692383 41.02661133 C-11.22192383 40.21411133 -11.22192383 40.21411133 -13.22192383 37.21411133 C-12.89999102 29.47987181 -10.82096454 22.2135105 -8.78442383 14.77661133 C-8.47182617 13.59389648 -8.15922852 12.41118164 -7.8371582 11.19262695 C-7.53229492 10.06663086 -7.22743164 8.94063477 -6.91333008 7.78051758 C-6.63690674 6.75901611 -6.3604834 5.73751465 -6.07568359 4.68505859 C-4.78013885 0.93549943 -3.99946854 0.26578267 0 0 Z " fill="#000000" transform="translate(441.221923828125,86.785888671875)"/>
<path d="M0 0 C2 3 2 3 2.5625 5.3125 C1.17288962 11.95174961 -8.08541613 16.16926152 -13.4924469 19.70808411 C-15.409626 20.95434396 -17.3297417 22.19599126 -19.25 23.4375 C-20.52242762 24.26582734 -21.79456502 25.0946007 -23.06640625 25.92382812 C-32.75806723 32.23179231 -32.75806723 32.23179231 -37.37304688 35.08642578 C-38.37916016 35.70888184 -39.38527344 36.33133789 -40.421875 36.97265625 C-41.3097168 37.512854 -42.19755859 38.05305176 -43.11230469 38.60961914 C-43.73524414 39.06844482 -44.35818359 39.52727051 -45 40 C-45 40.66 -45 41.32 -45 42 C-43.2820918 43.4201803 -43.2820918 43.4201803 -41.00854492 44.84155273 C-40.13731491 45.4123204 -39.2660849 45.98308807 -38.36845398 46.57115173 C-37.41541885 47.1857576 -36.46238373 47.80036346 -35.48046875 48.43359375 C-34.51095779 49.06733414 -33.54144684 49.70107452 -32.54255676 50.35401917 C-29.42845742 52.38845725 -26.30841865 54.41354146 -23.1875 56.4375 C-20.07805456 58.45901162 -16.9699571 60.48251575 -13.86457825 62.51026917 C-11.92839741 63.77406208 -9.9897337 65.03406081 -8.04838562 66.28990173 C-6.72735588 67.15078148 -6.72735588 67.15078148 -5.37963867 68.02905273 C-4.60464523 68.53154037 -3.82965179 69.03402802 -3.03117371 69.55174255 C-1.10829961 70.92278075 0.48702164 72.18747192 2 74 C2.4375 77 2.4375 77 2 80 C0.375 81.9375 0.375 81.9375 -2 83 C-6.72616125 82.62732631 -9.65931407 81.25251544 -13.54296875 78.59765625 C-15.13540405 77.52161133 -15.13540405 77.52161133 -16.76000977 76.42382812 C-17.90262145 75.63688561 -19.0451154 74.84977213 -20.1875 74.0625 C-21.37158986 73.25739683 -22.55641675 72.45337666 -23.74194336 71.65039062 C-26.22294527 69.96897841 -28.70065728 68.28285831 -31.17675781 66.59423828 C-35.00259444 63.99117385 -38.85318141 61.42654119 -42.7109375 58.87109375 C-43.33158585 58.45964615 -43.95223419 58.04819855 -44.59169006 57.62428284 C-47.01056162 56.02112383 -49.42976821 54.41847638 -51.85018921 52.81765747 C-53.51747959 51.71398617 -55.18261983 50.60706877 -56.84765625 49.5 C-57.79648682 48.8709375 -58.74531738 48.241875 -59.72290039 47.59375 C-62.55109686 45.61428538 -63.81926047 44.70652725 -64.6875 41.3125 C-63.73782279 36.73678255 -61.66671288 35.58132753 -57.9453125 32.9296875 C-54.15485224 30.4462825 -50.3111225 28.05575342 -46.44262695 25.6965332 C-36.90377121 19.81505134 -27.7143104 13.38684362 -18.47607422 7.04833984 C-17.15462316 6.1455067 -15.83317136 5.24267462 -14.51171875 4.33984375 C-13.89984207 3.91735855 -13.28796539 3.49487335 -12.657547 3.05958557 C-8.14500529 -0.01914122 -5.39154501 -1.65893693 0 0 Z " fill="#000000" transform="translate(213,223)"/>
<path d="M0 0 C4.5928852 1.32272683 8.02316299 3.70926212 11.93920898 6.39819336 C12.76078995 6.95015884 13.58237091 7.50212433 14.42884827 8.07081604 C17.05487178 9.83823355 19.67094144 11.61977677 22.28686523 13.40209961 C24.01082514 14.56647324 25.73542902 15.72989401 27.46069336 16.89233398 C30.83166777 19.16476435 34.19729725 21.44481469 37.55981445 23.72973633 C40.64937224 25.82478557 43.7530098 27.89470567 46.87719727 29.93774414 C47.57301407 30.39423843 48.26883087 30.85073273 48.98573303 31.32106018 C50.27435683 32.16419236 51.56603192 33.00268724 52.86131287 33.83555603 C55.73376852 35.71846931 57.41273053 37.05964756 59.34936523 39.96459961 C59.68188477 42.46264648 59.68188477 42.46264648 59.34936523 44.96459961 C58.04418945 46.54467773 58.04418945 46.54467773 56.02905273 47.99584961 C54.79300293 48.88916992 54.79300293 48.88916992 53.53198242 49.80053711 C46.22929752 54.76609395 38.867896 59.6355107 31.47436523 64.46459961 C29.77753236 65.57754811 28.08091617 66.69082706 26.38452148 67.80444336 C23.14608229 69.92975547 19.9011297 72.04452723 16.65112305 74.15209961 C14.04493066 75.84485026 11.46460538 77.56315967 8.91479492 79.33959961 C7.48635254 80.31413086 7.48635254 80.31413086 6.02905273 81.30834961 C5.25029785 81.8568457 4.47154297 82.4053418 3.66918945 82.97045898 C0.53030538 84.31560064 -1.40627365 83.87062702 -4.65063477 82.96459961 C-6.65063477 80.96459961 -6.65063477 80.96459961 -7.33813477 78.27709961 C-6.00627815 71.85997229 1.62780114 68.39357243 6.859375 64.90673828 C8.41749454 63.89505935 9.97803503 62.88710085 11.54077148 61.88256836 C13.24334737 60.7753032 14.94581847 59.66787689 16.64819336 58.56030273 C19.29997287 56.84170803 21.95320457 55.12542461 24.60839844 53.41210938 C27.19394565 51.74155348 29.77388974 50.06262247 32.35327148 48.38256836 C33.15624161 47.86800583 33.95921173 47.3534433 34.78651428 46.82328796 C35.51825363 46.34551407 36.24999298 45.86774017 37.00390625 45.37548828 C37.65182632 44.95692062 38.2997464 44.53835297 38.96730042 44.10710144 C39.42338181 43.73007584 39.8794632 43.35305023 40.34936523 42.96459961 C40.34936523 42.30459961 40.34936523 41.64459961 40.34936523 40.96459961 C38.26639256 39.36442058 38.26639256 39.36442058 35.54858398 37.72631836 C34.51685059 37.07687256 33.48511719 36.42742676 32.42211914 35.75830078 C30.74641846 34.7157312 30.74641846 34.7157312 29.03686523 33.65209961 C26.74356101 32.20881385 24.45432158 30.75915932 22.16577148 29.30834961 C21.58986267 28.94384201 21.01395386 28.57933441 20.42059326 28.20378113 C15.03615805 24.78641439 9.73723569 21.25317538 4.47436523 17.65209961 C3.69150146 17.1199585 2.9086377 16.58781738 2.10205078 16.03955078 C1.02177612 15.29668823 1.02177612 15.29668823 -0.08032227 14.53881836 C-1.01207275 13.89819458 -1.01207275 13.89819458 -1.96264648 13.24462891 C-3.73017628 11.90428197 -5.24877578 10.6898193 -6.65063477 8.96459961 C-6.52563477 5.40209961 -6.52563477 5.40209961 -5.65063477 1.96459961 C-2.65063477 -0.03540039 -2.65063477 -0.03540039 0 0 Z " fill="#000000" transform="translate(303.650634765625,222.035400390625)"/>
<path d="M0 0 C2 2 2 2 2.453125 4.49609375 C1.7818601 9.68682316 -0.67150407 13.56306606 -3.25 18.0625 C-4.06319702 19.51571655 -4.06319702 19.51571655 -4.89282227 20.99829102 C-6.58149695 24.00686058 -8.28844086 27.0044004 -10 30 C-11.00403843 31.76815411 -12.00795017 33.53638018 -13.01171875 35.3046875 C-14.96793238 38.74199241 -16.93415644 42.17334694 -18.90625 45.6015625 C-21.11204231 49.44038017 -23.29661081 53.29047695 -25.46875 57.1484375 C-26.04761963 58.17654541 -26.62648926 59.20465332 -27.22290039 60.26391602 C-28.33291806 62.23754418 -29.4415693 64.21194174 -30.54858398 66.18725586 C-32.01882361 68.79959197 -33.50274376 71.40306403 -35 74 C-35.68364624 75.18855591 -35.68364624 75.18855591 -36.38110352 76.40112305 C-36.81221436 77.12468994 -37.2433252 77.84825684 -37.6875 78.59375 C-38.06132812 79.22603516 -38.43515625 79.85832031 -38.8203125 80.50976562 C-40 82 -40 82 -43.0625 83.1875 C-46 83 -46 83 -48.375 81.9375 C-50.6711722 79.19975622 -50.29580761 77.51191728 -50 74 C-48.87695312 71.28466797 -48.87695312 71.28466797 -47.28125 68.4921875 C-46.38937988 66.90954102 -46.38937988 66.90954102 -45.47949219 65.29492188 C-44.82625977 64.16634766 -44.17302734 63.03777344 -43.5 61.875 C-42.82083026 60.68096915 -42.14279051 59.48629491 -41.46582031 58.29101562 C-39.6837509 55.15153616 -37.88652139 52.02099597 -36.08618164 48.89196777 C-34.32351869 45.8216696 -32.57634327 42.74260043 -30.828125 39.6640625 C-27.51548258 33.83514789 -24.1786188 28.02052465 -20.83642578 22.20849609 C-19.09380965 19.16389875 -17.36990826 16.10956386 -15.65234375 13.05078125 C-15.14670898 12.15746094 -14.64107422 11.26414063 -14.12011719 10.34375 C-13.193095 8.70582123 -12.2727112 7.0641099 -11.36035156 5.41796875 C-8.19453599 -0.14052627 -6.31237982 -1.78041482 0 0 Z " fill="#000000" transform="translate(280,223)"/>
</svg>
