<?xml version="1.0" encoding="UTF-8"?>
<svg version="1.1" xmlns="http://www.w3.org/2000/svg" width="512" height="512">
<path d="M0 0 C1.34158408 1.13616194 2.67544778 2.28152715 4 3.4375 C4.64839844 3.9325 5.29679688 4.4275 5.96484375 4.9375 C22.24927418 17.83605875 31.15723267 39.26353448 33.75 59.375 C34.39261295 67.46886315 33.8438585 75.37563752 33 83.4375 C33.58265625 83.40269531 34.1653125 83.36789063 34.765625 83.33203125 C48.44133168 82.8804749 60.7752915 87.24239205 70.8125 96.625 C80.24169566 106.67831058 84.53658039 118.69016894 84.41967773 132.3293457 C84.00575497 143.63036886 80.20963057 152.78594332 73 161.4375 C72.42636719 162.14648438 71.85273438 162.85546875 71.26171875 163.5859375 C62.33959705 173.55884441 50.88885665 177.03311225 38 178.4375 C32.43917427 178.70563584 26.89060589 178.71200841 21.32446289 178.69628906 C19.69010768 178.69900581 18.05575369 178.70257055 16.42140198 178.70690918 C12.02051463 178.71595491 7.61972202 178.7125213 3.21883321 178.70615101 C-1.41104413 178.70104935 -6.04091393 178.70579403 -10.67079163 178.70892334 C-18.44354695 178.71255129 -26.21626415 178.70779511 -33.98901367 178.69824219 C-42.94300837 178.68736375 -51.89691192 178.69088353 -60.85090441 178.701895 C-68.57192379 178.71100595 -76.29291593 178.7122345 -84.01393896 178.70701766 C-88.610712 178.70391832 -93.20744237 178.70343199 -97.80421257 178.71009064 C-102.12913918 178.71591903 -106.45394968 178.71176803 -110.77886391 178.70030212 C-112.35491113 178.69768448 -113.93096832 178.69837026 -115.50701141 178.70282745 C-136.03218184 178.75546922 -152.04846277 176.1555575 -167.625 162.0625 C-168.40875 161.19625 -169.1925 160.33 -170 159.4375 C-170.55429688 158.82648438 -171.10859375 158.21546875 -171.6796875 157.5859375 C-182.74415683 144.52701447 -184.3453865 128.86267823 -183 112.4375 C-181.36958126 102.32238216 -176.57908237 94.12584626 -170 86.4375 C-169.47921875 85.79425781 -168.9584375 85.15101562 -168.421875 84.48828125 C-160.98591763 76.13221805 -148.97589497 70.08388424 -138 68.4375 C-136.0003559 68.39977087 -133.99945939 68.39100094 -132 68.4375 C-132.04640625 67.69628906 -132.0928125 66.95507812 -132.140625 66.19140625 C-132.81254073 46.58586498 -125.89896623 28.17917569 -113 13.4375 C-112.48179688 12.7775 -111.96359375 12.1175 -111.4296875 11.4375 C-84.92661803 -21.33924293 -32.75857289 -24.94820989 0 0 Z M-94 25.4375 C-106.72724382 40.64528133 -110.63117011 56.21153618 -109.79492188 75.69726562 C-109.59378789 83.74753058 -109.59378789 83.74753058 -111.87890625 87.62890625 C-115.28591643 90.53396281 -117.28326858 90.49126737 -121.71313477 90.37158203 C-134.52491984 90.0405847 -143.18440923 92.05610872 -152.6875 101.03125 C-158.61046796 107.30959604 -161.19710704 114.35553288 -161.5 122.9375 C-161.07058647 134.72559403 -155.87081369 141.72535695 -147.6875 149.6875 C-138.13247753 155.9093751 -128.77899821 156.01332124 -117.75952148 155.95507812 C-116.02882297 155.96050631 -114.29812908 155.96763286 -112.56744385 155.97631836 C-107.89184456 155.99447052 -103.21660043 155.98751823 -98.54099536 155.97480202 C-93.63515478 155.96463379 -88.72934343 155.97407813 -83.82350159 155.98034668 C-75.58808973 155.98761129 -67.35282164 155.97806584 -59.11743164 155.95898438 C-49.61061381 155.9372107 -40.1041391 155.94427539 -30.59732956 155.96629 C-22.41783199 155.9844692 -14.23843742 155.98699022 -6.05892617 155.97653532 C-1.18109234 155.97031517 3.69658043 155.96942411 8.57440376 155.98268127 C13.16040152 155.99427616 17.74595877 155.98614789 22.33190918 155.96310425 C24.01002714 155.95783685 25.68818248 155.95929705 27.36628532 155.96815491 C37.04872266 156.01453344 45.43693707 155.92566603 53.3046875 149.578125 C58.39603877 143.44823939 61.68004822 137.73518566 61.27734375 129.50390625 C60.20450375 121.51049275 56.9656199 115.85188192 51 110.4375 C44.99436373 106.09939948 39.35849613 104.7137135 32 105.4375 C27.2942086 106.49518264 24.0014471 108.25954763 20.5 111.5625 C16.70594689 115.02813849 14.13832956 115.51906079 9 115.4375 C5.39111452 114.23453817 3.61697252 113.40319611 1.5625 110.1875 C0.29660531 103.99868153 2.03996002 100.13895747 4.875 94.6875 C12.02396093 80.73327818 13.36203112 65.17889025 9.4375 49.9375 C4.08896503 34.07760812 -6.24695949 21.35305422 -20.71484375 13.05859375 C-45.16141258 0.99518583 -75.28010977 4.84194297 -94 25.4375 Z " fill="#000000" transform="translate(183,15.5625)"/>
<path d="M0 0 C2.76143829 1.0875294 5.14265569 2.57316601 7.625 4.1875 C27.08217358 15.92711365 49.06283815 18.70285047 71.08935547 13.49609375 C77.7106262 11.77689849 83.88592161 9.21077365 89.859375 5.8984375 C90.51736084 5.53387451 91.17534668 5.16931152 91.85327148 4.79370117 C93.12113915 4.07784966 94.37940847 3.34460627 95.62524414 2.59106445 C100.44368081 -0.17819023 103.59482213 -0.60537992 109 0 C132.44624374 10.83806499 149.5138771 34.8034651 159 58 C163.4396679 70.25070862 165.35979741 82.05668448 165.375 95.0625 C165.39949219 96.16916016 165.42398438 97.27582031 165.44921875 98.41601562 C165.48952214 109.78828974 162.41210025 117.43675681 154.53515625 125.62109375 C136.06532574 142.95256799 110.38599217 149.26196709 86 153 C85.23768066 153.11859375 84.47536133 153.2371875 83.68994141 153.359375 C42.15506644 159.46290353 -11.46918258 157.36826047 -47 133 C-55.97242616 126.06386914 -63.98339629 117.5282512 -66 106 C-68.38120109 76.43341977 -57.17508967 47.14261206 -38.25390625 24.69140625 C-31.314283 16.73873339 -23.53014636 10.18590517 -15 4 C-14.05898438 3.23816406 -13.11796875 2.47632813 -12.1484375 1.69140625 C-7.94348949 -0.56757947 -4.67760875 -0.82528254 0 0 Z M-4 24 C-7.35836725 26.97298084 -10.68423861 29.97960816 -14 33 C-14.6909375 33.61101562 -15.381875 34.22203125 -16.09375 34.8515625 C-33.38653821 50.9395253 -41.86444107 74.71303827 -43.0546875 97.87109375 C-42.9477998 103.98659694 -41.17498696 107.97941373 -37.1875 112.5625 C-13.11930971 134.5748657 34.09967311 134.02187717 64.25 132.75 C87.75234105 131.53594353 121.00014763 129.31414441 138.9140625 112.16796875 C144.59947251 105.76851436 144.55253511 99.48246473 144.17480469 91.20605469 C142.06845908 64.62373772 127.41597677 42.49313547 107.65234375 25.3984375 C107.10707031 24.93695313 106.56179688 24.47546875 106 24 C104.85144531 24.53109375 103.70289063 25.0621875 102.51953125 25.609375 C74.39216893 38.46777148 46.12671308 42.38232045 16.25 32.796875 C13.11226276 31.62762386 10.05710899 30.36507273 7 29 C5.39898437 28.29230469 5.39898437 28.29230469 3.765625 27.5703125 C1.16589423 26.40241314 -1.42166885 25.21424413 -4 24 Z " fill="#000000" transform="translate(346,239)"/>
<path d="M0 0 C3.74835057 0.78262265 6.82308612 2.8184094 10.109375 4.72265625 C30.14287969 16.13709497 52.76262968 19.98993648 75.24389648 14.21557617 C83.53716259 11.90437047 91.14380375 8.77794112 98.4453125 4.1953125 C102.44904234 1.74469885 105.30317639 0.18658199 110.1328125 0.4453125 C117.88673204 3.10455146 123.98900062 8.18059911 130.1328125 13.4453125 C131.24269531 14.33669922 131.24269531 14.33669922 132.375 15.24609375 C152.95299799 32.34560453 165.24450313 58.89172879 168.8828125 85.0078125 C168.99775775 86.4848589 169.07569055 87.9649019 169.1328125 89.4453125 C169.184375 90.68023437 169.2359375 91.91515625 169.2890625 93.1875 C169.69362318 107.36049779 166.74155667 117.40064148 157.0703125 128.0078125 C148.03259832 136.55112219 136.66527169 141.33887181 125.1328125 145.4453125 C124.10929688 145.81398438 123.08578125 146.18265625 122.03125 146.5625 C75.50734974 162.07046675 11.52920805 161.09204832 -32.74414062 139.53125 C-44.51516266 133.54227084 -56.49376755 125.56557235 -60.8671875 112.4453125 C-61.12137582 107.9477569 -61.13829796 103.44763747 -61.16235352 98.94384766 C-61.17374464 97.46621019 -61.19398587 95.98860949 -61.22387695 94.51123047 C-61.50248885 80.71760659 -59.07037119 68.67465317 -53.6796875 55.8828125 C-53.38562012 55.1801123 -53.09155273 54.47741211 -52.78857422 53.75341797 C-45.42453645 36.82033476 -21.24428162 -0.62221745 0 0 Z M-11.8671875 34.4453125 C-28.20496645 51.47780639 -38.71733135 74.28164189 -39.1796875 98.0078125 C-39.21707031 99.26722656 -39.25445312 100.52664063 -39.29296875 101.82421875 C-38.50537268 108.52239818 -34.15152588 112.61878362 -29.19140625 116.78125 C-25.05532083 119.74254813 -20.5906922 121.61231067 -15.8671875 123.4453125 C-15.00996094 123.79335938 -14.15273438 124.14140625 -13.26953125 124.5 C27.57294971 139.66166919 85.57201891 138.8523939 125.8203125 123.0078125 C127.60691783 122.18714643 129.37911761 121.3341351 131.1328125 120.4453125 C132.03386719 119.99414062 132.93492187 119.54296875 133.86328125 119.078125 C139.54481726 115.97300192 144.29140569 112.41121831 147.1328125 106.4453125 C151.06413159 87.89925916 143.08295268 65.92944778 133.1328125 50.4453125 C127.91547406 42.75516206 121.99672476 35.72440712 115.1328125 29.4453125 C114.2459375 28.5996875 113.3590625 27.7540625 112.4453125 26.8828125 C110.25693366 25.19583053 110.25693366 25.19583053 107.83203125 25.6796875 C104.82425512 26.53283384 102.38001357 27.7672295 99.6328125 29.2578125 C77.37811 40.64457439 47.96279445 42.51062333 24.12060547 35.10888672 C17.35434654 32.85014295 10.49495787 30.51839498 4.40234375 26.76171875 C-2.0056202 23.04487908 -7.38551409 30.20633436 -11.8671875 34.4453125 Z " fill="#000000" transform="translate(60.8671875,356.5546875)"/>
<path d="M0 0 C9.56212627 7.34940284 16.34939408 16.82006016 20.9609375 27.9296875 C21.280625 28.68765625 21.6003125 29.445625 21.9296875 30.2265625 C26.88215531 44.62540411 25.40978232 62.3317445 18.9609375 75.9296875 C10.36461143 92.18342053 -2.55459164 103.37585765 -20.1328125 108.90234375 C-36.78839874 113.24815812 -52.45207527 111.07874869 -67.609375 103.078125 C-82.17678308 94.4068527 -92.12021367 80.39127351 -96.8515625 64.3046875 C-100.55623172 47.84658802 -98.05418883 31.04310218 -89.01953125 16.7109375 C-78.03234642 1.28120259 -64.03644349 -8.13577505 -45.3046875 -11.6015625 C-28.85490678 -13.96277504 -13.59937129 -9.2643532 0 0 Z M-68.43359375 26.65234375 C-72.40731801 32.28903778 -75.57635287 38.98904299 -76.0390625 45.9296875 C-76.19375 47.693125 -76.19375 47.693125 -76.3515625 49.4921875 C-76.16224843 60.45136893 -71.45894306 69.46958519 -63.93359375 77.05078125 C-55.11672278 85.32134008 -47.1973121 88.25727866 -35.0390625 88.9296875 C-24.30739888 88.34020175 -14.18242026 82.84114824 -7.0390625 74.9296875 C0.22524656 64.99685675 3.29350466 55.24495104 1.9609375 42.9296875 C0.38961701 36.60411529 -2.07657079 31.13045787 -6.0390625 25.9296875 C-6.5959375 25.1046875 -7.1528125 24.2796875 -7.7265625 23.4296875 C-14.1565086 16.47839442 -23.19823616 11.55389795 -32.62109375 10.546875 C-47.70612507 10.08836341 -58.78112612 15.14448188 -68.43359375 26.65234375 Z " fill="#000000" transform="translate(152.0390625,248.0703125)"/>
<path d="M0 0 C12.04552533 10.26247059 20.51489493 25.42477736 21.85595703 41.30761719 C22.8286817 58.99574029 18.44559549 74.32198822 6.79296875 88.0078125 C-3.64051162 99.4285053 -17.68355179 107.93214582 -33.44921875 108.6484375 C-52.55553009 108.9594983 -67.87284091 105.09161389 -82.03515625 91.578125 C-82.78667969 90.83046875 -83.53820312 90.0828125 -84.3125 89.3125 C-84.95058594 88.70921875 -85.58867187 88.1059375 -86.24609375 87.484375 C-97.50592429 75.94869115 -100.72711438 60.19839463 -100.67822266 44.68041992 C-100.53874464 37.00081157 -99.45287818 30.38081202 -96.3125 23.3125 C-95.91160156 22.38695312 -95.51070313 21.46140625 -95.09765625 20.5078125 C-86.89577212 3.72366701 -72.40371722 -6.45733085 -55.1484375 -12.4375 C-35.92973422 -17.7801511 -15.5663512 -11.58426136 0 0 Z M-70.625 24.015625 C-77.35841604 33.18055239 -79.36407372 43.04751653 -78.3125 54.3125 C-75.66896312 65.86295377 -68.70746756 74.34353557 -59.3125 81.3125 C-50.04733512 86.46476316 -40.57093523 87.78189055 -30.109375 85.6640625 C-19.23818676 82.40270603 -11.32001684 75.908923 -5.3125 66.3125 C0.17301167 55.12472392 0.99535574 45.4726556 -2.9296875 33.62890625 C-6.85578833 24.21291867 -13.24602447 17.00513431 -22.3125 12.3125 C-40.47871879 4.96731406 -57.87920552 8.70011389 -70.625 24.015625 Z " fill="#000000" transform="translate(436.3125,131.6875)"/>
<path d="M0 0 C1.26481201 -0.0157608 2.52962402 -0.03152161 3.83276367 -0.04776001 C5.20492426 -0.0388099 6.57707687 -0.02855483 7.94921875 -0.01708984 C9.36499447 -0.02046076 10.78076736 -0.02531568 12.1965332 -0.03158569 C15.1589726 -0.03894429 18.12065649 -0.02828592 21.08300781 -0.00488281 C24.87309401 0.02360643 28.66140998 0.00719672 32.45143127 -0.02274513 C35.37354783 -0.04084675 38.29524732 -0.03504742 41.21737671 -0.02210617 C42.61437186 -0.01877997 44.01140536 -0.02283166 45.40835571 -0.03450394 C47.36337522 -0.04725582 49.31852818 -0.0243601 51.2734375 0 C52.93959106 0.00596695 52.93959106 0.00596695 54.6394043 0.01205444 C58.58302316 0.8474274 60.08687367 2.60269429 62.63671875 5.64697266 C63.97514052 8.3238162 63.77861843 10.39682686 63.79785156 13.39428711 C63.80745911 14.59926346 63.81706665 15.80423981 63.82696533 17.04573059 C63.83334015 19.00816963 63.83334015 19.00816963 63.83984375 21.01025391 C63.8455962 22.36305239 63.85135393 23.71585085 63.8571167 25.06864929 C63.86762726 27.90750509 63.87346923 30.74633256 63.87695312 33.58520508 C63.88243136 37.21686902 63.90644426 40.84815681 63.93492508 44.47970295 C63.95358329 47.27559996 63.95875878 50.07140706 63.960289 52.86736107 C63.96477639 54.85540991 63.98340972 56.84341057 64.0022583 58.83137512 C63.9992572 60.04580795 63.9962561 61.26024078 63.99316406 62.51147461 C63.99863251 64.11125908 63.99863251 64.11125908 64.00421143 65.74336243 C63.48263817 69.86438452 61.74208893 72.4597232 58.94921875 75.45947266 C55.5279957 77.21631693 52.34153385 77.4291793 48.63671875 76.64697266 C45.61767535 74.89397971 43.22160674 72.81674864 41.63671875 69.64697266 C41.48176112 67.39723104 41.38660947 65.14325729 41.3203125 62.88916016 C41.2995314 62.2261087 41.27875031 61.56305725 41.25733948 60.87991333 C41.19192644 58.76070571 41.1329977 56.64137366 41.07421875 54.52197266 C41.03102566 53.08576184 40.98741111 51.64956364 40.94335938 50.21337891 C40.83625376 46.69137672 40.734963 43.16923441 40.63671875 39.64697266 C39.68152344 40.55318359 38.72632813 41.45939453 37.7421875 42.39306641 C30.27287424 49.44607001 22.79059144 56.38088639 14.63671875 62.64697266 C14.10224121 63.05931152 13.56776367 63.47165039 13.01708984 63.89648438 C-2.45288157 75.72282978 -17.60370662 82.34930859 -37.36328125 80.64697266 C-46.72437 78.93906039 -57.65330025 73.76211331 -64.1796875 66.67431641 C-66.21679724 63.18500962 -66.48447744 59.63931774 -66.36328125 55.64697266 C-65.14354049 52.6297192 -64.30413855 51.20473827 -61.51171875 49.54931641 C-57.76647893 47.97631568 -54.33922681 47.89908579 -50.36328125 48.64697266 C-47.92168068 49.95881567 -45.77838485 51.4758631 -43.54296875 53.11181641 C-37.40599642 57.43409262 -30.76812483 58.77053996 -23.36328125 57.64697266 C-15.05271513 55.17358988 -8.15876715 50.93353964 -1.36328125 45.64697266 C-0.51378906 44.98955078 0.33570313 44.33212891 1.2109375 43.65478516 C9.0623342 37.39659158 16.34201975 30.53700222 23.63671875 23.64697266 C22.41154541 23.6329541 22.41154541 23.6329541 21.16162109 23.61865234 C17.44438369 23.56481758 13.72838675 23.48119272 10.01171875 23.39697266 C8.08392578 23.37570312 8.08392578 23.37570312 6.1171875 23.35400391 C-5.75872177 23.04633786 -5.75872177 23.04633786 -10.36328125 18.64697266 C-12.68018616 15.02051279 -12.48242895 11.84446679 -12.140625 7.70947266 C-9.94221597 1.876508 -5.88995728 0.02109354 0 0 Z " fill="#000000" transform="translate(344.36328125,431.35302734375)"/>
<path d="M0 0 C3.0597733 1.74387915 5.39965689 3.79931379 7 7 C7.54386326 12.6561779 6.48623457 15.70044972 3 20 C0.17233155 23.0506503 -2.77725442 25.96634346 -5.75 28.875 C-6.54277344 29.65875 -7.33554687 30.4425 -8.15234375 31.25 C-10.09708147 33.17130714 -12.04634753 35.08776547 -14 37 C-12.92741943 37.07516846 -11.85483887 37.15033691 -10.74975586 37.2277832 C-6.69531149 37.51451435 -2.64188482 37.81399048 1.41137695 38.11694336 C3.1516914 38.24531539 4.89225038 38.37042255 6.63305664 38.49194336 C28.63138429 40.03290433 51.34200887 42.44980267 67.3125 59.3125 C74.72061159 68.18136599 80.51853441 81.0409083 79.75390625 92.77734375 C78.80719335 96.82417353 77.15896148 98.38037341 74 101 C71.59072489 102.20463755 70.29388466 102.07893471 67.625 101.875 C66.85414063 101.83117187 66.08328125 101.78734375 65.2890625 101.7421875 C61.92198231 100.65047208 60.89557308 98.95439737 59 96 C58.05891058 93.50775448 57.23662879 91.11021959 56.5 88.5625 C53.97249724 79.87311981 50.02575679 73.54456282 42.140625 68.90625 C26.04070604 60.91681653 4.62346383 60.86079412 -13 61 C-12.4652002 61.52432617 -11.93040039 62.04865234 -11.37939453 62.58886719 C-8.9560138 64.97063804 -6.54045976 67.36019763 -4.125 69.75 C-2.86236328 70.9875 -2.86236328 70.9875 -1.57421875 72.25 C-0.76855469 73.04921875 0.03710938 73.8484375 0.8671875 74.671875 C1.98262939 75.77160645 1.98262939 75.77160645 3.12060547 76.89355469 C5.96977468 80.08693374 6.92389233 82.16281568 7.3125 86.4375 C6.97566502 90.27741883 6.44522397 92.04886763 4 95 C0.3218953 97.3799501 -3.34091921 97.36343831 -7.5607605 96.71932983 C-10.33952592 95.89987407 -11.67655323 94.86902924 -13.79736328 92.91650391 C-14.83416229 91.96762299 -14.83416229 91.96762299 -15.89190674 90.99957275 C-19.27354383 87.79201571 -22.62347399 84.55881218 -25.9296875 81.2734375 C-26.64609406 80.56273102 -27.36250061 79.85202454 -28.10061646 79.11978149 C-29.5993781 77.63039133 -31.0967494 76.13960088 -32.59277344 74.64746094 C-34.88291882 72.36711507 -37.18351561 70.09765354 -39.484375 67.828125 C-40.94596838 66.37305436 -42.40692864 64.91734742 -43.8671875 63.4609375 C-44.55360321 62.78686859 -45.24001892 62.11279968 -45.94723511 61.41830444 C-50.20272737 57.14269101 -52.82124988 54.03875198 -53.1875 47.8125 C-50.23408561 38.33048538 -39.82479749 30.71901671 -32.875 23.875 C-27.56617911 18.64625183 -22.34493793 13.4224116 -17.51367188 7.74462891 C-12.42446619 1.87890893 -8.16878092 -2.0310762 0 0 Z " fill="#000000" transform="translate(290,1)"/>
</svg>
