<svg width="24" height="25" viewBox="0 0 24 25" fill="none" xmlns="http://www.w3.org/2000/svg">
<path d="M7.63647 19.5337H6.34741C5.44272 19.5337 4.70679 18.7978 4.70679 17.8931V12.2798C4.70679 11.3751 5.44272 10.6392 6.34741 10.6392H7.63647C8.54116 10.6392 9.2771 11.3751 9.2771 12.2798V17.8931C9.2771 18.7978 8.54116 19.5337 7.63647 19.5337ZM6.34976 11.5767C5.96304 11.5767 5.64663 11.8931 5.64663 12.2798V17.8931C5.64663 18.2798 5.96304 18.5962 6.34976 18.5962H7.63882C8.02554 18.5962 8.34194 18.2798 8.34194 17.8931V12.2798C8.34194 11.8931 8.02554 11.5767 7.63882 11.5767H6.34976Z" fill="#5D2EDE"/>
<path d="M19.5662 4.48901H18.2771C17.8904 4.48901 17.574 4.80542 17.574 5.19214V17.8929C17.574 18.2796 17.8904 18.596 18.2771 18.596H19.5662C19.9529 18.596 20.2693 18.2796 20.2693 17.8929V5.19214C20.2693 4.80542 19.9529 4.48901 19.5662 4.48901ZM13.6013 7.37183H12.3123C11.9255 7.37183 11.6091 7.68823 11.6091 8.07495V17.8929C11.6091 18.2796 11.9255 18.596 12.3123 18.596H13.6013C13.988 18.596 14.3044 18.2796 14.3044 17.8929V8.07495C14.3044 7.68823 13.988 7.37183 13.6013 7.37183ZM7.63647 11.5671H6.34741C5.96069 11.5671 5.64429 11.8835 5.64429 12.2703V17.8929C5.64429 18.2796 5.96069 18.596 6.34741 18.596H7.63647C8.02319 18.596 8.3396 18.2796 8.3396 17.8929V12.2703C8.3396 11.8835 8.02554 11.5671 7.63647 11.5671Z" fill="white"/>
<path d="M19.5662 3.55151H18.2771C17.3724 3.55151 16.6365 4.28745 16.6365 5.19214V10.0648C16.2076 9.86323 15.7365 9.73198 15.2419 9.6898V8.0773C15.2419 7.17261 14.506 6.43667 13.6013 6.43667H12.3123C11.4076 6.43667 10.6716 7.17261 10.6716 8.0773V17.8953C10.6716 18.8 11.4076 19.5359 12.3123 19.5359H13.6013C14.4966 19.5359 15.2255 18.8164 15.2419 17.9257C15.7365 17.8835 16.2076 17.7523 16.6365 17.5507V17.8953C16.6365 18.8 17.3724 19.5359 18.2771 19.5359H19.5662C20.4708 19.5359 21.2068 18.8 21.2068 17.8953V5.19214C21.2068 4.28745 20.4685 3.55151 19.5662 3.55151ZM17.574 12.0828C17.8927 12.5796 18.0779 13.1703 18.0779 13.8054C18.0779 14.4382 17.8927 15.0289 17.574 15.5281V12.0828ZM11.6865 13.8054C11.6865 12.2398 12.8162 10.9343 14.3044 10.6625V16.9484C12.8162 16.6765 11.6865 15.371 11.6865 13.8054ZM12.3123 7.37183H13.6013C13.988 7.37183 14.3044 7.68823 14.3044 8.07495V9.71323C13.2123 9.86792 12.256 10.4492 11.6091 11.2835V8.07495C11.6091 7.68823 11.9255 7.37183 12.3123 7.37183ZM13.6013 18.596H12.3123C11.9255 18.596 11.6091 18.2796 11.6091 17.8929V16.3273C12.2537 17.1617 13.2099 17.7453 14.3044 17.8976C14.3021 18.2843 13.988 18.596 13.6013 18.596ZM15.2419 16.9812V10.6296C15.7529 10.6859 16.2263 10.864 16.6365 11.1359V16.4773C16.2263 16.7468 15.7529 16.925 15.2419 16.9812ZM17.574 17.8929V17.4968L18.6662 18.596H18.2771C17.888 18.596 17.574 18.282 17.574 17.8929ZM20.2693 17.8929C20.2693 18.1578 20.1216 18.3898 19.9037 18.5093L17.963 16.5593C18.6169 15.8281 19.0154 14.8625 19.0154 13.8054C19.0154 12.5539 18.4552 11.4289 17.574 10.6718V5.19214C17.574 4.80542 17.8904 4.48901 18.2771 4.48901H19.5662C19.9529 4.48901 20.2693 4.80542 20.2693 5.19214V17.8929ZM20.9115 20.9796H20.6771C20.5482 20.9796 20.4427 20.8742 20.4427 20.7453C20.4427 20.6164 20.5482 20.5109 20.6771 20.5109H20.9115C21.0404 20.5109 21.1459 20.6164 21.1459 20.7453C21.1459 20.8742 21.0427 20.9796 20.9115 20.9796ZM19.7396 20.9796H19.5052C19.3763 20.9796 19.2709 20.8742 19.2709 20.7453C19.2709 20.6164 19.3763 20.5109 19.5052 20.5109H19.7396C19.8685 20.5109 19.974 20.6164 19.974 20.7453C19.974 20.8742 19.8708 20.9796 19.7396 20.9796ZM18.5677 20.9796H18.3334C18.2044 20.9796 18.099 20.8742 18.099 20.7453C18.099 20.6164 18.2044 20.5109 18.3334 20.5109H18.5677C18.6966 20.5109 18.8021 20.6164 18.8021 20.7453C18.8021 20.8742 18.699 20.9796 18.5677 20.9796ZM17.3959 20.9796H17.1615C17.0326 20.9796 16.9271 20.8742 16.9271 20.7453C16.9271 20.6164 17.0326 20.5109 17.1615 20.5109H17.3959C17.5248 20.5109 17.6302 20.6164 17.6302 20.7453C17.6302 20.8742 17.5271 20.9796 17.3959 20.9796ZM16.224 20.9796H15.9896C15.8607 20.9796 15.7552 20.8742 15.7552 20.7453C15.7552 20.6164 15.8607 20.5109 15.9896 20.5109H16.224C16.3529 20.5109 16.4584 20.6164 16.4584 20.7453C16.4584 20.8742 16.3552 20.9796 16.224 20.9796ZM15.0521 20.9796H14.8177C14.6888 20.9796 14.5834 20.8742 14.5834 20.7453C14.5834 20.6164 14.6888 20.5109 14.8177 20.5109H15.0521C15.181 20.5109 15.2865 20.6164 15.2865 20.7453C15.2865 20.8742 15.1834 20.9796 15.0521 20.9796ZM13.8802 20.9796H13.6459C13.5169 20.9796 13.4115 20.8742 13.4115 20.7453C13.4115 20.6164 13.5169 20.5109 13.6459 20.5109H13.8802C14.0091 20.5109 14.1146 20.6164 14.1146 20.7453C14.1146 20.8742 14.0115 20.9796 13.8802 20.9796ZM12.7084 20.9796H12.474C12.3451 20.9796 12.2396 20.8742 12.2396 20.7453C12.2396 20.6164 12.3451 20.5109 12.474 20.5109H12.7084C12.8373 20.5109 12.9427 20.6164 12.9427 20.7453C12.9427 20.8742 12.8396 20.9796 12.7084 20.9796ZM11.5365 20.9796H11.3021C11.1732 20.9796 11.0677 20.8742 11.0677 20.7453C11.0677 20.6164 11.1732 20.5109 11.3021 20.5109H11.5365C11.6654 20.5109 11.7709 20.6164 11.7709 20.7453C11.7709 20.8742 11.6677 20.9796 11.5365 20.9796ZM10.3646 20.9796H10.1302C10.0013 20.9796 9.89585 20.8742 9.89585 20.7453C9.89585 20.6164 10.0013 20.5109 10.1302 20.5109H10.3646C10.4935 20.5109 10.599 20.6164 10.599 20.7453C10.599 20.8742 10.4959 20.9796 10.3646 20.9796ZM9.19273 20.9796H8.95835C8.82944 20.9796 8.72397 20.8742 8.72397 20.7453C8.72397 20.6164 8.82944 20.5109 8.95835 20.5109H9.19273C9.32163 20.5109 9.4271 20.6164 9.4271 20.7453C9.4271 20.8742 9.32398 20.9796 9.19273 20.9796ZM8.02085 20.9796H7.78647C7.65757 20.9796 7.5521 20.8742 7.5521 20.7453C7.5521 20.6164 7.65757 20.5109 7.78647 20.5109H8.02085C8.14976 20.5109 8.25522 20.6164 8.25522 20.7453C8.25522 20.8742 8.1521 20.9796 8.02085 20.9796ZM6.84897 20.9796H6.6146C6.48569 20.9796 6.38022 20.8742 6.38022 20.7453C6.38022 20.6164 6.48569 20.5109 6.6146 20.5109H6.84897C6.97788 20.5109 7.08335 20.6164 7.08335 20.7453C7.08335 20.8742 6.98022 20.9796 6.84897 20.9796ZM5.6771 20.9796H5.44272C5.31382 20.9796 5.20835 20.8742 5.20835 20.7453C5.20835 20.6164 5.31382 20.5109 5.44272 20.5109H5.6771C5.80601 20.5109 5.91147 20.6164 5.91147 20.7453C5.91147 20.8742 5.80835 20.9796 5.6771 20.9796ZM4.50522 20.9796H4.27085C4.14194 20.9796 4.03647 20.8742 4.03647 20.7453C4.03647 20.6164 4.14194 20.5109 4.27085 20.5109H4.50522C4.63413 20.5109 4.7396 20.6164 4.7396 20.7453C4.7396 20.8742 4.63647 20.9796 4.50522 20.9796ZM3.33335 20.9796H3.09897C2.97007 20.9796 2.8646 20.8742 2.8646 20.7453C2.8646 20.6164 2.97007 20.5109 3.09897 20.5109H3.33335C3.46226 20.5109 3.56772 20.6164 3.56772 20.7453C3.56772 20.8742 3.4646 20.9796 3.33335 20.9796ZM2.99585 20.1453C2.86694 20.1453 2.76147 20.0398 2.76147 19.9109V19.6765C2.76147 19.5476 2.86694 19.4421 2.99585 19.4421C3.12476 19.4421 3.23022 19.5476 3.23022 19.6765V19.9109C3.23022 20.0398 3.12476 20.1453 2.99585 20.1453ZM2.99585 18.9734C2.86694 18.9734 2.76147 18.8679 2.76147 18.739V18.5046C2.76147 18.3757 2.86694 18.2703 2.99585 18.2703C3.12476 18.2703 3.23022 18.3757 3.23022 18.5046V18.739C3.23022 18.8679 3.12476 18.9734 2.99585 18.9734ZM2.99585 17.8015C2.86694 17.8015 2.76147 17.696 2.76147 17.5671V17.3328C2.76147 17.2039 2.86694 17.0984 2.99585 17.0984C3.12476 17.0984 3.23022 17.2039 3.23022 17.3328V17.5671C3.23022 17.696 3.12476 17.8015 2.99585 17.8015ZM2.99585 16.6296C2.86694 16.6296 2.76147 16.5242 2.76147 16.3953V16.1609C2.76147 16.032 2.86694 15.9265 2.99585 15.9265C3.12476 15.9265 3.23022 16.032 3.23022 16.1609V16.3953C3.23022 16.5242 3.12476 16.6296 2.99585 16.6296ZM2.99585 15.4578C2.86694 15.4578 2.76147 15.3523 2.76147 15.2234V14.989C2.76147 14.8601 2.86694 14.7546 2.99585 14.7546C3.12476 14.7546 3.23022 14.8601 3.23022 14.989V15.2234C3.23022 15.3523 3.12476 15.4578 2.99585 15.4578ZM2.99585 14.2859C2.86694 14.2859 2.76147 14.1804 2.76147 14.0515V13.8171C2.76147 13.6882 2.86694 13.5828 2.99585 13.5828C3.12476 13.5828 3.23022 13.6882 3.23022 13.8171V14.0515C3.23022 14.1804 3.12476 14.2859 2.99585 14.2859ZM2.99585 13.114C2.86694 13.114 2.76147 13.0085 2.76147 12.8796V12.6453C2.76147 12.5164 2.86694 12.4109 2.99585 12.4109C3.12476 12.4109 3.23022 12.5164 3.23022 12.6453V12.8796C3.23022 13.0085 3.12476 13.114 2.99585 13.114ZM2.99585 11.9421C2.86694 11.9421 2.76147 11.8367 2.76147 11.7078V11.4734C2.76147 11.3445 2.86694 11.239 2.99585 11.239C3.12476 11.239 3.23022 11.3445 3.23022 11.4734V11.7078C3.23022 11.8367 3.12476 11.9421 2.99585 11.9421ZM2.99585 10.7703C2.86694 10.7703 2.76147 10.6648 2.76147 10.5359V10.3015C2.76147 10.1726 2.86694 10.0671 2.99585 10.0671C3.12476 10.0671 3.23022 10.1726 3.23022 10.3015V10.5359C3.23022 10.6648 3.12476 10.7703 2.99585 10.7703ZM2.99585 9.59839C2.86694 9.59839 2.76147 9.49292 2.76147 9.36401V9.12964C2.76147 9.00073 2.86694 8.89526 2.99585 8.89526C3.12476 8.89526 3.23022 9.00073 3.23022 9.12964V9.36401C3.23022 9.49292 3.12476 9.59839 2.99585 9.59839ZM2.99585 8.42651C2.86694 8.42651 2.76147 8.32105 2.76147 8.19214V7.95776C2.76147 7.82886 2.86694 7.72339 2.99585 7.72339C3.12476 7.72339 3.23022 7.82886 3.23022 7.95776V8.19214C3.23022 8.32105 3.12476 8.42651 2.99585 8.42651ZM2.99585 7.25464C2.86694 7.25464 2.76147 7.14917 2.76147 7.02026V6.78589C2.76147 6.65698 2.86694 6.55151 2.99585 6.55151C3.12476 6.55151 3.23022 6.65698 3.23022 6.78589V7.02026C3.23022 7.14917 3.12476 7.25464 2.99585 7.25464ZM2.99585 6.08276C2.86694 6.08276 2.76147 5.9773 2.76147 5.84839V5.61401C2.76147 5.48511 2.86694 5.37964 2.99585 5.37964C3.12476 5.37964 3.23022 5.48511 3.23022 5.61401V5.84839C3.23022 5.9773 3.12476 6.08276 2.99585 6.08276Z" fill="#5D2EDE"/>
<path d="M14.8833 10.6108C13.1208 10.6108 11.6864 12.0452 11.6864 13.8077C11.6864 15.5702 13.1208 17.0022 14.8833 17.0022C16.6458 17.0022 18.0802 15.5679 18.0802 13.8054C18.0802 12.0429 16.6458 10.6108 14.8833 10.6108Z" fill="white"/>
<path d="M14.8833 11.1453C14.5552 11.1453 14.2317 11.2039 13.9271 11.321C13.8052 11.3679 13.7466 11.5039 13.7935 11.6234C13.8403 11.7453 13.9763 11.8039 14.0958 11.757C14.3466 11.6609 14.6114 11.6117 14.8833 11.6117C16.0927 11.6117 17.0747 12.596 17.0747 13.8031C17.0747 14.2648 16.9317 14.7054 16.6646 15.0804C16.5614 15.2257 16.4396 15.357 16.3013 15.4742C16.2028 15.5585 16.1911 15.7062 16.2755 15.8046C16.3224 15.8585 16.388 15.8867 16.4536 15.8867C16.5075 15.8867 16.5614 15.8679 16.606 15.8304C16.77 15.6898 16.92 15.5304 17.0466 15.3523C17.3724 14.8976 17.5458 14.3632 17.5458 13.8007C17.5435 12.3382 16.3505 11.1453 14.8833 11.1453Z" fill="black"/>
</svg>
