<svg width="24" height="25" viewBox="0 0 24 25" fill="none" xmlns="http://www.w3.org/2000/svg">
<path d="M3.35299 20.0012C4.37449 20.0012 5.20699 19.1687 5.20699 18.1472V7.64722C5.18005 7.17413 4.97314 6.72928 4.62869 6.40388C4.28424 6.07848 3.82834 5.89719 3.35449 5.89719C2.88064 5.89719 2.42474 6.07848 2.08029 6.40388C1.73583 6.72928 1.52892 7.17413 1.50199 7.64722L1.50049 18.1472C1.50049 19.1687 2.33149 20.0012 3.35299 20.0012ZM2.73499 7.64722C2.73499 7.48331 2.8001 7.32612 2.916 7.21023C3.03189 7.09433 3.18908 7.02922 3.35299 7.02922C3.51689 7.02922 3.67408 7.09433 3.78998 7.21023C3.90588 7.32612 3.97099 7.48331 3.97099 7.64722V18.1472C3.97099 18.3111 3.90588 18.4683 3.78998 18.5842C3.67408 18.7001 3.51689 18.7652 3.35299 18.7652C3.18908 18.7652 3.03189 18.7001 2.916 18.5842C2.8001 18.4683 2.73499 18.3111 2.73499 18.1472V7.64722ZM8.91199 20.0012C9.93349 20.0012 10.7645 19.1687 10.7645 18.1472V12.5882C10.7645 11.5682 9.93349 10.7357 8.91199 10.7357C7.89049 10.7357 7.05949 11.5667 7.05949 12.5882V18.1472C7.05949 19.1687 7.89049 20.0012 8.91199 20.0012ZM8.29549 12.5882C8.29549 12.4243 8.3606 12.2671 8.4765 12.1512C8.59239 12.0353 8.74958 11.9702 8.91349 11.9702C9.07739 11.9702 9.23458 12.0353 9.35048 12.1512C9.46638 12.2671 9.53149 12.4243 9.53149 12.5882V18.1472C9.53149 18.3111 9.46638 18.4683 9.35048 18.5842C9.23458 18.7001 9.07739 18.7652 8.91349 18.7652C8.74958 18.7652 8.59239 18.7001 8.4765 18.5842C8.3606 18.4683 8.29549 18.3111 8.29549 18.1472V12.5882ZM20.0315 20.0012C21.053 20.0012 21.884 19.1687 21.884 18.1472V14.4422C21.884 13.4207 21.053 12.5882 20.0315 12.5882C19.01 12.5882 18.179 13.4207 18.179 14.4422V18.1472C18.179 19.1687 19.01 20.0012 20.0315 20.0012ZM19.4135 14.4422C19.4135 14.2783 19.4786 14.1211 19.5945 14.0052C19.7104 13.8893 19.8676 13.8242 20.0315 13.8242C20.1954 13.8242 20.3526 13.8893 20.4685 14.0052C20.5844 14.1211 20.6495 14.2783 20.6495 14.4422V18.1472C20.6495 18.3111 20.5844 18.4683 20.4685 18.5842C20.3526 18.7001 20.1954 18.7652 20.0315 18.7652C19.8676 18.7652 19.7104 18.7001 19.5945 18.5842C19.4786 18.4683 19.4135 18.3111 19.4135 18.1472V14.4422ZM14.4725 20.0012C15.494 20.0012 16.325 19.1687 16.325 18.1472V5.17672C16.325 4.15672 15.494 3.32422 14.4725 3.32422C13.451 3.32422 12.62 4.15522 12.62 5.17672V18.1472C12.62 19.1687 13.451 20.0012 14.4725 20.0012ZM13.8545 5.17672C13.8545 5.01281 13.9196 4.85562 14.0355 4.73973C14.1514 4.62383 14.3086 4.55872 14.4725 4.55872C14.6364 4.55872 14.7936 4.62383 14.9095 4.73973C15.0254 4.85562 15.0905 5.01281 15.0905 5.17672V18.1472C15.0905 18.3111 15.0254 18.4683 14.9095 18.5842C14.7936 18.7001 14.6364 18.7652 14.4725 18.7652C14.3086 18.7652 14.1514 18.7001 14.0355 18.5842C13.9196 18.4683 13.8545 18.3111 13.8545 18.1472V5.17672ZM1.50049 21.2357H22.5005V22.4717H1.50049V21.2357Z" fill="#5D2EDE"/>
</svg>
