<svg width="24" height="25" viewBox="0 0 24 25" fill="none" xmlns="http://www.w3.org/2000/svg">
<path d="M12.0005 17.9492C8.89868 17.9492 6.37549 15.426 6.37549 12.3242C6.37549 9.22241 8.89868 6.69922 12.0005 6.69922C12.2078 6.69922 12.3755 6.53148 12.3755 6.32422V3.32422C12.3755 3.11696 12.2078 2.94922 12.0005 2.94922C6.83104 2.94922 2.62549 7.15477 2.62549 12.3242C2.62549 17.4937 6.83104 21.6992 12.0005 21.6992C12.2078 21.6992 12.3755 21.5315 12.3755 21.3242V18.3242C12.3755 18.117 12.2078 17.9492 12.0005 17.9492ZM11.6255 20.9412C7.0431 20.7441 3.37549 16.9542 3.37549 12.3242C3.37549 7.69421 7.0431 3.90431 11.6255 3.70728V5.96021C8.28416 6.15502 5.62549 8.93493 5.62549 12.3242C5.62549 15.7135 8.28416 18.4934 11.6255 18.6882V20.9412ZM13.5375 4.49242C13.4331 4.48289 13.3276 4.51661 13.2489 4.58763C13.1702 4.65866 13.1255 4.75976 13.1255 4.86558V7.47086C12.9707 7.45848 12.815 7.44918 12.6567 7.44918C9.71021 7.44918 7.31299 9.63618 7.31299 12.3242C7.31299 15.0122 9.71021 17.1992 12.6567 17.1992C12.815 17.1992 12.9707 17.1899 13.1255 17.1775V19.7828C13.1255 19.8886 13.1702 19.9897 13.2489 20.0607C13.3181 20.1234 13.4078 20.1578 13.5005 20.1578C13.5129 20.1578 13.525 20.157 13.5375 20.1559C17.7921 19.7333 21.0005 16.3664 21.0005 12.3241C21.0005 8.28191 17.7921 4.91504 13.5375 4.49242ZM8.06299 12.3242C8.06299 10.0497 10.1237 8.19922 12.6567 8.19922C15.1898 8.19922 17.2505 10.0497 17.2505 12.3242C17.2505 14.5987 15.1898 16.4492 12.6567 16.4492C10.1237 16.4492 8.06299 14.5987 8.06299 12.3242ZM13.8755 19.3584V17.0663C16.2358 16.5612 18.0005 14.6292 18.0005 12.3242C18.0005 10.0192 16.2358 8.08717 13.8755 7.58212V5.29004C17.538 5.84193 20.2505 8.80019 20.2505 12.3242C20.2505 15.8482 17.538 18.8065 13.8755 19.3584Z" fill="#5D2EDE"/>
</svg>
