<?xml version="1.0" encoding="UTF-8"?>
<!DOCTYPE svg PUBLIC "-//W3C//DTD SVG 1.1//EN" "http://www.w3.org/Graphics/SVG/1.1/DTD/svg11.dtd">
<svg xmlns="http://www.w3.org/2000/svg" version="1.1" width="512px" height="512px" style="shape-rendering:geometricPrecision; text-rendering:geometricPrecision; image-rendering:optimizeQuality; fill-rule:evenodd; clip-rule:evenodd" xmlns:xlink="http://www.w3.org/1999/xlink">
<g><path style="opacity:0.942" fill="#000000" d="M 165.5,-0.5 C 175.833,-0.5 186.167,-0.5 196.5,-0.5C 231.273,5.30291 258.773,22.6362 279,51.5C 300.933,35.575 325.433,29.4083 352.5,33C 391.304,40.388 417.97,62.388 432.5,99C 473.615,95.3165 499.949,113.15 511.5,152.5C 511.5,160.5 511.5,168.5 511.5,176.5C 504.788,205.046 487.121,222.88 458.5,230C 440.197,231.219 421.864,231.886 403.5,232C 430.167,248.333 456.833,264.667 483.5,281C 487.428,284.547 488.262,288.714 486,293.5C 484.681,295.487 482.848,296.654 480.5,297C 460.836,297.5 441.169,297.667 421.5,297.5C 421.5,313.5 421.5,329.5 421.5,345.5C 427.176,345.666 432.843,345.499 438.5,345C 447.01,329.609 459.343,325.609 475.5,333C 486.59,341.419 489.757,352.252 485,365.5C 475.211,380.398 462.377,383.565 446.5,375C 442.984,372.129 440.317,368.629 438.5,364.5C 432.872,363.505 427.206,363.171 421.5,363.5C 421.5,379.5 421.5,395.5 421.5,411.5C 435.516,411.833 449.516,411.499 463.5,410.5C 472.766,394.914 485.433,391.414 501.5,400C 506.269,403.579 509.603,408.079 511.5,413.5C 511.5,418.167 511.5,422.833 511.5,427.5C 504.202,444.138 491.869,449.305 474.5,443C 469.589,439.922 465.922,435.756 463.5,430.5C 449.516,429.501 435.516,429.167 421.5,429.5C 421.5,445.833 421.5,462.167 421.5,478.5C 427.206,478.829 432.872,478.495 438.5,477.5C 444.135,465.013 453.801,459.847 467.5,462C 479.85,465.663 486.517,473.997 487.5,487C 486.46,498.95 480.46,507.117 469.5,511.5C 464.5,511.5 459.5,511.5 454.5,511.5C 447.299,508.637 441.966,503.637 438.5,496.5C 432.872,495.505 427.206,495.171 421.5,495.5C 421.5,500.833 421.5,506.167 421.5,511.5C 310.833,511.5 200.167,511.5 89.5,511.5C 89.5,506.167 89.5,500.833 89.5,495.5C 83.7945,495.171 78.1278,495.505 72.5,496.5C 69.0344,503.637 63.701,508.637 56.5,511.5C 51.5,511.5 46.5,511.5 41.5,511.5C 24.3861,502.995 19.8861,489.995 28,472.5C 34.633,463.728 43.4664,460.228 54.5,462C 63.1342,464.145 69.1342,469.311 72.5,477.5C 78.1278,478.495 83.7945,478.829 89.5,478.5C 89.5,462.167 89.5,445.833 89.5,429.5C 75.4841,429.167 61.4841,429.501 47.5,430.5C 41.3362,443.081 31.3362,447.914 17.5,445C 8.318,442.317 2.318,436.483 -0.5,427.5C -0.5,422.833 -0.5,418.167 -0.5,413.5C 7.37877,396.591 20.0454,391.757 37.5,399C 42.0813,401.748 45.4146,405.581 47.5,410.5C 61.4841,411.499 75.4841,411.833 89.5,411.5C 89.5,395.5 89.5,379.5 89.5,363.5C 83.7945,363.171 78.1278,363.505 72.5,364.5C 62.9506,380.289 49.9506,383.789 33.5,375C 22.1741,364.051 20.6741,351.884 29,338.5C 38.8454,328.858 50.0121,327.024 62.5,333C 67.0035,335.996 70.3369,339.996 72.5,345C 78.1569,345.499 83.8236,345.666 89.5,345.5C 89.5,329.5 89.5,313.5 89.5,297.5C 69.8305,297.667 50.1638,297.5 30.5,297C 25.2043,295.453 23.0376,291.953 24,286.5C 24.3459,284.152 25.5125,282.319 27.5,281C 54.1667,264.667 80.8333,248.333 107.5,232C 91.8022,231.863 76.1355,231.196 60.5,230C 27.2153,222.216 6.88201,201.716 -0.5,168.5C -0.5,160.167 -0.5,151.833 -0.5,143.5C 8.79775,106.544 32.4644,85.8772 70.5,81.5C 80.9435,47.1376 102.61,22.6376 135.5,8C 145.356,4.20866 155.356,1.37532 165.5,-0.5 Z M 171.5,16.5 C 209.226,14.6664 239.393,28.6664 262,58.5C 262.97,60.2738 263.804,62.1072 264.5,64C 260.964,67.8717 257.797,72.0384 255,76.5C 254.333,77.1667 254.333,77.8333 255,78.5C 259.497,81.7494 264.163,84.7494 269,87.5C 293.955,53.293 326.789,42.4597 367.5,55C 396.935,67.6121 414.268,89.7788 419.5,121.5C 444.188,110.537 465.688,114.871 484,134.5C 498.718,156.557 497.718,177.89 481,198.5C 473.472,206.344 464.305,211.177 453.5,213C 426.5,213.667 399.5,213.667 372.5,213C 339.999,193.251 307.666,173.251 275.5,153C 262.167,145.667 248.833,145.667 235.5,153C 203.334,173.251 171.001,193.251 138.5,213C 114.167,213.667 89.8333,213.667 65.5,213C 38.2261,207.393 22.0594,190.893 17,163.5C 15.328,137.339 25.828,117.839 48.5,105C 59.664,100.251 71.3306,98.251 83.5,99C 90.6547,63.6747 110.655,38.6747 143.5,24C 152.704,20.5344 162.038,18.0344 171.5,16.5 Z M 250.5,165.5 C 256.563,164.838 262.23,166.004 267.5,169C 327,205.918 386.666,242.584 446.5,279C 435.5,279.667 424.5,279.667 413.5,279C 360.962,246.9 308.295,215.067 255.5,183.5C 202.705,215.067 150.038,246.9 97.5,279C 86.8333,279.667 76.1667,279.667 65.5,279C 126.929,240.627 188.596,202.793 250.5,165.5 Z M 254.5,203.5 C 304.194,233.101 353.694,263.101 403,293.5C 403.5,360.499 403.667,427.499 403.5,494.5C 392.48,494.832 381.48,494.499 370.5,493.5C 371.65,478.545 371.817,463.545 371,448.5C 370.102,444.205 368.269,440.372 365.5,437C 367.986,433.863 369.819,430.363 371,426.5C 371.667,411.5 371.667,396.5 371,381.5C 369.819,377.637 367.986,374.137 365.5,371C 367.986,367.863 369.819,364.363 371,360.5C 371.667,345.5 371.667,330.5 371,315.5C 368.167,306 362,299.833 352.5,297C 287.833,296.333 223.167,296.333 158.5,297C 149,299.833 142.833,306 140,315.5C 139.333,330.5 139.333,345.5 140,360.5C 141.181,364.363 143.014,367.863 145.5,371C 143.014,374.137 141.181,377.637 140,381.5C 139.333,396.5 139.333,411.5 140,426.5C 141.181,430.363 143.014,433.863 145.5,437C 143.014,440.137 141.181,443.637 140,447.5C 139.183,462.878 139.35,478.211 140.5,493.5C 129.52,494.499 118.52,494.832 107.5,494.5C 107.333,427.499 107.5,360.499 108,293.5C 156.981,263.6 205.814,233.6 254.5,203.5 Z M 163.5,313.5 C 224.834,313.333 286.168,313.5 347.5,314C 351,314.833 353.167,317 354,320.5C 354.667,332.167 354.667,343.833 354,355.5C 353.261,358.573 351.428,360.74 348.5,362C 286.5,362.667 224.5,362.667 162.5,362C 159.572,360.74 157.739,358.573 157,355.5C 156.333,343.833 156.333,332.167 157,320.5C 158.018,316.985 160.185,314.652 163.5,313.5 Z M 47.5,346.5 C 55.687,347.54 58.187,351.873 55,359.5C 51,363.5 47,363.5 43,359.5C 40.0926,353.557 41.5926,349.223 47.5,346.5 Z M 460.5,346.5 C 468.342,347.828 470.842,352.161 468,359.5C 464,363.5 460,363.5 456,359.5C 453.095,353.509 454.595,349.176 460.5,346.5 Z M 163.5,379.5 C 224.834,379.333 286.168,379.5 347.5,380C 350.973,380.807 353.14,382.973 354,386.5C 354.667,398.167 354.667,409.833 354,421.5C 353.261,424.573 351.428,426.74 348.5,428C 286.5,428.667 224.5,428.667 162.5,428C 159.572,426.74 157.739,424.573 157,421.5C 156.333,409.833 156.333,398.167 157,386.5C 158.018,382.985 160.185,380.652 163.5,379.5 Z M 23.5,412.5 C 30.2895,413.736 32.7895,417.736 31,424.5C 24.2797,430.401 19.4463,429.067 16.5,420.5C 17.4804,416.527 19.8137,413.86 23.5,412.5 Z M 485.5,412.5 C 493.402,413.975 495.735,418.308 492.5,425.5C 485.948,430.219 481.614,428.719 479.5,421C 479.435,416.608 481.435,413.774 485.5,412.5 Z M 164.5,445.5 C 225.168,445.333 285.834,445.5 346.5,446C 351,446.5 353.5,449 354,453.5C 354.667,464.833 354.667,476.167 354,487.5C 353.261,490.573 351.428,492.74 348.5,494C 286.5,494.667 224.5,494.667 162.5,494C 159.572,492.74 157.739,490.573 157,487.5C 156.333,475.833 156.333,464.167 157,452.5C 158.211,448.666 160.711,446.333 164.5,445.5 Z M 48.5,478.5 C 55.8432,480.324 58.0099,484.658 55,491.5C 48.0575,496.446 43.5575,494.779 41.5,486.5C 42.4384,482.565 44.7717,479.898 48.5,478.5 Z M 461.5,478.5 C 468.843,480.324 471.01,484.658 468,491.5C 461.057,496.446 456.557,494.779 454.5,486.5C 455.438,482.565 457.772,479.898 461.5,478.5 Z"/></g>
<g><path style="opacity:0.924" fill="#000000" d="M 168.5,32.5 C 185.637,30.523 201.97,33.1896 217.5,40.5C 217.833,40.8333 218.167,41.1667 218.5,41.5C 216.088,46.6587 213.421,51.6587 210.5,56.5C 180.816,43.947 154.483,48.947 131.5,71.5C 127.814,67.9801 123.981,64.6468 120,61.5C 119.333,60.5 119.333,59.5 120,58.5C 133.466,44.6853 149.633,36.0186 168.5,32.5 Z"/></g>
<g><path style="opacity:0.886" fill="#000000" d="M 106.5,78.5 C 111.946,80.1383 117.113,82.4717 122,85.5C 120.234,90.3084 118.734,95.3084 117.5,100.5C 111.807,99.6602 106.14,98.6602 100.5,97.5C 101.3,90.7684 103.3,84.4351 106.5,78.5 Z"/></g>
<g><path style="opacity:0.842" fill="#000000" d="M 147.5,114.5 C 153.5,114.5 159.5,114.5 165.5,114.5C 165.5,120.5 165.5,126.5 165.5,132.5C 159.5,132.5 153.5,132.5 147.5,132.5C 147.5,126.5 147.5,120.5 147.5,114.5 Z"/></g>
<g><path style="opacity:0.842" fill="#000000" d="M 180.5,114.5 C 186.5,114.5 192.5,114.5 198.5,114.5C 198.5,120.5 198.5,126.5 198.5,132.5C 192.5,132.5 186.5,132.5 180.5,132.5C 180.5,126.5 180.5,120.5 180.5,114.5 Z"/></g>
<g><path style="opacity:0.842" fill="#000000" d="M 213.5,114.5 C 219.5,114.5 225.5,114.5 231.5,114.5C 231.5,120.5 231.5,126.5 231.5,132.5C 225.5,132.5 219.5,132.5 213.5,132.5C 213.5,126.5 213.5,120.5 213.5,114.5 Z"/></g>
<g><path style="opacity:0.842" fill="#000000" d="M 246.5,114.5 C 252.5,114.5 258.5,114.5 264.5,114.5C 264.5,120.5 264.5,126.5 264.5,132.5C 258.5,132.5 252.5,132.5 246.5,132.5C 246.5,126.5 246.5,120.5 246.5,114.5 Z"/></g>
<g><path style="opacity:0.842" fill="#000000" d="M 279.5,114.5 C 285.5,114.5 291.5,114.5 297.5,114.5C 297.5,120.5 297.5,126.5 297.5,132.5C 291.5,132.5 285.5,132.5 279.5,132.5C 279.5,126.5 279.5,120.5 279.5,114.5 Z"/></g>
<g><path style="opacity:0.842" fill="#000000" d="M 312.5,114.5 C 318.5,114.5 324.5,114.5 330.5,114.5C 330.5,120.5 330.5,126.5 330.5,132.5C 324.5,132.5 318.5,132.5 312.5,132.5C 312.5,126.5 312.5,120.5 312.5,114.5 Z"/></g>
<g><path style="opacity:0.842" fill="#000000" d="M 345.5,114.5 C 351.5,114.5 357.5,114.5 363.5,114.5C 363.5,120.5 363.5,126.5 363.5,132.5C 357.5,132.5 351.5,132.5 345.5,132.5C 345.5,126.5 345.5,120.5 345.5,114.5 Z"/></g>
</svg>
