<svg width="24" height="25" viewBox="0 0 24 25" fill="none" xmlns="http://www.w3.org/2000/svg">
<g clip-path="url(#clip0_9_572)">
<path d="M13.5005 23.8442H10.5005C10.4045 23.8442 10.3145 23.7924 10.2665 23.7085L8.76647 21.1105C8.71847 21.0272 8.71847 20.9244 8.76647 20.8412L10.2665 18.2432C10.3145 18.16 10.4037 18.1075 10.5005 18.1075H13.3445L15.5165 14.3454C15.5915 14.2149 15.7565 14.1722 15.8847 14.2464C16.0145 14.3214 16.058 14.4857 15.9837 14.6147L13.8117 18.3774L15.2337 20.8405C15.2817 20.9237 15.2817 21.0265 15.2337 21.1097L13.7337 23.7077C13.6857 23.7924 13.5972 23.8442 13.5005 23.8442ZM10.6565 23.3042H13.3445L14.6885 20.9762L13.3445 18.6482H10.6565L9.31247 20.9762L10.6565 23.3042ZM21.0005 19.5189H18.0005C17.9037 19.5189 17.8152 19.4672 17.7665 19.3832L16.2665 16.7845C16.2185 16.7012 16.2185 16.5984 16.2665 16.5152L17.6885 14.0522L15.5165 10.2902C15.4415 10.1612 15.4857 9.99545 15.6155 9.9212C15.7437 9.8462 15.9095 9.89045 15.9837 10.0194L18.1557 13.7815H21.0005C21.0972 13.7815 21.1857 13.8332 21.2345 13.9172L22.7345 16.5152C22.7825 16.5984 22.7825 16.7012 22.7345 16.7845L21.2345 19.3832C21.1857 19.4664 21.0972 19.5189 21.0005 19.5189ZM18.1565 18.9782H20.8445L22.1885 16.6502L20.8445 14.3222H18.1565L16.8125 16.6502L18.1565 18.9782ZM6.00047 19.5189H3.00047C2.90447 19.5189 2.81447 19.4672 2.76647 19.3832L1.26647 16.7845C1.21847 16.7012 1.21847 16.5984 1.26647 16.5152L2.76647 13.9172C2.81447 13.834 2.90447 13.7815 3.00047 13.7815H6.00047C6.09647 13.7815 6.18647 13.8332 6.23447 13.9172L7.65647 16.3794H12.0005C12.1497 16.3794 12.2705 16.5002 12.2705 16.6495C12.2705 16.7987 12.1497 16.9195 12.0005 16.9195H7.65647L6.23447 19.3825C6.18647 19.4664 6.09647 19.5189 6.00047 19.5189ZM3.15647 18.9782H5.84447L7.18847 16.6502L5.84447 14.3222H3.15647L1.81247 16.6502L3.15647 18.9782ZM8.25047 14.764C8.15672 14.764 8.06597 14.716 8.01647 14.6282L5.84447 10.8662H3.00047C2.90447 10.8662 2.81447 10.8152 2.76647 10.7312L1.26647 8.1332C1.21847 8.04995 1.21847 7.94645 1.26647 7.8632L2.76647 5.2652C2.81447 5.18195 2.90447 5.1302 3.00047 5.1302H6.00047C6.09647 5.1302 6.18647 5.1812 6.23447 5.2652L7.73447 7.8632C7.78247 7.94645 7.78247 8.04995 7.73447 8.1332L6.31247 10.5962L8.48447 14.3589C8.55872 14.4879 8.51447 14.653 8.38547 14.7272C8.34347 14.752 8.29697 14.764 8.25047 14.764ZM3.15647 10.3262H5.84447L7.18847 7.9982L5.84447 5.6702H3.15647L1.81247 7.9982L3.15647 10.3262ZM21.0005 10.8662H18.0005C17.9037 10.8662 17.8152 10.8152 17.7665 10.7312L16.3445 8.26745H12.0005C11.8512 8.26745 11.7305 8.1467 11.7305 7.99745C11.7305 7.8482 11.8512 7.72745 12.0005 7.72745H16.3445L17.7665 5.26445C17.8145 5.1812 17.9037 5.12945 18.0005 5.12945H21.0005C21.0972 5.12945 21.1857 5.18045 21.2345 5.26445L22.7345 7.86245C22.7825 7.9457 22.7825 8.0492 22.7345 8.13245L21.2345 10.7304C21.1857 10.8152 21.0972 10.8662 21.0005 10.8662ZM18.1565 10.3262H20.8445L22.1885 7.9982L20.8445 5.6702H18.1565L16.8125 7.9982L18.1565 10.3262ZM8.25047 10.4372C8.20472 10.4372 8.15822 10.4259 8.11547 10.4012C7.98647 10.3262 7.94222 10.1612 8.01647 10.0322L10.1885 6.2702L8.76647 3.8072C8.71847 3.7232 8.71847 3.62045 8.76647 3.5372L10.2665 0.939199C10.3145 0.855199 10.4045 0.804199 10.5005 0.804199H13.5005C13.5972 0.804199 13.6857 0.855199 13.7345 0.939199L15.2345 3.5372C15.2825 3.62045 15.2825 3.72395 15.2345 3.8072L13.7345 6.4052C13.6857 6.4892 13.5972 6.5402 13.5005 6.5402H10.6565L8.48447 10.3029C8.43422 10.3892 8.34347 10.4372 8.25047 10.4372ZM10.6565 6.0002H13.3445L14.6885 3.6722L13.3445 1.3442H10.6565L9.31247 3.6722L10.6565 6.0002Z" fill="#5D2EDE"/>
</g>
<defs>
<clipPath id="clip0_9_572">
<rect width="24" height="24" fill="white" transform="translate(0.000488281 0.324219)"/>
</clipPath>
</defs>
</svg>
