<?xml version="1.0" encoding="UTF-8"?>
<svg version="1.1" xmlns="http://www.w3.org/2000/svg" width="512" height="512">
<path d="M0 0 C2.08384462 0.00097228 4.16400139 -0.04066131 6.24731445 -0.08496094 C7.56666992 -0.08753906 8.88602539 -0.09011719 10.24536133 -0.09277344 C12.05315063 -0.1034082 12.05315063 -0.1034082 13.89746094 -0.11425781 C18.0820357 0.6759354 19.56352952 2.18500487 22.15551758 5.50097656 C22.64379883 9.05175781 22.64379883 9.05175781 22.46801758 12.81347656 C22.42290039 14.06773437 22.3777832 15.32199219 22.33129883 16.61425781 C22.27329102 17.566875 22.2152832 18.51949219 22.15551758 19.50097656 C22.8799707 19.68273437 23.60442383 19.86449219 24.35083008 20.05175781 C28.69850873 21.18215426 32.60241138 22.20933875 36.59301758 24.31347656 C37.43864258 24.70535156 38.28426758 25.09722656 39.15551758 25.50097656 C42.18421525 24.35761278 44.25542635 22.63570434 46.59301758 20.43847656 C49.38324809 18.0111545 51.29980688 16.39951049 55.15551758 16.50097656 C58.70777306 18.37671551 61.45553615 20.54487445 64.29223633 23.37207031 C65.0340918 24.11134766 65.77594727 24.850625 66.5402832 25.61230469 C67.30018555 26.37994141 68.06008789 27.14757812 68.84301758 27.93847656 C69.61452148 28.70224609 70.38602539 29.46601563 71.1809082 30.25292969 C71.91889648 30.99349609 72.65688477 31.7340625 73.41723633 32.49707031 C74.087146 33.16923584 74.75705566 33.84140137 75.44726562 34.53393555 C77.81518455 37.26057879 79.18672616 39.28384178 79.09301758 42.93847656 C77.84052115 46.36196679 75.80942857 48.03222216 73.15551758 50.50097656 C71.79996465 52.14962201 70.45920105 53.81101651 69.15551758 55.50097656 C69.49325195 56.13003906 69.83098633 56.75910156 70.17895508 57.40722656 C72.96106785 62.74631004 74.95358769 67.60059348 76.15551758 73.50097656 C77.6018457 73.44876953 77.6018457 73.44876953 79.07739258 73.39550781 C80.34067383 73.3684375 81.60395508 73.34136719 82.90551758 73.31347656 C84.15848633 73.27867187 85.41145508 73.24386719 86.70239258 73.20800781 C90.32961315 73.51574711 91.66717365 73.90995825 94.15551758 76.50097656 C95.95697523 81.90534951 95.38287366 87.72065823 95.40551758 93.37597656 C95.43645508 95.29603516 95.43645508 95.29603516 95.46801758 97.25488281 C95.47575195 99.10533203 95.47575195 99.10533203 95.48364258 100.99316406 C95.49766113 102.68481689 95.49766113 102.68481689 95.51196289 104.41064453 C95.11145904 107.88295808 94.28449372 109.74777514 92.15551758 112.50097656 C88.73318786 113.64175314 86.0687854 113.59912773 82.46801758 113.56347656 C81.28852539 113.55445313 80.1090332 113.54542969 78.89379883 113.53613281 C77.53834961 113.51873047 77.53834961 113.51873047 76.15551758 113.50097656 C75.97375977 114.1184375 75.79200195 114.73589844 75.60473633 115.37207031 C73.89831311 121.12140393 72.08897032 126.82403022 70.15551758 132.50097656 C70.63762695 132.95988281 71.11973633 133.41878906 71.61645508 133.89160156 C72.2480957 134.50519531 72.87973633 135.11878906 73.53051758 135.75097656 C74.15700195 136.35425781 74.78348633 136.95753906 75.42895508 137.57910156 C77.21983577 139.57257057 78.31061429 140.95698206 79.15551758 143.50097656 C78.8165117 148.56419334 77.43536534 150.86005088 73.89379883 154.42675781 C73.02174805 155.30525391 72.14969727 156.18375 71.2512207 157.08886719 C70.33276367 157.98798828 69.41430664 158.88710938 68.46801758 159.81347656 C67.56889648 160.73193359 66.66977539 161.65039062 65.7434082 162.59667969 C64.86491211 163.46873047 63.98641602 164.34078125 63.08129883 165.23925781 C62.28119385 166.03372314 61.48108887 166.82818848 60.65673828 167.64672852 C57.73851157 169.81011865 55.75952355 170.30909877 52.15551758 170.50097656 C49.96020508 169.17285156 49.96020508 169.17285156 48.03051758 167.25097656 C45.50457281 164.79604229 43.01760599 162.56168022 40.15551758 160.50097656 C39.21192383 161.00757813 39.21192383 161.00757813 38.24926758 161.52441406 C32.9101841 164.30652684 28.05590066 166.29904667 22.15551758 167.50097656 C22.19032227 168.46519531 22.22512695 169.42941406 22.26098633 170.42285156 C22.28805664 171.68613281 22.31512695 172.94941406 22.34301758 174.25097656 C22.37782227 175.50394531 22.41262695 176.75691406 22.44848633 178.04785156 C22.14074703 181.67507214 21.74653589 183.01263264 19.15551758 185.50097656 C13.75114463 187.30243421 7.93583591 186.72833265 2.28051758 186.75097656 C0.36045898 186.78191406 0.36045898 186.78191406 -1.59838867 186.81347656 C-2.83202148 186.81863281 -4.0656543 186.82378906 -5.33666992 186.82910156 C-6.46443848 186.83844727 -7.59220703 186.84779297 -8.75415039 186.85742188 C-12.24069479 186.45527661 -14.1204125 185.70271649 -16.84448242 183.50097656 C-17.22307801 180.56004604 -17.32223856 178.22452699 -17.15698242 175.31347656 C-17.13442383 174.56388672 -17.11186523 173.81429687 -17.08862305 173.04199219 C-17.02977399 171.19413187 -16.9400918 169.34729989 -16.84448242 167.50097656 C-17.67979492 167.35402344 -17.67979492 167.35402344 -18.53198242 167.20410156 C-23.5594588 166.21898795 -27.60765934 164.82596804 -32.02026367 162.20800781 C-34.42834915 161.27468132 -35.4760786 161.50596667 -37.84448242 162.50097656 C-39.60772829 164.08859929 -39.60772829 164.08859929 -41.21948242 166.00097656 C-43.443777 168.27721857 -44.8580932 169.50734757 -47.78198242 170.87597656 C-52.87668462 170.25213548 -55.30559623 167.03447632 -58.84448242 163.50097656 C-60.12499038 162.31127262 -61.40774045 161.12397953 -62.69213867 159.93847656 C-64.07780664 158.62761665 -65.46190552 157.31509624 -66.84448242 156.00097656 C-67.52824951 155.37255859 -68.2120166 154.74414062 -68.91650391 154.09667969 C-72.11367282 150.98412624 -73.68543833 149.31089132 -74.56323242 144.84082031 C-73.68927141 140.77975147 -72.4036462 139.32522164 -69.34448242 136.56347656 C-68.09151367 135.40525391 -68.09151367 135.40525391 -66.81323242 134.22363281 C-65.83870117 133.37091797 -65.83870117 133.37091797 -64.84448242 132.50097656 C-65.34979492 131.29699219 -65.85510742 130.09300781 -66.37573242 128.85253906 C-67.03216734 127.27709526 -67.68840725 125.70157021 -68.34448242 124.12597656 C-68.67834961 123.33191406 -69.0122168 122.53785156 -69.35620117 121.71972656 C-69.67202148 120.95917969 -69.9878418 120.19863281 -70.31323242 119.41503906 C-70.60649414 118.71330566 -70.89975586 118.01157227 -71.2019043 117.28857422 C-71.84448242 115.50097656 -71.84448242 115.50097656 -71.84448242 113.50097656 C-73.29081055 113.55318359 -73.29081055 113.55318359 -74.76635742 113.60644531 C-76.02963867 113.63351562 -77.29291992 113.66058594 -78.59448242 113.68847656 C-79.84745117 113.72328125 -81.10041992 113.75808594 -82.39135742 113.79394531 C-86.18430312 113.47214562 -87.29124415 113.24879947 -89.84448242 110.50097656 C-90.26302716 107.82229026 -90.42938804 105.55701322 -90.41088867 102.87597656 C-90.41708725 102.1326709 -90.42328583 101.38936523 -90.42967224 100.62353516 C-90.43677008 99.05339874 -90.43359684 97.48318705 -90.42089844 95.91308594 C-90.4070269 93.50868536 -90.4410999 91.10817341 -90.47924805 88.70410156 C-90.48019922 87.17805894 -90.47834051 85.65201144 -90.47338867 84.12597656 C-90.49327599 83.04775635 -90.49327599 83.04775635 -90.51356506 81.94775391 C-90.47558594 79.91503906 -90.47558594 79.91503906 -89.84448242 76.50097656 C-86.10617687 73.3824592 -82.8184147 73.05521557 -78.03198242 72.81347656 C-76.87053711 72.74773437 -75.7090918 72.68199219 -74.51245117 72.61425781 C-73.63202148 72.576875 -72.7515918 72.53949219 -71.84448242 72.50097656 C-71.33788086 71.18033203 -71.33788086 71.18033203 -70.82104492 69.83300781 C-70.3750293 68.6715625 -69.92901367 67.51011719 -69.46948242 66.31347656 C-69.02862305 65.16492188 -68.58776367 64.01636719 -68.13354492 62.83300781 C-67.05596099 60.04761662 -65.96083812 57.27099935 -64.84448242 54.50097656 C-65.49416992 53.9325 -66.14385742 53.36402344 -66.81323242 52.77832031 C-67.64854492 52.00617188 -68.48385742 51.23402344 -69.34448242 50.43847656 C-70.17979492 49.684375 -71.01510742 48.93027344 -71.87573242 48.15332031 C-74.4780134 44.64746955 -74.31300596 42.79907108 -73.84448242 38.50097656 C-71.99609375 35.79443359 -71.99609375 35.79443359 -69.42651367 33.25878906 C-68.50161133 32.33839844 -67.57670898 31.41800781 -66.6237793 30.46972656 C-66.13643311 30.00308594 -65.64908691 29.53644531 -65.14697266 29.05566406 C-63.65924212 27.6281448 -62.2031083 26.17336852 -60.7487793 24.71191406 C-52.61756206 16.74388388 -52.61756206 16.74388388 -47.84448242 16.50097656 C-44.34964008 18.39401616 -41.96023443 20.37393168 -39.28198242 23.31347656 C-38.07541992 24.39628906 -38.07541992 24.39628906 -36.84448242 25.50097656 C-31.74447793 25.04452177 -27.21822974 22.59814964 -22.58666992 20.55957031 C-19.84448242 19.50097656 -19.84448242 19.50097656 -16.84448242 19.50097656 C-16.89088867 18.38078125 -16.93729492 17.26058594 -16.98510742 16.10644531 C-17.02262665 14.63381571 -17.05902665 13.16115729 -17.09448242 11.68847656 C-17.12799805 10.95048828 -17.16151367 10.2125 -17.19604492 9.45214844 C-17.29505846 3.98165056 -17.29505846 3.98165056 -15.24365234 1.79321289 C-10.58433879 -0.71637769 -5.17972614 -0.01708071 0 0 Z M-4.84448242 13.50097656 C-5.17448242 18.45097656 -5.50448242 23.40097656 -5.84448242 28.50097656 C-7.08198242 28.89285156 -8.31948242 29.28472656 -9.59448242 29.68847656 C-16.83244322 32.10874106 -24.18772433 34.71385683 -30.65698242 38.81347656 C-34.60290123 40.9024924 -36.4495254 41.42623067 -40.84448242 40.50097656 C-43.82007801 38.09116324 -46.3520608 35.40124899 -48.84448242 32.50097656 C-49.97647595 33.40899276 -51.09980605 34.32781482 -52.21948242 35.25097656 C-52.8459668 35.76144531 -53.47245117 36.27191406 -54.11791992 36.79785156 C-55.9276056 38.58297137 -56.84565698 40.180473 -57.84448242 42.50097656 C-57.35077148 43.03207031 -56.85706055 43.56316406 -56.34838867 44.11035156 C-55.70772461 44.81675781 -55.06706055 45.52316406 -54.40698242 46.25097656 C-53.76889648 46.94707031 -53.13081055 47.64316406 -52.47338867 48.36035156 C-50.78283524 50.58199012 -50.23975291 51.77507182 -49.84448242 54.50097656 C-50.98075309 57.24622999 -52.17566175 59.80647816 -53.53198242 62.43847656 C-56.75584807 68.92816706 -59.19661671 75.13894153 -61.05541992 82.15722656 C-61.84448242 84.50097656 -61.84448242 84.50097656 -63.84448242 85.50097656 C-68.50443139 85.95356153 -73.1713073 86.20359269 -77.84448242 86.50097656 C-77.84448242 91.12097656 -77.84448242 95.74097656 -77.84448242 100.50097656 C-72.89448242 100.83097656 -67.94448242 101.16097656 -62.84448242 101.50097656 C-62.45260742 102.55285156 -62.06073242 103.60472656 -61.65698242 104.68847656 C-61.38241211 105.41550781 -61.1078418 106.14253906 -60.82495117 106.89160156 C-60.10997634 108.7944031 -59.40569526 110.70123286 -58.70776367 112.61035156 C-56.76613202 117.82886943 -54.84618758 122.69730639 -51.90698242 127.43847656 C-50.22584015 130.36846739 -49.81643255 131.15035315 -50.09448242 134.62597656 C-52.46726487 138.52411916 -55.47298053 141.45400427 -58.84448242 144.50097656 C-57.93325515 145.60963641 -57.01521583 146.71269875 -56.09448242 147.81347656 C-55.58401367 148.42835938 -55.07354492 149.04324219 -54.54760742 149.67675781 C-52.78909708 151.56029985 -50.94528606 153.01671312 -48.84448242 154.50097656 C-48.32499023 153.93507813 -47.80549805 153.36917969 -47.27026367 152.78613281 C-46.57288086 152.05265625 -45.87549805 151.31917969 -45.15698242 150.56347656 C-44.47249023 149.83257812 -43.78799805 149.10167969 -43.08276367 148.34863281 C-40.44551629 146.17163803 -39.26895328 145.52079984 -35.84448242 145.50097656 C-33.20713097 146.63001972 -30.83465422 147.79825795 -28.34448242 149.18847656 C-22.06584248 152.53161073 -16.10036429 154.92789477 -9.22338867 156.80957031 C-6.84448242 157.50097656 -6.84448242 157.50097656 -5.84448242 158.50097656 C-5.6079472 161.02693916 -5.42274551 163.53204863 -5.28198242 166.06347656 C-5.21720703 167.12985352 -5.21720703 167.12985352 -5.15112305 168.21777344 C-5.04476466 169.97859568 -4.94409396 171.73975976 -4.84448242 173.50097656 C-0.22448242 173.50097656 4.39551758 173.50097656 9.15551758 173.50097656 C9.48551758 168.55097656 9.81551758 163.60097656 10.15551758 158.50097656 C11.20739258 158.10910156 12.25926758 157.71722656 13.34301758 157.31347656 C14.07133789 157.03890625 14.7996582 156.76433594 15.55004883 156.48144531 C17.44107353 155.76983032 19.33464921 155.06498253 21.22973633 154.36425781 C27.42024719 152.04190048 33.22871008 149.57613918 38.93676758 146.22363281 C41.15551758 145.50097656 41.15551758 145.50097656 43.69848633 146.14550781 C46.25694386 147.55693033 47.96741073 149.00768696 49.96801758 151.12597656 C50.57258789 151.75761719 51.1771582 152.38925781 51.80004883 153.04003906 C52.24735352 153.52214844 52.6946582 154.00425781 53.15551758 154.50097656 C54.26417743 153.58974929 55.36723976 152.67170997 56.46801758 151.75097656 C57.08290039 151.24050781 57.6977832 150.73003906 58.33129883 150.20410156 C60.21484087 148.44559122 61.67125414 146.6017802 63.15551758 144.50097656 C62.57801758 144.0046875 62.00051758 143.50839844 61.40551758 142.99707031 C60.66301758 142.31773437 59.92051758 141.63839844 59.15551758 140.93847656 C58.41301758 140.2771875 57.67051758 139.61589844 56.90551758 138.93457031 C54.48188137 135.56420121 54.64713546 133.5811813 55.15551758 129.50097656 C56.54614258 126.21191406 56.54614258 126.21191406 58.40551758 122.87597656 C61.53151097 117.06661529 63.65910642 111.32934549 65.42895508 104.95019531 C66.15551758 102.50097656 66.15551758 102.50097656 67.15551758 101.50097656 C69.68148017 101.26444134 72.18658965 101.07923965 74.71801758 100.93847656 C75.42893555 100.89529297 76.13985352 100.85210937 76.87231445 100.80761719 C78.6331367 100.7012588 80.39430078 100.6005881 82.15551758 100.50097656 C82.15551758 95.88097656 82.15551758 91.26097656 82.15551758 86.50097656 C79.88676758 86.35660156 77.61801758 86.21222656 75.28051758 86.06347656 C68.40551758 85.62597656 68.40551758 85.62597656 66.15551758 84.50097656 C65.16605853 81.71737792 64.26544507 78.94943805 63.40551758 76.12597656 C61.32097964 69.49537881 58.94071743 63.64786656 55.15942383 57.76269531 C53.85086421 54.81461742 54.04460281 53.51089093 55.15551758 50.50097656 C57.00317383 48.26269531 57.00317383 48.26269531 59.21801758 46.18847656 C59.95149414 45.49109375 60.6849707 44.79371094 61.44067383 44.07519531 C62.00657227 43.55570312 62.5724707 43.03621094 63.15551758 42.50097656 C62.2442903 41.39231671 61.32625099 40.28925438 60.40551758 39.18847656 C59.89504883 38.57359375 59.38458008 37.95871094 58.85864258 37.32519531 C57.10013224 35.44165327 55.25632122 33.98524 53.15551758 32.50097656 C52.65922852 33.07847656 52.16293945 33.65597656 51.65161133 34.25097656 C50.97227539 34.99347656 50.29293945 35.73597656 49.59301758 36.50097656 C48.60108398 37.61472656 48.60108398 37.61472656 47.58911133 38.75097656 C44.21874223 41.17461277 42.23572232 41.00935868 38.15551758 40.50097656 C34.86645508 39.11035156 34.86645508 39.11035156 31.53051758 37.25097656 C25.72115631 34.12498317 19.9838865 31.99738772 13.60473633 30.22753906 C11.15551758 29.50097656 11.15551758 29.50097656 10.15551758 28.50097656 C9.91898235 25.97501397 9.73378066 23.46990449 9.59301758 20.93847656 C9.54983398 20.22755859 9.50665039 19.51664062 9.4621582 18.78417969 C9.35579981 17.02335744 9.25512912 15.26219336 9.15551758 13.50097656 C4.53551758 13.50097656 -0.08448242 13.50097656 -4.84448242 13.50097656 Z " fill="#000000" transform="translate(343.844482421875,260.4990234375)"/>
<path d="M0 0 C25.30458887 -0.59365604 47.69648453 7.35365388 66.29052734 24.72851562 C83.06341838 41.22496143 91.78540535 63.77041944 92.05859375 87.15625 C91.8057033 110.71834958 82.76266206 131.81360657 66.76171875 149.04296875 C49.94705905 165.17192424 28.29021714 173.86122658 5.05859375 174.40625 C-19.76261655 173.79024916 -41.18206282 164.82961066 -58.44140625 147.15625 C-59.16714844 146.45113281 -59.89289063 145.74601563 -60.640625 145.01953125 C-75.35916582 129.8383251 -82.54565986 107.61531223 -82.47265625 86.77734375 C-81.86854356 61.62675106 -72.06260572 40.19967789 -54.21801758 22.44018555 C-39.91195339 8.85243614 -19.56286497 0.8882118 0 0 Z M-52.69140625 39.84375 C-65.21537398 56.54237364 -71.06638437 75.71414592 -68.81640625 96.65625 C-66.14203613 113.74742328 -58.59083383 127.96549783 -46.44140625 140.15625 C-45.42820312 141.20425781 -45.42820312 141.20425781 -44.39453125 142.2734375 C-32.43079463 153.83238604 -15.89622837 160.02143468 0.55859375 161.15625 C1.19023437 161.2078125 1.821875 161.259375 2.47265625 161.3125 C20.25940284 162.11190434 38.02040245 155.33164376 51.55859375 144.15625 C52.3371875 143.55167969 53.11578125 142.94710937 53.91796875 142.32421875 C67.96580657 130.81952398 76.42994702 112.99543985 78.55859375 95.15625 C79.83304114 74.61884365 74.77831602 55.00624014 61.24609375 39.02734375 C60.68921875 38.40988281 60.13234375 37.79242188 59.55859375 37.15625 C59.06359375 36.56972656 58.56859375 35.98320313 58.05859375 35.37890625 C45.72753822 21.78391753 26.62367275 14.32714998 8.7109375 12.8359375 C-15.17214136 12.13003369 -37.0860877 21.60730215 -52.69140625 39.84375 Z " fill="#000000" transform="translate(161.44140625,78.84375)"/>
<path d="M0 0 C0.65387695 0.17160645 1.30775391 0.34321289 1.98144531 0.52001953 C21.39642014 5.75504527 38.42182225 14.42492426 53.9140625 27.2734375 C54.60242188 27.84320313 55.29078125 28.41296875 56 29 C57.00160156 29.85658203 57.00160156 29.85658203 58.0234375 30.73046875 C60.83756566 32.53796214 62.78921549 32.07229437 66 31.71484375 C69.05325931 32.15017174 70.10928807 33.63661009 72 36 C74.52173803 42.05969885 75.69867927 48.47899348 75 55 C73.9375 57 73.9375 57 72 58 C64.74549949 59.08045752 56.84072188 56.31977046 50.65234375 52.58203125 C49 51 49 51 48.75 47.5 C48.8325 46.345 48.915 45.19 49 44 C49 43.01 49 42.02 49 41 C47.20582522 39.29799173 45.47199444 37.84673957 43.5 36.375 C42.91976074 35.93768555 42.33952148 35.50037109 41.74169922 35.04980469 C14.49643132 15.02904359 -18.99073563 6.76534381 -52.56640625 11.68359375 C-75.69796461 15.8899623 -97.12718892 26.55671632 -114.21899414 42.6315918 C-143.33761964 69.75688057 -178.47674667 82.13833774 -217.99462891 81.13623047 C-245.49221626 79.88979231 -279.8048066 68.78847032 -299 48 C-300.06590038 44.74335505 -300.15482341 43.46447024 -299.0625 40.1875 C-297 38 -297 38 -293.4375 37.1875 C-288.40606171 37.52353469 -285.69218141 40.40202744 -282 43.58203125 C-258.11517605 62.83295056 -226.55568009 69.39874752 -196.52636719 66.78466797 C-169.92127214 63.86729696 -145.61037971 51.81915058 -126.1875 33.625 C-108.585979 17.17428129 -88.18916436 6.39056745 -65 0 C-64.31357422 -0.19207031 -63.62714844 -0.38414062 -62.91992188 -0.58203125 C-43.67523257 -5.66993094 -19.15650927 -5.04225244 0 0 Z " fill="#000000" transform="translate(377,219)"/>
<path d="M0 0 C2 2 2 2 2 6 C3.258125 5.938125 4.51625 5.87625 5.8125 5.8125 C33.07707694 5.96567178 60.95956897 16.88502252 82 34 C82.52819336 34.4242627 83.05638672 34.84852539 83.60058594 35.28564453 C90.31737861 40.70334407 96.63877 46.19862018 102 53 C102.76699219 53.93070313 103.53398437 54.86140625 104.32421875 55.8203125 C126.53939436 83.22333436 136.38776684 118.12297273 133.4140625 153.1796875 C132.18195813 164.54759382 132.18195813 164.54759382 129.6171875 167.69921875 C128 169 128 169 125 169.375 C122 169 122 169 120.328125 167.734375 C118.67122828 165.57066281 118.6558282 164.57773055 118.75 161.875 C118.77320313 160.98296875 118.79640625 160.0909375 118.8203125 159.171875 C118.95083717 156.86783078 119.11702282 154.56572031 119.3046875 152.265625 C122.07675689 117.71881423 111.30998174 86.12059333 89.125 59.6875 C67.10226734 34.39111789 35.82149436 22.03315879 3 19 C2.896875 19.78375 2.79375 20.5675 2.6875 21.375 C2 24 2 24 -1 26 C-6.33574261 25.73161534 -10.16907554 24.18726216 -14.8125 21.625 C-15.93269531 21.01914062 -17.05289063 20.41328125 -18.20703125 19.7890625 C-21 18 -21 18 -23 15 C-23.1875 12.1875 -23.1875 12.1875 -22 9 C-19.21027216 6.62844492 -16.15539828 4.84110158 -13 3 C-12.154375 2.38125 -11.30875 1.7625 -10.4375 1.125 C-6.7839591 -0.56124965 -4.00673521 -0.32842092 0 0 Z " fill="#000000" transform="translate(168,25)"/>
<path d="M0 0 C3.30141632 2.06250529 3.8035533 5.03478904 4.6875 8.6875 C5.82530199 13.63394443 6.45965374 17.94380885 6 23 C4 26 4 26 0.875 26.6875 C-0.07375 26.790625 -1.0225 26.89375 -2 27 C-9.41338204 59.0286894 -2.65298408 90.70745002 13.84375 118.625 C27.02897048 139.69216039 45.41150143 154.95935015 68 165 C69.06605469 165.48210937 70.13210938 165.96421875 71.23046875 166.4609375 C81.53161645 170.76940232 92.4392844 172.60539005 103.3671875 174.62109375 C104.25664062 174.78738281 105.14609375 174.95367187 106.0625 175.125 C106.79597656 175.25132812 107.52945313 175.37765625 108.28515625 175.5078125 C110 176 110 176 112 178 C112.56844946 184.25294406 112.56844946 184.25294406 110.70703125 186.69921875 C106.81449145 189.66538752 100.92397489 188.11028087 96.3671875 187.56640625 C61.54303079 182.55159215 29.7694501 163.78114562 8.36035156 135.86474609 C-14.41577921 104.64362499 -21.95696897 69.0061375 -17 31 C-16.80229004 29.77482666 -16.80229004 29.77482666 -16.60058594 28.52490234 C-16.42317871 27.32728271 -16.42317871 27.32728271 -16.2421875 26.10546875 C-16.12472168 25.3889917 -16.00725586 24.67251465 -15.88623047 23.93432617 C-16.03920146 21.33349108 -17.1445835 20.73577826 -19 19 C-19.53923803 15.689787 -19.76466307 13.26276977 -17.97607422 10.30908203 C-16.55173591 8.60860174 -15.04544808 7.08995485 -13.4375 5.5625 C-12.92380859 5.02173828 -12.41011719 4.48097656 -11.88085938 3.92382812 C-8.08809783 0.19702765 -5.4891793 -0.89419449 0 0 Z " fill="#000000" transform="translate(229,296)"/>
<path d="M0 0 C2.31405345 2.6165722 3.59644207 5.13471623 4.71875 8.421875 C5.15550049 9.70022217 5.15550049 9.70022217 5.60107422 11.00439453 C6.04604248 12.36346924 6.04604248 12.36346924 6.5 13.75 C6.80824707 14.69085449 7.11649414 15.63170898 7.43408203 16.60107422 C18.44721385 51.11748364 15.04180398 88.24540068 -1.17456055 120.55981445 C-16.22248967 149.52247743 -43.09239599 174.70197066 -74.52075195 184.81079102 C-76.07918901 185.28706176 -77.64248263 185.74794212 -79.21166992 186.1875 C-81.37424572 186.93688044 -81.37424572 186.93688044 -82.4375 190.0625 C-82.623125 191.031875 -82.80875 192.00125 -83 193 C-85 195 -85 195 -88.25 195.375 C-94.77341219 195.23057021 -104.30953548 193.69046452 -109 189 C-109.4375 185.6875 -109.4375 185.6875 -109 182 C-107.0625 179.5625 -107.0625 179.5625 -104 177 C-103.31035156 176.30003906 -102.62070312 175.60007812 -101.91015625 174.87890625 C-96.01508336 169.06444974 -96.01508336 169.06444974 -91.0625 168.75 C-87.61416083 170.15748538 -87.37061716 170.74230125 -86 174 C-52.3407482 162.85575243 -27.81258544 140.61613917 -11.56640625 109.23046875 C1.85388005 81.34470252 3.08246254 49.36458326 -6 20 C-7.30821671 16.55139539 -8.66551977 13.14827008 -10.14453125 9.76953125 C-11.10314339 6.66607915 -11.00752137 5.05968331 -10 2 C-6.83753746 -1.51384726 -4.37881551 -1.39749431 0 0 Z " fill="#000000" transform="translate(466,292)"/>
<path d="M0 0 C1.9375 1.6875 1.9375 1.6875 3 4 C3.01171875 6.90625 3.01171875 6.90625 2 10 C-0.4301443 11.59845369 -2.48702671 12.68847807 -5.125 13.8125 C-6.59591681 14.4966627 -8.06462439 15.18559233 -9.53125 15.87890625 C-10.27890625 16.22840332 -11.0265625 16.57790039 -11.796875 16.93798828 C-40.65353937 30.84828194 -61.9850981 56.17946984 -72.53515625 86.24609375 C-82.28499185 115.49216631 -81.05046374 147.55344217 -68.125 175.6875 C-67.71507813 176.49574219 -67.30515625 177.30398437 -66.8828125 178.13671875 C-66 180 -66 180 -66 182 C-64.741875 181.938125 -63.48375 181.87625 -62.1875 181.8125 C-59.62633828 181.68654123 -58.46067104 181.64138531 -56.41308594 183.23535156 C-53.75003524 186.56094424 -54.24584578 190.82531617 -54.0625 194.9375 C-53.99482422 195.84435547 -53.92714844 196.75121094 -53.85742188 197.68554688 C-53.65498644 201.67264485 -53.52897489 204.18662581 -55.55859375 207.69140625 C-59.14475635 209.6135894 -61.10536738 209.04540139 -65 208 C-67.57794547 206.8681695 -69.96518241 205.51404258 -72.375 204.0625 C-73.31666016 203.52206055 -73.31666016 203.52206055 -74.27734375 202.97070312 C-78.8575487 200.2849026 -78.8575487 200.2849026 -80 198 C-80.35086626 192.62005061 -80.35086626 192.62005061 -78.89990234 190.0559082 C-77.78307954 188.05794194 -77.78307954 188.05794194 -78.44384766 186.03979492 C-78.76401855 185.36021729 -79.08418945 184.68063965 -79.4140625 183.98046875 C-79.76130371 183.21283203 -80.10854492 182.44519531 -80.46630859 181.65429688 C-80.84867676 180.84025391 -81.23104492 180.02621094 -81.625 179.1875 C-85.32316172 170.8876394 -88.02269155 162.89265706 -90 154 C-90.21269531 153.13117188 -90.42539063 152.26234375 -90.64453125 151.3671875 C-97.77945829 118.61838571 -90.21045398 82.68524235 -73.12890625 54.23828125 C-64.24767646 40.72903447 -53.83681304 28.87032263 -41 19 C-40.18273437 18.34386719 -39.36546875 17.68773438 -38.5234375 17.01171875 C-29.7206171 10.21201692 -11.58856332 -3.52695405 0 0 Z " fill="#000000" transform="translate(125,40)"/>
<path d="M0 0 C9.7556934 8.43838842 15.14812157 18.82810891 16.3515625 31.78515625 C16.66789073 45.91927667 13.12596613 58.81803902 3.25 69.3125 C-7.27368898 79.11318745 -19.54768261 83.40043271 -33.7890625 83.20703125 C-46.0765883 82.41476985 -58.01957753 77.25315835 -66.41015625 68.0625 C-75.21042687 56.6459327 -79.35007261 44.41952555 -78 30 C-76.00629197 17.09074048 -70.31319373 6.16140965 -60 -2 C-40.89904686 -14.37893246 -18.00403343 -15.05099091 0 0 Z M-60.4375 17.9375 C-64.64718986 26.18849213 -66.56433127 34.6808087 -64.30859375 43.79296875 C-61.12624821 53.4465274 -55.84753468 60.83511792 -47 66 C-37.34033265 70.66328768 -28.56999185 71.46408177 -18.37890625 68.03515625 C-9.52747739 64.18354928 -2.20841285 56.64091029 1.4375 47.75 C4.65226286 37.67429304 3.66332138 28.42833512 -1 19 C-5.75849345 10.65455708 -13.35272269 5.14636141 -22.55859375 2.47265625 C-38.71408318 -0.6550465 -50.26493767 5.67825822 -60.4375 17.9375 Z " fill="#000000" transform="translate(377,318)"/>
<path d="M0 0 C3.3125 0.875 3.3125 0.875 5.3125 2.875 C5.875 6.0625 5.875 6.0625 5.3125 9.875 C3.326625 12.60935068 0.87822844 14.69315896 -1.6875 16.875 C-2.3475 17.46410156 -3.0075 18.05320313 -3.6875 18.66015625 C-6.32901704 21.00759815 -9.00910846 23.30509882 -11.71484375 25.578125 C-12.34519531 26.10921875 -12.97554687 26.6403125 -13.625 27.1875 C-14.19089844 27.65800781 -14.75679687 28.12851563 -15.33984375 28.61328125 C-16.82195384 29.85450473 -16.82195384 29.85450473 -17.6875 31.875 C-16.81351563 32.25591797 -16.81351563 32.25591797 -15.921875 32.64453125 C-13.44561967 34.00820333 -11.88229374 35.51725203 -9.9375 37.5625 C-6.58391662 41.01010908 -3.10563999 44.20961068 0.55078125 47.33203125 C5.24869792 51.44661458 5.24869792 51.44661458 5.75 54.8125 C5.3125 57.875 5.3125 57.875 3.6875 60.3125 C1.3125 61.875 1.3125 61.875 -1.4375 62.0625 C-6.19549323 60.32400247 -9.0570912 57.34950167 -12.6875 53.875 C-14.57442369 52.10429221 -16.46568851 50.33830437 -18.35766602 48.57299805 C-19.68158301 47.3356011 -21.00249285 46.09497725 -22.32006836 44.85083008 C-25.01296699 42.31606971 -27.68448139 39.87739941 -30.58203125 37.57421875 C-33.36643054 35.32706905 -33.61169479 34.29614004 -34.25 30.75 C-33.40758601 24.94670362 -29.9833939 22.60620901 -25.6875 18.875 C-24.94371094 18.20210937 -24.19992188 17.52921875 -23.43359375 16.8359375 C-21.20339949 14.82682337 -18.95065966 12.84686188 -16.6875 10.875 C-15.21991925 9.59390215 -13.75246436 8.31266011 -12.28515625 7.03125 C-11.65359619 6.48275391 -11.02203613 5.93425781 -10.37133789 5.36914062 C-8.91784984 4.07939917 -7.5159138 2.73198907 -6.125 1.375 C-3.6875 -0.125 -3.6875 -0.125 0 0 Z " fill="#000000" transform="translate(136.6875,135.125)"/>
<path d="M0 0 C5.03122212 1.37544202 7.50904029 3.89624331 11.11328125 7.5390625 C12.42759498 8.81982206 13.74270085 10.09976923 15.05859375 11.37890625 C15.69442383 12.00522949 16.33025391 12.63155273 16.98535156 13.27685547 C20.13271666 16.33194978 23.44485016 19.19148875 26.75 22.07421875 C32.68733101 27.76274732 32.68733101 27.76274732 33.05078125 31.8515625 C30.35964636 38.71395646 23.57790175 43.34723654 18.07421875 48.03515625 C16.28045086 49.61626094 14.55619619 51.2243774 12.83984375 52.88671875 C12.31745117 53.38582764 11.79505859 53.88493652 11.25683594 54.39916992 C10.2245739 55.38823508 9.201281 56.3867713 8.18847656 57.39575195 C4.86680429 60.55223054 2.41791348 61.95581324 -2.19921875 62.0390625 C-5.13671875 59.9765625 -5.13671875 59.9765625 -7.19921875 57.0390625 C-7.21102835 52.78760504 -6.40373659 51.2670053 -3.5390625 48.07421875 C-2.41776108 47.06885667 -1.28292947 46.07843034 -0.13671875 45.1015625 C0.44875732 44.58303711 1.0342334 44.06451172 1.63745117 43.53027344 C3.34760442 42.02008164 5.07273371 40.52870539 6.80078125 39.0390625 C7.6721875 38.26949219 8.54359375 37.49992187 9.44140625 36.70703125 C11.21759598 35.1384896 13.00242278 33.58206493 14.80078125 32.0390625 C13.40259187 28.83559367 11.77782552 26.82975209 9.2109375 24.47265625 C8.50904297 23.82232422 7.80714844 23.17199219 7.08398438 22.50195312 C6.35115234 21.83357422 5.61832031 21.16519531 4.86328125 20.4765625 C3.41637861 19.14223938 1.96975352 17.80761521 0.5234375 16.47265625 C-0.11843506 15.88540771 -0.76030762 15.29815918 -1.42163086 14.69311523 C-6.06914386 10.36858556 -6.06914386 10.36858556 -7.13671875 7.6640625 C-7.19921875 5.0390625 -7.19921875 5.0390625 -5.69921875 2.1640625 C-3.19921875 0.0390625 -3.19921875 0.0390625 0 0 Z " fill="#000000" transform="translate(197.19921875,134.9609375)"/>
<path d="M0 0 C3.5 0.4375 3.5 0.4375 5.4375 1.5625 C7.01207717 4.3411656 6.76257042 6.25863818 6.5 9.4375 C5.47008365 12.05354493 4.40178404 14.44916734 3.1328125 16.94140625 C2.606875 18.01001137 2.606875 18.01001137 2.0703125 19.10020447 C0.93277584 21.40572292 -0.22082965 23.7027703 -1.375 26 C-2.15891307 27.58013529 -2.94162433 29.16086735 -3.72314453 30.7421875 C-4.889999 33.10278248 -6.0576636 35.46292845 -7.22994995 37.8208313 C-10.78938121 44.98509935 -14.20701573 52.21118548 -17.54248047 59.48266602 C-17.89713379 60.24119873 -18.25178711 60.99973145 -18.6171875 61.78125 C-18.91222168 62.42255859 -19.20725586 63.06386719 -19.51123047 63.72460938 C-20.63672247 65.67435058 -21.76052144 67.00696149 -23.5 68.4375 C-27.57794425 68.86228586 -29.03076119 68.75032587 -32.5 66.4375 C-34.06044282 62.3752946 -33.45530843 59.80444379 -31.75390625 55.98046875 C-30.87260779 54.18744119 -29.97411512 52.40280558 -29.0625 50.625 C-28.05287119 48.59140105 -27.04379164 46.55752935 -26.03515625 44.5234375 C-25.47586426 43.40807617 -24.91657227 42.29271484 -24.34033203 41.14355469 C-22.28513876 37.02590548 -20.29627634 32.87711718 -18.30859375 28.7265625 C-17.58856513 27.22626804 -16.86843164 25.7260239 -16.14819336 24.22583008 C-15.07720301 21.9950172 -14.00669336 19.76398692 -12.93850708 17.53182983 C-11.93206044 15.43187451 -10.91986923 13.33478196 -9.90625 11.23828125 C-9.6066185 10.61003448 -9.306987 9.98178772 -8.99827576 9.33450317 C-4.75492799 0.594366 -4.75492799 0.594366 0 0 Z " fill="#000000" transform="translate(179.5,131.5625)"/>
</svg>
