<?xml version="1.0" encoding="UTF-8"?>
<svg version="1.1" xmlns="http://www.w3.org/2000/svg" width="512" height="512">
<path d="M0 0 C9.77283534 7.59504474 16.90952417 17.09666674 22.8671875 27.8671875 C23.35445313 27.37089844 23.84171875 26.87460938 24.34375 26.36328125 C34.79457651 16.3494893 46.90248297 11.10361119 61.3671875 10.6171875 C75.73178368 11.10024472 88.3261044 16.37442459 98.68359375 26.42578125 C108.21246423 37.0797062 112.7851926 49.62057283 112.8671875 63.8671875 C112.68754094 66.2801674 112.35299123 68.49214703 111.8671875 70.8671875 C112.55683594 70.89296875 113.24648438 70.91875 113.95703125 70.9453125 C125.89749105 71.66599869 135.059003 76.37616495 143.1171875 85.2421875 C150.32570484 94.12025246 151.68385085 103.12325754 150.640625 114.29296875 C150.4091724 116.15450896 150.14209428 118.01156671 149.8671875 119.8671875 C150.84945312 120.41632813 150.84945312 120.41632813 151.8515625 120.9765625 C167.47693298 130.24585007 179.39938052 144.03579014 184.39550781 161.73925781 C187.38758069 175.23765698 185.00699344 189.969118 178.15234375 201.8359375 C175.15541915 206.29525638 171.86811682 210.26635111 167.8671875 213.8671875 C167.18849609 214.55167969 167.18849609 214.55167969 166.49609375 215.25 C154.79815255 226.39367466 140.31304932 229.21364619 124.734375 229.0625 C123.61652618 229.0596701 122.49867737 229.05684021 121.34695435 229.05392456 C117.81191849 229.04281967 114.27714547 229.01773328 110.7421875 228.9921875 C108.33073285 228.98214517 105.91927419 228.97302152 103.5078125 228.96484375 C97.62751602 228.94291217 91.74737055 228.90953242 85.8671875 228.8671875 C85.86995288 229.42525715 85.87271826 229.9833268 85.87556744 230.55830765 C85.94182023 244.13732037 85.99127311 257.71630478 86.02262402 271.29544449 C86.03829385 277.86222599 86.05955644 284.42889101 86.09350586 290.99560547 C86.1260519 297.33036192 86.14403058 303.66500619 86.15181923 309.99983978 C86.15737126 312.41921505 86.16821272 314.83858404 86.18437767 317.25791168 C86.20608831 320.64115265 86.20915704 324.02392738 86.20776367 327.40722656 C86.22394241 328.91450066 86.22394241 328.91450066 86.240448 330.45222473 C86.23632401 331.37486618 86.23220001 332.29750763 86.22795105 333.24810791 C86.23071643 334.04822422 86.23348181 334.84834053 86.23633099 335.67270279 C85.76066431 338.5004467 84.81281751 339.77358153 82.8671875 341.8671875 C80.7860322 342.36628282 80.7860322 342.36628282 78.336586 342.36496544 C77.40239633 342.37416303 76.46820666 342.38336062 75.50570822 342.39283693 C74.47760991 342.3825498 73.44951159 342.37226268 72.39025879 342.36166382 C71.29950373 342.36649265 70.20874867 342.37132148 69.08494043 342.37629664 C65.41120482 342.38761448 61.73815804 342.37021229 58.06445312 342.35302734 C55.43836783 342.35517203 52.81228345 342.35904797 50.186203 342.36453247 C43.78264243 342.3746253 37.37928813 342.36332234 30.97575319 342.34483187 C23.52287528 342.32408342 16.0700422 342.32420373 8.61714083 342.32517703 C-4.67829738 342.32617876 -17.97363945 342.30784226 -31.26904297 342.27880859 C-44.17824048 342.25063278 -57.08735335 342.23646701 -69.99658203 342.23779297 C-70.79162547 342.23787288 -71.58666891 342.23795279 -72.40580457 342.23803513 C-73.19945624 342.23811584 -73.9931079 342.23819655 -74.81080961 342.2382797 C-89.49550768 342.23965866 -104.1801697 342.2278834 -118.86485609 342.20997327 C-124.0632408 342.20393484 -129.26161889 342.20181347 -134.46000671 342.20090866 C-141.45310605 342.1994036 -148.44611421 342.18673414 -155.43918419 342.16657639 C-158.0115625 342.16071777 -160.58395111 342.15827738 -163.15633583 342.15943146 C-166.65628132 342.16040775 -170.15597347 342.14915204 -173.65588379 342.13461304 C-174.6839821 342.13771024 -175.71208041 342.14080745 -176.77133322 342.1439985 C-177.70552289 342.13754961 -178.63971255 342.13110072 -179.602211 342.12445641 C-180.41052824 342.12304756 -181.21884549 342.12163871 -182.0516572 342.12018716 C-184.1328125 341.8671875 -184.1328125 341.8671875 -187.1328125 339.8671875 C-188.07508878 337.04035867 -188.25646413 335.33124045 -188.25306702 332.40632629 C-188.25512901 331.03704735 -188.25512901 331.03704735 -188.25723267 329.6401062 C-188.25183975 328.1414653 -188.25183975 328.1414653 -188.24633789 326.61254883 C-188.24648392 325.55872513 -188.24662994 324.50490143 -188.2467804 323.41914368 C-188.24608265 319.9291479 -188.23829666 316.43920522 -188.23046875 312.94921875 C-188.22860408 310.53212005 -188.22718041 308.11502097 -188.22618103 305.69792175 C-188.22235971 299.33076945 -188.21253268 292.96363989 -188.20147705 286.59649658 C-188.19125468 280.10144356 -188.18668164 273.60638687 -188.18164062 267.11132812 C-188.17091009 254.36327154 -188.15403001 241.61523073 -188.1328125 228.8671875 C-188.74874268 228.87606995 -189.36467285 228.88495239 -189.99926758 228.894104 C-196.48965034 228.98354311 -202.97985429 229.04331621 -209.47070312 229.08691406 C-211.88353604 229.10686015 -214.29632169 229.13402693 -216.70898438 229.16894531 C-240.75866539 229.50795408 -260.83382951 227.12859929 -279.1328125 209.8671875 C-291.40365574 197.0831999 -297.74748269 180.78872798 -297.6328125 163.1796875 C-297.62636719 162.13385498 -297.61992187 161.08802246 -297.61328125 160.01049805 C-297.19049089 141.92647481 -289.91505756 126.74738762 -276.97607422 114.05175781 C-263.05286407 101.18693627 -245.811535 96.65616632 -227.2578125 96.8046875 C-226.18789062 96.80919922 -225.11796875 96.81371094 -224.015625 96.81835938 C-221.38796264 96.83009001 -218.76041712 96.84650522 -216.1328125 96.8671875 C-216.179823 95.70195557 -216.179823 95.70195557 -216.2277832 94.51318359 C-216.79305953 77.58472355 -211.46823557 61.85829198 -200.5078125 48.9296875 C-188.00776605 36.18002415 -171.64870204 29.15505787 -153.8203125 28.5546875 C-140.76197718 28.85231338 -128.17713836 32.99693778 -117.1328125 39.8671875 C-117.03226563 39.01769531 -116.93171875 38.16820312 -116.828125 37.29296875 C-114.84696378 27.53185422 -108.71169076 18.19336227 -102.1328125 10.8671875 C-101.40449219 10.04605469 -100.67617187 9.22492188 -99.92578125 8.37890625 C-73.41247834 -19.84769572 -30.96231822 -21.07908448 0 0 Z M-91.1328125 17.8671875 C-100.9558439 29.80500569 -105.51177006 43.05934914 -109.1328125 57.8671875 C-112.2394008 58.84354382 -113.62926966 59.10866638 -116.6171875 57.67578125 C-119.2338784 55.79452677 -121.81902529 53.88251373 -124.3828125 51.9296875 C-135.45359343 43.85261172 -147.52563672 40.25922073 -161.19921875 42.33203125 C-174.40621756 44.96719394 -185.75877739 51.39588922 -193.94921875 62.28125 C-201.37755071 74.01019519 -204.88856172 86.97114646 -202.4453125 100.7421875 C-202.1328125 103.8671875 -202.1328125 103.8671875 -203.17016602 106.52490234 C-205.1328125 108.8671875 -205.1328125 108.8671875 -208.31225586 109.47900391 C-210.24790405 109.47392822 -210.24790405 109.47392822 -212.22265625 109.46875 C-212.92242081 109.47675629 -213.62218536 109.48476257 -214.34315491 109.49301147 C-216.58612549 109.51608913 -218.82729365 109.50665392 -221.0703125 109.4921875 C-239.9984589 109.45892552 -255.90884715 112.22521746 -270.1328125 125.8671875 C-281.96569977 139.33719928 -284.95400929 153.12637164 -284.31201172 170.44433594 C-283.63732553 179.56638737 -279.24058424 187.47061677 -274.1328125 194.8671875 C-273.50826172 195.78757812 -273.50826172 195.78757812 -272.87109375 196.7265625 C-265.46380325 206.42499691 -253.41020048 212.83186588 -241.69458008 215.40209961 C-236.65926546 216.05960008 -231.6817649 215.98947867 -226.609375 215.96484375 C-225.50806244 215.9634288 -224.40674988 215.96201385 -223.27206421 215.96055603 C-219.76728558 215.95497502 -216.2625717 215.94242596 -212.7578125 215.9296875 C-210.37630301 215.92467005 -207.99479251 215.92010757 -205.61328125 215.91601562 C-199.78641354 215.90586429 -193.95968519 215.88628504 -188.1328125 215.8671875 C-188.1328125 208.6071875 -188.1328125 201.3471875 -188.1328125 193.8671875 C-193.87597139 193.65762017 -193.87597139 193.65762017 -199.62011719 193.47924805 C-200.70147949 193.42957886 -200.70147949 193.42957886 -201.8046875 193.37890625 C-202.5378418 193.35272217 -203.27099609 193.32653809 -204.02636719 193.29956055 C-206.78691554 192.73292504 -208.09074719 191.80942864 -210.1328125 189.8671875 C-210.63401794 187.43859863 -210.63401794 187.43859863 -210.63452148 184.52539062 C-210.64390244 183.43415894 -210.65328339 182.34292725 -210.66294861 181.21862793 C-210.65171463 180.04046509 -210.64048065 178.86230225 -210.62890625 177.6484375 C-210.63036148 176.43901489 -210.63181671 175.22959229 -210.63331604 173.98352051 C-210.63165492 171.42469882 -210.62007012 168.86586736 -210.59936523 166.30712891 C-210.57042695 162.38270782 -210.57874973 158.45963793 -210.59179688 154.53515625 C-210.58555934 152.05207674 -210.57716829 149.56900152 -210.56640625 147.0859375 C-210.56934189 145.90777466 -210.57227753 144.72961182 -210.57530212 143.51574707 C-210.56261795 142.42451538 -210.54993378 141.33328369 -210.53686523 140.20898438 C-210.53146225 139.24762573 -210.52605927 138.28626709 -210.52049255 137.29577637 C-210.05066678 134.35259257 -209.48017198 133.65308547 -207.1328125 131.8671875 C-204.76311588 131.49229068 -204.76311588 131.49229068 -201.89942932 131.49245739 C-200.26301562 131.48164758 -200.26301562 131.48164758 -198.59354305 131.47061938 C-196.78875658 131.48168081 -196.78875658 131.48168081 -194.94750977 131.4929657 C-193.67299485 131.48899129 -192.39847994 131.48501689 -191.08534336 131.48092204 C-187.54053493 131.47030581 -183.99597757 131.478483 -180.45117998 131.48967254 C-176.63108743 131.49849437 -172.81102845 131.4900769 -168.99093628 131.48381042 C-161.50456251 131.47430856 -154.01828493 131.48093437 -146.53191829 131.49307337 C-137.81964786 131.50667537 -129.10740051 131.5050571 -120.39512217 131.50294004 C-104.85356426 131.49974812 -89.31205214 131.51142945 -73.77050781 131.53100586 C-58.67869675 131.55001088 -43.58693936 131.55709366 -28.49511719 131.55151367 C-12.07385259 131.54546013 4.34738838 131.54562515 20.76865101 131.5569995 C22.51862907 131.55820684 24.26860714 131.55941282 26.01858521 131.56061745 C26.87968051 131.56122099 27.74077581 131.56182452 28.62796491 131.56244635 C34.70550105 131.56633079 40.78302841 131.56592984 46.86056519 131.5640316 C54.26379619 131.56191264 61.6669801 131.56711101 69.07019782 131.58164515 C72.8497586 131.58890431 76.62925068 131.59295327 80.40881729 131.58840179 C84.49990804 131.5835949 88.59080969 131.59421144 92.68188477 131.60649109 C93.88507575 131.60271177 95.08826674 131.59893244 96.32791805 131.59503859 C97.41886052 131.60087079 98.50980299 131.60670298 99.63380432 131.61271191 C100.57882089 131.61357868 101.52383745 131.61444546 102.49749088 131.6153385 C104.8671875 131.8671875 104.8671875 131.8671875 107.8671875 133.8671875 C108.23468018 136.22021484 108.23468018 136.22021484 108.22363281 139.203125 C108.22813446 140.8749585 108.22813446 140.8749585 108.23272705 142.58056641 C108.22038025 143.78890137 108.20803345 144.99723633 108.1953125 146.2421875 C108.19343933 147.47759277 108.19156616 148.71299805 108.18963623 149.98583984 C108.18117592 153.27321467 108.15917245 156.5601549 108.13146973 159.84741211 C108.10781573 163.19253171 108.10648432 166.53761412 108.1015625 169.8828125 C108.09239157 172.41927564 108.08201551 174.95573478 108.0703125 177.4921875 C108.06606262 178.70052246 108.06181274 179.90885742 108.05743408 181.15380859 C108.04302277 182.82564209 108.04302277 182.82564209 108.02832031 184.53125 C108.02149231 185.51561035 108.01466431 186.4999707 108.00762939 187.51416016 C107.8671875 189.8671875 107.8671875 189.8671875 106.8671875 191.8671875 C104.20800584 192.75358139 102.38654109 193.04707775 99.63671875 193.18359375 C98.91331299 193.22170166 98.18990723 193.25980957 97.44458008 193.29907227 C96.53216553 193.34217529 95.61975098 193.38527832 94.6796875 193.4296875 C90.3175 193.64625 90.3175 193.64625 85.8671875 193.8671875 C85.8671875 201.1271875 85.8671875 208.3871875 85.8671875 215.8671875 C92.80523005 215.93631191 99.7420624 215.99597145 106.68017578 216.03198242 C109.03698796 216.04700528 111.39377248 216.06742946 113.75048828 216.09350586 C117.15143692 216.13017571 120.55201371 216.14697946 123.953125 216.16015625 C124.99520111 216.17564011 126.03727722 216.19112396 127.1109314 216.20707703 C139.57751085 216.20990107 150.85478565 212.15137197 160.171875 203.72265625 C169.23629408 193.80192108 172.78566333 183.09750808 172.27734375 169.875 C171.52841135 160.00036153 166.32486939 152.06481211 159.8671875 144.8671875 C159.2484375 144.16722656 158.6296875 143.46726563 157.9921875 142.74609375 C152.22521673 136.59543339 145.58859546 132.32326434 137.8046875 129.1171875 C134.8671875 127.8671875 134.8671875 127.8671875 133.8671875 125.8671875 C133.3377521 121.63170431 134.21676621 118.76123091 135.8671875 114.9296875 C137.92891163 110.00363949 138.89274482 106.21553026 137.27734375 100.94140625 C134.23293189 93.71618915 128.01425477 87.89605895 120.8046875 84.8671875 C115.78689685 83.30163682 110.88310231 83.1952159 105.8671875 84.8671875 C102.3046875 85.1171875 102.3046875 85.1171875 98.8671875 84.8671875 C95.8296545 80.310888 97.4546904 75.9843084 98.45703125 70.83984375 C100.71026521 58.45442046 98.96619645 49.36848645 91.8671875 38.8671875 C86.0675282 31.5135525 77.16534162 25.87880811 67.8515625 24.3828125 C56.08014653 23.41607785 46.04943502 25.00335955 36.6328125 32.69140625 C32.2783921 36.85757163 28.52393587 41.42596247 25.8671875 46.8671875 C25.8671875 47.5271875 25.8671875 48.1871875 25.8671875 48.8671875 C22.5671875 48.8671875 19.2671875 48.8671875 15.8671875 48.8671875 C15.4959375 47.4646875 15.1246875 46.0621875 14.7421875 44.6171875 C9.57480297 27.60087008 -0.82135428 14.14598871 -16.3828125 5.6171875 C-41.23405322 -7.32183773 -71.39209352 -2.17770281 -91.1328125 17.8671875 Z M-198.1328125 143.8671875 C-198.1328125 156.0771875 -198.1328125 168.2871875 -198.1328125 180.8671875 C-101.1128125 180.8671875 -4.0928125 180.8671875 95.8671875 180.8671875 C95.8671875 168.6571875 95.8671875 156.4471875 95.8671875 143.8671875 C-1.1528125 143.8671875 -98.1728125 143.8671875 -198.1328125 143.8671875 Z M-175.1328125 193.8671875 C-175.1328125 238.4171875 -175.1328125 282.9671875 -175.1328125 328.8671875 C-93.2928125 328.8671875 -11.4528125 328.8671875 72.8671875 328.8671875 C72.8671875 284.3171875 72.8671875 239.7671875 72.8671875 193.8671875 C-8.9728125 193.8671875 -90.8128125 193.8671875 -175.1328125 193.8671875 Z " fill="#000000" transform="translate(312.1328125,92.1328125)"/>
<path d="M0 0 C0.68648337 -0.00467997 1.37296675 -0.00935994 2.08025265 -0.01418173 C4.38580959 -0.02616971 6.69077629 -0.01666009 8.99633789 -0.00723267 C10.64706775 -0.0112967 12.29779488 -0.01663762 13.94851685 -0.02316284 C18.43606841 -0.03686238 22.92341352 -0.03152696 27.41096878 -0.02202559 C32.10210995 -0.01444262 36.79323316 -0.0214708 41.484375 -0.02618408 C49.36306947 -0.03164562 57.24167965 -0.0244396 65.12036133 -0.01016235 C74.23572641 0.00616493 83.35089021 0.0008767 92.46625042 -0.01564157 C100.2854189 -0.02924511 108.1045267 -0.03118165 115.92370319 -0.02332556 C120.59686394 -0.01864281 125.26993001 -0.01804069 129.94308472 -0.02793503 C134.33602215 -0.03658598 138.72869947 -0.0306172 143.12160873 -0.01325226 C144.73612918 -0.00927738 146.35067142 -0.01043852 147.96518326 -0.01704025 C150.16474951 -0.02520665 152.36347593 -0.01499476 154.56298828 0 C155.79521622 0.00113108 157.02744415 0.00226215 158.29701233 0.00342751 C161.28149414 0.38095093 161.28149414 0.38095093 163.17405701 1.68601036 C165.06871713 4.58580143 164.69880736 7.04244517 164.28149414 10.38095093 C161.97557486 12.81535209 160.55251157 13.34741509 157.20799255 13.76126766 C155.99273392 13.76369756 154.77747528 13.76612745 153.52539062 13.76863098 C152.50769293 13.77670929 152.50769293 13.77670929 151.46943569 13.78495079 C149.19696836 13.79925366 146.92508163 13.79212128 144.65258789 13.78500366 C143.023036 13.79070599 141.39348811 13.79766972 139.76394653 13.80580139 C135.33837865 13.82376197 130.91300872 13.82255915 126.48741531 13.81685901 C122.79437928 13.81377172 119.10138153 13.81985438 115.40835094 13.82589775 C106.69773877 13.83995053 97.98722466 13.83837509 89.27661133 13.82699585 C80.28560168 13.81550999 71.29489016 13.8295964 62.30391979 13.85639232 C54.58747091 13.87853003 46.87111573 13.88519118 39.15463734 13.87931591 C34.54457778 13.87594096 29.93470941 13.87839713 25.32467651 13.89556694 C20.99076119 13.91100366 16.65728858 13.90711726 12.32339096 13.8882618 C10.73186199 13.88456698 9.14030046 13.88771033 7.54880142 13.89814758 C5.37788597 13.91129908 3.20844888 13.89986451 1.03759766 13.88215637 C-0.17766098 13.88194709 -1.39291962 13.8817378 -2.64500427 13.88152218 C-6.32685139 13.28187166 -7.51622194 12.34472213 -9.71850586 9.38095093 C-10.16023444 6.28885084 -10.37694238 4.36779034 -8.61106873 1.72116661 C-5.77228949 -0.28911084 -3.45254891 0.00316914 0 0 Z " fill="#000000" transform="translate(183.718505859375,321.6190490722656)"/>
<path d="M0 0 C1.01641605 -0.00573832 1.01641605 -0.00573832 2.05336577 -0.01159257 C4.32883289 -0.02192919 6.60404798 -0.01792924 8.87953186 -0.01396179 C10.50893386 -0.01830791 12.13833381 -0.02349072 13.76773071 -0.02944946 C18.19745539 -0.04286154 22.62709486 -0.04341568 27.05683589 -0.04088616 C30.75229951 -0.03981795 34.44774579 -0.04469598 38.1432057 -0.04949158 C46.86001507 -0.06059441 55.57678134 -0.06101982 64.29359436 -0.05497742 C73.29191614 -0.04893587 82.29008163 -0.06125144 91.28837675 -0.08254749 C99.00904048 -0.10014923 106.7296544 -0.1061671 114.45033747 -0.10290974 C119.06373597 -0.10109446 123.67702299 -0.1037574 128.29040337 -0.11762428 C132.62833849 -0.13017485 136.96602954 -0.12828493 141.3039608 -0.11521339 C142.89710318 -0.112842 144.4902626 -0.1156024 146.08338547 -0.12383652 C148.25631509 -0.13425855 150.42841884 -0.12624088 152.60131836 -0.11352539 C153.81787581 -0.11369313 155.03443327 -0.11386087 156.2878561 -0.1140337 C159.63686552 0.29391635 161.05667632 0.82280518 163.364151 3.26069641 C164.09896057 9.13917294 164.09896057 9.13917294 162.25392056 11.95521641 C159.42243806 13.91124526 157.10803926 13.64158915 153.69033813 13.64837646 C152.66779675 13.65645477 152.66779675 13.65645477 151.62459797 13.66469628 C149.3352073 13.6790296 147.04639047 13.67185925 144.75697327 13.66474915 C143.11771681 13.67044994 141.47846433 13.67741307 139.83921814 13.68554688 C135.38260078 13.70352593 130.92617979 13.70230099 126.46953702 13.69660449 C122.75169796 13.69351938 119.03389699 13.69959754 115.31606334 13.70564324 C106.54649734 13.71970253 97.77702871 13.7181156 89.00746155 13.70674133 C79.95455743 13.69525917 70.90194952 13.70933419 61.84908444 13.73613781 C54.08170086 13.75827596 46.31441038 13.76493644 38.54699749 13.7590614 C33.90562439 13.75568603 29.26444119 13.75814518 24.62309456 13.77531242 C20.25882485 13.79074949 15.89499477 13.78686232 11.53074265 13.76800728 C9.92792662 13.76431233 8.32507825 13.76745618 6.72229195 13.77789307 C4.53599983 13.79104388 2.35117583 13.77961042 0.16494751 13.76190186 C-1.05898429 13.76169257 -2.28291609 13.76148329 -3.54393673 13.76126766 C-6.635849 13.26069641 -6.635849 13.26069641 -9.06480503 11.45593357 C-10.635849 9.26069641 -10.635849 9.26069641 -10.573349 5.63569641 C-8.91620149 -0.33003461 -5.51363075 0.00930681 0 0 Z " fill="#000000" transform="translate(184.63584899902344,371.7393035888672)"/>
</svg>
