<?xml version="1.0" encoding="UTF-8"?>
<svg version="1.1" xmlns="http://www.w3.org/2000/svg" width="512" height="512">
<path d="M0 0 C37.95 0 75.9 0 115 0 C115.33 24.42 115.66 48.84 116 74 C130.6627821 82.00480581 130.6627821 82.00480581 137 80 C139.49366367 77.94277409 139.49366367 77.94277409 142.04394531 75.29663086 C142.53220795 74.8088063 143.02047058 74.32098175 143.52352905 73.81837463 C145.13227606 72.20754109 146.73014197 70.58635007 148.328125 68.96484375 C149.44276461 67.84460772 150.55806934 66.72503311 151.67401123 65.60609436 C154.60694172 62.66171882 157.53075096 59.70844506 160.45275879 56.75323486 C163.43701304 53.73827257 166.42979589 50.73180278 169.421875 47.72460938 C175.2896361 41.8246901 181.14778951 35.91534427 187 30 C192.10841702 34.2762451 196.89109048 38.75224157 201.58764648 43.47412109 C202.31043289 44.19676147 203.0332193 44.91940186 203.77790833 45.66394043 C206.14468416 48.03140785 208.50790719 50.40238775 210.87109375 52.7734375 C212.51996846 54.42417907 214.16906542 56.07469867 215.81837463 57.7250061 C220.14254924 62.05298478 224.4637113 66.38395899 228.78424072 70.71557617 C233.2000387 75.14163376 237.618696 79.56483481 242.03710938 83.98828125 C250.69419795 92.6560699 259.34810481 101.32702769 268 110 C266.26894155 113.69379583 264.18101213 116.06094178 261.27490234 118.95214844 C260.79668533 119.4306575 260.31846832 119.90916656 259.82575989 120.4021759 C258.25051517 121.97603195 256.66831465 123.54269293 255.0859375 125.109375 C253.98976787 126.20181286 252.89404019 127.29469434 251.79873657 128.38800049 C248.91960112 131.25951242 246.03450944 134.12496654 243.14813232 136.98919678 C240.20190185 139.91494126 237.26134931 142.84638014 234.3203125 145.77734375 C228.55241412 151.52381482 222.77821036 157.26389806 217 163 C218.72686468 168.26588262 220.78673199 173.30211711 222.9765625 178.390625 C224 181 224 181 224 183 C248.42 183 272.84 183 298 183 C298 220.95 298 258.9 298 298 C273.58 298 249.16 298 224 298 C222.515 302.95 222.515 302.95 221 308 C219.68 311.3 218.36 314.6 217 318 C233.83 334.83 250.66 351.66 268 369 C266.32348841 372.35302318 265.32891902 373.91972702 262.79830933 376.44219971 C261.80972931 377.43490372 261.80972931 377.43490372 260.80117798 378.44766235 C260.07901093 379.16263885 259.35684387 379.87761536 258.61279297 380.61425781 C257.85172241 381.37562042 257.09065186 382.13698303 256.30651855 382.92141724 C253.78978644 385.43675604 251.26604416 387.94493661 248.7421875 390.453125 C246.99583128 392.19575111 245.2499161 393.93881931 243.50442505 395.68231201 C238.90896304 400.27013748 234.30752651 404.85192517 229.70483398 409.43249512 C225.00924536 414.10762586 220.31931378 418.78842168 215.62890625 423.46875 C206.42480823 432.65139772 197.21458132 441.8278727 188 451 C184.30620417 449.26894155 181.93905822 447.18101213 179.04785156 444.27490234 C178.5693425 443.79668533 178.09083344 443.31846832 177.5978241 442.82575989 C176.02396805 441.25051517 174.45730707 439.66831465 172.890625 438.0859375 C171.79818714 436.98976787 170.70530566 435.89404019 169.61199951 434.79873657 C166.74048758 431.91960112 163.87503346 429.03450944 161.01080322 426.14813232 C158.08505874 423.20190185 155.15361986 420.26134931 152.22265625 417.3203125 C146.47618518 411.55241412 140.73610194 405.77821036 135 400 C134.4652002 400.21205078 133.93040039 400.42410156 133.37939453 400.64257812 C130.96263583 401.59856614 128.54385942 402.54934053 126.125 403.5 C125.28324219 403.83386719 124.44148438 404.16773438 123.57421875 404.51171875 C122.76855469 404.82753906 121.96289062 405.14335937 121.1328125 405.46875 C120.01737061 405.90864258 120.01737061 405.90864258 118.87939453 406.35742188 C117 407 117 407 115 407 C115 431.42 115 455.84 115 481 C77.05 481 39.1 481 0 481 C0 456.58 0 432.16 0 407 C-4.455 405.515 -4.455 405.515 -9 404 C-11.36053951 402.92021497 -13.65402016 401.76977095 -15.95703125 400.57421875 C-17.97889072 399.79053192 -17.97889072 399.79053192 -19.81817627 400.66879272 C-22.60206088 402.36733848 -24.65081513 404.4119018 -26.95214844 406.72509766 C-27.66991203 407.44242317 -27.66991203 407.44242317 -28.4021759 408.17424011 C-29.97603195 409.74948483 -31.54269293 411.33168535 -33.109375 412.9140625 C-34.20181286 414.01023213 -35.29469434 415.10595981 -36.38800049 416.20126343 C-39.25951242 419.08039888 -42.12496654 421.96549056 -44.98919678 424.85186768 C-47.91494126 427.79809815 -50.84638014 430.73865069 -53.77734375 433.6796875 C-59.52381482 439.44758588 -65.26389806 445.22178964 -71 451 C-74.01947899 449.64680663 -76.11100877 448.13702023 -78.44219971 445.79830933 C-79.10400238 445.13925598 -79.76580505 444.48020264 -80.44766235 443.80117798 C-81.16263885 443.07901093 -81.87761536 442.35684387 -82.61425781 441.61279297 C-83.37562042 440.85172241 -84.13698303 440.09065186 -84.92141724 439.30651855 C-87.43675604 436.78978644 -89.94493661 434.26604416 -92.453125 431.7421875 C-94.19575111 429.99583128 -95.93881931 428.2499161 -97.68231201 426.50442505 C-102.27013748 421.90896304 -106.85192517 417.30752651 -111.43249512 412.70483398 C-116.10762586 408.00924536 -120.78842168 403.31931378 -125.46875 398.62890625 C-134.65139772 389.42480823 -143.8278727 380.21458132 -153 371 C-149.54010216 366.87975447 -146.02966169 362.91202828 -142.17211914 359.15380859 C-140.81655663 357.8274086 -140.81655663 357.8274086 -139.43360901 356.47421265 C-138.96092653 356.01375927 -138.48824406 355.55330589 -138.00123787 355.07889938 C-135.46727118 352.60649763 -132.94906569 350.1180864 -130.42773438 347.6328125 C-127.23346054 344.48655684 -124.034732 341.34518491 -120.82104492 338.21875 C-118.20761153 335.67545902 -115.60898317 333.11785326 -113.01968193 330.55000687 C-112.03341973 329.57733506 -111.04176376 328.61010098 -110.0446949 327.64850998 C-108.65685843 326.30879958 -107.28895515 324.94853178 -105.92211914 323.58740234 C-105.13857559 322.82019867 -104.35503204 322.052995 -103.54774475 321.26254272 C-103.03698898 320.51590363 -102.52623322 319.76926453 -102 319 C-103.3852088 312.073956 -106.37679089 305.55802278 -109 299 C-145.63 298.505 -145.63 298.505 -183 298 C-183 260.05 -183 222.1 -183 183 C-158.25 183 -133.5 183 -108 183 C-107.67 181.35 -107.34 179.7 -107 178 C-105.72527134 174.91060985 -104.34871674 171.87992369 -102.9609375 168.83984375 C-101.900898 165.7071254 -101.80547896 164.99009091 -103 162 C-105.05722591 159.50633633 -105.05722591 159.50633633 -107.70336914 156.95605469 C-108.1911937 156.46779205 -108.67901825 155.97952942 -109.18162537 155.47647095 C-110.79245891 153.86772394 -112.41364993 152.26985803 -114.03515625 150.671875 C-115.15539228 149.55723539 -116.27496689 148.44193066 -117.39390564 147.32598877 C-120.33828118 144.39305828 -123.29155494 141.46924904 -126.24676514 138.54724121 C-129.26172743 135.56298696 -132.26819722 132.57020411 -135.27539062 129.578125 C-141.1753099 123.7103639 -147.08465573 117.85221049 -153 112 C-148.69682388 106.85750993 -144.1865617 102.0478993 -139.43408203 97.32055664 C-138.70168808 96.58801666 -137.96929413 95.85547668 -137.21470642 95.10073853 C-134.81477343 92.70149725 -132.41132745 90.30580871 -130.0078125 87.91015625 C-128.3346507 86.23886127 -126.66171085 84.56734408 -124.98898315 82.89561462 C-120.60182061 78.51225649 -116.21166243 74.13191075 -111.82086182 69.75219727 C-107.3344815 65.27607582 -102.85095708 60.79709574 -98.3671875 56.31835938 C-89.58090901 47.54278157 -80.7914614 38.77038529 -72 30 C-67.87975447 33.45989784 -63.91202828 36.97033831 -60.15380859 40.82788086 C-59.26954193 41.7315892 -58.38527527 42.63529755 -57.47421265 43.56639099 C-56.78353258 44.27541471 -56.78353258 44.27541471 -56.07889938 44.99876213 C-53.60649763 47.53272882 -51.1180864 50.05093431 -48.6328125 52.57226562 C-45.48655684 55.76653946 -42.34518491 58.965268 -39.21875 62.17895508 C-36.67545902 64.79238847 -34.11785326 67.39101683 -31.55000687 69.98031807 C-30.57733506 70.96658027 -29.61010098 71.95823624 -28.64850998 72.9553051 C-27.30879958 74.34314157 -25.94853178 75.71104485 -24.58740234 77.07788086 C-23.82019867 77.86142441 -23.052995 78.64496796 -22.26254272 79.45225525 C-20.09744207 81.27677207 -20.09744207 81.27677207 -17.40127563 80.81959534 C-13.41174272 79.45790136 -9.59784566 77.75566025 -5.7421875 76.05859375 C-3 75 -3 75 0 75 C0 50.25 0 25.5 0 0 Z M15 15 C15 38.43 15 61.86 15 86 C10.545 86.99 10.545 86.99 6 88 C3.42499825 88.83843398 3.42499825 88.83843398 1.24609375 89.8046875 C0.05790039 90.30935547 0.05790039 90.30935547 -1.15429688 90.82421875 C-1.94900391 91.17097656 -2.74371094 91.51773438 -3.5625 91.875 C-4.36107422 92.21402344 -5.15964844 92.55304688 -5.98242188 92.90234375 C-10.54443155 94.8580219 -14.90378303 96.95837715 -19.19116211 99.46533203 C-21 100 -21 100 -22.820755 99.31152344 C-25.50904418 97.69364465 -27.46289252 95.77632236 -29.67675781 93.55029297 C-30.59741028 92.62948944 -31.51806274 91.70868591 -32.46661377 90.75997925 C-33.4622253 89.75415535 -34.45772648 88.7482222 -35.453125 87.7421875 C-36.47830193 86.71327851 -37.50392275 85.68481163 -38.52996826 84.6567688 C-41.22393164 81.95518419 -43.91183368 79.24764659 -46.59851074 76.53881836 C-49.34328304 73.77355511 -52.09375472 71.01397367 -54.84375 68.25390625 C-60.23475573 62.84147726 -65.61936964 57.42274562 -71 52 C-74.97526224 53.6006756 -77.64020304 56.37143556 -80.59472656 59.36767578 C-81.41490265 60.18741379 -81.41490265 60.18741379 -82.25164795 61.02371216 C-84.05275649 62.82621093 -85.84668247 64.63568396 -87.640625 66.4453125 C-88.89000495 67.69842367 -90.13982801 68.95109319 -91.39007568 70.20333862 C-94.67586872 73.49675955 -97.9556107 76.79614291 -101.23413086 80.09680176 C-104.58214253 83.46528994 -107.93583907 86.8281076 -111.2890625 90.19140625 C-117.86495296 96.78873176 -124.43446516 103.39236983 -131 110 C-129.47102424 113.61692773 -127.32184367 115.9203522 -124.55029297 118.67675781 C-123.62948944 119.59741028 -122.70868591 120.51806274 -121.75997925 121.46661377 C-120.75415535 122.4622253 -119.7482222 123.45772648 -118.7421875 124.453125 C-117.71327851 125.47830193 -116.68481163 126.50392275 -115.6567688 127.52996826 C-112.95518419 130.22393164 -110.24764659 132.91183368 -107.53881836 135.59851074 C-104.77355511 138.34328304 -102.01397367 141.09375472 -99.25390625 143.84375 C-93.84147726 149.23475573 -88.42274562 154.61936964 -83 160 C-84.46330579 164.51927692 -86.23489175 168.73552462 -88.3125 173 C-94.43644495 185.05534952 -94.43644495 185.05534952 -97 198 C-120.43 198 -143.86 198 -168 198 C-168 226.05 -168 254.1 -168 283 C-144.57 283 -121.14 283 -97 283 C-96.34 285.97 -95.68 288.94 -95 292 C-93.12997131 297.79218624 -90.87355076 303.41204879 -88.046875 308.8046875 C-87.71840576 309.43221924 -87.38993652 310.05975098 -87.05151367 310.70629883 C-86.10551843 312.48176212 -85.13341789 314.24324197 -84.16015625 316.00390625 C-83 319 -83 319 -83.64938354 320.8949585 C-85.32026328 323.49915539 -87.25438464 325.49343172 -89.44970703 327.67675781 C-90.37051056 328.59741028 -91.29131409 329.51806274 -92.24002075 330.46661377 C-93.24584465 331.4622253 -94.2517778 332.45772648 -95.2578125 333.453125 C-96.28672149 334.47830193 -97.31518837 335.50392275 -98.3432312 336.52996826 C-101.04481581 339.22393164 -103.75235341 341.91183368 -106.46118164 344.59851074 C-109.22644489 347.34328304 -111.98602633 350.09375472 -114.74609375 352.84375 C-120.15852274 358.23475573 -125.57725438 363.61936964 -131 369 C-129.39140496 373.01571255 -126.56359635 375.70479614 -123.54052734 378.68652344 C-122.98428177 379.24306107 -122.42803619 379.79959869 -121.85493469 380.3730011 C-120.01997095 382.20657442 -118.17803069 384.03296672 -116.3359375 385.859375 C-115.06040611 387.13117525 -113.78531633 388.40341853 -112.51065063 389.67608643 C-109.15804605 393.02106258 -105.79947827 396.35998851 -102.43963623 399.69769287 C-99.01082544 403.10602831 -95.58768427 406.52004745 -92.1640625 409.93359375 C-85.44824728 416.62797297 -78.72611906 423.31597466 -72 430 C-66.04295126 425.08671625 -60.68672683 419.72234748 -55.3046875 414.19140625 C-53.43694734 412.29157195 -51.56846232 410.39249336 -49.69921875 408.49414062 C-46.77023766 405.51714221 -43.84617574 402.53568511 -40.93701172 399.53930664 C-39.027211 397.57293014 -37.10977427 395.61466493 -35.18289185 393.6650238 C-33.37342279 391.83392344 -31.5755282 389.99129901 -29.79049683 388.1363678 C-28.97259674 387.31478683 -28.15469666 386.49320587 -27.31201172 385.64672852 C-26.24114822 384.55135521 -26.24114822 384.55135521 -25.14865112 383.43385315 C-23 382 -23 382 -20.34863281 382.2240448 C-18.23447387 382.92253313 -16.30579977 383.66965087 -14.3203125 384.671875 C-13.29550781 385.17460938 -13.29550781 385.17460938 -12.25 385.6875 C-10.87082979 386.3770851 -9.49313042 387.06962274 -8.1171875 387.765625 C-0.82675251 391.32983766 6.04158073 393.34719358 14 396 C14.33 419.1 14.66 442.2 15 466 C43.05 466 71.1 466 100 466 C100 442.9 100 419.8 100 396 C103.63 395.01 107.26 394.02 111 393 C112.86206463 392.32109337 114.71158675 391.60309072 116.52734375 390.80859375 C117.42130859 390.42123047 118.31527344 390.03386719 119.23632812 389.63476562 C120.12771484 389.23966797 121.01910156 388.84457031 121.9375 388.4375 C122.85595703 388.03853516 123.77441406 387.63957031 124.72070312 387.22851562 C129.46986557 385.20039826 129.46986557 385.20039826 134.03735352 382.80883789 C136.59047886 381.75665425 137.42560164 382.02094672 140 383 C142.26531982 384.90455627 142.26531982 384.90455627 144.76855469 387.42797852 C145.22755661 387.88654236 145.68655853 388.3451062 146.1594696 388.81756592 C147.670827 390.33100888 149.17128789 391.85479014 150.671875 393.37890625 C151.7192536 394.43188162 152.76729769 395.48419543 153.815979 396.53587341 C156.57136295 399.30269969 159.31761824 402.0784171 162.06207275 404.8560791 C164.86535382 407.69007411 167.67716993 410.51557253 170.48828125 413.34179688 C176.00057896 418.88624795 181.50326105 424.44011909 187 430 C193.85907115 424.38062338 200.03009491 418.09685489 206.27734375 411.8203125 C207.45539258 410.64039553 208.63366466 409.46070142 209.81214905 408.28121948 C212.89347142 405.19610309 215.97177716 402.10799411 219.04943848 399.01922607 C222.19844034 395.85994267 225.35032171 392.70353484 228.50195312 389.546875 C234.6707711 383.36737473 240.83640129 377.1847061 247 371 C242.08671625 365.04295126 236.72234748 359.68672683 231.19140625 354.3046875 C229.29157195 352.43694734 227.39249336 350.56846232 225.49414062 348.69921875 C222.51714221 345.77023766 219.53568511 342.84617574 216.53930664 339.93701172 C214.57293014 338.027211 212.61466493 336.10977427 210.6650238 334.18289185 C208.83392344 332.37342279 206.99129901 330.5755282 205.1363678 328.79049683 C204.31478683 327.97259674 203.49320587 327.15469666 202.64672852 326.31201172 C201.91647964 325.59810272 201.18623077 324.88419373 200.43385315 324.14865112 C199 322 199 322 199.21731567 319.36882019 C199.99630336 317.01118801 200.86773638 314.8048779 201.92578125 312.55859375 C202.30871338 311.73278809 202.69164551 310.90698242 203.08618164 310.05615234 C203.4908667 309.19199707 203.89555176 308.3278418 204.3125 307.4375 C210.32568727 295.67033601 210.32568727 295.67033601 213 283 C236.1 283 259.2 283 283 283 C283 254.95 283 226.9 283 198 C259.9 197.67 236.8 197.34 213 197 C210.69 190.4 208.38 183.8 206 177 C203.17786236 171.33054641 203.17786236 171.33054641 200.1875 165.75 C199 163 199 163 199.14903259 161.12615967 C200.33741516 158.15696125 202.15962193 156.48165505 204.42797852 154.23144531 C204.88654236 153.77244339 205.3451062 153.31344147 205.81756592 152.8405304 C207.33100888 151.329173 208.85479014 149.82871211 210.37890625 148.328125 C211.43188162 147.2807464 212.48419543 146.23270231 213.53587341 145.184021 C216.30269969 142.42863705 219.0784171 139.68238176 221.8560791 136.93792725 C224.69007411 134.13464618 227.51557253 131.32283007 230.34179688 128.51171875 C235.88624795 122.99942104 241.44011909 117.49673895 247 112 C241.38062338 105.14092885 235.09685489 98.96990509 228.8203125 92.72265625 C227.64039553 91.54460742 226.46070142 90.36633534 225.28121948 89.18785095 C222.19610309 86.10652858 219.10799411 83.02822284 216.01922607 79.95056152 C212.85994267 76.80155966 209.70353484 73.64967829 206.546875 70.49804688 C200.36737473 64.3292289 194.1847061 58.16359871 188 52 C184.38307227 53.52897576 182.0796478 55.67815633 179.32324219 58.44970703 C178.40258972 59.37051056 177.48193726 60.29131409 176.53338623 61.24002075 C175.5377747 62.24584465 174.54227352 63.2517778 173.546875 64.2578125 C172.52169807 65.28672149 171.49607725 66.31518837 170.47003174 67.3432312 C167.77606836 70.04481581 165.08816632 72.75235341 162.40148926 75.46118164 C159.65671696 78.22644489 156.90624528 80.98602633 154.15625 83.74609375 C148.76524427 89.15852274 143.38063036 94.57725438 138 100 C137.34122864 99.71081696 136.68245728 99.42163391 136.00372314 99.12368774 C132.98789592 97.80142869 129.97052847 96.48272035 126.953125 95.1640625 C125.39875732 94.48162476 125.39875732 94.48162476 123.81298828 93.78540039 C112.31238904 88.28793015 112.31238904 88.28793015 100 86 C100 62.57 100 39.14 100 15 C71.95 15 43.9 15 15 15 Z " fill="#000000" transform="translate(198,15)"/>
<path d="M0 0 C8.1103204 6.43553572 15.16717867 14.23215246 22.42816162 21.58433533 C24.25334589 23.42021339 26.07935401 25.25527273 27.90614319 27.08955383 C33.17958425 32.3879841 38.44261008 37.69665901 43.70402527 43.00702667 C50.86719814 50.23548508 58.03849106 57.45582426 65.21714211 64.66891098 C67.88262804 67.35101781 70.54155723 70.03950271 73.20005798 72.72853088 C74.84182496 74.38076352 76.48384551 76.03274424 78.12615967 77.68443298 C78.85622726 78.42640427 79.58629486 79.16837555 80.33848572 79.93283081 C89.42093495 89.03605387 98.72166492 96.06044296 111.97894287 96.88902283 C121.06455244 96.77545271 130.0686356 93.98354415 136.77972412 87.70542908 C145.19063916 78.46418604 148.0356419 70.26963114 147.86175537 57.72496033 C147.04183169 49.44205779 143.59534584 41.57527995 137.47894287 35.85777283 C127.44262906 28.51754953 118.95043533 25.70678229 106.47894287 26.85777283 C91.05641917 30.24666948 81.04297934 43.04086861 70.47894287 53.85777283 C67.40437375 52.38265125 65.13142706 50.85953653 62.66644287 48.48277283 C62.04124756 47.89753845 61.41605225 47.31230408 60.77191162 46.70933533 C59.47894287 44.85777283 59.47894287 44.85777283 59.66571045 42.99937439 C60.70208697 40.27013546 62.13965635 38.80869145 64.19769287 36.74058533 C65.35011475 35.58236267 65.35011475 35.58236267 66.52581787 34.40074158 C67.33534912 33.60281189 68.14488037 32.8048822 68.97894287 31.98277283 C69.75753662 31.19257751 70.53613037 30.4023822 71.33831787 29.58824158 C78.02811492 22.93167199 84.90800827 17.57128813 93.72894287 14.04527283 C94.70347412 13.64695251 95.67800537 13.2486322 96.68206787 12.83824158 C108.71096953 8.62140594 122.92719125 9.85661608 134.47894287 14.85777283 C148.80983654 22.20997342 157.21087889 32.6414335 162.47894287 47.85777283 C165.78209586 59.320262 164.4909077 73.75669 159.26019287 84.31871033 C151.97143843 97.4789614 141.76844372 106.29049461 127.52972412 111.10386658 C113.38836625 114.5984659 98.95585318 112.92496976 86.33387375 105.61555958 C80.54034141 101.84849887 75.77291987 97.54115386 70.95257568 92.60850525 C69.75297714 91.39992607 69.75297714 91.39992607 68.52914429 90.16693115 C66.80550349 88.42860734 65.08531054 86.68685923 63.36826324 84.94202232 C60.64113863 82.17166347 57.90406584 79.41148734 55.16418457 76.65374756 C48.35976383 69.80253552 41.57062511 62.93623444 34.78619385 56.06523132 C29.04851342 50.25461287 23.3026741 44.45232539 17.5451889 38.66132545 C14.86477401 35.95892112 12.19636806 33.24503664 9.52807617 30.53067017 C-6.33163772 14.50807017 -22.26833039 1.33081386 -45.95855713 0.60777283 C-61.38215066 1.07349412 -74.68413492 5.96893343 -86.52105713 15.85777283 C-87.240354 16.45203064 -87.95965088 17.04628845 -88.70074463 17.65855408 C-99.42028882 27.39790648 -106.04453574 42.19832489 -106.86090088 56.54136658 C-107.41242105 74.00270319 -103.17168611 88.99793858 -91.70855713 102.54527283 C-80.29294205 114.61320877 -65.62977557 121.6284985 -49.02593994 122.26036072 C-31.14598873 122.52972787 -16.37763807 116.81257647 -3.23980713 104.54917908 C-1.10498104 102.43582394 0.99059412 100.29960445 3.07269287 98.13511658 C3.69804932 97.49131042 4.32340576 96.84750427 4.9677124 96.18418884 C6.21042399 94.89853084 7.44098911 93.60100304 8.65814209 92.29112244 C9.22549072 91.70210144 9.79283936 91.11308044 10.37738037 90.50621033 C10.87930908 89.97173279 11.38123779 89.43725525 11.89837646 88.88658142 C13.47894287 87.85777283 13.47894287 87.85777283 15.53900146 88.07676697 C18.22766125 89.15920123 19.73940627 90.8312594 21.72894287 92.92027283 C22.43534912 93.65374939 23.14175537 94.38722595 23.86956787 95.14292908 C24.40066162 95.70882751 24.93175537 96.27472595 25.47894287 96.85777283 C18.89089733 111.97052396 -1.7157789 126.65601977 -16.55230713 132.79527283 C-37.11631402 140.15502266 -59.04527923 140.67824961 -79.15020752 131.42759705 C-85.56669803 128.2968833 -91.10766356 124.47476257 -96.52105713 119.85777283 C-97.72955322 118.94705017 -97.72955322 118.94705017 -98.96246338 118.01792908 C-111.87339223 107.11755708 -120.44088936 89.42396937 -122.52105713 72.85777283 C-124.31786015 51.02091515 -120.13693803 30.82484835 -106.45855713 13.29527283 C-105.16484216 11.79964859 -103.85385738 10.31867453 -102.52105713 8.85777283 C-102.00414307 8.24933533 -101.487229 7.64089783 -100.95465088 7.01402283 C-75.48088107 -21.0773524 -29.28891974 -21.54136717 0 0 Z " fill="#000000" transform="translate(222.52105712890625,194.14222717285156)"/>
<path d="M0 0 C15.36929942 15.01138422 23.83879258 34.7380226 24.1015625 56.28515625 C24.06699786 77.47327784 16.02804885 96.12991438 1.6640625 111.53515625 C-14.72592206 127.06852141 -35.61278255 133.73008588 -57.91015625 133.13671875 C-78.04104669 132.11603891 -96.12598135 122.57337921 -110.04125977 108.29882812 C-111.26315506 107.07058067 -111.26315506 107.07058067 -112.50973511 105.81752014 C-114.26018058 104.05528882 -116.00597482 102.28842711 -117.74746895 100.51734924 C-120.5100215 97.70796259 -123.28466424 94.91084434 -126.06297302 92.11706543 C-131.45813157 86.68783402 -136.83830827 81.24390015 -142.21662903 75.79799652 C-149.06440304 68.86529923 -155.91823501 61.93866476 -162.78712505 55.02688456 C-165.9799241 51.81297236 -169.16013763 48.58692078 -172.33802795 45.35827637 C-174.01993645 43.66226365 -175.7022431 41.96664564 -177.38500977 40.27148438 C-178.49737755 39.13351158 -178.49737755 39.13351158 -179.63221741 37.97254944 C-189.13008809 28.45261221 -198.28570321 21.87059438 -211.9609375 21.28515625 C-222.37648491 21.55452386 -230.75653006 25.33634328 -238.2421875 32.55078125 C-244.80631078 40.24479461 -247.48570166 49.62242024 -247.1484375 59.59765625 C-246.19179207 68.5035697 -242.13349529 77.05382678 -235.1484375 82.78515625 C-234.4265625 83.46578125 -233.7046875 84.14640625 -232.9609375 84.84765625 C-224.64095207 90.57920177 -215.18137418 92.75051148 -205.2109375 91.22265625 C-194.19229164 88.47796409 -186.76131194 82.00939704 -179.2109375 73.84765625 C-177.58865109 72.09833096 -175.95506014 70.35939891 -174.30859375 68.6328125 C-173.60355713 67.86976807 -172.89852051 67.10672363 -172.17211914 66.32055664 C-170.1484375 64.78515625 -170.1484375 64.78515625 -168.0222168 64.92919922 C-165.43254274 66.11218257 -163.85539312 67.79285285 -161.8984375 69.84765625 C-160.83882812 70.94787109 -160.83882812 70.94787109 -159.7578125 72.0703125 C-159.22671875 72.63621094 -158.695625 73.20210938 -158.1484375 73.78515625 C-164.02602063 87.11637175 -180.66811205 99.24962128 -193.67578125 104.87890625 C-206.87152394 109.49848554 -221.04192122 108.43859363 -233.7421875 102.97265625 C-247.67733456 96.09557069 -255.48841708 85.9626476 -261.1484375 71.78515625 C-265.14149827 59.90142561 -263.56428785 46.09457892 -258.65625 34.75 C-251.74421439 21.15871754 -242.27686773 13.29162137 -228.1484375 7.78515625 C-227.47296875 7.51703125 -226.7975 7.24890625 -226.1015625 6.97265625 C-214.9146588 3.40868693 -200.66585446 5.19887279 -190.1484375 9.78515625 C-182.60410418 14.06822587 -176.40113394 18.96774023 -170.36328125 25.16381836 C-169.56004425 25.97129013 -168.75680725 26.7787619 -167.92922974 27.61070251 C-166.20334043 29.34837637 -164.48210221 31.0906802 -162.76516724 32.83720207 C-160.04012813 35.60909705 -157.30282118 38.36835314 -154.56225586 41.12489319 C-149.23830842 46.48291215 -143.92933749 51.85562458 -138.62223816 57.23032379 C-131.40757794 64.53570227 -124.18362289 71.8317448 -116.947052 79.11541939 C-114.26460981 81.82086737 -111.59188929 84.53565759 -108.91967773 87.25120544 C-92.78539223 103.56461033 -76.93174992 116.85715797 -52.8359375 117.22265625 C-36.49990027 117.10398812 -22.29384394 111.37670229 -10.43359375 100.13671875 C1.09708751 88.27095787 7.79963478 73.30069858 8.2890625 56.66015625 C7.56259523 40.32564965 1.73140432 24.66766606 -9.8046875 12.89453125 C-22.11312538 1.81693716 -38.09581498 -5.18982117 -54.921875 -4.43359375 C-75.09356299 -2.45181388 -89.41061773 6.28414256 -103.3359375 20.72265625 C-104.2965655 21.70341571 -105.25815011 22.68323913 -106.22070312 23.66210938 C-108.53946763 26.02748221 -110.848276 28.40171359 -113.1484375 30.78515625 C-116.22300663 29.31003467 -118.49595331 27.78691996 -120.9609375 25.41015625 C-121.58613281 24.82492188 -122.21132813 24.2396875 -122.85546875 23.63671875 C-124.1484375 21.78515625 -124.1484375 21.78515625 -123.97094727 19.93603516 C-122.90394127 17.1457939 -121.38756079 15.63573083 -119.28125 13.51953125 C-118.48340088 12.71539795 -117.68555176 11.91126465 -116.86352539 11.08276367 C-116.00879639 10.24205322 -115.15406738 9.40134277 -114.2734375 8.53515625 C-113.40517334 7.67704346 -112.53690918 6.81893066 -111.64233398 5.93481445 C-80.26513611 -24.68658872 -34.26239772 -29.96829774 0 0 Z " fill="#000000" transform="translate(388.1484375,199.21484375)"/>
<path d="M0 0 C3.20299264 1.41643452 5.36084202 3.14127782 7.875 5.5625 C29.6405985 25.22634676 59.7999453 35.00186703 88.92578125 34.27734375 C116.17064834 32.67626768 139.94253573 23.02759914 161 6 C162.59793865 4.78344248 164.20109294 3.57366069 165.8125 2.375 C166.864375 1.59125 167.91625 0.8075 169 0 C172.3 3.3 175.6 6.6 179 10 C160.38061985 33.65164505 128.28244086 46.01441823 99.25 49.6875 C61.13184179 52.6438588 25.8204626 41.91848894 -3.3359375 17.00390625 C-5.23513601 15.34793843 -7.12379784 13.68193599 -9 12 C-8.45015228 8.12488273 -6.72444669 6.40423494 -3.9375 3.75 C-3.20402344 3.04359375 -2.47054687 2.3371875 -1.71484375 1.609375 C-1.14894531 1.07828125 -0.58304688 0.5471875 0 0 Z " fill="#000000" transform="translate(171,339)"/>
<path d="M0 0 C0.67581116 0.00054382 1.35162231 0.00108765 2.0479126 0.00164795 C38.23826404 0.13479862 68.69705511 13.98526028 95.0625 38.375 C93.6720501 41.47942031 92.04678402 43.7406443 89.6875 46.1875 C89.10226562 46.81269531 88.51703125 47.43789062 87.9140625 48.08203125 C86.0625 49.375 86.0625 49.375 84.1015625 49.3203125 C81.47008708 48.10035646 79.87030828 46.48451558 77.8125 44.4375 C57.14527572 25.37637966 28.60449972 15.92509329 0.8125 16.0625 C-0.96302246 16.06987183 -0.96302246 16.06987183 -2.77441406 16.07739258 C-17.42502094 16.27280081 -30.20620229 19.42389655 -43.9375 24.375 C-44.9275 24.705 -45.9175 25.035 -46.9375 25.375 C-47.75502303 23.79425436 -48.56631997 22.21028777 -49.375 20.625 C-49.82746094 19.74328125 -50.27992188 18.8615625 -50.74609375 17.953125 C-51.77827393 15.71955476 -52.38697948 13.75395615 -52.9375 11.375 C-47.43511773 8.44952526 -42.20086192 6.34795631 -36.1875 4.75 C-35.465625 4.54632813 -34.74375 4.34265625 -34 4.1328125 C-22.70033163 1.05108476 -11.69979422 -0.01600519 0 0 Z " fill="#000000" transform="translate(254.9375,122.625)"/>
<path d="M0 0 C3.18086518 1.50946511 5.29869906 3.07941825 7.75 5.625 C8.67039062 6.57246094 8.67039062 6.57246094 9.609375 7.5390625 C10.29773438 8.26222656 10.29773438 8.26222656 11 9 C9.68623083 11.90543872 8.27943508 13.96661059 6.01904297 16.20800781 C5.41857147 16.80832825 4.81809998 17.40864868 4.19943237 18.02716064 C3.55354156 18.66272888 2.90765076 19.29829712 2.2421875 19.953125 C1.57913605 20.61334656 0.91608459 21.27356812 0.23294067 21.95379639 C-1.88171832 24.05727824 -4.00323212 26.15369142 -6.125 28.25 C-7.56165557 29.67662261 -8.99785898 31.10370072 -10.43359375 32.53125 C-13.95050804 36.02613661 -17.47358547 39.51470062 -21 43 C-24.18086518 41.49053489 -26.29869906 39.92058175 -28.75 37.375 C-29.36359375 36.74335938 -29.9771875 36.11171875 -30.609375 35.4609375 C-31.06828125 34.97882813 -31.5271875 34.49671875 -32 34 C-30.68623083 31.09456128 -29.27943508 29.03338941 -27.01904297 26.79199219 C-26.41857147 26.19167175 -25.81809998 25.59135132 -25.19943237 24.97283936 C-24.55354156 24.33727112 -23.90765076 23.70170288 -23.2421875 23.046875 C-22.57913605 22.38665344 -21.91608459 21.72643188 -21.23294067 21.04620361 C-19.11828168 18.94272176 -16.99676788 16.84630858 -14.875 14.75 C-13.43834443 13.32337739 -12.00214102 11.89629928 -10.56640625 10.46875 C-7.04949196 6.97386339 -3.52641453 3.48529938 0 0 Z " fill="#000000" transform="translate(112,351)"/>
<path d="M0 0 C3.49353838 1.74676919 5.13945763 2.91405215 7.75 5.625 C8.67039062 6.57246094 8.67039062 6.57246094 9.609375 7.5390625 C10.06828125 8.02117187 10.5271875 8.50328125 11 9 C9.38989473 13.07376031 6.46177729 15.76507069 3.375 18.75 C2.859375 19.25660156 2.34375 19.76320313 1.8125 20.28515625 C0.54616661 21.52803902 -0.7263144 22.76465276 -2 24 C-3.08839774 23.11032656 -4.17044608 22.21288426 -5.25 21.3125 C-5.85328125 20.81363281 -6.4565625 20.31476563 -7.078125 19.80078125 C-9 18 -9 18 -13 13 C-8.71 8.71 -4.42 4.42 0 0 Z " fill="#000000" transform="translate(385,78)"/>
<path d="M0 0 C1.60546875 2.72265625 1.60546875 2.72265625 3.1875 6.0625 C3.71730469 7.16722656 4.24710938 8.27195313 4.79296875 9.41015625 C5.19128906 10.26480469 5.58960938 11.11945313 6 12 C4.42825925 13.20280161 2.84212442 14.38681275 1.25 15.5625 C0.36828125 16.22378906 -0.5134375 16.88507813 -1.421875 17.56640625 C-4 19 -4 19 -6.12109375 18.984375 C-8.66317323 17.65255789 -9.73793781 16.07473946 -11.3125 13.6875 C-12.11107422 12.51767578 -12.11107422 12.51767578 -12.92578125 11.32421875 C-14 9 -14 9 -13.97265625 6.9140625 C-12.57855151 4.17064354 -10.76134996 3.22728121 -8.125 1.6875 C-7.24070313 1.15511719 -6.35640625 0.62273437 -5.4453125 0.07421875 C-3 -1 -3 -1 0 0 Z " fill="#000000" transform="translate(195,139)"/>
<path d="M0 0 C2.6596547 1.24321024 4.26831943 2.89384477 6.2890625 5.015625 C6.99546875 5.74910156 7.701875 6.48257813 8.4296875 7.23828125 C8.96078125 7.80417969 9.491875 8.37007812 10.0390625 8.953125 C6.83145999 12.75947997 3.63160141 16.49876067 0.0390625 19.953125 C-3.17618055 18.54467782 -5.28277618 16.84967714 -7.7109375 14.328125 C-8.32453125 13.69648437 -8.938125 13.06484375 -9.5703125 12.4140625 C-10.02921875 11.93195313 -10.488125 11.44984375 -10.9609375 10.953125 C-9.5704876 7.84870469 -7.94522152 5.5874807 -5.5859375 3.140625 C-5.00070312 2.51542969 -4.41546875 1.89023438 -3.8125 1.24609375 C-1.9609375 -0.046875 -1.9609375 -0.046875 0 0 Z " fill="#000000" transform="translate(366.9609375,98.046875)"/>
<path d="M0 0 C3.45195767 1.4258086 5.1014256 3.09746334 7.25 6.125 C7.77078125 6.84945312 8.2915625 7.57390625 8.828125 8.3203125 C9.40820312 9.15175781 9.40820312 9.15175781 10 10 C8.61811547 13.21043882 7.07578097 15.04936365 4.375 17.25 C3.74335938 17.77078125 3.11171875 18.2915625 2.4609375 18.828125 C1.97882813 19.21484375 1.49671875 19.6015625 1 20 C-2.21524305 18.59155282 -4.32183868 16.89655214 -6.75 14.375 C-7.36359375 13.74335938 -7.9771875 13.11171875 -8.609375 12.4609375 C-9.06828125 11.97882813 -9.5271875 11.49671875 -10 11 C-8.55218207 7.55571735 -6.72305391 5.63869038 -3.875 3.25 C-3.15054688 2.63640625 -2.42609375 2.0228125 -1.6796875 1.390625 C-0.84824219 0.70226562 -0.84824219 0.70226562 0 0 Z " fill="#000000" transform="translate(172,152)"/>
<path d="M0 0 C4.31864357 3.57118603 7.43980387 6.54975483 11 11 C7.7 14.3 4.4 17.6 1 21 C-3.31864357 17.42881397 -6.43980387 14.45024517 -10 10 C-6.7 6.7 -3.4 3.4 0 0 Z " fill="#000000" transform="translate(349,114)"/>
</svg>
