<svg width="25" height="24" viewBox="0 0 25 24" fill="none" xmlns="http://www.w3.org/2000/svg">
<g clip-path="url(#clip0_9_670)">
<path d="M12.4917 0C12.269 0 12.0874 0.181641 12.0874 0.404297L12.1995 2.88867C12.1995 3.05053 12.3313 3.18164 12.4917 3.18164C12.6536 3.18164 12.7839 3.05053 12.7839 2.88867L12.8967 0.404297C12.8967 0.181641 12.7151 0 12.4917 0Z" fill="#5D2EDE"/>
<path d="M7.6042 1.60545C7.49212 1.41209 7.24532 1.34543 7.05196 1.45751C6.8586 1.56959 6.79195 1.81639 6.90328 2.00975L8.24287 4.1052C8.32345 4.24582 8.50214 4.29345 8.64206 4.21287C8.78193 4.13159 8.83031 3.95285 8.74898 3.81298L7.6042 1.60545Z" fill="#5D2EDE"/>
<path d="M5.71682 6.63205L3.62207 5.2917C3.42796 5.18038 3.18041 5.24703 3.06908 5.44039C2.95701 5.63375 3.02366 5.8813 3.21702 5.99263L5.42526 7.13741C5.56443 7.21799 5.74386 7.17036 5.82444 7.03049C5.90432 6.89061 5.85674 6.71263 5.71682 6.63205Z" fill="#5D2EDE"/>
<path d="M21.7672 15.7689L19.559 14.6234C19.4198 14.5428 19.2411 14.5905 19.1605 14.7303C19.0799 14.8695 19.1276 15.0482 19.2674 15.1295L21.3629 16.4691C21.5563 16.5804 21.8038 16.5145 21.9151 16.3212C22.0265 16.1271 21.9613 15.8803 21.7672 15.7689Z" fill="#5D2EDE"/>
<path d="M4.79246 10.8808C4.79246 10.7197 4.6621 10.5886 4.50024 10.5886L2.01587 10.4758C1.79246 10.4758 1.61157 10.6575 1.61157 10.8809C1.61157 11.1043 1.79246 11.2852 2.01587 11.2852L4.50024 11.1731C4.6621 11.173 4.79246 11.042 4.79246 10.8808Z" fill="#5D2EDE"/>
<path d="M22.9682 10.4758L20.4839 10.5886C20.3227 10.5886 20.1917 10.7197 20.1917 10.8808C20.1917 11.0419 20.3228 11.173 20.4839 11.173L22.9682 11.2851C23.1917 11.2851 23.3733 11.1035 23.3733 10.8808C23.3733 10.6575 23.1917 10.4766 22.9682 10.4758Z" fill="#5D2EDE"/>
<path d="M5.42526 14.6237L3.21702 15.7692C3.02366 15.8805 2.95701 16.1281 3.06908 16.3214C3.18041 16.5148 3.42796 16.5807 3.62207 16.4694L5.71682 15.1298C5.85669 15.0485 5.90432 14.8697 5.82449 14.7306C5.74386 14.5907 5.56443 14.5431 5.42526 14.6237Z" fill="#5D2EDE"/>
<path d="M19.559 7.13741L21.7672 5.99263C21.9613 5.8813 22.0265 5.63375 21.9151 5.44039C21.8038 5.24703 21.5563 5.18038 21.3629 5.2917L19.2674 6.63205C19.1276 6.71263 19.0799 6.89061 19.1605 7.03049C19.2411 7.17036 19.4198 7.21794 19.559 7.13741Z" fill="#5D2EDE"/>
<path d="M17.933 1.45751C17.7389 1.34543 17.4921 1.41209 17.3807 1.60545L16.2352 3.81298C16.1539 3.95285 16.2015 4.13159 16.3421 4.21287C16.482 4.29345 16.6607 4.24582 16.7413 4.1052L18.0809 2.00975C18.1929 1.81639 18.1263 1.56954 17.933 1.45751Z" fill="#5D2EDE"/>
<path d="M16.3296 10.199L8.00927 12.9515C7.98437 12.9596 7.96239 12.9727 7.93895 12.983C7.90234 12.9984 7.86644 13.0115 7.83273 13.0306C7.80269 13.0467 7.77634 13.0665 7.7485 13.0856C7.71995 13.1053 7.69136 13.1229 7.66502 13.1456C7.63792 13.1683 7.61373 13.1939 7.58959 13.2189C7.56691 13.2423 7.54347 13.2643 7.52294 13.2899C7.5017 13.317 7.48337 13.3463 7.46434 13.3742C7.44531 13.4027 7.42623 13.4298 7.41086 13.4591C7.39473 13.4884 7.38377 13.5199 7.37059 13.55C7.35742 13.5822 7.3435 13.6137 7.33323 13.6474C7.32297 13.6796 7.31711 13.7141 7.31055 13.7485C7.30469 13.7807 7.29663 13.8129 7.29297 13.8466C7.28931 13.8847 7.29077 13.9235 7.29077 13.9631C7.29152 13.9887 7.28781 14.0136 7.29002 14.0407C7.29002 14.0458 7.29222 14.0509 7.29297 14.0568C7.29663 14.0905 7.30469 14.1242 7.3113 14.1579C7.31936 14.1945 7.32522 14.2326 7.33619 14.2684C7.33839 14.2728 7.33839 14.278 7.33984 14.2831C7.35597 14.3307 7.37575 14.3776 7.39844 14.4215C7.4043 14.4333 7.41016 14.4464 7.41747 14.4581C7.44386 14.508 7.47461 14.5541 7.50831 14.598C7.52148 14.6141 7.53541 14.6281 7.54788 14.6434C7.57642 14.6757 7.60572 14.7064 7.63722 14.7343C7.65405 14.749 7.67092 14.7628 7.6885 14.7768C7.72145 14.8024 7.75516 14.8266 7.79031 14.8478C7.80864 14.8588 7.82622 14.8698 7.8445 14.8801C7.89212 14.905 7.9412 14.9269 7.99173 14.9453C7.9998 14.9475 8.00711 14.9519 8.01442 14.9548C8.07447 14.9738 8.13672 14.9863 8.19972 14.9951C8.21509 14.9973 8.23122 14.998 8.24734 14.9987C8.27739 15.0024 8.30814 15.006 8.33964 15.006C8.35942 15.006 8.37845 15.0031 8.39823 15.0024C8.40775 15.0009 8.41727 15.0031 8.42753 15.0024C8.86408 14.9665 9.24273 15.102 9.58623 15.4176C9.81255 15.6264 10 15.8922 10.1458 16.1691H9.72981C9.26397 16.1691 8.88681 16.547 8.88681 17.0128V19.6085C8.88681 20.0744 9.26402 20.4523 9.72981 20.4523H10.4768C10.4768 20.5402 10.4768 20.6501 10.4768 20.7723C10.3083 20.7723 10.1714 20.9093 10.1714 21.0785C10.1714 21.247 10.3083 21.3839 10.4768 21.3839C10.4768 21.485 10.4768 21.5876 10.4768 21.6901C10.3083 21.6901 10.1714 21.827 10.1714 21.9962C10.1714 22.1647 10.3083 22.3016 10.4768 22.3016C10.4768 22.5756 10.4768 22.8129 10.4768 22.9601C10.4768 23.5717 10.8445 23.6325 11.4561 23.6325C11.4561 23.6325 11.5777 24.0002 12.7407 24.0002C13.9031 24.0002 14.0254 23.6325 14.0254 23.6325C14.637 23.6325 15.0047 23.5717 15.0047 22.9601C15.0047 22.8114 15.0047 22.5726 15.0047 22.295C15.1438 22.2672 15.2493 22.1434 15.2493 21.9962C15.2493 21.8483 15.1438 21.7245 15.0047 21.6959C15.0047 21.5897 15.0047 21.4828 15.0047 21.3781C15.1438 21.3502 15.2493 21.2257 15.2493 21.0785C15.2493 20.9298 15.1438 20.8068 15.0047 20.7789C15.0047 20.6529 15.0047 20.5423 15.0047 20.4522H15.8125C16.2783 20.4522 16.6555 20.0743 16.6555 19.6085V17.0128C16.6555 16.5469 16.2783 16.169 15.8125 16.169H15.4434C15.6646 15.679 15.989 15.2528 16.4263 15.0147C16.9375 14.7349 17.1265 14.0956 16.8474 13.5843C16.5684 13.0738 15.9282 12.8856 15.4177 13.1639C14.2188 13.8172 13.5361 14.995 13.2109 16.169H12.4155C12.1929 15.4519 11.8003 14.6975 11.2458 14.1006L16.9917 12.2C17.5432 12.0169 17.8435 11.4207 17.6604 10.8685C17.4773 10.3155 16.8811 10.0159 16.3296 10.199Z" fill="#5D2EDE"/>
<path d="M8.33961 11.6207C8.44948 11.6207 8.56151 11.6031 8.67139 11.5665L16.9917 8.81402C17.5432 8.63093 17.8435 8.03473 17.6604 7.48249C17.4773 6.92951 16.8811 6.62993 16.3296 6.81307L8.00928 9.56552C7.45704 9.74862 7.15671 10.3441 7.33986 10.8971C7.48634 11.3394 7.89795 11.6207 8.33961 11.6207Z" fill="#5D2EDE"/>
<path d="M9.03683 8.04712C9.1467 8.04712 9.25873 8.0288 9.36861 7.99364L15.1928 6.06591C15.7451 5.88281 16.0446 5.28736 15.8623 4.73437C15.6792 4.18214 15.0837 3.88181 14.5307 4.06495L8.7065 5.99269C8.15426 6.17508 7.85469 6.77123 8.03708 7.32351C8.18356 7.76662 8.59517 8.04712 9.03683 8.04712Z" fill="#5D2EDE"/>
</g>
<defs>
<clipPath id="clip0_9_670">
<rect width="24" height="24" fill="white" transform="translate(0.492432)"/>
</clipPath>
</defs>
</svg>
