<?xml version="1.0" encoding="UTF-8"?>
<!DOCTYPE svg PUBLIC "-//W3C//DTD SVG 1.1//EN" "http://www.w3.org/Graphics/SVG/1.1/DTD/svg11.dtd">
<svg xmlns="http://www.w3.org/2000/svg" version="1.1" width="512px" height="512px" style="shape-rendering:geometricPrecision; text-rendering:geometricPrecision; image-rendering:optimizeQuality; fill-rule:evenodd; clip-rule:evenodd" xmlns:xlink="http://www.w3.org/1999/xlink">
<g><path style="opacity:0.963" fill="#000000" d="M -0.5,135.5 C -0.5,107.5 -0.5,79.5 -0.5,51.5C 0.977392,49.193 2.97739,47.3597 5.5,46C 33.1667,45.3333 60.8333,45.3333 88.5,46C 91.7559,47.587 93.9226,50.087 95,53.5C 95.6667,80.1667 95.6667,106.833 95,133.5C 93.9226,136.913 91.7559,139.413 88.5,141C 60.8333,141.667 33.1667,141.667 5.5,141C 2.97739,139.64 0.977392,137.807 -0.5,135.5 Z M 20.5,66.5 C 38.1667,66.5 55.8333,66.5 73.5,66.5C 73.5,84.5 73.5,102.5 73.5,120.5C 55.8333,120.5 38.1667,120.5 20.5,120.5C 20.5,102.5 20.5,84.5 20.5,66.5 Z"/></g>
<g><path style="opacity:0.935" fill="#000000" d="M 138.5,91.5 C 141.85,91.335 145.183,91.5017 148.5,92C 184.653,120.242 220.986,148.242 257.5,176C 263,182.329 262.667,188.329 256.5,194C 251.972,196.19 247.639,195.856 243.5,193C 206.728,164.862 170.228,136.362 134,107.5C 130.994,100.771 132.494,95.4381 138.5,91.5 Z"/></g>
<g><path style="opacity:0.955" fill="#000000" d="M 511.5,167.5 C 511.5,226.167 511.5,284.833 511.5,343.5C 507.869,350.976 502.536,357.143 495.5,362C 473.497,373.001 450.164,379.001 425.5,380C 398.928,381.825 372.595,380.158 346.5,375C 331.118,372.099 317.118,366.099 304.5,357C 300.885,353.381 298.051,349.214 296,344.5C 294.853,314.872 294.353,285.205 294.5,255.5C 294.353,225.795 294.853,196.128 296,166.5C 298.051,161.786 300.885,157.619 304.5,154C 317.118,144.901 331.118,138.901 346.5,136C 378.996,129.902 411.663,128.902 444.5,133C 462.471,135.324 479.471,140.657 495.5,149C 502.604,153.755 507.937,159.922 511.5,167.5 Z M 388.5,151.5 C 417.932,149.929 446.599,153.762 474.5,163C 478.993,165.079 483.326,167.412 487.5,170C 488.872,171.242 489.872,172.742 490.5,174.5C 486.518,180.011 481.184,183.845 474.5,186C 427.167,201.333 379.833,201.333 332.5,186C 327.256,183.797 322.422,180.964 318,177.5C 316.813,175.956 316.48,174.289 317,172.5C 330.209,162.759 345.042,156.926 361.5,155C 370.619,153.576 379.619,152.41 388.5,151.5 Z M 316.5,202.5 C 337.426,211.921 359.426,217.088 382.5,218C 411.55,220.177 440.217,217.844 468.5,211C 476.001,208.946 483.167,206.112 490,202.5C 490.667,211.5 490.667,220.5 490,229.5C 485.86,234.334 480.694,237.834 474.5,240C 427.165,255.309 379.832,255.309 332.5,240C 326.306,237.834 321.14,234.334 317,229.5C 316.5,220.506 316.334,211.506 316.5,202.5 Z M 316.5,256.5 C 337.108,265.791 358.775,270.958 381.5,272C 410.886,274.237 439.886,271.904 468.5,265C 476.001,262.946 483.167,260.112 490,256.5C 490.667,265.5 490.667,274.5 490,283.5C 485.86,288.334 480.694,291.834 474.5,294C 427.167,309.333 379.833,309.333 332.5,294C 326.306,291.834 321.14,288.334 317,283.5C 316.5,274.506 316.334,265.506 316.5,256.5 Z M 316.5,310.5 C 337.11,319.791 358.776,324.958 381.5,326C 413.388,328.544 444.721,325.544 475.5,317C 480.602,315.411 485.435,313.245 490,310.5C 490.667,319.5 490.667,328.5 490,337.5C 485.86,342.334 480.694,345.834 474.5,348C 429.047,362.521 383.38,363.188 337.5,350C 329.971,347.321 323.137,343.488 317,338.5C 316.5,329.173 316.334,319.839 316.5,310.5 Z"/></g>
<g><path style="opacity:0.963" fill="#000000" d="M -0.5,297.5 C -0.5,269.5 -0.5,241.5 -0.5,213.5C 0.977392,211.193 2.97739,209.36 5.5,208C 33.1667,207.333 60.8333,207.333 88.5,208C 91.7559,209.587 93.9226,212.087 95,215.5C 95.6667,242.167 95.6667,268.833 95,295.5C 93.9226,298.913 91.7559,301.413 88.5,303C 60.8333,303.667 33.1667,303.667 5.5,303C 2.97739,301.64 0.977392,299.807 -0.5,297.5 Z M 20.5,228.5 C 38.1667,228.5 55.8333,228.5 73.5,228.5C 73.5,246.5 73.5,264.5 73.5,282.5C 55.8333,282.5 38.1667,282.5 20.5,282.5C 20.5,264.5 20.5,246.5 20.5,228.5 Z"/></g>
<g><path style="opacity:0.966" fill="#000000" d="M 139.5,251.5 C 177.835,251.333 216.168,251.5 254.5,252C 261.696,256.328 263.196,262.162 259,269.5C 257.745,270.211 256.579,271.044 255.5,272C 216.5,272.667 177.5,272.667 138.5,272C 132.065,267.313 130.898,261.479 135,254.5C 136.652,253.601 138.152,252.601 139.5,251.5 Z"/></g>
<g><path style="opacity:0.934" fill="#000000" d="M 245.5,336.5 C 258.307,334.802 263.14,340.135 260,352.5C 222.737,382.432 184.904,411.599 146.5,440C 136.175,440.674 131.675,435.84 133,425.5C 134.122,423.376 135.622,421.543 137.5,420C 173.971,392.686 209.971,364.852 245.5,336.5 Z"/></g>
<g><path style="opacity:0.963" fill="#000000" d="M -0.5,459.5 C -0.5,431.5 -0.5,403.5 -0.5,375.5C 0.977392,373.193 2.97739,371.36 5.5,370C 33.1667,369.333 60.8333,369.333 88.5,370C 91.7559,371.587 93.9226,374.087 95,377.5C 95.6667,404.167 95.6667,430.833 95,457.5C 93.9226,460.913 91.7559,463.413 88.5,465C 60.8333,465.667 33.1667,465.667 5.5,465C 2.97739,463.64 0.977392,461.807 -0.5,459.5 Z M 20.5,390.5 C 38.1667,390.5 55.8333,390.5 73.5,390.5C 73.5,408.5 73.5,426.5 73.5,444.5C 55.8333,444.5 38.1667,444.5 20.5,444.5C 20.5,426.5 20.5,408.5 20.5,390.5 Z"/></g>
</svg>
