<svg width="25" height="24" viewBox="0 0 25 24" fill="none" xmlns="http://www.w3.org/2000/svg">
<path d="M22.4924 1H18.4924C18.2272 1 17.9729 1.10536 17.7853 1.29289C17.5978 1.48043 17.4924 1.73478 17.4924 2V9H15.4924V7C15.4925 6.82952 15.449 6.66186 15.3661 6.51293C15.2831 6.364 15.1634 6.23874 15.0185 6.14907C14.8735 6.05939 14.708 6.00827 14.5377 6.00056C14.3674 5.99285 14.1979 6.0288 14.0454 6.105L9.49243 8.382V7C9.49251 6.82952 9.44901 6.66186 9.36605 6.51293C9.2831 6.364 9.16345 6.23874 9.01846 6.14907C8.87348 6.05939 8.70798 6.00827 8.53767 6.00056C8.36737 5.99285 8.19793 6.0288 8.04543 6.105L2.04543 9.105C1.8792 9.18807 1.7394 9.31581 1.64172 9.4739C1.54404 9.63199 1.49235 9.81417 1.49243 10V22C1.49243 22.2652 1.59779 22.5196 1.78532 22.7071C1.97286 22.8946 2.22722 23 2.49243 23H22.4924C22.7576 23 23.012 22.8946 23.1995 22.7071C23.3871 22.5196 23.4924 22.2652 23.4924 22V2C23.4924 1.73478 23.3871 1.48043 23.1995 1.29289C23.012 1.10536 22.7576 1 22.4924 1ZM21.4924 3V5H19.4924V3H21.4924ZM3.49243 21V10.618L7.49243 8.618V10C7.49235 10.1705 7.53586 10.3381 7.61881 10.4871C7.70177 10.636 7.82142 10.7613 7.9664 10.8509C8.11138 10.9406 8.27689 10.9917 8.44719 10.9994C8.61749 11.0072 8.78693 10.9712 8.93943 10.895L13.4924 8.618V10C13.4924 10.2652 13.5978 10.5196 13.7853 10.7071C13.9729 10.8946 14.2272 11 14.4924 11H18.4924C18.7576 11 19.012 10.8946 19.1995 10.7071C19.3871 10.5196 19.4924 10.2652 19.4924 10V7H21.4924V21H3.49243ZM5.49243 13H8.49243V15H5.49243V13ZM10.4924 13H14.4924V15H10.4924V13ZM16.4924 13H19.4924V15H16.4924V13ZM5.49243 17H8.49243V19H5.49243V17ZM10.4924 17H14.4924V19H10.4924V17ZM16.4924 17H19.4924V19H16.4924V17Z" fill="#5D2EDE"/>
</svg>
