<svg width="25" height="24" viewBox="0 0 25 24" fill="none" xmlns="http://www.w3.org/2000/svg">
<path d="M19.7724 3.9199C17.2924 3.7599 14.8924 3.1999 12.4924 2.3999C10.1724 3.1999 7.77243 3.7599 5.21243 3.9199C4.81243 3.9999 4.49243 4.3199 4.49243 4.7199V13.5999C4.49243 15.9999 5.85243 18.2399 8.01243 19.3599L12.0924 21.4399C12.1724 21.5199 12.3324 21.5199 12.4124 21.5199C12.5724 21.5199 12.6524 21.5199 12.7324 21.4399L16.8124 19.3599C18.9724 18.2399 20.3324 16.0799 20.3324 13.5999V4.7199C20.4924 4.3199 20.1724 3.9999 19.7724 3.9199ZM16.2524 17.9199L12.4924 19.8399V11.9999H6.09243V5.5199C8.25243 5.2799 10.4124 4.7999 12.4924 4.1599V11.9999H18.8924V13.6799C18.8924 15.4399 17.8524 17.1199 16.2524 17.9199Z" fill="#5D2EDE"/>
</svg>
