<?xml version="1.0" standalone="no"?>
<!DOCTYPE svg PUBLIC "-//W3C//DTD SVG 20010904//EN"
 "http://www.w3.org/TR/2001/REC-SVG-20010904/DTD/svg10.dtd">
<svg version="1.0" xmlns="http://www.w3.org/2000/svg"
 width="512.000000pt" height="512.000000pt" viewBox="0 0 512.000000 512.000000"
 preserveAspectRatio="xMidYMid meet">

<g transform="translate(0.000000,512.000000) scale(0.100000,-0.100000)"
fill="#000000" stroke="none">
<path d="M2220 4867 c-21 -10 -35 -41 -88 -204 -57 -171 -66 -192 -88 -197
-14 -4 -67 -25 -118 -47 l-94 -40 -171 85 c-94 48 -183 86 -198 86 -22 0 -70
-43 -254 -227 -126 -124 -233 -239 -239 -253 -10 -25 -3 -44 78 -206 l90 -179
-29 -64 c-16 -34 -38 -88 -49 -120 l-21 -57 -185 -59 c-130 -41 -190 -65 -200
-79 -11 -17 -14 -81 -14 -353 0 -314 1 -334 19 -352 11 -11 100 -45 199 -77
l181 -57 22 -61 c13 -34 35 -88 51 -120 l27 -60 -91 -177 c-85 -166 -90 -180
-79 -207 7 -16 114 -131 240 -255 184 -184 232 -227 254 -227 15 0 76 25 136
54 l109 55 23 -26 c13 -14 42 -34 64 -44 36 -17 70 -19 368 -19 l327 0 0 -105
0 -105 -639 0 c-428 0 -649 -4 -668 -11 -34 -13 -80 -55 -99 -91 -10 -20 -14
-67 -14 -172 l0 -144 -54 -30 c-155 -88 -181 -297 -50 -412 52 -46 99 -63 169
-63 70 0 117 17 169 63 129 114 104 330 -48 411 l-46 24 0 130 c0 89 4 135 12
143 9 9 165 12 640 12 l628 0 0 -143 0 -144 -40 -18 c-47 -21 -106 -82 -126
-131 -19 -44 -18 -145 1 -191 40 -96 128 -156 230 -157 177 -2 296 161 243
336 -15 51 -76 120 -127 143 l-41 18 0 144 0 143 628 0 c475 0 631 -3 640 -12
8 -8 12 -54 12 -143 l0 -130 -45 -24 c-154 -81 -179 -296 -49 -411 52 -45 99
-63 169 -63 224 -2 336 271 178 429 -19 19 -51 43 -73 54 l-40 20 0 146 c0
105 -4 152 -14 172 -19 36 -65 78 -99 91 -19 7 -240 11 -668 11 l-639 0 0 105
0 105 400 0 401 0 26 26 27 27 73 -37 c40 -20 85 -36 100 -36 21 0 72 46 254
226 125 125 233 240 240 256 11 27 6 40 -79 206 l-91 178 23 50 c12 27 35 81
50 120 l28 71 180 58 c100 32 189 66 199 76 18 18 19 40 19 352 0 271 -3 336
-14 353 -10 14 -71 38 -200 80 l-185 59 -23 60 c-12 33 -34 86 -49 119 l-28
59 90 180 c82 162 89 182 79 207 -6 14 -113 129 -239 253 -184 184 -232 227
-254 227 -15 0 -104 -38 -198 -86 l-171 -85 -94 40 c-51 22 -105 43 -118 47
-23 5 -32 25 -88 198 -54 162 -67 193 -88 203 -18 9 -110 13 -340 13 -230 0
-322 -4 -340 -13z m654 -304 c32 -98 63 -183 67 -189 5 -6 44 -24 87 -39 42
-15 114 -45 161 -66 46 -22 93 -39 104 -39 11 0 93 38 182 84 l162 84 183
-183 182 -183 -88 -171 -88 -172 24 -52 c12 -29 43 -101 67 -162 24 -60 47
-117 51 -125 5 -8 90 -42 190 -75 l182 -60 -3 -259 -2 -260 -173 -57 c-96 -31
-180 -63 -187 -70 -7 -8 -25 -48 -40 -89 -14 -41 -45 -115 -67 -164 l-41 -89
87 -175 88 -175 -181 -181 -180 -180 -61 29 c-33 16 -59 34 -57 39 37 95 287
873 287 891 0 41 -36 65 -97 65 -29 0 -53 3 -53 8 0 4 9 36 21 72 87 278 54
612 -88 881 -250 475 -800 721 -1316 589 -218 -55 -391 -155 -555 -321 -394
-399 -442 -1043 -110 -1497 l48 -67 0 -300 0 -301 -90 -44 -91 -44 -180 180
-181 181 88 174 87 175 -43 95 c-23 52 -54 126 -68 164 -14 39 -31 76 -38 84
-7 7 -90 39 -186 70 l-173 57 -2 260 -3 259 183 60 182 60 51 125 c28 69 61
148 74 175 l22 51 -87 173 -87 174 183 183 183 183 161 -85 c89 -46 171 -84
182 -84 11 0 58 17 104 39 47 21 119 51 161 66 43 15 82 33 87 39 5 6 35 91
67 189 l58 177 255 0 256 0 59 -177z m-222 -583 c550 -52 963 -525 934 -1070
-6 -120 -30 -242 -65 -322 -20 -47 -21 -48 -65 -48 -45 0 -45 0 -78 63 -46 88
-182 222 -273 268 -71 37 -137 63 -188 74 l-28 6 30 34 c81 93 115 195 109
329 -3 76 -9 102 -36 159 -41 89 -82 140 -155 194 -86 63 -171 86 -296 81 -89
-3 -105 -7 -173 -41 -271 -133 -349 -463 -168 -704 l40 -52 -42 -11 c-221 -56
-405 -220 -488 -432 -15 -38 -29 -71 -32 -74 -8 -8 -71 125 -98 206 -95 292
-48 631 121 881 108 162 232 270 404 354 125 62 229 93 348 104 45 5 84 9 87
10 3 0 53 -4 112 -9z m56 -400 c66 -33 118 -85 154 -152 19 -36 23 -58 23
-138 0 -84 -3 -101 -27 -146 -62 -117 -201 -195 -323 -179 -72 9 -166 57 -209
107 -60 69 -80 122 -80 213 -1 71 3 88 32 147 58 118 155 177 293 178 65 0 84
-4 137 -30z m187 -775 c33 -9 89 -29 123 -46 67 -33 184 -135 215 -188 l18
-31 -249 0 c-223 0 -252 -2 -271 -17 -16 -13 -51 -106 -124 -328 l-102 -310
-132 -3 -131 -3 -4 238 c-4 276 -14 316 -94 398 -40 41 -150 105 -181 105 -24
0 -13 19 39 64 58 51 149 99 229 120 80 22 581 22 664 1z m-917 -342 c59 -28
95 -69 111 -128 7 -24 11 -142 11 -297 l0 -257 26 -20 c24 -19 40 -21 179 -21
l153 0 -36 -110 -36 -110 -267 0 -267 0 -26 31 -26 31 0 361 c0 375 7 454 45
527 14 28 20 31 48 25 18 -4 56 -18 85 -32z m1660 -77 c-2 -8 -66 -206 -143
-440 l-140 -426 -411 0 -412 0 146 440 147 440 408 0 c344 0 408 -2 405 -14z
m-2448 -1791 c87 -45 71 -173 -25 -205 -58 -19 -129 25 -141 87 -17 93 80 162
166 118z m1446 -19 c28 -28 34 -42 34 -76 0 -80 -67 -130 -145 -109 -48 14
-75 51 -75 106 0 38 5 50 34 79 28 28 42 34 76 34 34 0 48 -6 76 -34z m1404
19 c87 -45 71 -173 -25 -205 -58 -19 -129 25 -141 87 -17 93 80 162 166 118z"/>
</g>
</svg>
