<?xml version="1.0" encoding="UTF-8"?>
<!DOCTYPE svg PUBLIC "-//W3C//DTD SVG 1.1//EN" "http://www.w3.org/Graphics/SVG/1.1/DTD/svg11.dtd">
<svg xmlns="http://www.w3.org/2000/svg" version="1.1" width="512px" height="512px" style="shape-rendering:geometricPrecision; text-rendering:geometricPrecision; image-rendering:optimizeQuality; fill-rule:evenodd; clip-rule:evenodd" xmlns:xlink="http://www.w3.org/1999/xlink">
<g><path style="opacity:0.922" fill="#000000" d="M 358.5,-0.5 C 361.5,-0.5 364.5,-0.5 367.5,-0.5C 389.431,14.1417 411.764,28.3084 434.5,42C 438.5,46.6667 438.5,51.3333 434.5,56C 411.034,71.1475 387.201,85.6475 363,99.5C 359.504,99.089 356.837,97.4223 355,94.5C 354.5,87.8417 354.334,81.175 354.5,74.5C 269.167,74.5 183.833,74.5 98.5,74.5C 98.5,68.5 98.5,62.5 98.5,56.5C 187.167,56.3333 275.834,56.5 364.5,57C 367.573,57.7386 369.74,59.5719 371,62.5C 371.333,66.5 371.667,70.5 372,74.5C 385.233,65.6046 398.733,57.1046 412.5,49C 398.733,40.8954 385.233,32.3954 372,23.5C 371.667,27.8333 371.333,32.1667 371,36.5C 369.457,38.3783 367.624,39.8783 365.5,41C 270.834,41.5 176.167,41.6667 81.5,41.5C 81.5,35.5 81.5,29.5 81.5,23.5C 172.5,23.5 263.5,23.5 354.5,23.5C 354.334,16.825 354.5,10.1583 355,3.5C 356.376,2.29493 357.542,0.961599 358.5,-0.5 Z"/></g>
<g><path style="opacity:0.892" fill="#000000" d="M 32.5,56.5 C 38.1667,56.5 43.8333,56.5 49.5,56.5C 49.5,62.5 49.5,68.5 49.5,74.5C 43.8333,74.5 38.1667,74.5 32.5,74.5C 32.5,68.5 32.5,62.5 32.5,56.5 Z"/></g>
<g><path style="opacity:0.892" fill="#000000" d="M 65.5,56.5 C 71.1667,56.5 76.8333,56.5 82.5,56.5C 82.5,62.5 82.5,68.5 82.5,74.5C 76.8333,74.5 71.1667,74.5 65.5,74.5C 65.5,68.5 65.5,62.5 65.5,56.5 Z"/></g>
<g><path style="opacity:0.927" fill="#000000" d="M -0.5,378.5 C -0.5,362.5 -0.5,346.5 -0.5,330.5C 3.59255,320.088 11.2592,314.088 22.5,312.5C 23.4941,307.544 23.8275,302.544 23.5,297.5C 11.7244,296.375 3.72443,290.375 -0.5,279.5C -0.5,263.5 -0.5,247.5 -0.5,231.5C 3.72443,220.625 11.7244,214.625 23.5,213.5C 23.8275,208.456 23.4941,203.456 22.5,198.5C 11.2592,196.912 3.59255,190.912 -0.5,180.5C -0.5,164.5 -0.5,148.5 -0.5,132.5C 3.15774,123.349 9.82441,117.515 19.5,115C 84.5444,114.014 149.544,114.348 214.5,116C 222,118.833 227.167,124 230,131.5C 231.582,146.454 231.915,161.454 231,176.5C 228.043,189.623 219.876,196.957 206.5,198.5C 206.5,203.5 206.5,208.5 206.5,213.5C 219.876,215.043 228.043,222.377 231,235.5C 231.667,248.833 231.667,262.167 231,275.5C 228.043,288.623 219.876,295.957 206.5,297.5C 206.5,302.5 206.5,307.5 206.5,312.5C 219.876,314.043 228.043,321.377 231,334.5C 231.915,349.546 231.582,364.546 230,379.5C 227.167,387 222,392.167 214.5,395C 149.544,396.652 84.5444,396.986 19.5,396C 9.82441,393.485 3.15774,387.651 -0.5,378.5 Z M 21.5,132.5 C 84.1676,132.333 146.834,132.5 209.5,133C 210.667,134.167 211.833,135.333 213,136.5C 213.667,149.5 213.667,162.5 213,175.5C 212.167,177.667 210.667,179.167 208.5,180C 146.167,180.667 83.8333,180.667 21.5,180C 19.3333,179.167 17.8333,177.667 17,175.5C 16.3333,162.833 16.3333,150.167 17,137.5C 18.025,135.313 19.525,133.646 21.5,132.5 Z M 41.5,198.5 C 90.5,198.5 139.5,198.5 188.5,198.5C 188.5,203.5 188.5,208.5 188.5,213.5C 139.5,213.5 90.5,213.5 41.5,213.5C 41.5,208.5 41.5,203.5 41.5,198.5 Z M 21.5,231.5 C 83.8342,231.333 146.168,231.5 208.5,232C 210.667,232.833 212.167,234.333 213,236.5C 213.667,249.167 213.667,261.833 213,274.5C 212.167,276.667 210.667,278.167 208.5,279C 146.167,279.667 83.8333,279.667 21.5,279C 19.3333,278.167 17.8333,276.667 17,274.5C 16.3333,261.833 16.3333,249.167 17,236.5C 18.025,234.313 19.525,232.646 21.5,231.5 Z M 41.5,297.5 C 90.5,297.5 139.5,297.5 188.5,297.5C 188.5,302.5 188.5,307.5 188.5,312.5C 139.5,312.5 90.5,312.5 41.5,312.5C 41.5,307.5 41.5,302.5 41.5,297.5 Z M 21.5,330.5 C 83.8342,330.333 146.168,330.5 208.5,331C 210.667,331.833 212.167,333.333 213,335.5C 213.667,348.5 213.667,361.5 213,374.5C 211.833,375.667 210.667,376.833 209.5,378C 146.833,378.667 84.1667,378.667 21.5,378C 19.3333,377.167 17.8333,375.667 17,373.5C 16.3333,360.833 16.3333,348.167 17,335.5C 18.025,333.313 19.525,331.646 21.5,330.5 Z"/></g>
<g><path style="opacity:0.927" fill="#000000" d="M 511.5,132.5 C 511.5,148.5 511.5,164.5 511.5,180.5C 507.407,190.912 499.741,196.912 488.5,198.5C 487.506,203.456 487.173,208.456 487.5,213.5C 499.276,214.625 507.276,220.625 511.5,231.5C 511.5,247.5 511.5,263.5 511.5,279.5C 507.276,290.375 499.276,296.375 487.5,297.5C 487.173,302.544 487.506,307.544 488.5,312.5C 499.741,314.088 507.407,320.088 511.5,330.5C 511.5,346.5 511.5,362.5 511.5,378.5C 507.842,387.651 501.176,393.485 491.5,396C 426.456,396.986 361.456,396.652 296.5,395C 289,392.167 283.833,387 281,379.5C 279.418,364.546 279.085,349.546 280,334.5C 282.945,321.39 291.111,314.057 304.5,312.5C 304.5,307.5 304.5,302.5 304.5,297.5C 291.124,295.957 282.957,288.623 280,275.5C 279.333,262.167 279.333,248.833 280,235.5C 282.957,222.377 291.124,215.043 304.5,213.5C 304.5,208.5 304.5,203.5 304.5,198.5C 291.124,196.957 282.957,189.623 280,176.5C 279.085,161.454 279.418,146.454 281,131.5C 283.833,124 289,118.833 296.5,116C 361.456,114.348 426.456,114.014 491.5,115C 501.176,117.515 507.842,123.349 511.5,132.5 Z M 301.5,132.5 C 364.168,132.333 426.834,132.5 489.5,133C 491.667,133.833 493.167,135.333 494,137.5C 494.667,150.167 494.667,162.833 494,175.5C 493.167,177.667 491.667,179.167 489.5,180C 427.167,180.667 364.833,180.667 302.5,180C 300.333,179.167 298.833,177.667 298,175.5C 297.333,162.5 297.333,149.5 298,136.5C 299.376,135.295 300.542,133.962 301.5,132.5 Z M 322.5,198.5 C 371.5,198.5 420.5,198.5 469.5,198.5C 469.5,203.5 469.5,208.5 469.5,213.5C 420.5,213.5 371.5,213.5 322.5,213.5C 322.5,208.5 322.5,203.5 322.5,198.5 Z M 301.5,231.5 C 364.168,231.333 426.834,231.5 489.5,232C 491.667,232.833 493.167,234.333 494,236.5C 494.667,249.167 494.667,261.833 494,274.5C 493.167,276.667 491.667,278.167 489.5,279C 427.167,279.667 364.833,279.667 302.5,279C 300.333,278.167 298.833,276.667 298,274.5C 297.333,261.833 297.333,249.167 298,236.5C 298.997,234.677 300.164,233.01 301.5,231.5 Z M 322.5,297.5 C 371.5,297.5 420.5,297.5 469.5,297.5C 469.5,302.5 469.5,307.5 469.5,312.5C 420.5,312.5 371.5,312.5 322.5,312.5C 322.5,307.5 322.5,302.5 322.5,297.5 Z M 302.5,330.5 C 364.834,330.333 427.168,330.5 489.5,331C 491.667,331.833 493.167,333.333 494,335.5C 494.667,348.167 494.667,360.833 494,373.5C 493.167,375.667 491.667,377.167 489.5,378C 426.833,378.667 364.167,378.667 301.5,378C 300.333,376.833 299.167,375.667 298,374.5C 297.333,361.5 297.333,348.5 298,335.5C 299.025,333.313 300.525,331.646 302.5,330.5 Z"/></g>
<g><path style="opacity:0.922" fill="#000000" d="M 152.5,511.5 C 149.5,511.5 146.5,511.5 143.5,511.5C 121.569,496.858 99.2359,482.692 76.5,469C 72.301,463.719 72.6343,458.719 77.5,454C 100.827,439.425 124.327,425.259 148,411.5C 151.467,411.9 154.134,413.566 156,416.5C 156.5,423.158 156.666,429.825 156.5,436.5C 241.833,436.5 327.167,436.5 412.5,436.5C 412.5,442.5 412.5,448.5 412.5,454.5C 323.833,454.667 235.166,454.5 146.5,454C 143.427,453.261 141.26,451.428 140,448.5C 139.667,444.5 139.333,440.5 139,436.5C 125.767,445.395 112.267,453.895 98.5,462C 112.267,470.105 125.767,478.605 139,487.5C 139.333,483.167 139.667,478.833 140,474.5C 141.543,472.622 143.376,471.122 145.5,470C 240.166,469.5 334.833,469.333 429.5,469.5C 429.5,475.5 429.5,481.5 429.5,487.5C 338.5,487.5 247.5,487.5 156.5,487.5C 156.666,494.175 156.5,500.842 156,507.5C 154.624,508.705 153.458,510.038 152.5,511.5 Z"/></g>
<g><path style="opacity:0.892" fill="#000000" d="M 428.5,436.5 C 434.167,436.5 439.833,436.5 445.5,436.5C 445.5,442.5 445.5,448.5 445.5,454.5C 439.833,454.5 434.167,454.5 428.5,454.5C 428.5,448.5 428.5,442.5 428.5,436.5 Z"/></g>
<g><path style="opacity:0.892" fill="#000000" d="M 461.5,436.5 C 467.167,436.5 472.833,436.5 478.5,436.5C 478.5,442.5 478.5,448.5 478.5,454.5C 472.833,454.5 467.167,454.5 461.5,454.5C 461.5,448.5 461.5,442.5 461.5,436.5 Z"/></g>
</svg>
