<svg width="25" height="24" viewBox="0 0 25 24" fill="none" xmlns="http://www.w3.org/2000/svg">
<path d="M10.2361 12.3749C10.7711 12.9299 11.0511 13.0899 11.5611 13.0699L11.6161 11.8199H12.4011M7.08613 10.9649H9.68113C9.74613 9.85988 10.2561 9.09488 11.5811 8.96488L11.6161 10.1099H12.4011M4.26613 15.2949C4.26613 15.2949 2.88613 15.3399 2.82113 14.8349C2.6464 13.3004 2.66319 11.7502 2.87113 10.2199C2.99613 9.18988 4.83113 9.06988 5.32613 8.14488C5.52113 7.77488 5.09613 7.10488 5.44613 7.09488C7.58613 7.01488 9.66113 6.64488 11.1411 6.75488C12.4444 6.83369 13.7083 7.23207 14.8211 7.91488C16.0611 8.65488 17.0661 9.47988 18.2411 10.1099C19.5011 10.7899 21.0261 10.9249 21.9511 11.9999C22.3161 12.4399 22.3111 14.9099 21.8861 15.1249C21.2471 15.3591 20.5612 15.4363 19.8861 15.3499M8.27113 15.2949H12.3161M19.8311 15.2949C19.8311 15.6835 19.7159 16.0634 19.5 16.3866C19.2841 16.7097 18.9772 16.9616 18.6181 17.1103C18.2591 17.259 17.864 17.2979 17.4828 17.2221C17.1016 17.1463 16.7515 16.9592 16.4767 16.6843C16.2019 16.4095 16.0147 16.0594 15.9389 15.6782C15.8631 15.2971 15.902 14.902 16.0507 14.5429C16.1994 14.1839 16.4513 13.877 16.7744 13.661C17.0976 13.4451 17.4775 13.3299 17.8661 13.3299C18.3838 13.3365 18.878 13.5471 19.2412 13.916C19.6045 14.2848 19.8075 14.7822 19.8061 15.2999L19.8311 15.2949ZM8.24113 15.2949C8.24113 15.6835 8.12589 16.0634 7.90997 16.3866C7.69405 16.7097 7.38716 16.9616 7.02811 17.1103C6.66905 17.259 6.27395 17.2979 5.89278 17.2221C5.51161 17.1463 5.16148 16.9592 4.88667 16.6843C4.61186 16.4095 4.42471 16.0594 4.34889 15.6782C4.27307 15.2971 4.31198 14.902 4.46071 14.5429C4.60944 14.1839 4.8613 13.877 5.18444 13.661C5.50758 13.4451 5.88749 13.3299 6.27613 13.3299C6.79294 13.3365 7.28635 13.5464 7.64947 13.9142C8.01258 14.282 8.21617 14.778 8.21613 15.2949H8.24113Z" stroke="#5D2EDE" stroke-linecap="round" stroke-linejoin="round"/>
</svg>
