<?xml version="1.0" encoding="UTF-8"?>
<!DOCTYPE svg PUBLIC "-//W3C//DTD SVG 1.1//EN" "http://www.w3.org/Graphics/SVG/1.1/DTD/svg11.dtd">
<svg xmlns="http://www.w3.org/2000/svg" version="1.1" width="512px" height="512px" style="shape-rendering:geometricPrecision; text-rendering:geometricPrecision; image-rendering:optimizeQuality; fill-rule:evenodd; clip-rule:evenodd" xmlns:xlink="http://www.w3.org/1999/xlink">
<g><path style="opacity:0.934" fill="#000000" d="M 233.5,-0.5 C 248.167,-0.5 262.833,-0.5 277.5,-0.5C 287.262,1.48543 294.095,7.1521 298,16.5C 301.139,24.0865 303.972,31.7532 306.5,39.5C 329.997,44.498 351.83,53.498 372,66.5C 382.692,60.9026 393.859,56.5692 405.5,53.5C 413.34,54.2537 420.006,57.4204 425.5,63C 435.03,72.1963 444.197,81.6963 453,91.5C 456.73,98.2007 457.73,105.201 456,112.5C 452.22,121.059 448.72,129.725 445.5,138.5C 452.194,151.222 458.36,164.222 464,177.5C 467.284,186.304 469.784,195.304 471.5,204.5C 482.613,207.927 493.28,212.427 503.5,218C 507.929,222.361 510.596,227.528 511.5,233.5C 511.5,248.167 511.5,262.833 511.5,277.5C 509.515,287.262 503.848,294.095 494.5,298C 486.913,301.139 479.247,303.972 471.5,306.5C 466.502,329.997 457.502,351.83 444.5,372C 450.226,382.852 454.56,394.185 457.5,406C 456.613,413.608 453.446,420.108 448,425.5C 438.804,435.03 429.304,444.197 419.5,453C 412.743,456.741 405.743,457.741 398.5,456C 389.941,452.22 381.275,448.72 372.5,445.5C 359.778,452.194 346.778,458.36 333.5,464C 324.696,467.284 315.696,469.784 306.5,471.5C 303.073,482.613 298.573,493.28 293,503.5C 288.639,507.929 283.472,510.596 277.5,511.5C 262.833,511.5 248.167,511.5 233.5,511.5C 223.738,509.515 216.905,503.848 213,494.5C 209.861,486.913 207.028,479.247 204.5,471.5C 181.004,466.501 159.17,457.501 139,444.5C 128.148,450.226 116.815,454.56 105,457.5C 97.3923,456.613 90.8923,453.446 85.5,448C 75.9695,438.804 66.8029,429.304 58,419.5C 54.27,412.799 53.27,405.799 55,398.5C 58.7044,389.593 62.5377,380.76 66.5,372C 53.4992,351.83 44.4992,329.996 39.5,306.5C 28.3871,303.073 17.7204,298.573 7.5,293C 3.07051,288.639 0.403843,283.472 -0.5,277.5C -0.5,262.833 -0.5,248.167 -0.5,233.5C 1.48543,223.738 7.1521,216.905 16.5,213C 24.0865,209.861 31.7532,207.028 39.5,204.5C 44.498,181.003 53.498,159.17 66.5,139C 61.276,128.158 56.9427,116.992 53.5,105.5C 54.2537,97.6602 57.4204,90.9936 63,85.5C 72.1963,75.9695 81.6963,66.8029 91.5,58C 98.2572,54.2592 105.257,53.2592 112.5,55C 121.407,58.7044 130.24,62.5377 139,66.5C 159.17,53.4992 181.004,44.4992 204.5,39.5C 207.927,28.3871 212.427,17.7204 218,7.5C 222.361,3.07051 227.528,0.403843 233.5,-0.5 Z M 235.5,17.5 C 249.906,17.0514 264.239,17.5514 278.5,19C 283.386,29.6544 287.886,40.4877 292,51.5C 293.167,52.6667 294.333,53.8333 295.5,55C 321.564,60.8676 345.897,70.8676 368.5,85C 371.594,85.6518 374.594,85.3185 377.5,84C 385.833,80.3333 394.167,76.6667 402.5,73C 404.5,72.3333 406.5,72.3333 408.5,73C 419,82.1667 428.833,92 438,102.5C 438.667,104.5 438.667,106.5 438,108.5C 433.268,118.628 429.101,128.961 425.5,139.5C 431.292,151.083 437.125,162.75 443,174.5C 448.538,187.781 452.872,201.448 456,215.5C 457.167,216.667 458.333,217.833 459.5,219C 469.873,223.069 480.207,227.236 490.5,231.5C 491.584,232.665 492.417,233.998 493,235.5C 493.948,249.902 493.615,264.235 492,278.5C 481.346,283.386 470.512,287.886 459.5,292C 458.333,293.167 457.167,294.333 456,295.5C 450.132,321.564 440.132,345.897 426,368.5C 425.333,370.5 425.333,372.5 426,374.5C 430,383.833 434,393.167 438,402.5C 438.667,404.5 438.667,406.5 438,408.5C 428.833,419 419,428.833 408.5,438C 406.5,438.667 404.5,438.667 402.5,438C 392.372,433.268 382.039,429.101 371.5,425.5C 359.917,431.292 348.25,437.125 336.5,443C 323.223,448.537 309.557,452.87 295.5,456C 294.333,457.167 293.167,458.333 292,459.5C 287.931,469.873 283.764,480.207 279.5,490.5C 278.335,491.584 277.002,492.417 275.5,493C 261.098,493.948 246.765,493.615 232.5,492C 227.614,481.346 223.114,470.512 219,459.5C 217.833,458.333 216.667,457.167 215.5,456C 189.436,450.132 165.103,440.132 142.5,426C 139.406,425.348 136.406,425.682 133.5,427C 125.167,430.667 116.833,434.333 108.5,438C 106.5,438.667 104.5,438.667 102.5,438C 92,428.833 82.1667,419 73,408.5C 72.3333,406.5 72.3333,404.5 73,402.5C 77.7323,392.372 81.899,382.039 85.5,371.5C 79.7084,359.917 73.875,348.25 68,336.5C 62.4618,323.219 58.1285,309.552 55,295.5C 53.8333,294.333 52.6667,293.167 51.5,292C 41.1267,287.931 30.7934,283.764 20.5,279.5C 19.4164,278.335 18.5831,277.002 18,275.5C 17.0518,261.098 17.3851,246.765 19,232.5C 29.6544,227.614 40.4877,223.114 51.5,219C 52.6667,217.833 53.8333,216.667 55,215.5C 60.8676,189.436 70.8676,165.103 85,142.5C 85.6518,139.406 85.3185,136.406 84,133.5C 80.3333,125.167 76.6667,116.833 73,108.5C 72.3333,106.5 72.3333,104.5 73,102.5C 82.1667,92 92,82.1667 102.5,73C 104.5,72.3333 106.5,72.3333 108.5,73C 118.628,77.7323 128.961,81.899 139.5,85.5C 151.083,79.7084 162.75,73.875 174.5,68C 187.777,62.4635 201.443,58.1301 215.5,55C 216.667,53.8333 217.833,52.6667 219,51.5C 223.138,40.7531 227.471,30.0865 232,19.5C 233.302,18.9152 234.469,18.2485 235.5,17.5 Z M 241.5,85.5 C 304.836,82.9248 355.669,106.591 394,156.5C 427.654,206.735 434.321,260.401 414,317.5C 386.555,380.329 338.721,416.162 270.5,425C 206.742,428.364 155.576,404.864 117,354.5C 81.7177,301.564 76.051,245.564 100,186.5C 122.478,139.359 158.645,107.859 208.5,92C 219.512,89.1688 230.512,87.0021 241.5,85.5 Z M 224.5,128.5 C 233.974,126.654 240.807,129.988 245,138.5C 245.85,142.61 247.016,146.61 248.5,150.5C 252.578,154.012 256.912,154.346 261.5,151.5C 263.668,145.895 265.835,140.228 268,134.5C 274.598,127.957 282.098,126.791 290.5,131C 294.551,134.721 297.384,139.221 299,144.5C 299.75,145.126 300.584,145.626 301.5,146C 306.012,146.5 310.512,146.333 315,145.5C 327.486,146.992 332.819,153.992 331,166.5C 328.197,170.141 326.03,174.141 324.5,178.5C 324.786,182.145 326.453,184.978 329.5,187C 347.746,188.574 356.912,198.407 357,216.5C 354.671,221.099 354.338,225.765 356,230.5C 368.298,241.119 368.631,252.119 357,263.5C 356.333,265.5 356.333,267.5 357,269.5C 361.393,274.047 366.06,278.381 371,282.5C 377.804,300.049 371.971,310.882 353.5,315C 351.061,315.774 349.227,317.274 348,319.5C 347.583,323.84 347.749,328.173 348.5,332.5C 345.768,346.379 337.435,351.379 323.5,347.5C 319.387,347.643 316.553,349.643 315,353.5C 314.061,374.446 303.227,383.946 282.5,382C 269.667,376.476 263.167,366.643 263,352.5C 258,347.167 253,347.167 248,352.5C 247.535,370.123 238.702,380.457 221.5,383.5C 211.499,382.754 203.999,378.088 199,369.5C 197.371,363.166 195.871,356.833 194.5,350.5C 193.5,349.667 192.5,348.833 191.5,348C 187.16,347.583 182.827,347.749 178.5,348.5C 164.621,345.768 159.621,337.435 163.5,323.5C 163.751,319.497 162.084,316.664 158.5,315C 139.197,311.556 133.031,300.722 140,282.5C 144.94,278.381 149.607,274.047 154,269.5C 154.667,267.5 154.667,265.5 154,263.5C 142.369,252.119 142.702,241.119 155,230.5C 155.601,228.863 156.101,227.197 156.5,225.5C 150.836,211.331 154.169,199.831 166.5,191C 171.317,189.036 176.317,187.702 181.5,187C 184.428,185.082 186.094,182.415 186.5,179C 185.219,174.382 183.052,170.216 180,166.5C 179.573,149.28 187.907,142.614 205,146.5C 207.3,146.506 209.466,146.006 211.5,145C 213.829,137.802 218.162,132.302 224.5,128.5 Z"/></g>
<g><path style="opacity:0.934" fill="#000000" d="M 238.5,67.5 C 317.13,64.2251 377.296,95.5584 419,161.5C 448.273,216.763 451.273,273.429 428,331.5C 396.4,397.242 344.234,434.409 271.5,443C 192.245,446.464 132.079,414.631 91,347.5C 62.7139,292.733 60.0473,236.733 83,179.5C 114.566,114.125 166.4,76.7913 238.5,67.5 Z M 241.5,85.5 C 230.512,87.0021 219.512,89.1688 208.5,92C 158.645,107.859 122.478,139.359 100,186.5C 76.051,245.564 81.7177,301.564 117,354.5C 155.576,404.864 206.742,428.364 270.5,425C 338.721,416.162 386.555,380.329 414,317.5C 434.321,260.401 427.654,206.735 394,156.5C 355.669,106.591 304.836,82.9248 241.5,85.5 Z M 224.5,128.5 C 218.162,132.302 213.829,137.802 211.5,145C 209.466,146.006 207.3,146.506 205,146.5C 187.907,142.614 179.573,149.28 180,166.5C 183.052,170.216 185.219,174.382 186.5,179C 186.094,182.415 184.428,185.082 181.5,187C 176.317,187.702 171.317,189.036 166.5,191C 154.169,199.831 150.836,211.331 156.5,225.5C 156.101,227.197 155.601,228.863 155,230.5C 142.702,241.119 142.369,252.119 154,263.5C 154.667,265.5 154.667,267.5 154,269.5C 149.607,274.047 144.94,278.381 140,282.5C 133.031,300.722 139.197,311.556 158.5,315C 162.084,316.664 163.751,319.497 163.5,323.5C 159.621,337.435 164.621,345.768 178.5,348.5C 182.827,347.749 187.16,347.583 191.5,348C 192.5,348.833 193.5,349.667 194.5,350.5C 195.871,356.833 197.371,363.166 199,369.5C 203.999,378.088 211.499,382.754 221.5,383.5C 238.702,380.457 247.535,370.123 248,352.5C 253,347.167 258,347.167 263,352.5C 263.167,366.643 269.667,376.476 282.5,382C 303.227,383.946 314.061,374.446 315,353.5C 316.553,349.643 319.387,347.643 323.5,347.5C 337.435,351.379 345.768,346.379 348.5,332.5C 347.749,328.173 347.583,323.84 348,319.5C 349.227,317.274 351.061,315.774 353.5,315C 371.971,310.882 377.804,300.049 371,282.5C 366.06,278.381 361.393,274.047 357,269.5C 356.333,267.5 356.333,265.5 357,263.5C 368.631,252.119 368.298,241.119 356,230.5C 354.338,225.765 354.671,221.099 357,216.5C 356.912,198.407 347.746,188.574 329.5,187C 326.453,184.978 324.786,182.145 324.5,178.5C 326.03,174.141 328.197,170.141 331,166.5C 332.819,153.992 327.486,146.992 315,145.5C 310.512,146.333 306.012,146.5 301.5,146C 300.584,145.626 299.75,145.126 299,144.5C 297.384,139.221 294.551,134.721 290.5,131C 282.098,126.791 274.598,127.957 268,134.5C 265.835,140.228 263.668,145.895 261.5,151.5C 256.912,154.346 252.578,154.012 248.5,150.5C 247.016,146.61 245.85,142.61 245,138.5C 240.807,129.988 233.974,126.654 224.5,128.5 Z"/></g>
<g><path style="opacity:0.937" fill="#000000" d="M 229.5,109.5 C 239.519,110.059 248.186,113.726 255.5,120.5C 270.389,107.869 286.055,106.702 302.5,117C 305.731,119.727 308.397,122.894 310.5,126.5C 340.118,128.452 352.785,144.119 348.5,173.5C 363.479,179.408 372.312,190.408 375,206.5C 375.456,212.204 375.456,217.87 375,223.5C 382.967,232.752 385.634,243.419 383,255.5C 382.127,258.618 380.961,261.618 379.5,264.5C 394.583,280.734 396.417,298.401 385,317.5C 380.326,323.418 374.492,327.751 367.5,330.5C 365.747,352.92 353.747,364.92 331.5,366.5C 326.102,388.058 312.269,399.724 290,401.5C 276.403,400.617 264.903,395.284 255.5,385.5C 232.282,407.136 209.449,406.803 187,384.5C 183.109,379.056 180.609,373.056 179.5,366.5C 157.253,364.92 145.253,352.92 143.5,330.5C 121.979,319.792 114.479,302.792 121,279.5C 123.515,273.8 127.015,268.8 131.5,264.5C 126.044,252.422 126.21,240.422 132,228.5C 133.093,226.651 134.426,224.984 136,223.5C 133.215,205.853 138.382,191.02 151.5,179C 154.86,176.454 158.526,174.621 162.5,173.5C 158.215,144.119 170.882,128.452 200.5,126.5C 207.356,115.91 217.023,110.243 229.5,109.5 Z M 224.5,128.5 C 218.162,132.302 213.829,137.802 211.5,145C 209.466,146.006 207.3,146.506 205,146.5C 187.907,142.614 179.573,149.28 180,166.5C 183.052,170.216 185.219,174.382 186.5,179C 186.094,182.415 184.428,185.082 181.5,187C 176.317,187.702 171.317,189.036 166.5,191C 154.169,199.831 150.836,211.331 156.5,225.5C 156.101,227.197 155.601,228.863 155,230.5C 142.702,241.119 142.369,252.119 154,263.5C 154.667,265.5 154.667,267.5 154,269.5C 149.607,274.047 144.94,278.381 140,282.5C 133.031,300.722 139.197,311.556 158.5,315C 162.084,316.664 163.751,319.497 163.5,323.5C 159.621,337.435 164.621,345.768 178.5,348.5C 182.827,347.749 187.16,347.583 191.5,348C 192.5,348.833 193.5,349.667 194.5,350.5C 195.871,356.833 197.371,363.166 199,369.5C 203.999,378.088 211.499,382.754 221.5,383.5C 238.702,380.457 247.535,370.123 248,352.5C 253,347.167 258,347.167 263,352.5C 263.167,366.643 269.667,376.476 282.5,382C 303.227,383.946 314.061,374.446 315,353.5C 316.553,349.643 319.387,347.643 323.5,347.5C 337.435,351.379 345.768,346.379 348.5,332.5C 347.749,328.173 347.583,323.84 348,319.5C 349.227,317.274 351.061,315.774 353.5,315C 371.971,310.882 377.804,300.049 371,282.5C 366.06,278.381 361.393,274.047 357,269.5C 356.333,267.5 356.333,265.5 357,263.5C 368.631,252.119 368.298,241.119 356,230.5C 354.338,225.765 354.671,221.099 357,216.5C 356.912,198.407 347.746,188.574 329.5,187C 326.453,184.978 324.786,182.145 324.5,178.5C 326.03,174.141 328.197,170.141 331,166.5C 332.819,153.992 327.486,146.992 315,145.5C 310.512,146.333 306.012,146.5 301.5,146C 300.584,145.626 299.75,145.126 299,144.5C 297.384,139.221 294.551,134.721 290.5,131C 282.098,126.791 274.598,127.957 268,134.5C 265.835,140.228 263.668,145.895 261.5,151.5C 256.912,154.346 252.578,154.012 248.5,150.5C 247.016,146.61 245.85,142.61 245,138.5C 240.807,129.988 233.974,126.654 224.5,128.5 Z"/></g>
<g><path style="opacity:0.94" fill="#000000" d="M 252.5,169.5 C 257.814,168.74 261.647,170.74 264,175.5C 264.667,226.167 264.667,276.833 264,327.5C 262.336,331.084 259.503,332.751 255.5,332.5C 251.497,332.751 248.664,331.084 247,327.5C 246.333,276.833 246.333,226.167 247,175.5C 248.36,172.977 250.193,170.977 252.5,169.5 Z"/></g>
<g><path style="opacity:0.912" fill="#000000" d="M 214.5,178.5 C 219.109,177.974 223.443,178.641 227.5,180.5C 232.839,190.315 229.839,195.815 218.5,197C 217.069,197.465 215.903,198.299 215,199.5C 213.875,202.784 212.875,206.117 212,209.5C 206.328,215.102 200.995,214.768 196,208.5C 194.606,193.747 200.772,183.747 214.5,178.5 Z"/></g>
<g><path style="opacity:0.911" fill="#000000" d="M 285.5,178.5 C 305.976,178.142 315.81,188.142 315,208.5C 310.005,214.768 304.672,215.102 299,209.5C 298.125,206.117 297.125,202.784 296,199.5C 295.097,198.299 293.931,197.465 292.5,197C 279.569,194.656 277.236,188.489 285.5,178.5 Z"/></g>
<g><path style="opacity:0.916" fill="#000000" d="M 211.5,237.5 C 220.004,238.508 223.17,243.175 221,251.5C 219.833,252.667 218.667,253.833 217.5,255C 213.981,255.395 210.648,256.395 207.5,258C 205.229,261.111 204.062,264.611 204,268.5C 199.809,273.426 194.976,274.26 189.5,271C 185.746,263.685 186.246,256.518 191,249.5C 196.144,242.515 202.977,238.515 211.5,237.5 Z"/></g>
<g><path style="opacity:0.918" fill="#000000" d="M 297.5,237.5 C 313.699,238.699 322.699,247.365 324.5,263.5C 323.071,271.713 318.404,274.547 310.5,272C 308.951,270.786 307.785,269.286 307,267.5C 306.675,258.909 302.175,254.742 293.5,255C 289.673,251.692 288.506,247.526 290,242.5C 291.913,239.72 294.413,238.053 297.5,237.5 Z"/></g>
<g><path style="opacity:0.913" fill="#000000" d="M 193.5,297.5 C 212.988,298.187 222.155,308.187 221,327.5C 218.103,332.155 213.937,333.655 208.5,332C 207.333,330.833 206.167,329.667 205,328.5C 204.817,319.651 200.317,315.151 191.5,315C 184.573,308.164 185.24,302.33 193.5,297.5 Z"/></g>
<g><path style="opacity:0.914" fill="#000000" d="M 311.5,297.5 C 321.882,297.034 325.715,301.701 323,311.5C 321.833,312.667 320.667,313.833 319.5,315C 315.902,315.154 312.569,316.154 309.5,318C 307.961,321.341 306.794,324.841 306,328.5C 302.229,332.788 297.729,333.621 292.5,331C 287.176,319.285 289.843,309.618 300.5,302C 304.053,299.879 307.72,298.379 311.5,297.5 Z"/></g>
</svg>
