<?xml version="1.0" encoding="UTF-8"?>
<!DOCTYPE svg PUBLIC "-//W3C//DTD SVG 1.1//EN" "http://www.w3.org/Graphics/SVG/1.1/DTD/svg11.dtd">
<svg xmlns="http://www.w3.org/2000/svg" version="1.1" width="512px" height="512px" style="shape-rendering:geometricPrecision; text-rendering:geometricPrecision; image-rendering:optimizeQuality; fill-rule:evenodd; clip-rule:evenodd" xmlns:xlink="http://www.w3.org/1999/xlink">
<g><path style="opacity:0.943" fill="#363330" d="M 184.5,45.5 C 247.819,46.8911 293.319,75.8911 321,132.5C 336.829,172.103 336.162,211.437 319,250.5C 315.877,256.582 312.377,262.415 308.5,268C 358.657,312.492 408.491,357.325 458,402.5C 467.515,417.274 467.848,432.274 459,447.5C 447.02,463.049 431.52,468.216 412.5,463C 408.941,461.772 405.608,460.106 402.5,458C 357.296,408.465 312.463,358.632 268,308.5C 234.086,330.46 197.252,337.293 157.5,329C 103.445,314.611 67.945,280.778 51,227.5C 36.3056,159.882 57.1389,106.382 113.5,67C 135.531,54.0419 159.198,46.8753 184.5,45.5 Z M 178.5,55.5 C 233.668,53.8283 275.835,76.1617 305,122.5C 328.611,167.669 328.278,212.669 304,257.5C 266.584,312.275 215.417,332.108 150.5,317C 104.408,301.242 74.2417,270.075 60,223.5C 47.9551,167.634 63.4551,121.134 106.5,84C 127.849,67.7188 151.849,58.2188 178.5,55.5 Z M 177.5,84.5 C 232.032,82.6626 269.199,106.996 289,157.5C 300.351,199.268 290.851,235.435 260.5,266C 225.584,295.374 186.918,301.374 144.5,284C 102.195,261.236 82.3613,225.736 85,177.5C 91.4368,136.07 113.937,107.237 152.5,91C 160.838,88.3333 169.172,86.1666 177.5,84.5 Z M 201.5,156.5 C 218.592,157.079 224.425,165.412 219,181.5C 216.333,184.167 213.667,186.833 211,189.5C 204.167,181.333 196.667,173.833 188.5,167C 192.177,162.47 196.51,158.97 201.5,156.5 Z M 170.5,169.5 C 186.235,176.394 198.402,187.394 207,202.5C 208.187,204.044 208.52,205.711 208,207.5C 189.755,224.377 168.255,233.044 143.5,233.5C 145.913,209.226 154.913,187.893 170.5,169.5 Z M 353.5,331.5 C 345.833,338.5 338.5,345.833 331.5,353.5C 329.537,354.96 327.704,356.627 326,358.5C 309.5,340 293,321.5 276.5,303C 286.667,295.5 295.5,286.667 303,276.5C 321.5,293 340,309.5 358.5,326C 356.627,327.704 354.96,329.537 353.5,331.5 Z M 365.5,333.5 C 367.932,334.75 370.266,336.25 372.5,338C 380.677,345.345 388.677,352.845 396.5,360.5C 384.833,372.833 372.833,384.833 360.5,396.5C 351.041,386.918 342.041,376.918 333.5,366.5C 344.188,355.479 354.855,344.479 365.5,333.5 Z M 403.5,367.5 C 405.932,368.75 408.266,370.25 410.5,372C 423.967,383.799 437.134,395.966 450,408.5C 457.757,421.27 457.09,433.603 448,445.5C 435.982,456.852 422.816,458.352 408.5,450C 394.648,434.983 380.982,419.816 367.5,404.5C 379.521,392.146 391.521,379.813 403.5,367.5 Z"/></g>
<g><path style="opacity:0.942" fill="#363330" d="M 181.5,74.5 C 228.383,73.8507 264.216,93.1841 289,132.5C 311.144,177.25 307.811,219.916 279,260.5C 246.113,298.015 205.279,310.849 156.5,299C 108.067,282.326 80.9,248.492 75,197.5C 74.2859,138.234 101.786,98.7342 157.5,79C 165.558,77.0199 173.558,75.5199 181.5,74.5 Z M 177.5,84.5 C 169.172,86.1666 160.838,88.3333 152.5,91C 113.937,107.237 91.4368,136.07 85,177.5C 82.3613,225.736 102.195,261.236 144.5,284C 186.918,301.374 225.584,295.374 260.5,266C 290.851,235.435 300.351,199.268 289,157.5C 269.199,106.996 232.032,82.6626 177.5,84.5 Z M 201.5,156.5 C 196.51,158.97 192.177,162.47 188.5,167C 196.667,173.833 204.167,181.333 211,189.5C 213.667,186.833 216.333,184.167 219,181.5C 224.425,165.412 218.592,157.079 201.5,156.5 Z M 170.5,169.5 C 154.913,187.893 145.913,209.226 143.5,233.5C 168.255,233.044 189.755,224.377 208,207.5C 208.52,205.711 208.187,204.044 207,202.5C 198.402,187.394 186.235,176.394 170.5,169.5 Z"/></g>
<g><path style="opacity:0.944" fill="#363330" d="M 227.5,187.5 C 234.17,181.585 242.003,178.252 251,177.5C 255.92,177.416 257.92,179.749 257,184.5C 256.5,185.667 255.667,186.5 254.5,187C 250.75,187.26 247.084,187.927 243.5,189C 238.833,192 234.167,195 229.5,198C 225.442,198.767 221.442,198.6 217.5,197.5C 216.686,199.952 217.186,202.285 219,204.5C 219.667,206.5 219.667,208.5 219,210.5C 216.317,213.016 213.817,215.683 211.5,218.5C 212.6,222.442 212.767,226.442 212,230.5C 208.263,236.969 204.263,243.302 200,249.5C 198.306,255.104 196.973,260.77 196,266.5C 193.084,268.013 190.418,267.68 188,265.5C 187.076,251.344 191.743,239.344 202,229.5C 202.273,227.899 202.773,226.399 203.5,225C 203.167,224.833 202.833,224.667 202.5,224.5C 196.321,229.003 189.655,232.669 182.5,235.5C 181.786,243.05 178.62,249.384 173,254.5C 171.391,259.448 170.058,264.448 169,269.5C 163.631,271.93 160.797,270.263 160.5,264.5C 161.053,254.898 164.719,246.731 171.5,240C 161.707,242.242 151.707,243.742 141.5,244.5C 139.366,244.485 137.366,243.985 135.5,243C 134.358,236.916 134.191,230.749 135,224.5C 136.145,218.451 137.145,212.451 138,206.5C 130.194,214.655 120.694,218.155 109.5,217C 106.461,213.195 107.128,210.195 111.5,208C 114.914,207.703 118.247,207.036 121.5,206C 126.435,203.394 131.102,200.394 135.5,197C 137.833,196.667 140.167,196.333 142.5,196C 145.391,188.883 149.057,182.217 153.5,176C 152.167,175.333 150.833,175.333 149.5,176C 142.516,182.994 134.182,187.661 124.5,190C 120.5,190.667 116.5,190.667 112.5,190C 109.833,187.333 109.833,184.667 112.5,182C 118.321,181.303 123.987,179.969 129.5,178C 135.108,174.724 140.442,171.057 145.5,167C 150.107,165.248 154.774,165.081 159.5,166.5C 162.291,164.211 164.958,161.711 167.5,159C 171.993,158.883 176.326,159.717 180.5,161.5C 178.837,155.637 179.337,149.97 182,144.5C 187.953,139.594 190.953,133.26 191,125.5C 192.511,120.203 195.511,119.203 200,122.5C 201.441,133.845 197.941,143.345 189.5,151C 194.423,148.645 199.756,147.145 205.5,146.5C 208.49,146.623 211.323,147.29 214,148.5C 219.5,135.5 225,122.5 230.5,109.5C 232.583,107.396 234.917,107.062 237.5,108.5C 239.256,110.191 239.756,112.191 239,114.5C 234,126.5 229,138.5 224,150.5C 223.226,152.403 223.56,154.07 225,155.5C 238.65,149.838 252.316,144.171 266,138.5C 269.104,138.788 270.604,140.455 270.5,143.5C 270.61,145.374 269.944,146.874 268.5,148C 256.167,153.167 243.833,158.333 231.5,163.5C 231.378,168.075 231.212,172.742 231,177.5C 230.105,180.951 228.938,184.284 227.5,187.5 Z M 201.5,156.5 C 196.51,158.97 192.177,162.47 188.5,167C 196.667,173.833 204.167,181.333 211,189.5C 213.667,186.833 216.333,184.167 219,181.5C 224.425,165.412 218.592,157.079 201.5,156.5 Z M 170.5,169.5 C 154.913,187.893 145.913,209.226 143.5,233.5C 168.255,233.044 189.755,224.377 208,207.5C 208.52,205.711 208.187,204.044 207,202.5C 198.402,187.394 186.235,176.394 170.5,169.5 Z"/></g>
<g><path style="opacity:0.584" fill="#262323" d="M 353.5,331.5 C 353.631,332.239 353.464,332.906 353,333.5C 346.244,340.761 339.078,347.428 331.5,353.5C 338.5,345.833 345.833,338.5 353.5,331.5 Z"/></g>
</svg>
