<?xml version="1.0" encoding="UTF-8"?>
<svg version="1.1" xmlns="http://www.w3.org/2000/svg" width="512" height="512">
<path d="M0 0 C1.09231682 -0.01043099 2.18463364 -0.02086198 3.31005096 -0.03160906 C4.50964699 -0.02268617 5.70924301 -0.01376328 6.94519043 -0.00457001 C8.2198542 -0.01080997 9.49451797 -0.01704993 10.80780792 -0.02347898 C14.3484819 -0.04020703 17.88872569 -0.03191053 21.4294014 -0.01953411 C25.24678745 -0.0105 29.06409848 -0.02444516 32.88146973 -0.0354538 C40.36070617 -0.05326121 47.83978225 -0.04938919 55.31902504 -0.03780323 C61.39633121 -0.0287779 67.47359237 -0.027541 73.55090332 -0.0318985 C74.41511918 -0.03251143 75.27933503 -0.03312436 76.16973925 -0.03375587 C77.9252542 -0.03503474 79.68076914 -0.03633159 81.43628407 -0.03764623 C97.90643425 -0.04905854 114.37649546 -0.03592814 130.84663105 -0.01444477 C144.98564854 0.00342681 159.12453468 0.00032289 173.2635498 -0.01811981 C189.67385777 -0.03951506 206.08408769 -0.04795984 222.49440765 -0.03567076 C224.24354552 -0.03439653 225.9926834 -0.03313905 227.74182129 -0.0318985 C229.0328107 -0.03097285 229.0328107 -0.03097285 230.3498807 -0.03002849 C236.42146455 -0.02657155 242.49299899 -0.03241134 248.5645752 -0.04181671 C255.96157473 -0.05302314 263.35840443 -0.05002534 270.75538445 -0.02869374 C274.5310997 -0.01816491 278.30653157 -0.01409235 282.08224487 -0.02729034 C286.1709225 -0.04136639 290.25888158 -0.02458551 294.34753418 -0.00457001 C296.14692822 -0.01795434 296.14692822 -0.01795434 297.98267365 -0.03160906 C299.62114887 -0.01596257 299.62114887 -0.01596257 301.29272461 0 C302.70886677 0.00097411 302.70886677 0.00097411 304.15361786 0.00196791 C307.43725256 0.66244614 308.62654709 1.87341181 310.6463623 4.50336456 C311.03908548 7.51052994 311.18677521 10.15087456 311.15429688 13.15766144 C311.16365682 14.48162556 311.16365682 14.48162556 311.17320585 15.83233643 C311.18918627 18.79586592 311.17651183 21.75857867 311.16394043 24.72211456 C311.1693593 26.84427115 311.17648063 28.96642397 311.18518066 31.08856964 C311.20344481 36.85710591 311.19633363 42.62535662 311.18366432 48.39389801 C311.17355271 54.42453544 311.18292488 60.45514807 311.18920898 66.48578644 C311.19649074 76.6140864 311.18688377 86.74226979 311.16784668 96.87055206 C311.14607701 108.58812299 311.153128 120.30541555 311.1751523 132.02297974 C311.19329119 142.07486864 311.195872 152.12667363 311.18539762 162.17857361 C311.17915441 168.18589085 311.17834988 174.19307716 311.19154358 180.20038605 C311.2030794 185.84752209 311.19511762 191.49429847 311.17196655 197.14139557 C311.16666735 199.21668652 311.16821382 201.29200763 311.17701721 203.36728668 C311.18790838 206.19495876 311.17428696 209.02147007 311.15429688 211.84906769 C311.16768121 213.08816517 311.16768121 213.08816517 311.18133593 214.35229492 C311.13327224 217.84457993 310.92929582 220.08263244 308.95788193 223.01419449 C306.12641692 224.83833343 304.51089072 224.99714604 301.15411377 224.98438263 C300.03794678 224.98988129 298.92177979 224.99537994 297.77178955 225.00104523 C296.55187317 224.98666412 295.33195679 224.97228302 294.07507324 224.95746613 C292.78701782 224.95805023 291.4989624 224.95863434 290.171875 224.95923615 C286.64307532 224.96038369 283.11481963 224.9368686 279.58614635 224.90894032 C275.89728237 224.88393303 272.20840588 224.88158521 268.51947021 224.87683868 C261.53545441 224.86440687 254.5516891 224.83158268 247.56778359 224.79144073 C239.61624513 224.74672925 231.66469469 224.72473758 223.71306181 224.70465899 C207.35734868 224.66285006 191.00188746 224.59249425 174.6463623 224.50336456 C174.65524475 225.54684052 174.6641272 226.59031647 174.67327881 227.6654129 C174.75433114 237.49449037 174.81431158 247.32350013 174.85361099 257.15283585 C174.87449444 262.20634376 174.90282602 267.25958211 174.94812012 272.31293488 C174.9915507 277.18883924 175.0154937 282.06448417 175.02587128 286.94056702 C175.03326765 288.80174851 175.04771097 290.66291564 175.06928253 292.52398682 C175.09827974 295.12907961 175.1023199 297.73309754 175.10046387 300.3383255 C175.11484497 301.10940643 175.12922607 301.88048737 175.14404297 302.67493439 C175.11950778 305.85318503 174.82521059 308.17073163 173.31188965 310.98529816 C168.93051356 313.4805717 164.4942269 313.02398202 159.54382324 312.95746613 C158.41182495 312.95805023 157.27982666 312.95863434 156.11352539 312.95923615 C152.36895162 312.95644769 148.62517216 312.92531808 144.8807373 312.89398956 C142.28570999 312.88652993 139.69067705 312.88083569 137.09564209 312.87683868 C130.96157914 312.86312257 124.82784438 312.83159206 118.69390512 312.79144073 C111.70970509 312.74671706 104.72549136 312.72473454 97.74118376 312.70465899 C83.37609003 312.66285891 69.01123631 312.59251063 54.6463623 312.50336456 C54.65524475 313.44661591 54.6641272 314.38986725 54.67327881 315.36170197 C54.75434921 324.24893917 54.81432017 333.1361014 54.85361099 342.02362442 C54.87448995 346.5928742 54.90281302 351.16182559 54.94812012 355.73090363 C54.99156719 360.13997329 55.01549709 364.54875587 55.02587128 368.95802307 C55.03326473 370.64057943 55.04770247 372.32311999 55.06928253 374.0055542 C55.09830234 376.36161557 55.10231905 378.71648929 55.10046387 381.0727005 C55.11484497 381.76897552 55.12922607 382.46525055 55.14404297 383.18262482 C55.11837345 386.19357437 54.87883397 388.15436282 53.1951561 390.68201065 C49.37946741 393.40868063 45.96855048 393.05734299 41.38464355 393.01129913 C40.43666397 393.0175391 39.48868439 393.02377906 38.51197815 393.03020811 C35.3273551 393.04619538 32.14349138 393.0335112 28.9588623 393.02094269 C26.67907259 393.02636124 24.39928638 393.03348239 22.11950684 393.04218292 C15.92123871 393.06045075 9.72323628 393.05333433 3.52496338 393.04066658 C-2.95410898 393.03055689 -9.43315822 393.0399266 -15.91223145 393.04621124 C-27.491275 393.05396035 -39.07019701 393.04151046 -50.64922142 393.02117389 C-61.14971187 393.00330261 -71.65002544 393.00640664 -82.1505127 393.02484894 C-94.34181748 393.04625081 -106.5329963 393.05422535 -118.72431946 393.04239988 C-125.17876433 393.03615579 -131.63308732 393.03535455 -138.08752441 393.04854584 C-144.15488851 393.06007931 -150.22191778 393.0521241 -156.28924561 393.02896881 C-158.51934248 393.02366837 -160.74946742 393.02521818 -162.97955322 393.03401947 C-166.01739214 393.04490555 -169.05414947 393.03129489 -172.09191895 393.01129913 C-173.42439919 393.02468346 -173.42439919 393.02468346 -174.78379822 393.03833818 C-178.50403013 392.99064455 -180.70826068 392.90996823 -183.90074921 390.89862061 C-185.85575975 387.67555781 -185.85695489 385.43725939 -185.86157227 381.67133331 C-185.86781223 380.98470108 -185.87405219 380.29806885 -185.88048124 379.59062958 C-185.89643338 377.29035836 -185.88379937 374.99114359 -185.87121582 372.69086456 C-185.87663599 371.04160697 -185.88375806 369.39235422 -185.89245605 367.74311066 C-185.91070495 363.26376241 -185.9036155 358.78478231 -185.89093971 354.30542755 C-185.88082013 349.6200943 -185.89020249 344.93479279 -185.89648438 340.24945831 C-185.90376382 332.38091109 -185.89416529 324.512514 -185.87512207 316.64398956 C-185.85335274 307.54390685 -185.8604039 298.4441826 -185.88242769 289.34410858 C-185.90057324 281.53423237 -185.90314416 273.72446414 -185.89267302 265.91457367 C-185.88643342 261.24863559 -185.88561522 256.58286606 -185.89881897 251.91693878 C-185.91036458 247.53047639 -185.90237556 243.14447663 -185.87924194 238.75806427 C-185.87394792 237.14719156 -185.8754805 235.53627998 -185.8842926 233.92542267 C-185.89520509 231.72821956 -185.8815391 229.53250383 -185.86157227 227.33539581 C-185.86006416 226.10538849 -185.85855606 224.87538116 -185.85700226 223.60810089 C-185.25485234 219.89405971 -184.36607466 218.70078934 -181.3536377 216.50336456 C-178.4996027 216.12929132 -176.03797007 215.99612058 -173.18859863 216.049263 C-172.3687146 216.04867889 -171.54883057 216.04809479 -170.70410156 216.04749298 C-167.99830559 216.05027627 -165.29361584 216.08137908 -162.5880127 216.11273956 C-160.710435 216.1202011 -158.8328495 216.12589444 -156.95526123 216.12989044 C-152.01654511 216.14515365 -147.0783005 216.18444144 -142.13977051 216.22870636 C-137.09914529 216.26964421 -132.05844379 216.28789829 -127.0177002 216.30805206 C-117.12947235 216.35093498 -107.24159425 216.41919469 -97.3536377 216.50336456 C-97.36252014 215.359664 -97.37140259 214.21596344 -97.3805542 213.03760529 C-97.46159161 202.26668874 -97.52157987 191.49583393 -97.56088638 180.72468185 C-97.58177355 175.18691313 -97.61011213 169.64939023 -97.65539551 164.111763 C-97.69881249 158.76902343 -97.72276629 153.42652051 -97.73314667 148.08361816 C-97.74054546 146.04381076 -97.75499337 144.00401652 -97.77655792 141.96430969 C-97.80553657 139.11017984 -97.80959599 136.25703159 -97.80773926 133.40277863 C-97.82212036 132.55689178 -97.83650146 131.71100494 -97.85131836 130.83948517 C-97.82597868 127.24681985 -97.70998254 125.09673775 -95.83557129 121.97553253 C-92.33661982 119.9001167 -89.13836501 119.97559758 -85.18859863 120.049263 C-84.3687146 120.04867889 -83.54883057 120.04809479 -82.70410156 120.04749298 C-79.99830559 120.05027627 -77.29361584 120.08137908 -74.5880127 120.11273956 C-72.710435 120.1202011 -70.8328495 120.12589444 -68.95526123 120.12989044 C-64.01654511 120.14515365 -59.0783005 120.18444144 -54.13977051 120.22870636 C-49.09914529 120.26964421 -44.05844379 120.28789829 -39.0177002 120.30805206 C-29.12947235 120.35093498 -19.24159425 120.41919469 -9.3536377 120.50336456 C-9.35732487 119.90921879 -9.36101204 119.31507301 -9.36481094 118.70292282 C-9.45313882 104.24769293 -9.51933595 89.79248712 -9.56088638 75.33704758 C-9.58151387 68.34648957 -9.6096377 61.35611166 -9.65539551 54.36566925 C-9.69951423 47.62241635 -9.72276014 40.87938942 -9.73314667 34.13598633 C-9.74055071 31.56029816 -9.75500861 28.9846205 -9.77655792 26.40901184 C-9.80549653 22.80774851 -9.80959754 19.20726408 -9.80773926 15.60590363 C-9.82212036 14.53559906 -9.83650146 13.46529449 -9.85131836 12.36255646 C-9.8458197 11.38101593 -9.84032104 10.3994754 -9.83465576 9.38819122 C-9.83834293 8.53645451 -9.84203011 7.68471779 -9.84582901 6.80717087 C-8.70675268 1.47548146 -5.04045791 0.00346715 0 0 Z M6.6463623 16.50336456 C6.6463623 50.82336456 6.6463623 85.14336456 6.6463623 120.50336456 C18.45030762 120.54074738 30.25425293 120.57813019 42.41589355 120.61664581 C49.87619194 120.64690747 57.33647454 120.67792057 64.79675293 120.71234894 C76.64838253 120.76690215 88.49996824 120.81831176 100.35168457 120.84980011 C108.98208886 120.87274399 117.61237864 120.90610135 126.24269217 120.95206612 C130.81415912 120.97604722 135.38551232 120.99474389 139.95704079 121.00097847 C144.25722765 121.00700733 148.55712328 121.02692687 152.85720253 121.05764008 C154.43784059 121.06645574 156.01851665 121.07013562 157.59917831 121.06837273 C159.75296696 121.06672862 161.90585859 121.08334342 164.05952454 121.10463715 C165.26615155 121.10924611 166.47277857 121.11385508 167.71597004 121.11860371 C170.6463623 121.50336456 170.6463623 121.50336456 172.5331192 122.806427 C174.46605334 125.75283514 174.08500287 129.14348262 174.07873535 132.55487823 C174.09414604 133.80435604 174.09414604 133.80435604 174.10986805 135.07907581 C174.1397678 137.77656868 174.1492996 140.47369759 174.15808105 143.17133331 C174.17354355 144.83626331 174.19033975 146.50118149 174.20849609 148.16608429 C174.26646143 154.34088038 174.29858852 160.51589715 174.3338623 166.69086456 C174.4369873 180.48898956 174.5401123 194.28711456 174.6463623 208.50336456 C214.2463623 208.50336456 253.8463623 208.50336456 294.6463623 208.50336456 C294.6463623 145.14336456 294.6463623 81.78336456 294.6463623 16.50336456 C199.6063623 16.50336456 104.5663623 16.50336456 6.6463623 16.50336456 Z M-81.3536377 136.50336456 C-81.3536377 162.90336456 -81.3536377 189.30336456 -81.3536377 216.50336456 C-67.11271973 216.55943878 -67.11271973 216.55943878 -52.58410645 216.61664581 C-46.58213852 216.64690912 -40.58019018 216.67792343 -34.57824707 216.71234894 C-25.04432928 216.76689231 -15.51046593 216.81830237 -5.97644043 216.84980011 C0.96637358 216.87275132 7.90904542 216.90611684 14.85174674 216.95206612 C18.52895618 216.97603744 22.20602448 216.99474047 25.88331032 217.00097847 C29.98527791 217.00813179 34.08675326 217.03853227 38.18859863 217.07099152 C39.41211029 217.06955643 40.63562195 217.06812134 41.89620972 217.06664276 C43.01100204 217.07918091 44.12579437 217.09171906 45.27436829 217.10463715 C46.2450163 217.10924611 47.21566431 217.11385508 48.2157259 217.11860371 C50.6463623 217.50336456 50.6463623 217.50336456 52.45719147 218.82540894 C54.39821473 221.56425083 54.08531659 224.58425021 54.07873535 227.82050323 C54.09414604 228.95103481 54.09414604 228.95103481 54.10986805 230.1044054 C54.13975165 232.54346298 54.14929691 234.98211796 54.15808105 237.42133331 C54.1735449 238.92741051 54.19034136 240.43347463 54.20849609 241.93952179 C54.26644497 247.52315839 54.2985845 253.10703871 54.3338623 258.69086456 C54.4369873 271.16898956 54.5401123 283.64711456 54.6463623 296.50336456 C88.9663623 296.50336456 123.2863623 296.50336456 158.6463623 296.50336456 C158.6463623 243.70336456 158.6463623 190.90336456 158.6463623 136.50336456 C79.4463623 136.50336456 0.2463623 136.50336456 -81.3536377 136.50336456 Z M-169.3536377 232.50336456 C-169.3536377 280.02336456 -169.3536377 327.54336456 -169.3536377 376.50336456 C-100.7136377 376.50336456 -32.0736377 376.50336456 38.6463623 376.50336456 C38.6463623 328.98336456 38.6463623 281.46336456 38.6463623 232.50336456 C-29.9936377 232.50336456 -98.6336377 232.50336456 -169.3536377 232.50336456 Z " fill="#000000" transform="translate(193.3536376953125,7.496635437011719)"/>
<path d="M0 0 C2.20838731 0.00850782 4.41418243 -0.02027097 6.62231445 -0.05200195 C8.03832931 -0.05361442 9.4543487 -0.05303556 10.87036133 -0.05004883 C12.1477417 -0.05190186 13.42512207 -0.05375488 14.74121094 -0.05566406 C18.89792967 0.53356523 21.0376393 1.82543176 24.28051758 4.44604492 C27.21898942 8.85375268 27.59492336 12.20594851 27.28051758 17.44604492 C27.98176758 17.52854492 28.68301758 17.61104492 29.40551758 17.69604492 C32.28051758 18.44604492 32.28051758 18.44604492 35.15551758 20.63354492 C38.18294096 22.8630048 38.18294096 22.8630048 41.59301758 21.69604492 C42.80989258 21.28354492 44.02676758 20.87104492 45.28051758 20.44604492 C49.99923708 19.83558121 53.31132237 19.95230397 57.59301758 22.13354492 C65.21844401 28.69495836 72.74480905 39.93068746 75.06958008 49.79370117 C75.20383051 54.2300678 74.50044246 56.98175905 72.59301758 61.00854492 C70.28051758 63.44604492 70.28051758 63.44604492 65.28051758 65.44604492 C65.28051758 70.06604492 65.28051758 74.68604492 65.28051758 79.44604492 C66.93051758 80.10604492 68.58051758 80.76604492 70.28051758 81.44604492 C74.46654301 85.858342 74.78499282 89.66772319 74.68847656 95.47070312 C73.97919366 100.64367186 71.46061705 104.50397693 68.65551758 108.82104492 C67.87241211 110.11461914 67.87241211 110.11461914 67.07348633 111.43432617 C63.63777644 116.93994523 60.21201947 121.48029398 54.28051758 124.44604492 C49.75106771 124.84271772 46.00878014 124.71435218 41.71801758 123.13354492 C37.74828925 122.33959926 37.27126027 122.71367673 34.03051758 124.82104492 C33.38598633 125.3031543 32.74145508 125.78526367 32.07739258 126.28198242 C30.28051758 127.44604492 30.28051758 127.44604492 27.28051758 127.44604492 C27.36301758 128.45666992 27.44551758 129.46729492 27.53051758 130.50854492 C27.21404332 135.49301445 26.16290136 137.39512717 23.28051758 141.44604492 C17.66257312 145.74609941 11.29532016 144.93173409 4.56103516 144.89208984 C2.35264785 144.88358202 0.14685272 144.91236081 -2.0612793 144.9440918 C-3.47729415 144.94570426 -4.89331355 144.94512541 -6.30932617 144.94213867 C-7.58670654 144.9439917 -8.86408691 144.94584473 -10.18017578 144.94775391 C-14.33689452 144.35852462 -16.47660415 143.06665808 -19.71948242 140.44604492 C-22.65795426 136.03833716 -23.03388821 132.68614134 -22.71948242 127.44604492 C-23.60635742 127.17791992 -24.49323242 126.90979492 -25.40698242 126.63354492 C-28.71948242 125.44604492 -28.71948242 125.44604492 -31.15698242 123.69604492 C-34.85634384 121.89147838 -36.86209447 123.22453874 -40.71948242 124.44604492 C-45.44254522 125.04776147 -48.74505188 124.94245293 -53.03198242 122.75854492 C-60.65740885 116.19713148 -68.18377389 104.96140239 -70.50854492 95.09838867 C-70.64279536 90.66202205 -69.93940731 87.91033079 -68.03198242 83.88354492 C-65.71948242 81.44604492 -65.71948242 81.44604492 -60.71948242 79.44604492 C-60.71948242 74.82604492 -60.71948242 70.20604492 -60.71948242 65.44604492 C-62.36948242 64.78604492 -64.01948242 64.12604492 -65.71948242 63.44604492 C-69.90550785 59.03374785 -70.22395766 55.22436666 -70.12744141 49.42138672 C-69.4181585 44.24841799 -66.8995819 40.38811291 -64.09448242 36.07104492 C-63.57241211 35.20866211 -63.0503418 34.3462793 -62.51245117 33.45776367 C-59.07674128 27.95214462 -55.65098431 23.41179587 -49.71948242 20.44604492 C-45.21305079 20.05138798 -41.47981308 20.16092093 -37.21948242 21.75854492 C-32.52852729 22.67998254 -30.53802862 21.12097827 -26.63745117 18.61010742 C-24.71948242 17.44604492 -24.71948242 17.44604492 -22.71948242 17.44604492 C-22.80198242 16.43541992 -22.88448242 15.42479492 -22.96948242 14.38354492 C-22.65300817 9.39907539 -21.6018662 7.49696267 -18.71948242 3.44604492 C-13.10153797 -0.85400956 -6.734285 -0.03964424 0 0 Z M-5.71948242 16.44604492 C-6.33823242 18.79729492 -6.33823242 18.79729492 -6.96948242 21.19604492 C-8.46359649 26.87367838 -10.81669384 29.32005018 -15.84838867 32.29760742 C-16.98147461 32.8828418 -18.11456055 33.46807617 -19.28198242 34.07104492 C-22.54337266 35.76652362 -25.66026937 37.40656955 -28.71948242 39.44604492 C-34.76856689 40.67636719 -38.83300371 40.23301167 -44.71948242 38.44604492 C-45.91938622 40.20849714 -47.10407759 41.98131473 -48.28198242 43.75854492 C-48.94327148 44.74467773 -49.60456055 45.73081055 -50.28588867 46.74682617 C-50.99551758 48.08293945 -50.99551758 48.08293945 -51.71948242 49.44604492 C-50.91760215 52.61633715 -50.91760215 52.61633715 -48.28198242 54.82104492 C-43.16108135 60.06684602 -43.38147802 65.35324257 -43.40698242 72.32104492 C-43.39086914 73.19374023 -43.37475586 74.06643555 -43.3581543 74.96557617 C-43.35394314 80.56641213 -44.02385303 84.50831621 -46.71948242 89.44604492 C-49.40698242 91.88354492 -49.40698242 91.88354492 -51.71948242 93.44604492 C-50.07769977 98.2221399 -47.45401541 102.23987396 -44.71948242 106.44604492 C-44.00663086 106.2784668 -43.2937793 106.11088867 -42.55932617 105.93823242 C-32.83086865 103.86946218 -27.44703849 105.70318226 -19.15307617 110.94213867 C-17.06547439 112.23222966 -14.98277285 113.30874029 -12.78198242 114.38354492 C-7.54497515 117.910509 -6.91235115 122.48170127 -5.71948242 128.44604492 C-0.43948242 128.44604492 4.84051758 128.44604492 10.28051758 128.44604492 C10.69301758 126.87854492 11.10551758 125.31104492 11.53051758 123.69604492 C13.00549195 118.09114231 15.33943245 115.62592019 20.26879883 112.62963867 C23.5963048 110.88181826 26.93027922 109.14990389 30.28051758 107.44604492 C30.98176758 107.06577148 31.68301758 106.68549805 32.40551758 106.29370117 C38.19481154 103.38565305 43.26532881 104.89890103 49.28051758 106.44604492 C50.48042138 104.68359271 51.66511274 102.91077511 52.84301758 101.13354492 C53.83495117 99.6543457 53.83495117 99.6543457 54.84692383 98.14526367 C55.32000977 97.25452148 55.7930957 96.3637793 56.28051758 95.44604492 C55.47863731 92.2757527 55.47863731 92.2757527 52.84301758 90.07104492 C47.7221165 84.82524382 47.94251318 79.53884728 47.96801758 72.57104492 C47.9519043 71.69834961 47.93579102 70.8256543 47.91918945 69.92651367 C47.9149783 64.32567771 48.58488819 60.38377364 51.28051758 55.44604492 C53.96801758 53.00854492 53.96801758 53.00854492 56.28051758 51.44604492 C54.63873493 46.66994994 52.01505056 42.65221588 49.28051758 38.44604492 C48.56766602 38.61362305 47.85481445 38.78120117 47.12036133 38.95385742 C37.3919038 41.02262766 32.00807364 39.18890758 23.71411133 33.94995117 C21.62650955 32.65986018 19.54380801 31.58334955 17.34301758 30.50854492 C12.1060103 26.98158084 11.47338631 22.41038857 10.28051758 16.44604492 C5.00051758 16.44604492 -0.27948242 16.44604492 -5.71948242 16.44604492 Z " fill="#000000" transform="translate(429.719482421875,359.553955078125)"/>
<path d="M0 0 C5.28 0 10.56 0 16 0 C16 13.2 16 26.4 16 40 C79.36 40 142.72 40 208 40 C208 45.28 208 50.56 208 56 C181.47081578 56.09252391 154.94167031 56.16394151 128.41235733 56.20724869 C116.09483606 56.22788981 103.77741676 56.25604007 91.45996094 56.30175781 C80.72633223 56.34157806 69.99277735 56.36742153 59.25907683 56.37635398 C53.57358776 56.38157686 47.88830997 56.39388483 42.20288849 56.42292023 C36.8546218 56.45001321 31.50665399 56.45845735 26.1583252 56.45243073 C24.19266894 56.4535337 22.22700298 56.46152383 20.26140594 56.4768219 C17.58244928 56.49665415 14.90462862 56.49196411 12.22564697 56.48101807 C11.05249384 56.49849512 11.05249384 56.49849512 9.85564065 56.51632524 C6.32561345 56.47720093 4.37157845 56.28071641 1.51596069 54.12338257 C-0.37379645 51.47642913 -0.4855021 50.00671609 -0.45410156 46.77246094 C-0.45379944 45.73168396 -0.45349731 44.69090698 -0.45318604 43.61859131 C-0.43254089 42.50179993 -0.41189575 41.38500854 -0.390625 40.234375 C-0.38496521 39.08584045 -0.37930542 37.93730591 -0.37347412 36.75396729 C-0.35108331 33.08555426 -0.30087942 29.41811783 -0.25 25.75 C-0.22993861 23.26303494 -0.21168722 20.77605457 -0.1953125 18.2890625 C-0.15120924 12.19233203 -0.0821608 6.09633159 0 0 Z " fill="#000000" transform="translate(128,424)"/>
<path d="M0 0 C8.34468007 4.97590182 13.53387008 11.86345977 16.109375 21.2578125 C17.10789012 32.35758522 16.45884702 41.9922991 9.359375 51.0703125 C3.70168013 57.1280464 -3.34488592 60.84888618 -11.625 61.59375 C-22.24007794 61.83258597 -31.18444828 60.63001931 -39.2890625 53.1015625 C-47.32833275 43.84659773 -48.61982016 35.03008751 -48.06982422 23.20654297 C-47.37894187 15.69343275 -43.42276801 9.23166585 -37.890625 4.2578125 C-27.15195714 -3.81766573 -12.32399863 -5.91386512 0 0 Z M-29.265625 20.8828125 C-31.46970393 25.46051489 -31.6877889 29.26333661 -30.890625 34.2578125 C-28.56093569 39.09639798 -25.72921048 41.92812319 -20.890625 44.2578125 C-15.89614911 45.0549764 -12.09332739 44.83689143 -7.515625 42.6328125 C-3.93154787 39.39007605 -1.29527259 36.79305354 -0.5078125 31.859375 C-0.25178581 26.17558256 -0.95435568 22.60842595 -4.890625 18.2578125 C-9.24123845 14.32154318 -12.80839506 13.61897331 -18.4921875 13.875 C-23.42586604 14.66246009 -26.02288855 17.29873537 -29.265625 20.8828125 Z " fill="#000000" transform="translate(447.890625,402.7421875)"/>
<path d="M0 0 C5.28 0 10.56 0 16 0 C16 18.48 16 36.96 16 56 C26.56 56 37.12 56 48 56 C48 61.28 48 66.56 48 72 C41.80701358 72.09888089 35.61448668 72.17147486 29.42089844 72.21972656 C27.31404618 72.23984126 25.20724975 72.26713667 23.10058594 72.30175781 C20.07212553 72.35028168 17.04440322 72.37297016 14.015625 72.390625 C12.60292328 72.42159271 12.60292328 72.42159271 11.16168213 72.45318604 C10.28107117 72.45348816 9.40046021 72.45379028 8.49316406 72.45410156 C7.72039124 72.46298401 6.94761841 72.47186646 6.15142822 72.48101807 C3.01527492 71.77983437 1.88523607 70.57843826 0 68 C-0.48101807 64.93743896 -0.48101807 64.93743896 -0.45410156 61.30371094 C-0.45468567 60.63988403 -0.45526978 59.97605713 -0.45587158 59.29211426 C-0.45309265 57.10566262 -0.42201328 54.92058738 -0.390625 52.734375 C-0.38316184 51.21552271 -0.37746926 49.69666078 -0.37347412 48.17779541 C-0.35822341 44.18596675 -0.31894723 40.19472303 -0.2746582 36.203125 C-0.23369289 32.12768466 -0.21546046 28.05214952 -0.1953125 23.9765625 C-0.15245159 15.98407704 -0.0821071 7.99217874 0 0 Z " fill="#000000" transform="translate(288,344)"/>
<path d="M0 0 C5.28 0 10.56 0 16 0 C16 26.4 16 52.8 16 80 C10.72 80 5.44 80 0 80 C0 53.6 0 27.2 0 0 Z " fill="#000000" transform="translate(432,256)"/>
<path d="M0 0 C5.28 0 10.56 0 16 0 C16 5.28 16 10.56 16 16 C10.72 16 5.44 16 0 16 C0 10.72 0 5.44 0 0 Z " fill="#000000" transform="translate(200,256)"/>
<path d="M0 0 C5.28 0 10.56 0 16 0 C16 5.28 16 10.56 16 16 C10.72 16 5.44 16 0 16 C0 10.72 0 5.44 0 0 Z " fill="#000000" transform="translate(168,256)"/>
<path d="M0 0 C5.28 0 10.56 0 16 0 C16 5.28 16 10.56 16 16 C10.72 16 5.44 16 0 16 C0 10.72 0 5.44 0 0 Z " fill="#000000" transform="translate(320,160)"/>
<path d="M0 0 C5.28 0 10.56 0 16 0 C16 5.28 16 10.56 16 16 C10.72 16 5.44 16 0 16 C0 10.72 0 5.44 0 0 Z " fill="#000000" transform="translate(288,160)"/>
<path d="M0 0 C5.28 0 10.56 0 16 0 C16 5.28 16 10.56 16 16 C10.72 16 5.44 16 0 16 C0 10.72 0 5.44 0 0 Z " fill="#000000" transform="translate(456,40)"/>
<path d="M0 0 C5.28 0 10.56 0 16 0 C16 5.28 16 10.56 16 16 C10.72 16 5.44 16 0 16 C0 10.72 0 5.44 0 0 Z " fill="#000000" transform="translate(424,40)"/>
</svg>
