<?xml version="1.0" encoding="UTF-8"?>
<svg version="1.1" xmlns="http://www.w3.org/2000/svg" width="512" height="512">
<path d="M0 0 C1.17111328 -0.00257813 2.34222656 -0.00515625 3.54882812 -0.0078125 C13.34613703 0.10396513 13.34613703 0.10396513 17.9375 3.5 C19.56734213 6.23580644 20.77301008 8.54047545 21.3125 11.6875 C21.84564084 13.76582599 21.84564084 13.76582599 24.25 15.3125 C27.34886505 16.68176595 27.83114617 16.37600331 30.9375 15.5 C33.0859375 15.26171875 33.0859375 15.26171875 35.3125 15.1875 C36.04210937 15.15011719 36.77171875 15.11273438 37.5234375 15.07421875 C42.54122622 15.95923326 45.78708935 19.01841651 48.7109375 23.00390625 C49.59822423 24.34367452 50.46500754 25.69721129 51.3125 27.0625 C51.75440674 27.76906738 52.19631348 28.47563477 52.65161133 29.20361328 C56.01681915 34.92193635 57.40066545 39.85850117 55.9375 46.5 C55.6075 47.16 55.2775 47.82 54.9375 48.5 C55.60281738 48.47905273 56.26813477 48.45810547 56.95361328 48.43652344 C59.98975302 48.35299391 63.02565043 48.30122397 66.0625 48.25 C67.10921875 48.21648437 68.1559375 48.18296875 69.234375 48.1484375 C75.29647222 48.07170209 79.30770392 48.1442417 83.9375 52.5 C88.85271547 58.05154141 88.50666194 63.27935219 88.45507812 70.46875 C88.4620874 71.66943115 88.46909668 72.8701123 88.47631836 74.10717773 C88.49087567 77.388332 88.48750807 80.66883754 88.47480202 83.94998169 C88.46464501 87.390496 88.47407516 90.83096828 88.48034668 94.27148438 C88.48761528 100.04825574 88.47805626 105.82482227 88.45898438 111.6015625 C88.4372169 118.27162848 88.44426884 124.94120533 88.46629 131.61125946 C88.48446664 137.3473503 88.48699134 143.08329425 88.47653532 148.8194046 C88.47031273 152.24125684 88.4694304 155.66287949 88.48268127 159.0847168 C88.49283945 162.90056426 88.47735368 166.71547249 88.45507812 170.53125 C88.46317505 171.65974365 88.47127197 172.7882373 88.47961426 173.95092773 C88.41489976 179.93470724 88.21702388 183.92946582 83.9375 188.5 C79.52895728 192.18704369 76.52712824 192.99523197 70.83056641 192.95410156 C70.14694031 192.95468567 69.46331421 192.95526978 68.75897217 192.95587158 C66.51847025 192.95310371 64.27932949 192.92207681 62.0390625 192.890625 C60.47822801 192.88315791 58.91738411 192.87746719 57.35653687 192.87347412 C53.26281522 192.85825441 49.16966778 192.81900507 45.07617188 192.7746582 C40.89330817 192.73362584 36.71035102 192.71544617 32.52734375 192.6953125 C24.33043723 192.65250633 16.13410636 192.58218734 7.9375 192.5 C7.9375 197.78 7.9375 203.06 7.9375 208.5 C15.8575 208.5 23.7775 208.5 31.9375 208.5 C31.9375 213.78 31.9375 219.06 31.9375 224.5 C10.8175 224.5 -10.3025 224.5 -32.0625 224.5 C-32.0625 219.22 -32.0625 213.94 -32.0625 208.5 C-24.1425 208.5 -16.2225 208.5 -8.0625 208.5 C-8.0625 203.22 -8.0625 197.94 -8.0625 192.5 C-10.15158691 192.52094727 -12.24067383 192.54189453 -14.39306641 192.56347656 C-21.30603698 192.62984357 -28.21902186 192.67397401 -35.13222694 192.70724869 C-39.32253538 192.72809718 -43.51251659 192.75636416 -47.70263672 192.80175781 C-51.74862242 192.84531419 -55.79429395 192.8691577 -59.84049606 192.87950897 C-61.38184935 192.88688286 -62.92318602 192.90128257 -64.46440506 192.92292023 C-66.62849936 192.95208611 -68.79130625 192.95595076 -70.95556641 192.95410156 C-72.18578522 192.96298401 -73.41600403 192.97186646 -74.6835022 192.98101807 C-79.98004807 192.22702697 -82.81398055 189.83341955 -86.40515137 185.99804688 C-88.84137919 180.85607555 -88.62042565 176.15461168 -88.58007812 170.53125 C-88.5870874 169.33056885 -88.59409668 168.1298877 -88.60131836 166.89282227 C-88.61587567 163.611668 -88.61250807 160.33116246 -88.59980202 157.05001831 C-88.58964501 153.609504 -88.59907516 150.16903172 -88.60534668 146.72851562 C-88.61261528 140.95174426 -88.60305626 135.17517773 -88.58398438 129.3984375 C-88.5622169 122.72837152 -88.56926884 116.05879467 -88.59129 109.38874054 C-88.60946664 103.6526497 -88.61199134 97.91670575 -88.60153532 92.1805954 C-88.59531273 88.75874316 -88.5944304 85.33712051 -88.60768127 81.9152832 C-88.61783945 78.09943574 -88.60235368 74.28452751 -88.58007812 70.46875 C-88.58817505 69.34025635 -88.59627197 68.2117627 -88.60461426 67.04907227 C-88.53785838 60.87653747 -88.2107867 57.18532571 -84.0625 52.5 C-79.43270392 48.1442417 -75.42147222 48.07170209 -69.359375 48.1484375 C-68.31265625 48.18195313 -67.2659375 48.21546875 -66.1875 48.25 C-65.11757812 48.26804688 -64.04765625 48.28609375 -62.9453125 48.3046875 C-60.31677822 48.35162561 -57.69011087 48.41727067 -55.0625 48.5 C-55.3925 47.84 -55.7225 47.18 -56.0625 46.5 C-57.67660161 39.40404386 -55.29050076 34.18858162 -51.875 28.125 C-51.48844238 27.43519043 -51.10188477 26.74538086 -50.70361328 26.03466797 C-47.93522394 21.36893303 -45.01893931 17.97821965 -40.0625 15.5 C-38.60670413 15.40444583 -37.1464204 15.37015309 -35.6875 15.375 C-34.53121094 15.37113281 -34.53121094 15.37113281 -33.3515625 15.3671875 C-31.0625 15.5 -31.0625 15.5 -28.93359375 16.06640625 C-26.92009654 16.71264902 -26.92009654 16.71264902 -24.5 15.5625 C-21.5908669 13.10092584 -21.02974543 11.25035566 -20.12890625 7.6328125 C-15.82441468 -0.97617065 -8.54964294 -0.20772186 0 0 Z M-4.0625 16.5 C-4.22363281 17.08007812 -4.38476562 17.66015625 -4.55078125 18.2578125 C-6.45711166 23.73286573 -8.46105639 26.18476286 -13.625 28.9375 C-15.43400346 29.7990471 -17.24608584 30.65418883 -19.0625 31.5 C-20.0525 32.16 -21.0425 32.82 -22.0625 33.5 C-25.14567642 33.55995065 -28.17272194 33.3682462 -31.25 33.1796875 C-34.17063731 33.21632496 -34.17063731 33.21632496 -35.9453125 35.38671875 C-37.23938278 37.38849786 -37.23938278 37.38849786 -36.9375 39.4375 C-36.12436549 41.5898701 -36.12436549 41.5898701 -34.53515625 43.5078125 C-32.41614314 47.81328742 -32.58706422 51.70242448 -32.625 56.4375 C-32.60501953 57.31857422 -32.58503906 58.19964844 -32.56445312 59.10742188 C-32.56885074 64.97823778 -33.48507521 67.87915965 -37.0625 72.5 C-37.167097 75.23295895 -37.167097 75.23295895 -36.0625 77.5 C-32.64046914 79.78135391 -31.8704884 79.60943502 -27.9375 79.3125 C-21.72692347 79.18105923 -18.13189217 81.15112881 -13.0625 84.5 C-12.134375 84.9125 -11.20625 85.325 -10.25 85.75 C-6.77988409 88.52609273 -5.59594882 92.41365874 -4.0625 96.5 C-1.4225 96.5 1.2175 96.5 3.9375 96.5 C4.06382813 95.943125 4.19015625 95.38625 4.3203125 94.8125 C6.23741341 88.83921717 9.3808709 86.0351528 14.75 83 C15.63872803 82.49339844 15.63872803 82.49339844 16.54541016 81.9765625 C22.25713833 78.95445107 27.6547675 77.7865275 33.9375 79.5 C35.5858633 77.74755753 35.5858633 77.74755753 36.9375 75.5 C36.7669493 72.85646422 36.01407981 71.60067013 34.41015625 69.4921875 C32.29114314 65.18671258 32.46206422 61.29757552 32.5 56.5625 C32.48001953 55.68142578 32.46003906 54.80035156 32.43945312 53.89257812 C32.44385074 48.02176222 33.36007521 45.12084035 36.9375 40.5 C37.042097 37.76704105 37.042097 37.76704105 35.9375 35.5 C32.50642448 33.21261632 31.69973144 33.39224504 27.75 33.6875 C22.58422462 33.79654011 19.83010302 32.81539814 15.71484375 29.77734375 C13.80670619 28.29226008 13.80670619 28.29226008 10.6875 27.25 C6.59871337 24.64804487 5.52365338 20.95055978 3.9375 16.5 C1.2975 16.5 -1.3425 16.5 -4.0625 16.5 Z M-72.0625 64.5 C-72.0625 90.9 -72.0625 117.3 -72.0625 144.5 C-24.5425 144.5 22.9775 144.5 71.9375 144.5 C71.9375 118.1 71.9375 91.7 71.9375 64.5 C66.3275 64.5 60.7175 64.5 54.9375 64.5 C55.123125 66.15 55.30875 67.8 55.5 69.5 C55.52187866 75.62602575 53.75141793 79.78164032 50.8125 85 C50.43424072 85.68191406 50.05598145 86.36382812 49.66625977 87.06640625 C47.07174645 91.40839901 44.52828623 94.11447365 39.9375 96.5 C37.5234375 96.92578125 37.5234375 96.92578125 35.3125 96.8125 C34.21035156 96.77576172 34.21035156 96.77576172 33.0859375 96.73828125 C30.9375 96.5 30.9375 96.5 28.85546875 95.890625 C26.6803037 95.24885844 26.6803037 95.24885844 23.875 96.9375 C20.63998656 99.759533 19.88791536 101.46424292 18.87109375 105.5 C17.49379264 108.45053627 15.61792168 109.68827007 12.9375 111.5 C10.0625 111.98583984 10.0625 111.98583984 6.9375 111.9609375 C5.803125 111.95707031 4.66875 111.95320313 3.5 111.94921875 C2.324375 111.92472656 1.14875 111.90023437 -0.0625 111.875 C-1.8259375 111.87306641 -1.8259375 111.87306641 -3.625 111.87109375 C-13.63644867 111.76870393 -13.63644867 111.76870393 -18.0625 109.5 C-18.99609375 107.2578125 -18.99609375 107.2578125 -19.5 104.625 C-20.50498941 100.67927453 -20.86497819 99.68071145 -24 96.8125 C-27.39552544 95.35727481 -27.74604735 95.54177541 -31.0625 96.5 C-33.2109375 96.73828125 -33.2109375 96.73828125 -35.4375 96.8125 C-36.16710938 96.84988281 -36.89671875 96.88726562 -37.6484375 96.92578125 C-41.77689918 96.19762215 -44.75235716 94.12230072 -47.38330078 90.86450195 C-48.66944932 88.9536018 -49.82021538 87.01420597 -50.9375 85 C-51.33316162 84.29746094 -51.72882324 83.59492188 -52.13647461 82.87109375 C-55.45974929 76.55823239 -55.86535464 71.63648568 -55.0625 64.5 C-60.6725 64.5 -66.2825 64.5 -72.0625 64.5 Z M-72.0625 160.5 C-72.0625 165.78 -72.0625 171.06 -72.0625 176.5 C-24.5425 176.5 22.9775 176.5 71.9375 176.5 C71.9375 171.22 71.9375 165.94 71.9375 160.5 C24.4175 160.5 -23.1025 160.5 -72.0625 160.5 Z " fill="#000000" transform="translate(96.0625,143.5)"/>
<path d="M0 0 C1.20094299 0.00030212 2.40188599 0.00060425 3.63922119 0.00091553 C4.93100281 0.02156067 6.22278442 0.04220581 7.55371094 0.06347656 C8.89320022 0.07094085 10.23270046 0.0766329 11.57220459 0.08062744 C15.0906003 0.09586943 18.60833109 0.13513739 22.12646484 0.17944336 C25.71930955 0.22042792 29.31226214 0.23864516 32.90527344 0.25878906 C39.9498416 0.30163427 46.9938503 0.37197146 54.03808594 0.45410156 C54.03808594 5.73410156 54.03808594 11.01410156 54.03808594 16.45410156 C38.19808594 16.45410156 22.35808594 16.45410156 6.03808594 16.45410156 C6.03808594 71.89410156 6.03808594 127.33410156 6.03808594 184.45410156 C21.87808594 184.45410156 37.71808594 184.45410156 54.03808594 184.45410156 C54.03808594 189.73410156 54.03808594 195.01410156 54.03808594 200.45410156 C38.19808594 200.45410156 22.35808594 200.45410156 6.03808594 200.45410156 C6.03808594 255.89410156 6.03808594 311.33410156 6.03808594 368.45410156 C21.87808594 368.45410156 37.71808594 368.45410156 54.03808594 368.45410156 C54.03808594 373.73410156 54.03808594 379.01410156 54.03808594 384.45410156 C46.28417153 384.54450595 38.53054558 384.61787647 30.77624893 384.66135025 C27.17550308 384.68221669 23.57513678 384.71051577 19.97460938 384.75585938 C16.4992068 384.79935281 13.02416906 384.82324578 9.54851532 384.83361053 C7.5786281 384.84458771 5.60888746 384.87580856 3.63922119 384.9072876 C1.8378067 384.90774078 1.8378067 384.90774078 0 384.90820312 C-1.58551666 384.92152679 -1.58551666 384.92152679 -3.20306396 384.93511963 C-6.79227524 384.30932431 -7.7568711 383.33510027 -9.96191406 380.45410156 C-10.34671068 377.87155782 -10.48655403 375.7181043 -10.44293213 373.1395874 C-10.44634983 372.40113028 -10.44976753 371.66267315 -10.45328879 370.90183854 C-10.4598797 368.42635214 -10.43787279 365.95194906 -10.41601562 363.4765625 C-10.4148874 361.70259629 -10.41552051 359.92862821 -10.41778564 358.15466309 C-10.41893471 353.33670857 -10.39539423 348.51915127 -10.36748981 343.70128918 C-10.34250826 338.66711114 -10.34013672 333.6329243 -10.33538818 328.59869385 C-10.32294886 319.0647607 -10.29011428 309.53101073 -10.24999022 299.99715829 C-10.20530229 289.14360985 -10.18329296 278.29005273 -10.16320848 267.43643522 C-10.12138248 245.10886568 -10.04801812 222.78154728 -9.96191406 200.45410156 C-25.80191406 200.45410156 -41.64191406 200.45410156 -57.96191406 200.45410156 C-57.96191406 195.17410156 -57.96191406 189.89410156 -57.96191406 184.45410156 C-42.12191406 184.45410156 -26.28191406 184.45410156 -9.96191406 184.45410156 C-9.98286133 179.02231445 -10.00380859 173.59052734 -10.02539062 167.99414062 C-10.09156365 150.08082308 -10.13601422 132.16750084 -10.16916275 114.25409317 C-10.18980147 103.38938423 -10.21794711 92.52479096 -10.26367188 81.66015625 C-10.30349952 72.19223255 -10.32933734 62.72439261 -10.33826804 53.25638747 C-10.34348969 48.24158218 -10.35578965 43.22701651 -10.38483429 38.2122879 C-10.41193905 33.49436651 -10.42036907 28.77678397 -10.41434479 24.05879211 C-10.41544724 22.3253419 -10.42343054 20.59188061 -10.43873596 18.85849762 C-10.4585872 16.49478468 -10.45387191 14.13235732 -10.44293213 11.76861572 C-10.45458349 11.0798964 -10.46623486 10.39117707 -10.4782393 9.68158746 C-10.43659196 6.36109663 -10.14700502 4.69593214 -8.10427856 2.02700806 C-5.26502053 -0.05755197 -3.50371144 -0.02944295 0 0 Z " fill="#000000" transform="translate(265.9619140625,63.5458984375)"/>
<path d="M0 0 C1.37045026 -0.00542487 2.74089468 -0.01254958 4.11132812 -0.02124023 C7.82214736 -0.03943355 11.53252041 -0.0324229 15.24334717 -0.01972389 C19.13229549 -0.00957537 23.02120638 -0.0189947 26.91015625 -0.02526855 C33.44017372 -0.03253959 39.97001005 -0.02297163 46.5 -0.00390625 C54.04255185 0.01786159 61.58467116 0.01080982 69.12721252 -0.01121187 C75.61063837 -0.02938147 82.09393423 -0.03191662 88.57737732 -0.0214572 C92.44635098 -0.01523078 96.31512153 -0.01436299 100.18408203 -0.02760315 C103.82206402 -0.03918392 107.45949 -0.03109613 111.09741211 -0.00802612 C113.06428265 -0.00024035 115.03120039 -0.01207597 116.99804688 -0.02453613 C127.99790071 0.08082645 127.99790071 0.08082645 132.5625 4.51757812 C137.24847642 9.70582402 137.13504865 14.37188837 137.08007812 21.01757812 C137.0870874 22.06220215 137.09409668 23.10682617 137.10131836 24.18310547 C137.11889022 27.62820193 137.10727782 31.07247364 137.09375 34.51757812 C137.09644513 36.91601723 137.10032772 39.31445526 137.10534668 41.71289062 C137.11124066 46.73643408 137.10268159 51.7596928 137.08398438 56.78320312 C137.06119537 63.21946884 137.07431892 69.65506735 137.09827423 76.09130859 C137.11273461 81.0430198 137.108125 85.99457307 137.09776306 90.94628906 C137.09509647 93.31933674 137.09836314 95.6923988 137.10768127 98.06542969 C137.11785031 101.3831984 137.10233934 104.69988957 137.08007812 108.01757812 C137.08817505 108.99645996 137.09627197 109.9753418 137.10461426 110.98388672 C137.03429082 116.64693291 136.51434725 120.14214952 132.5625 124.51757812 C126.99238301 129.93168445 120.4260497 129.08140912 113.125 129.03515625 C111.75454974 129.04058112 110.38410532 129.04770583 109.01367188 129.05639648 C105.30285264 129.0745898 101.59247959 129.06757915 97.88165283 129.05488014 C93.99270451 129.04473162 90.10379362 129.05415095 86.21484375 129.0604248 C79.68482628 129.06769584 73.15498995 129.05812788 66.625 129.0390625 C59.08244815 129.01729466 51.54032884 129.02434643 43.99778748 129.04636812 C37.51436163 129.06453772 31.03106577 129.06707287 24.54762268 129.05661345 C20.67864902 129.05038703 16.80987847 129.04951924 12.94091797 129.0627594 C9.30293598 129.07434017 5.66551 129.06625238 2.02758789 129.04318237 C0.06071735 129.0353966 -1.90620039 129.04723222 -3.87304688 129.05969238 C-14.87290071 128.9543298 -14.87290071 128.9543298 -19.4375 124.51757812 C-24.12347642 119.32933223 -24.01004865 114.66326788 -23.95507812 108.01757812 C-23.9620874 106.9729541 -23.96909668 105.92833008 -23.97631836 104.85205078 C-23.99389022 101.40695432 -23.98227782 97.96268261 -23.96875 94.51757812 C-23.97144513 92.11913902 -23.97532772 89.72070099 -23.98034668 87.32226562 C-23.98624066 82.29872217 -23.97768159 77.27546345 -23.95898438 72.25195312 C-23.93619537 65.81568741 -23.94931892 59.3800889 -23.97327423 52.94384766 C-23.98773461 47.99213645 -23.983125 43.04058318 -23.97276306 38.08886719 C-23.97009647 35.71581951 -23.97336314 33.34275745 -23.98268127 30.96972656 C-23.99285031 27.65195785 -23.97733934 24.33526668 -23.95507812 21.01757812 C-23.96317505 20.03869629 -23.97127197 19.05981445 -23.97961426 18.05126953 C-23.90929082 12.38822334 -23.38934725 8.89300673 -19.4375 4.51757812 C-13.86738301 -0.8965282 -7.3010497 -0.04625287 0 0 Z M-7.4375 16.51757812 C-7.4375 48.19757813 -7.4375 79.87757813 -7.4375 112.51757812 C34.8025 112.51757812 77.0425 112.51757812 120.5625 112.51757812 C120.5625 80.83757812 120.5625 49.15757812 120.5625 16.51757812 C78.3225 16.51757812 36.0825 16.51757812 -7.4375 16.51757812 Z " fill="#000000" transform="translate(367.4375,375.482421875)"/>
<path d="M0 0 C1.37045026 -0.00542487 2.74089468 -0.01254958 4.11132812 -0.02124023 C7.82214736 -0.03943355 11.53252041 -0.0324229 15.24334717 -0.01972389 C19.13229549 -0.00957537 23.02120638 -0.0189947 26.91015625 -0.02526855 C33.44017372 -0.03253959 39.97001005 -0.02297163 46.5 -0.00390625 C54.04255185 0.01786159 61.58467116 0.01080982 69.12721252 -0.01121187 C75.61063837 -0.02938147 82.09393423 -0.03191662 88.57737732 -0.0214572 C92.44635098 -0.01523078 96.31512153 -0.01436299 100.18408203 -0.02760315 C103.82206402 -0.03918392 107.45949 -0.03109613 111.09741211 -0.00802612 C113.06428265 -0.00024035 115.03120039 -0.01207597 116.99804688 -0.02453613 C127.99790071 0.08082645 127.99790071 0.08082645 132.5625 4.51757812 C137.24847642 9.70582402 137.13504865 14.37188837 137.08007812 21.01757812 C137.0870874 22.06220215 137.09409668 23.10682617 137.10131836 24.18310547 C137.11889022 27.62820193 137.10727782 31.07247364 137.09375 34.51757812 C137.09644513 36.91601723 137.10032772 39.31445526 137.10534668 41.71289062 C137.11124066 46.73643408 137.10268159 51.7596928 137.08398438 56.78320312 C137.06119537 63.21946884 137.07431892 69.65506735 137.09827423 76.09130859 C137.11273461 81.0430198 137.108125 85.99457307 137.09776306 90.94628906 C137.09509647 93.31933674 137.09836314 95.6923988 137.10768127 98.06542969 C137.11785031 101.3831984 137.10233934 104.69988957 137.08007812 108.01757812 C137.08817505 108.99645996 137.09627197 109.9753418 137.10461426 110.98388672 C137.03429082 116.64693291 136.51434725 120.14214952 132.5625 124.51757812 C126.99238301 129.93168445 120.4260497 129.08140912 113.125 129.03515625 C111.75454974 129.04058112 110.38410532 129.04770583 109.01367188 129.05639648 C105.30285264 129.0745898 101.59247959 129.06757915 97.88165283 129.05488014 C93.99270451 129.04473162 90.10379362 129.05415095 86.21484375 129.0604248 C79.68482628 129.06769584 73.15498995 129.05812788 66.625 129.0390625 C59.08244815 129.01729466 51.54032884 129.02434643 43.99778748 129.04636812 C37.51436163 129.06453772 31.03106577 129.06707287 24.54762268 129.05661345 C20.67864902 129.05038703 16.80987847 129.04951924 12.94091797 129.0627594 C9.30293598 129.07434017 5.66551 129.06625238 2.02758789 129.04318237 C0.06071735 129.0353966 -1.90620039 129.04723222 -3.87304688 129.05969238 C-14.87290071 128.9543298 -14.87290071 128.9543298 -19.4375 124.51757812 C-24.12347642 119.32933223 -24.01004865 114.66326788 -23.95507812 108.01757812 C-23.9620874 106.9729541 -23.96909668 105.92833008 -23.97631836 104.85205078 C-23.99389022 101.40695432 -23.98227782 97.96268261 -23.96875 94.51757812 C-23.97144513 92.11913902 -23.97532772 89.72070099 -23.98034668 87.32226562 C-23.98624066 82.29872217 -23.97768159 77.27546345 -23.95898438 72.25195312 C-23.93619537 65.81568741 -23.94931892 59.3800889 -23.97327423 52.94384766 C-23.98773461 47.99213645 -23.983125 43.04058318 -23.97276306 38.08886719 C-23.97009647 35.71581951 -23.97336314 33.34275745 -23.98268127 30.96972656 C-23.99285031 27.65195785 -23.97733934 24.33526668 -23.95507812 21.01757812 C-23.96317505 20.03869629 -23.97127197 19.05981445 -23.97961426 18.05126953 C-23.90929082 12.38822334 -23.38934725 8.89300673 -19.4375 4.51757812 C-13.86738301 -0.8965282 -7.3010497 -0.04625287 0 0 Z M-7.4375 16.51757812 C-7.4375 48.19757813 -7.4375 79.87757813 -7.4375 112.51757812 C34.8025 112.51757812 77.0425 112.51757812 120.5625 112.51757812 C120.5625 80.83757812 120.5625 49.15757812 120.5625 16.51757812 C78.3225 16.51757812 36.0825 16.51757812 -7.4375 16.51757812 Z " fill="#000000" transform="translate(367.4375,191.482421875)"/>
<path d="M0 0 C1.37045026 -0.00542487 2.74089468 -0.01254958 4.11132812 -0.02124023 C7.82214736 -0.03943355 11.53252041 -0.0324229 15.24334717 -0.01972389 C19.13229549 -0.00957537 23.02120638 -0.0189947 26.91015625 -0.02526855 C33.44017372 -0.03253959 39.97001005 -0.02297163 46.5 -0.00390625 C54.04255185 0.01786159 61.58467116 0.01080982 69.12721252 -0.01121187 C75.61063837 -0.02938147 82.09393423 -0.03191662 88.57737732 -0.0214572 C92.44635098 -0.01523078 96.31512153 -0.01436299 100.18408203 -0.02760315 C103.82206402 -0.03918392 107.45949 -0.03109613 111.09741211 -0.00802612 C113.06428265 -0.00024035 115.03120039 -0.01207597 116.99804688 -0.02453613 C127.99790071 0.08082645 127.99790071 0.08082645 132.5625 4.51757812 C137.24847642 9.70582402 137.13504865 14.37188837 137.08007812 21.01757812 C137.0870874 22.06220215 137.09409668 23.10682617 137.10131836 24.18310547 C137.11889022 27.62820193 137.10727782 31.07247364 137.09375 34.51757812 C137.09644513 36.91601723 137.10032772 39.31445526 137.10534668 41.71289062 C137.11124066 46.73643408 137.10268159 51.7596928 137.08398438 56.78320312 C137.06119537 63.21946884 137.07431892 69.65506735 137.09827423 76.09130859 C137.11273461 81.0430198 137.108125 85.99457307 137.09776306 90.94628906 C137.09509647 93.31933674 137.09836314 95.6923988 137.10768127 98.06542969 C137.11785031 101.3831984 137.10233934 104.69988957 137.08007812 108.01757812 C137.08817505 108.99645996 137.09627197 109.9753418 137.10461426 110.98388672 C137.03429082 116.64693291 136.51434725 120.14214952 132.5625 124.51757812 C126.99238301 129.93168445 120.4260497 129.08140912 113.125 129.03515625 C111.75454974 129.04058112 110.38410532 129.04770583 109.01367188 129.05639648 C105.30285264 129.0745898 101.59247959 129.06757915 97.88165283 129.05488014 C93.99270451 129.04473162 90.10379362 129.05415095 86.21484375 129.0604248 C79.68482628 129.06769584 73.15498995 129.05812788 66.625 129.0390625 C59.08244815 129.01729466 51.54032884 129.02434643 43.99778748 129.04636812 C37.51436163 129.06453772 31.03106577 129.06707287 24.54762268 129.05661345 C20.67864902 129.05038703 16.80987847 129.04951924 12.94091797 129.0627594 C9.30293598 129.07434017 5.66551 129.06625238 2.02758789 129.04318237 C0.06071735 129.0353966 -1.90620039 129.04723222 -3.87304688 129.05969238 C-14.87290071 128.9543298 -14.87290071 128.9543298 -19.4375 124.51757812 C-24.12347642 119.32933223 -24.01004865 114.66326788 -23.95507812 108.01757812 C-23.9620874 106.9729541 -23.96909668 105.92833008 -23.97631836 104.85205078 C-23.99389022 101.40695432 -23.98227782 97.96268261 -23.96875 94.51757812 C-23.97144513 92.11913902 -23.97532772 89.72070099 -23.98034668 87.32226562 C-23.98624066 82.29872217 -23.97768159 77.27546345 -23.95898438 72.25195312 C-23.93619537 65.81568741 -23.94931892 59.3800889 -23.97327423 52.94384766 C-23.98773461 47.99213645 -23.983125 43.04058318 -23.97276306 38.08886719 C-23.97009647 35.71581951 -23.97336314 33.34275745 -23.98268127 30.96972656 C-23.99285031 27.65195785 -23.97733934 24.33526668 -23.95507812 21.01757812 C-23.96317505 20.03869629 -23.97127197 19.05981445 -23.97961426 18.05126953 C-23.90929082 12.38822334 -23.38934725 8.89300673 -19.4375 4.51757812 C-13.86738301 -0.8965282 -7.3010497 -0.04625287 0 0 Z M-7.4375 16.51757812 C-7.4375 48.19757812 -7.4375 79.87757812 -7.4375 112.51757812 C34.8025 112.51757812 77.0425 112.51757812 120.5625 112.51757812 C120.5625 80.83757812 120.5625 49.15757813 120.5625 16.51757812 C78.3225 16.51757812 36.0825 16.51757812 -7.4375 16.51757812 Z " fill="#000000" transform="translate(367.4375,7.482421875)"/>
<path d="M0 0 C5.82485779 3.51996782 10.54466582 8.98962934 12.5625 15.5 C13.36764105 23.33608208 13.68710392 31.11922577 8.5625 37.5 C3.75801361 42.54521222 -0.59927055 46.10562995 -7.70703125 46.8359375 C-16.22326573 46.92983204 -22.11345494 46.6177288 -28.40234375 40.62890625 C-34.7841668 33.72505269 -35.91792252 28.29832071 -35.7421875 18.9453125 C-35.04689797 11.08319245 -31.38995981 6.95041296 -25.53515625 1.9453125 C-18.47077988 -2.92213491 -7.84396301 -3.47595223 0 0 Z M-16.8125 17.125 C-18.92456506 20.21186432 -19.04945145 21.8282913 -18.4375 25.5 C-16.9375 28 -16.9375 28 -14.4375 29.5 C-10.7657913 30.11195145 -9.14936432 29.98706506 -6.0625 27.875 C-3.95043494 24.78813568 -3.82554855 23.1717087 -4.4375 19.5 C-5.9375 17 -5.9375 17 -8.4375 15.5 C-12.1092087 14.88804855 -13.72563568 15.01293494 -16.8125 17.125 Z " fill="#000000" transform="translate(107.4375,177.5)"/>
<path d="M0 0 C1.1065941 0.93877926 2.21178799 1.87920916 3.31640625 2.8203125 C3.93201416 3.34383301 4.54762207 3.86735352 5.18188477 4.40673828 C7.57236585 6.5015791 9.78679163 8.71972471 12 11 C10.49596937 14.5182994 8.46326381 16.78464091 5.765625 19.47729492 C4.89131836 20.35467819 4.01701172 21.23206146 3.11621094 22.1360321 C2.16098724 23.08435895 1.20557918 24.03250011 0.25 24.98046875 C-0.72920592 25.95848197 -1.70804181 26.93686579 -2.68652344 27.91560364 C-4.73455108 29.96206962 -6.78588753 32.00513897 -8.83984375 34.0456543 C-11.47464309 36.6634306 -14.10277792 39.28777528 -16.72869873 41.91445446 C-18.74781082 43.93329493 -20.76951624 45.949521 -22.79211426 47.96486855 C-23.76236878 48.93193819 -24.73201645 49.89961709 -25.7010498 50.86791039 C-27.05339484 52.2180919 -28.40942222 53.56458216 -29.765625 54.91088867 C-30.53680664 55.67825851 -31.30798828 56.44562836 -32.10253906 57.23625183 C-34.36151303 59.33603746 -35.59185666 59.92225841 -38.625 60.5 C-43.8324097 59.7285319 -46.35107895 56.63085708 -50 53 C-50.50499023 52.50193848 -51.00998047 52.00387695 -51.53027344 51.49072266 C-55.04746533 48.02038501 -58.53228048 44.51973531 -62 41 C-60.46356148 37.31930113 -58.21849055 35.01224796 -55.375 32.25 C-54.55773437 31.45078125 -53.74046875 30.6515625 -52.8984375 29.828125 C-52.27195312 29.22484375 -51.64546875 28.6215625 -51 28 C-47.19364503 31.20760251 -43.45436433 34.40746109 -40 38 C-36.81740149 36.59490901 -34.68651534 34.93078658 -32.24121094 32.46826172 C-31.52076599 31.74766571 -30.80032104 31.0270697 -30.05804443 30.28463745 C-29.29123352 29.50750397 -28.52442261 28.73037048 -27.734375 27.9296875 C-26.54427826 26.73534592 -26.54427826 26.73534592 -25.33013916 25.51687622 C-22.79869297 22.97424052 -20.27429197 20.42473652 -17.75 17.875 C-16.03431383 16.14928247 -14.31817338 14.42401645 -12.6015625 12.69921875 C-8.39575752 8.47136968 -4.19571493 4.23786131 0 0 Z " fill="#000000" transform="translate(449,410)"/>
<path d="M0 0 C1.1065941 0.93877926 2.21178799 1.87920916 3.31640625 2.8203125 C3.93201416 3.34383301 4.54762207 3.86735352 5.18188477 4.40673828 C7.57236585 6.5015791 9.78679163 8.71972471 12 11 C10.49596937 14.5182994 8.46326381 16.78464091 5.765625 19.47729492 C4.89131836 20.35467819 4.01701172 21.23206146 3.11621094 22.1360321 C2.16098724 23.08435895 1.20557918 24.03250011 0.25 24.98046875 C-0.72920592 25.95848197 -1.70804181 26.93686579 -2.68652344 27.91560364 C-4.73455108 29.96206962 -6.78588753 32.00513897 -8.83984375 34.0456543 C-11.47464309 36.6634306 -14.10277792 39.28777528 -16.72869873 41.91445446 C-18.74781082 43.93329493 -20.76951624 45.949521 -22.79211426 47.96486855 C-23.76236878 48.93193819 -24.73201645 49.89961709 -25.7010498 50.86791039 C-27.05339484 52.2180919 -28.40942222 53.56458216 -29.765625 54.91088867 C-30.53680664 55.67825851 -31.30798828 56.44562836 -32.10253906 57.23625183 C-34.36151303 59.33603746 -35.59185666 59.92225841 -38.625 60.5 C-43.8324097 59.7285319 -46.35107895 56.63085708 -50 53 C-50.50499023 52.50193848 -51.00998047 52.00387695 -51.53027344 51.49072266 C-55.04746533 48.02038501 -58.53228048 44.51973531 -62 41 C-60.46356148 37.31930113 -58.21849055 35.01224796 -55.375 32.25 C-54.55773437 31.45078125 -53.74046875 30.6515625 -52.8984375 29.828125 C-52.27195312 29.22484375 -51.64546875 28.6215625 -51 28 C-47.19364503 31.20760251 -43.45436433 34.40746109 -40 38 C-36.81740149 36.59490901 -34.68651534 34.93078658 -32.24121094 32.46826172 C-31.52076599 31.74766571 -30.80032104 31.0270697 -30.05804443 30.28463745 C-29.29123352 29.50750397 -28.52442261 28.73037048 -27.734375 27.9296875 C-26.54427826 26.73534592 -26.54427826 26.73534592 -25.33013916 25.51687622 C-22.79869297 22.97424052 -20.27429197 20.42473652 -17.75 17.875 C-16.03431383 16.14928247 -14.31817338 14.42401645 -12.6015625 12.69921875 C-8.39575752 8.47136968 -4.19571493 4.23786131 0 0 Z " fill="#000000" transform="translate(449,226)"/>
<path d="M0 0 C1.1065941 0.93877926 2.21178799 1.87920916 3.31640625 2.8203125 C3.93201416 3.34383301 4.54762207 3.86735352 5.18188477 4.40673828 C7.57236585 6.5015791 9.78679163 8.71972471 12 11 C10.49596937 14.5182994 8.46326381 16.78464091 5.765625 19.47729492 C4.89131836 20.35467819 4.01701172 21.23206146 3.11621094 22.1360321 C2.16098724 23.08435895 1.20557918 24.03250011 0.25 24.98046875 C-0.72920592 25.95848197 -1.70804181 26.93686579 -2.68652344 27.91560364 C-4.73455108 29.96206962 -6.78588753 32.00513897 -8.83984375 34.0456543 C-11.47464309 36.6634306 -14.10277792 39.28777528 -16.72869873 41.91445446 C-18.74781082 43.93329493 -20.76951624 45.949521 -22.79211426 47.96486855 C-23.76236878 48.93193819 -24.73201645 49.89961709 -25.7010498 50.86791039 C-27.05339484 52.2180919 -28.40942222 53.56458216 -29.765625 54.91088867 C-30.53680664 55.67825851 -31.30798828 56.44562836 -32.10253906 57.23625183 C-34.36151303 59.33603746 -35.59185666 59.92225841 -38.625 60.5 C-43.8324097 59.7285319 -46.35107895 56.63085708 -50 53 C-50.50499023 52.50193848 -51.00998047 52.00387695 -51.53027344 51.49072266 C-55.04746533 48.02038501 -58.53228048 44.51973531 -62 41 C-60.46356148 37.31930113 -58.21849055 35.01224796 -55.375 32.25 C-54.55773437 31.45078125 -53.74046875 30.6515625 -52.8984375 29.828125 C-52.27195312 29.22484375 -51.64546875 28.6215625 -51 28 C-47.19364503 31.20760251 -43.45436433 34.40746109 -40 38 C-36.81740149 36.59490901 -34.68651534 34.93078658 -32.24121094 32.46826172 C-31.52076599 31.74766571 -30.80032104 31.0270697 -30.05804443 30.28463745 C-29.29123352 29.50750397 -28.52442261 28.73037048 -27.734375 27.9296875 C-26.54427826 26.73534592 -26.54427826 26.73534592 -25.33013916 25.51687622 C-22.79869297 22.97424052 -20.27429197 20.42473652 -17.75 17.875 C-16.03431383 16.14928247 -14.31817338 14.42401645 -12.6015625 12.69921875 C-8.39575752 8.47136968 -4.19571493 4.23786131 0 0 Z " fill="#000000" transform="translate(449,42)"/>
</svg>
