<?xml version="1.0" encoding="UTF-8"?>
<svg version="1.1" xmlns="http://www.w3.org/2000/svg" width="512" height="512">
<path d="M0 0 C0.94158966 -0.00428513 1.88317932 -0.00857025 2.853302 -0.01298523 C4.83497315 -0.01869944 6.81666525 -0.01925039 8.79833984 -0.01489258 C11.80473176 -0.01173511 14.81013581 -0.03522004 17.81640625 -0.06054688 C19.75260294 -0.06282065 21.68880224 -0.063523 23.625 -0.0625 C24.510737 -0.07170975 25.396474 -0.08091949 26.30905151 -0.09040833 C33.68520635 -0.03663029 41.38820759 0.98939589 47.37109375 5.640625 C49.96416282 8.32026086 51.50717804 10.52048868 53.1328125 13.86328125 C53.42285156 14.43191895 53.71289062 15.00055664 54.01171875 15.58642578 C56.15656382 19.99908999 57.63360227 24.46153924 59.02734375 29.1640625 C62.55390552 41.9994222 62.55390552 41.9994222 70.40283203 52.22167969 C76.00049229 55.05500156 81.93088589 56.34813923 88.04345703 57.60546875 C92.60071482 58.69743158 96.7151835 60.56822951 100.9453125 62.55078125 C101.6556665 62.86950195 102.36602051 63.18822266 103.09790039 63.51660156 C106.41778473 65.02538643 109.49544247 66.63633325 112.5703125 68.59765625 C116.59326132 70.62775542 117.65935907 70.35580494 121.9453125 69.30078125 C124.48794238 68.3152577 126.95103681 67.29199333 129.43359375 66.17578125 C130.87682552 65.54528075 132.32018909 64.91508186 133.76367188 64.28515625 C136.01011574 63.29555499 138.25473249 62.30215417 140.49682617 61.30273438 C160.1470852 52.57216729 160.1470852 52.57216729 170.12109375 55.58984375 C176.21296992 57.96397965 180.75237124 62.72075058 185.4921875 67.0703125 C187.49991869 68.89581331 189.53769395 70.6409428 191.6328125 72.36328125 C194.78130979 75.04097521 197.44466364 78.00571499 200.11328125 81.15625 C202.08636212 83.46589051 204.13955234 85.68962532 206.1953125 87.92578125 C211.62407698 94.08958154 214.45267669 99.96236114 213.9453125 108.30078125 C211.93006567 117.86395943 207.33080589 126.75312317 203.25927734 135.58007812 C202.3544797 137.54881108 201.46907584 139.52538206 200.5859375 141.50390625 C199.78978027 143.24655762 199.78978027 143.24655762 198.97753906 145.02441406 C197.38767117 150.07077808 198.41588317 153.14968311 200.58203125 157.859375 C201.25984344 159.15538397 201.94373557 160.44822637 202.6328125 161.73828125 C205.90872687 168.08816504 208.78821325 174.47944083 211.42578125 181.1171875 C211.79243896 182.02150513 211.79243896 182.02150513 212.16650391 182.9440918 C212.9453125 185.30078125 212.9453125 185.30078125 213.62646484 188.83911133 C215.13983012 196.01696809 215.13983012 196.01696809 219.57675171 201.61703491 C224.46803883 204.46063533 229.83488911 206.13304546 235.1953125 207.86328125 C238.33279596 208.94849573 241.45945868 210.0632261 244.5859375 211.1796875 C245.70276161 211.57040184 245.70276161 211.57040184 246.84214783 211.9690094 C254.87276241 214.84659592 261.93054312 218.43183326 265.9453125 226.30078125 C268.03031077 232.17501264 268.25209536 237.5285187 268.24609375 243.73046875 C268.25037888 244.72023712 268.254664 245.71000549 268.25907898 246.72976685 C268.26480112 248.8157678 268.26533821 250.9017887 268.26098633 252.98779297 C268.25782933 256.15887926 268.28130238 259.329029 268.30664062 262.5 C268.30891431 264.53515508 268.30961679 266.57031265 268.30859375 268.60546875 C268.3178035 269.54325165 268.32701324 270.48103455 268.33650208 271.44723511 C268.27377382 280.48750769 266.46830861 287.83525647 259.9453125 294.30078125 C257.37890625 296.03125 257.37890625 296.03125 254.3828125 297.48828125 C253.81344971 297.78049561 253.24408691 298.07270996 252.6574707 298.3737793 C248.2553945 300.5231939 243.83066192 301.94806691 239.1171875 303.27734375 C226.07058853 306.77293626 226.07058853 306.77293626 215.94238281 315.03662109 C212.86657921 321.41513185 211.33651774 328.15884174 209.79492188 335.03955078 C208.48207288 340.0789292 206.33342183 344.59709659 204.0078125 349.23828125 C203.62858643 350.01816406 203.24936035 350.79804688 202.85864258 351.6015625 C201.36604525 354.63257801 199.82126416 357.48685376 197.9453125 360.30078125 C198.26886609 365.19760651 200.08222223 369.36736937 202.0703125 373.7890625 C202.700813 375.23229427 203.33101189 376.67565784 203.9609375 378.11914062 C204.95053876 380.36558449 205.94393958 382.61020124 206.94335938 384.85229492 C215.67392646 404.50255395 215.67392646 404.50255395 212.65625 414.4765625 C210.2821141 420.56843867 205.52534317 425.10783999 201.17578125 429.84765625 C199.35028044 431.85538744 197.60515095 433.8931627 195.8828125 435.98828125 C193.20511854 439.13677854 190.24037876 441.80013239 187.08984375 444.46875 C184.78020324 446.44183087 182.55646843 448.49502109 180.3203125 450.55078125 C174.4259566 455.75109183 168.90454572 458.54840184 160.9453125 458.30078125 C151.17208261 456.90749021 142.44369081 452.22697533 133.57543945 448.09692383 C131.4610862 447.11632314 129.3387997 446.15489716 127.21484375 445.1953125 C126.57408401 444.89019241 125.93332428 444.58507233 125.27314758 444.27070618 C121.0713426 442.38753953 118.37498875 442.04797121 113.9453125 443.30078125 C111.46830058 444.44962162 109.09440224 445.63544376 106.6953125 446.92578125 C100.81126258 449.97687236 94.88020487 452.66638767 88.6953125 455.05078125 C88.00018555 455.31971191 87.30505859 455.58864258 86.58886719 455.86572266 C85.89696289 456.12788574 85.20505859 456.39004883 84.4921875 456.66015625 C83.78078613 456.94076904 83.06938477 457.22138184 82.33642578 457.51049805 C79.9453125 458.30078125 79.9453125 458.30078125 76.98779297 458.78833008 C72.93134999 459.61994204 69.35336562 460.36725578 66.79833984 463.87579346 C64.10004416 468.82165118 62.36441438 474.16542196 60.5703125 479.48828125 C59.45579713 482.63433858 58.31719268 485.77129035 57.171875 488.90625 C56.90212357 489.65389114 56.63237213 490.40153229 56.35444641 491.17182922 C53.39213154 499.17689027 49.82266241 506.28172517 41.9453125 510.30078125 C36.07108111 512.38577952 30.71757505 512.60756411 24.515625 512.6015625 C23.52585663 512.60584763 22.53608826 512.61013275 21.5163269 512.61454773 C19.43032595 512.62026987 17.34430505 512.62080696 15.25830078 512.61645508 C12.08721449 512.61329808 8.91706475 512.63677113 5.74609375 512.66210938 C3.71093867 512.66438306 1.6757811 512.66508554 -0.359375 512.6640625 C-1.2971579 512.67327225 -2.2349408 512.68248199 -3.20114136 512.69197083 C-12.24141394 512.62924257 -19.58916272 510.82377736 -26.0546875 504.30078125 C-27.78515625 501.734375 -27.78515625 501.734375 -29.2421875 498.73828125 C-29.53222656 498.16964355 -29.82226562 497.60100586 -30.12109375 497.01513672 C-32.26593882 492.60247251 -33.74297727 488.14002326 -35.13671875 483.4375 C-38.66328052 470.6021403 -38.66328052 470.6021403 -46.51220703 460.37988281 C-52.10986729 457.54656094 -58.04026089 456.25342327 -64.15283203 454.99609375 C-68.71008982 453.90413092 -72.8245585 452.03333299 -77.0546875 450.05078125 C-77.7650415 449.73206055 -78.47539551 449.41333984 -79.20727539 449.08496094 C-82.52715973 447.57617607 -85.60481747 445.96522925 -88.6796875 444.00390625 C-92.70340144 441.97342098 -93.7676224 442.24619535 -98.0546875 443.30078125 C-100.60868388 444.28632666 -103.08387031 445.30959388 -105.578125 446.42578125 C-107.02596448 447.0561669 -108.47388364 447.68636956 -109.921875 448.31640625 C-112.17671819 449.30700722 -114.43001814 450.30092779 -116.68164062 451.29882812 C-118.87249086 452.26678908 -121.06865265 453.2218142 -123.265625 454.17578125 C-123.92734711 454.47371582 -124.58906921 454.77165039 -125.27084351 455.07861328 C-131.1608923 457.62494078 -137.27824705 459.11174577 -143.6796875 457.61328125 C-144.37320313 457.46503906 -145.06671875 457.31679688 -145.78125 457.1640625 C-156.83052241 452.96837658 -166.12389391 441.33390777 -174.4296875 433.17578125 C-175.09532715 432.53157227 -175.7609668 431.88736328 -176.44677734 431.22363281 C-182.17191944 425.53731986 -188.23330361 419.03401935 -189.5546875 410.80078125 C-189.709375 409.96546875 -189.8640625 409.13015625 -190.0234375 408.26953125 C-190.13779937 397.40515364 -184.32989352 387.54857529 -179.85083008 377.9309082 C-178.87022939 375.81655495 -177.90880341 373.69426845 -176.94921875 371.5703125 C-176.64409866 370.92955276 -176.33897858 370.28879303 -176.02461243 369.62861633 C-174.14144578 365.42681135 -173.80187746 362.7304575 -175.0546875 358.30078125 C-176.20352787 355.82376933 -177.38935001 353.44987099 -178.6796875 351.05078125 C-181.73077861 345.16673133 -184.42029392 339.23567362 -186.8046875 333.05078125 C-187.07361816 332.3556543 -187.34254883 331.66052734 -187.61962891 330.94433594 C-188.01287354 329.90647949 -188.01287354 329.90647949 -188.4140625 328.84765625 C-188.69467529 328.13625488 -188.97528809 327.42485352 -189.2644043 326.69189453 C-190.0546875 324.30078125 -190.0546875 324.30078125 -190.54223633 321.34326172 C-191.37384829 317.28681874 -192.12116203 313.70883437 -195.62969971 311.15380859 C-200.57555743 308.45551291 -205.91932821 306.71988313 -211.2421875 304.92578125 C-214.38824483 303.81126588 -217.5251966 302.67266143 -220.66015625 301.52734375 C-221.78161797 301.1227166 -221.78161797 301.1227166 -222.92573547 300.70991516 C-230.93079652 297.74760029 -238.03563142 294.17813116 -242.0546875 286.30078125 C-244.13968577 280.42654986 -244.36147036 275.0730438 -244.35546875 268.87109375 C-244.35975388 267.88132538 -244.364039 266.89155701 -244.36845398 265.87179565 C-244.37417612 263.7857947 -244.37471321 261.6997738 -244.37036133 259.61376953 C-244.36720433 256.44268324 -244.39067738 253.2725335 -244.41601562 250.1015625 C-244.41828931 248.06640742 -244.41899179 246.03124985 -244.41796875 243.99609375 C-244.4271785 243.05831085 -244.43638824 242.12052795 -244.44587708 241.15432739 C-244.39286484 233.51430829 -243.21019889 225.51928319 -237.79223633 219.68701172 C-231.69250886 214.82059995 -223.96749206 212.15958672 -216.6015625 209.8984375 C-202.976792 206.07557149 -202.976792 206.07557149 -192.03027344 197.79150391 C-189.15198438 192.2159316 -187.90710316 186.30966618 -186.71777344 180.18652344 C-185.6688144 175.62146605 -183.79061282 171.5249969 -181.8046875 167.30078125 C-181.48580566 166.59034668 -181.16692383 165.87991211 -180.83837891 165.14794922 C-179.33014104 161.82791372 -177.71907636 158.75055856 -175.7578125 155.67578125 C-173.72771333 151.65283243 -173.99966381 150.58673468 -175.0546875 146.30078125 C-176.04021105 143.75815137 -177.06347542 141.29505694 -178.1796875 138.8125 C-178.810188 137.36926823 -179.44038689 135.92590466 -180.0703125 134.48242188 C-181.05991376 132.23597801 -182.05331458 129.99136126 -183.05273438 127.74926758 C-192.06495466 107.4650797 -192.06495466 107.4650797 -188.32617188 97.04760742 C-183.93012004 87.55068361 -174.87223173 79.77919686 -167.5546875 72.48828125 C-166.22630859 71.13573242 -166.22630859 71.13573242 -164.87109375 69.75585938 C-149.99034331 54.86418327 -149.99034331 54.86418327 -140.0546875 54.30078125 C-128.87819764 54.91904571 -119.45106174 59.83100893 -109.52001953 64.50463867 C-107.42517617 65.4844694 -105.32250827 66.44574696 -103.21875 67.40625 C-102.58740143 67.71137009 -101.95605286 68.01649017 -101.30557251 68.33085632 C-97.13023021 70.23228868 -94.46602934 70.54597127 -90.0546875 69.30078125 C-87.51395711 68.13221261 -85.07803691 66.92773274 -82.6171875 65.61328125 C-76.26730371 62.33736688 -69.87602792 59.4578805 -63.23828125 56.8203125 C-62.33396362 56.45365479 -62.33396362 56.45365479 -61.41137695 56.07958984 C-59.0546875 55.30078125 -59.0546875 55.30078125 -55.51635742 54.61962891 C-48.33850066 53.10626363 -48.33850066 53.10626363 -42.73843384 48.66934204 C-39.89483342 43.77805492 -38.22242329 38.41120464 -36.4921875 33.05078125 C-35.40697298 29.91329766 -34.29222423 26.78664173 -33.17578125 23.66015625 C-32.91535034 22.91560684 -32.65491943 22.17105743 -32.38659668 21.40394592 C-29.5245275 13.41553865 -25.92629482 6.23658491 -18.0546875 2.30078125 C-11.92795576 0.44766506 -6.37875948 -0.00653376 0 0 Z M-12.0546875 20.30078125 C-13.61885603 23.01189953 -13.61885603 23.01189953 -14.859375 26.3125 C-15.10393433 26.91352036 -15.34849365 27.51454071 -15.60046387 28.1337738 C-16.12053153 29.41738352 -16.6342945 30.70356263 -17.14227295 31.99200439 C-17.93150502 33.99288907 -18.73809336 35.98596785 -19.54931641 37.97802734 C-21.76529821 43.44046913 -23.93850279 48.91545169 -25.9609375 54.453125 C-26.21891113 55.14639893 -26.47688477 55.83967285 -26.74267578 56.55395508 C-27.37516203 58.27722162 -27.97807838 60.01126509 -28.578125 61.74609375 C-31.329683 66.50672585 -36.94845766 67.71469183 -41.984375 69.28125 C-43.10191162 69.63662842 -44.21944824 69.99200684 -45.37084961 70.3581543 C-46.54526611 70.73109619 -47.71968262 71.10403809 -48.9296875 71.48828125 C-59.54524084 74.93952141 -69.29840858 78.9156758 -79.0546875 84.30078125 C-81.2338138 85.50357844 -83.42082772 86.69224913 -85.6171875 87.86328125 C-86.50535156 88.35957031 -87.39351562 88.85585937 -88.30859375 89.3671875 C-94.74094878 91.55400521 -100.80247038 88.36276195 -106.62109375 85.703125 C-108.2571266 84.97713497 -109.89319539 84.25122594 -111.52929688 83.52539062 C-114.08050256 82.38077969 -116.63000494 81.23249379 -119.1784668 80.08178711 C-121.65531584 78.96712166 -124.13783203 77.86591319 -126.62109375 76.765625 C-127.37749649 76.41878159 -128.13389923 76.07193817 -128.91322327 75.71458435 C-133.09876289 73.86532376 -136.38370797 72.70999908 -141.0546875 73.30078125 C-143.8722296 75.16620081 -143.8722296 75.16620081 -146.4921875 77.86328125 C-146.99226318 78.34418213 -147.49233887 78.82508301 -148.00756836 79.32055664 C-149.70618618 80.96480627 -151.38028436 82.63189509 -153.0546875 84.30078125 C-154.39021375 85.61109638 -155.72616648 86.92097693 -157.0625 88.23046875 C-166.26652934 95.96111276 -166.26652934 95.96111276 -171.2902832 105.99682617 C-171.01373777 109.87505352 -169.93661331 112.55072381 -168.3515625 116.09765625 C-168.07250061 116.73133118 -167.79343872 117.3650061 -167.50592041 118.0178833 C-166.61579285 120.03360191 -165.71085542 122.04222986 -164.8046875 124.05078125 C-164.21118659 125.3836462 -163.61872929 126.71697637 -163.02734375 128.05078125 C-162.73855347 128.70171753 -162.44976318 129.35265381 -162.15222168 130.02331543 C-161.30189424 131.94367732 -160.45434018 133.86524192 -159.60742188 135.78710938 C-158.65455265 137.94335055 -157.68980192 140.09444699 -156.70507812 142.23632812 C-154.45736201 147.34688404 -153.35476845 150.74557408 -155.0546875 156.30078125 C-156.40749278 159.11712225 -157.9940092 161.75836223 -159.6171875 164.42578125 C-163.45284159 171.02872347 -166.62511823 177.64933058 -169.3046875 184.80078125 C-169.63154541 185.6729126 -169.95840332 186.54504395 -170.29516602 187.44360352 C-171.87147555 191.75756654 -173.31348909 196.08346349 -174.6015625 200.4921875 C-174.9723291 201.72388672 -174.9723291 201.72388672 -175.35058594 202.98046875 C-175.80483561 204.51773534 -176.23213079 206.06334811 -176.62597656 207.6171875 C-177.47669479 210.50774197 -178.12386807 212.67040448 -180.68876648 214.40742493 C-181.65819939 214.85604134 -181.65819939 214.85604134 -182.6472168 215.3137207 C-183.36452972 215.64788498 -184.08184265 215.98204926 -184.82089233 216.32633972 C-188.31647349 217.85120623 -191.83461457 219.29573835 -195.38671875 220.68359375 C-196.52435921 221.13410599 -196.52435921 221.13410599 -197.6849823 221.59371948 C-200.07772296 222.54114443 -202.47221022 223.48402583 -204.8671875 224.42578125 C-208.04195564 225.67440302 -211.214861 226.92760005 -214.38671875 228.18359375 C-215.47422173 228.60863693 -215.47422173 228.60863693 -216.58369446 229.04226685 C-219.65174911 230.25747176 -222.29710958 231.46239597 -225.0546875 233.30078125 C-226.37601844 237.26477406 -226.21722553 241.07005444 -226.22265625 245.203125 C-226.22598465 246.07723526 -226.22931305 246.95134552 -226.23274231 247.85194397 C-226.23780399 249.70036289 -226.24015087 251.54879095 -226.23999023 253.3972168 C-226.24217642 256.22394875 -226.2603392 259.05029023 -226.27929688 261.87695312 C-226.28223101 263.67317575 -226.28421567 265.46940023 -226.28515625 267.265625 C-226.29234177 268.11051987 -226.29952728 268.95541473 -226.30693054 269.82591248 C-226.3023156 271.01217979 -226.3023156 271.01217979 -226.29760742 272.22241211 C-226.29903244 272.91507675 -226.30045746 273.60774139 -226.30192566 274.32139587 C-226.00434264 276.70384152 -225.32727647 278.26955035 -224.0546875 280.30078125 C-221.34356922 281.86494978 -221.34356922 281.86494978 -218.04296875 283.10546875 C-217.44199371 283.34989212 -216.84101868 283.59431549 -216.22183228 283.84614563 C-214.93824389 284.36601701 -213.65211164 284.87964374 -212.36373901 285.38754272 C-210.36147623 286.17803606 -208.3678399 286.98747934 -206.37524414 287.80200195 C-200.93593753 290.01543257 -195.49256536 292.19164727 -189.9375 294.1015625 C-189.24873779 294.34600098 -188.55997559 294.59043945 -187.8503418 294.84228516 C-186.14589905 295.4348427 -184.42694236 295.98521401 -182.70703125 296.53125 C-176.06244364 300.96423702 -174.58760876 311.61410679 -172.3046875 318.86328125 C-168.63540226 330.19148513 -163.91887099 340.29039408 -158.18359375 350.6953125 C-157.62542969 351.74074219 -157.06726563 352.78617187 -156.4921875 353.86328125 C-155.99589844 354.75144531 -155.49960938 355.63960938 -154.98828125 356.5546875 C-152.80146354 362.98704253 -155.9927068 369.04856413 -158.65234375 374.8671875 C-159.37833378 376.50322035 -160.10424281 378.13928914 -160.83007812 379.77539062 C-161.97468906 382.32659631 -163.12297496 384.87609869 -164.27368164 387.42456055 C-165.38834709 389.90140959 -166.48955556 392.38392578 -167.58984375 394.8671875 C-168.11010887 396.00179161 -168.11010887 396.00179161 -168.6408844 397.15931702 C-170.49014499 401.34485664 -171.64546967 404.62980172 -171.0546875 409.30078125 C-169.18926794 412.11832335 -169.18926794 412.11832335 -166.4921875 414.73828125 C-166.01128662 415.23835693 -165.53038574 415.73843262 -165.03491211 416.25366211 C-163.39066248 417.95227993 -161.72357366 419.62637811 -160.0546875 421.30078125 C-158.74437237 422.6363075 -157.43449182 423.97226023 -156.125 425.30859375 C-148.39435599 434.51262309 -148.39435599 434.51262309 -138.35864258 439.53637695 C-134.48041523 439.25983152 -131.80474494 438.18270706 -128.2578125 436.59765625 C-127.62413757 436.31859436 -126.99046265 436.03953247 -126.33758545 435.75201416 C-124.32186684 434.8618866 -122.31323889 433.95694917 -120.3046875 433.05078125 C-118.97182255 432.45728034 -117.63849238 431.86482304 -116.3046875 431.2734375 C-115.65375122 430.98464722 -115.00281494 430.69585693 -114.33215332 430.39831543 C-112.41179143 429.54798799 -110.49022683 428.70043393 -108.56835938 427.85351562 C-106.4121182 426.9006464 -104.26102176 425.93589567 -102.11914062 424.95117188 C-97.01430285 422.7059707 -93.61838112 421.64365241 -88.0546875 423.30078125 C-84.9765625 424.8671875 -84.9765625 424.8671875 -81.8046875 426.86328125 C-71.38731506 433.10975125 -60.2563579 437.76141215 -48.64453125 441.30078125 C-47.019104 441.80351563 -47.019104 441.80351563 -45.36083984 442.31640625 C-43.24078778 442.95979402 -41.11213778 443.57566664 -38.97509766 444.16015625 C-38.00233887 444.4540625 -37.02958008 444.74796875 -36.02734375 445.05078125 C-35.16375244 445.293125 -34.30016113 445.53546875 -33.41040039 445.78515625 C-29.78417766 448.11820535 -28.67971385 451.4069851 -27.0546875 455.30078125 C-26.7682991 455.97541412 -26.48191071 456.650047 -26.18684387 457.34512329 C-25.32334661 459.43183381 -24.49371893 461.52936912 -23.671875 463.6328125 C-23.22136276 464.77045296 -23.22136276 464.77045296 -22.76174927 465.93107605 C-21.81432432 468.32381671 -20.87144292 470.71830397 -19.9296875 473.11328125 C-18.68106573 476.28804939 -17.4278687 479.46095475 -16.171875 482.6328125 C-15.74683182 483.72031548 -15.74683182 483.72031548 -15.3132019 484.82978821 C-14.09799699 487.89784286 -12.89307278 490.54320333 -11.0546875 493.30078125 C-7.09069469 494.62211219 -3.28541431 494.46331928 0.84765625 494.46875 C1.72176651 494.4720784 2.59587677 494.4754068 3.49647522 494.47883606 C5.34489414 494.48389774 7.1933222 494.48624462 9.04174805 494.48608398 C11.86848 494.48827017 14.69482148 494.50643295 17.52148438 494.52539062 C19.317707 494.52832476 21.11393148 494.53030942 22.91015625 494.53125 C24.17749855 494.54202827 24.17749855 494.54202827 25.47044373 494.55302429 C26.65671104 494.54840935 26.65671104 494.54840935 27.86694336 494.54370117 C28.559608 494.54512619 29.25227264 494.54655121 29.96592712 494.54801941 C32.34837277 494.25043639 33.9140816 493.57337022 35.9453125 492.30078125 C37.50948103 489.58966297 37.50948103 489.58966297 38.75 486.2890625 C38.99442337 485.68808746 39.23884674 485.08711243 39.49067688 484.46792603 C40.01054826 483.18433764 40.52417499 481.89820539 41.03207397 480.60983276 C41.82256731 478.60756998 42.63201059 476.61393365 43.4465332 474.62133789 C45.65996382 469.18203128 47.83617852 463.73865911 49.74609375 458.18359375 C50.11275146 457.15045044 50.11275146 457.15045044 50.48681641 456.09643555 C51.07937395 454.3919928 51.62974526 452.67303611 52.17578125 450.953125 C56.60876827 444.30853739 67.25863804 442.83370251 74.5078125 440.55078125 C85.83601638 436.88149601 95.93492533 432.16496474 106.33984375 426.4296875 C107.38527344 425.87152344 108.43070312 425.31335938 109.5078125 424.73828125 C110.39597656 424.24199219 111.28414063 423.74570312 112.19921875 423.234375 C118.63157378 421.04755729 124.69309538 424.23880055 130.51171875 426.8984375 C132.1477516 427.62442753 133.78382039 428.35033656 135.41992188 429.07617188 C137.97112756 430.22078281 140.52062994 431.36906871 143.0690918 432.51977539 C145.54594084 433.63444084 148.02845703 434.73564931 150.51171875 435.8359375 C151.64632286 436.35620262 151.64632286 436.35620262 152.80384827 436.88697815 C156.98938789 438.73623874 160.27433297 439.89156342 164.9453125 439.30078125 C167.7628546 437.43536169 167.7628546 437.43536169 170.3828125 434.73828125 C171.13292603 434.01692993 171.13292603 434.01692993 171.89819336 433.28100586 C173.59681118 431.63675623 175.27090936 429.96966741 176.9453125 428.30078125 C178.28083875 426.99046612 179.61679148 425.68058557 180.953125 424.37109375 C190.07724205 416.6860913 190.07724205 416.6860913 195.24658203 406.74804688 C194.83830103 402.07630639 193.12363776 398.44661128 191.19140625 394.2109375 C190.41181633 392.43958207 189.63252869 390.66809358 188.85351562 388.89648438 C187.61913466 386.12471793 186.37933019 383.35555133 185.13305664 380.58911133 C183.92954522 377.90677542 182.74708274 375.21588596 181.56640625 372.5234375 C181.18939072 371.70343765 180.81237518 370.88343781 180.42393494 370.03858948 C178.24520365 365.0406269 177.48892447 361.76053895 178.9453125 356.30078125 C180.22726083 353.80140278 181.53265608 351.4882282 183.0078125 349.11328125 C186.53768139 343.12069671 189.50124695 337.07686997 192.0703125 330.61328125 C192.39845947 329.78803955 192.72660645 328.96279785 193.06469727 328.11254883 C194.79976042 323.6215688 196.3384319 319.11260146 197.71875 314.5 C198.00991699 313.54762451 198.30108398 312.59524902 198.60107422 311.61401367 C199.14984329 309.78536531 199.67135164 307.94823566 200.16064453 306.1027832 C200.40927246 305.27093506 200.65790039 304.43908691 200.9140625 303.58203125 C201.11451172 302.85048828 201.31496094 302.11894531 201.52148438 301.36523438 C205.14749448 296.10776843 213.50558347 294.17307397 219.27734375 291.91796875 C220.41498421 291.46745651 220.41498421 291.46745651 221.5756073 291.00784302 C223.96834796 290.06041807 226.36283522 289.11753667 228.7578125 288.17578125 C231.93258064 286.92715948 235.105486 285.67396245 238.27734375 284.41796875 C239.00234573 284.13460663 239.72734772 283.85124451 240.47431946 283.55929565 C243.54237411 282.34409074 246.18773458 281.13916653 248.9453125 279.30078125 C250.26664344 275.33678844 250.10785053 271.53150806 250.11328125 267.3984375 C250.11660965 266.52432724 250.11993805 265.65021698 250.12336731 264.74961853 C250.12842899 262.90119961 250.13077587 261.05277155 250.13061523 259.2043457 C250.13280142 256.37761375 250.1509642 253.55127227 250.16992188 250.72460938 C250.17285601 248.92838675 250.17484067 247.13216227 250.17578125 245.3359375 C250.18655952 244.0685952 250.18655952 244.0685952 250.19755554 242.77565002 C250.19447891 241.98480515 250.19140228 241.19396027 250.18823242 240.37915039 C250.19036995 239.34015343 250.19036995 239.34015343 250.19255066 238.28016663 C249.89496764 235.89772098 249.21790147 234.33201215 247.9453125 232.30078125 C245.23419422 230.73661272 245.23419422 230.73661272 241.93359375 229.49609375 C241.33261871 229.25167038 240.73164368 229.00724701 240.11245728 228.75541687 C238.82886889 228.23554549 237.54273664 227.72191876 236.25436401 227.21401978 C234.25210123 226.42352644 232.2584649 225.61408316 230.26586914 224.79956055 C224.82656253 222.58612993 219.38319036 220.40991523 213.828125 218.5 C212.79498169 218.13334229 212.79498169 218.13334229 211.7409668 217.75927734 C210.03652405 217.1667198 208.31756736 216.61634849 206.59765625 216.0703125 C199.95306864 211.63732548 198.47823376 200.98745571 196.1953125 193.73828125 C192.52602726 182.41007737 187.80949599 172.31116842 182.07421875 161.90625 C181.51605469 160.86082031 180.95789063 159.81539062 180.3828125 158.73828125 C179.63837891 157.40603516 179.63837891 157.40603516 178.87890625 156.046875 C176.69208854 149.61451997 179.8833318 143.55299837 182.54296875 137.734375 C183.26895878 136.09834215 183.99486781 134.46227336 184.72070312 132.82617188 C185.86531406 130.27496619 187.01359996 127.72546381 188.16430664 125.17700195 C189.27897209 122.70015291 190.38018056 120.21763672 191.48046875 117.734375 C192.00073387 116.59977089 192.00073387 116.59977089 192.5315094 115.44224548 C194.38076999 111.25670586 195.53609467 107.97176078 194.9453125 103.30078125 C193.07989294 100.48323915 193.07989294 100.48323915 190.3828125 97.86328125 C189.90191162 97.36320557 189.42101074 96.86312988 188.92553711 96.34790039 C187.28128748 94.64928257 185.61419866 92.97518439 183.9453125 91.30078125 C182.63499737 89.965255 181.32511682 88.62930227 180.015625 87.29296875 C172.31772126 78.14595963 172.31772126 78.14595963 162.3515625 73.01757812 C157.90517389 73.38726066 154.53571972 74.92044629 150.51171875 76.765625 C149.71555649 77.11839005 148.91939423 77.47115509 148.09910583 77.83460999 C145.56387935 78.95876041 143.03537401 80.0970117 140.5078125 81.23828125 C137.9835012 82.37517377 135.45789108 83.50854608 132.92723083 84.63124084 C131.35627 85.32835515 129.78885656 86.03353838 128.22572327 86.74803162 C123.03024764 89.05618429 117.84249904 91.28574225 112.19921875 89.3671875 C111.31105469 88.87089844 110.42289062 88.37460938 109.5078125 87.86328125 C108.45207031 87.30125 107.39632813 86.73921875 106.30859375 86.16015625 C104.11511031 84.94749874 101.92483461 83.72901532 99.73828125 82.50390625 C92.99329247 78.8612489 86.25056193 75.98671744 78.9453125 73.625 C78.23155457 73.391866 77.51779663 73.15873199 76.78240967 72.91853333 C73.1545903 71.73881582 69.52029247 70.59813891 65.86425781 69.5090332 C64.50032797 69.07604895 63.13670765 68.64208812 61.7734375 68.20703125 C60.5555957 67.83900391 59.33775391 67.47097656 58.08300781 67.09179688 C53.76143106 64.6250145 52.71390709 61.8123908 50.9453125 57.30078125 C50.66131592 56.62699432 50.37731934 55.9532074 50.0847168 55.25900269 C49.21504119 53.17271508 48.38506083 51.07402822 47.5625 48.96875 C47.11198776 47.83110954 47.11198776 47.83110954 46.65237427 46.67048645 C45.70494932 44.27774579 44.76206792 41.88325853 43.8203125 39.48828125 C42.57169073 36.31351311 41.3184937 33.14060775 40.0625 29.96875 C39.77913788 29.24374802 39.49577576 28.51874603 39.2038269 27.77177429 C37.98862199 24.70371964 36.78369778 22.05835917 34.9453125 19.30078125 C30.98131969 17.97945031 27.17603931 18.13824322 23.04296875 18.1328125 C21.73180336 18.1278199 21.73180336 18.1278199 20.39414978 18.12272644 C18.54573086 18.11766476 16.6973028 18.11531788 14.84887695 18.11547852 C12.022145 18.11329233 9.19580352 18.09512955 6.36914062 18.07617188 C4.572918 18.07323774 2.77669352 18.07125308 0.98046875 18.0703125 C0.13557388 18.06312698 -0.70932098 18.05594147 -1.57981873 18.04853821 C-2.3706636 18.05161484 -3.16150848 18.05469147 -3.97631836 18.05786133 C-4.668983 18.05643631 -5.36164764 18.05501129 -6.07530212 18.05354309 C-8.45774777 18.35112611 -10.0234566 19.02819228 -12.0546875 20.30078125 Z " fill="#000000" transform="translate(244.0546875,-0.30078125)"/>
<path d="M0 0 C7.40275585 6.69104071 14.07263328 13.60638161 20.109375 21.578125 C20.83253906 22.485625 21.55570312 23.393125 22.30078125 24.328125 C51.39965801 61.57468725 63.35629719 109.56637289 57.85546875 156.24609375 C51.63920243 203.28221827 27.71779768 246.44006779 -9.890625 275.578125 C-39.78246423 298.48214323 -76.04309632 312.5126499 -113.890625 313.578125 C-114.95410156 313.61808594 -116.01757812 313.65804688 -117.11328125 313.69921875 C-166.11519535 314.67352581 -211.33728131 295.8244745 -246.890625 262.578125 C-278.83400251 231.80127893 -299.53505813 187.07608108 -300.890625 142.578125 C-300.93058594 141.32644531 -300.97054687 140.07476562 -301.01171875 138.78515625 C-302.04070618 89.59723161 -283.86990403 44.70851864 -250.890625 8.578125 C-250.14425781 7.75957031 -249.39789063 6.94101563 -248.62890625 6.09765625 C-187.03487119 -58.22883138 -80.23510433 -63.0363194 0 0 Z M-233.890625 17.578125 C-234.56609375 18.18011719 -235.2415625 18.78210938 -235.9375 19.40234375 C-264.75206868 46.63897176 -281.66393125 88.32392498 -282.890625 127.578125 C-282.93058594 128.485625 -282.97054687 129.393125 -283.01171875 130.328125 C-284.05612771 174.56191616 -265.97367638 214.21702191 -236.890625 246.578125 C-236.28863281 247.25359375 -235.68664062 247.9290625 -235.06640625 248.625 C-208.17200607 277.07751404 -166.71926365 294.2949947 -127.890625 295.578125 C-126.9315625 295.61808594 -125.9725 295.65804688 -124.984375 295.69921875 C-80.27053966 296.65898542 -39.14769931 278.92047948 -6.890625 248.578125 C24.0901721 218.46521928 40.29495577 176.33097333 41.296875 133.515625 C40.66970768 90.17836314 23.75747796 52.45525513 -4.890625 20.578125 C-5.49261719 19.90265625 -6.09460938 19.2271875 -6.71484375 18.53125 C-33.59344868 -9.90455371 -75.0743687 -27.17149139 -113.890625 -28.421875 C-114.93476563 -28.46183594 -115.97890625 -28.50179687 -117.0546875 -28.54296875 C-161.60132396 -29.41342027 -201.21467162 -11.78788358 -233.890625 17.578125 Z " fill="#000000" transform="translate(376.890625,122.421875)"/>
<path d="M0 0 C1.08345703 0.33515625 2.16691406 0.6703125 3.28320312 1.015625 C4.32025391 1.3559375 5.35730469 1.69625 6.42578125 2.046875 C7.83404175 2.50078613 7.83404175 2.50078613 9.27075195 2.96386719 C12.3214843 4.58739058 13.27740945 6.12721423 14.6875 9.25 C14.62093405 13.04425893 14.21856945 15.40914004 12.1875 18.625 C8.54941236 20.98975697 4.95282389 21.0677212 0.6875 21.25 C0.94144531 21.96800781 1.19539062 22.68601563 1.45703125 23.42578125 C11.81684466 54.58282307 9.78734211 88.1676921 -4.7956543 117.6105957 C-20.06236227 147.15839839 -45.34028109 168.02762006 -76.8125 178.625 C-109.73240647 187.69774287 -143.78348489 183.91991301 -173.61035156 167.23925781 C-183.54945475 161.46283123 -183.54945475 161.46283123 -185.5625 155.625 C-185.2859212 151.89118617 -184.63722029 150.15590037 -182.3125 147.25 C-178.53965406 144.73476937 -176.79249405 144.79219039 -172.3125 145.25 C-169.81835765 146.53859249 -167.67202342 147.80838086 -165.375 149.375 C-143.20425599 163.54932646 -115.94658755 167.57082465 -90.33984375 162.22265625 C-64.37744814 156.23514455 -42.03343292 140.84432509 -27.375 118.62109375 C-13.01406877 95.14858684 -8.15325204 69.10012271 -13.55859375 42.08984375 C-14.26789944 38.47716246 -14.8240306 34.89692206 -15.3125 31.25 C-15.9725 31.25 -16.6325 31.25 -17.3125 31.25 C-17.60125 31.889375 -17.89 32.52875 -18.1875 33.1875 C-19.3125 35.25 -19.3125 35.25 -21.3125 36.25 C-28.41851719 36.8230659 -28.41851719 36.8230659 -31.75 34.6875 C-34.41355527 30.53235378 -34.71717968 27.14169506 -33.70336914 22.40258789 C-32.75877144 19.09100261 -31.71396131 15.82938393 -30.625 12.5625 C-30.27244141 11.43521484 -29.91988281 10.30792969 -29.55664062 9.14648438 C-26.5454504 -0.10728301 -26.5454504 -0.10728301 -22.3125 -3.75 C-16.09503646 -6.85873177 -6.0843258 -2.00476877 0 0 Z " fill="#000000" transform="translate(368.3125,192.75)"/>
<path d="M0 0 C2.85605626 2.62987789 3.42724738 3.32215808 3.765625 7.12890625 C3.48491542 10.70795344 2.63833916 12.45890642 0.515625 15.31640625 C-2.70676774 16.92760262 -5.99013194 16.78470687 -9.484375 16.31640625 C-11.98078664 15.04952762 -14.03247108 13.83562633 -16.296875 12.25390625 C-38.28290426 -1.90440129 -65.64481843 -6.19713376 -91.12890625 -0.78125 C-111.45176948 4.06678778 -127.91208278 13.49949522 -142.484375 28.31640625 C-143.31839844 29.15171875 -144.15242188 29.98703125 -145.01171875 30.84765625 C-162.96937792 49.75691787 -171.04216126 76.2170528 -170.71484375 101.93359375 C-170.50444686 107.88099116 -169.40220827 113.65338747 -168.23828125 119.4765625 C-167.52897556 123.08924379 -166.9728444 126.66948419 -166.484375 130.31640625 C-165.824375 130.31640625 -165.164375 130.31640625 -164.484375 130.31640625 C-164.195625 129.67703125 -163.906875 129.03765625 -163.609375 128.37890625 C-162.484375 126.31640625 -162.484375 126.31640625 -160.484375 125.31640625 C-157.47224022 124.97075144 -155.39282914 124.75025678 -152.484375 125.31640625 C-148.70232573 128.32660873 -148.70232573 128.32660873 -147.484375 131.31640625 C-147.17929293 138.11390895 -149.64911897 144.78469608 -151.796875 151.12890625 C-152.09271484 152.05638672 -152.38855469 152.98386719 -152.69335938 153.93945312 C-155.66818508 162.85108002 -155.66818508 162.85108002 -159.484375 165.31640625 C-166.3746896 167.60104161 -172.52869719 164.84329885 -179.171875 162.62890625 C-180.29916016 162.27634766 -181.42644531 161.92378906 -182.58789062 161.56054688 C-191.96109889 158.51049041 -191.96109889 158.51049041 -195.484375 154.31640625 C-196.47739354 150.16909353 -196.12758582 146.46299946 -194.046875 142.75390625 C-191.22170884 141.16905694 -189.99349879 141.16095184 -186.82421875 141.2265625 C-186.01202881 141.23953369 -185.19983887 141.25250488 -184.36303711 141.26586914 C-183.74307861 141.28254639 -183.12312012 141.29922363 -182.484375 141.31640625 C-182.82210937 140.10726562 -183.15984375 138.898125 -183.5078125 137.65234375 C-193.19264996 102.40416616 -191.13680981 68.90950669 -173.109375 36.72265625 C-157.67653501 10.25987474 -131.44841327 -9.76509142 -101.89453125 -17.91015625 C-67.99639159 -25.59839411 -28.10725995 -22.80163865 0 0 Z " fill="#000000" transform="translate(325.484375,157.68359375)"/>
</svg>
