<svg width="25" height="24" viewBox="0 0 25 24" fill="none" xmlns="http://www.w3.org/2000/svg">
<path d="M12.4924 12.5C11.5642 12.5 10.6739 12.8687 10.0176 13.5251C9.36118 14.1815 8.99243 15.0717 8.99243 16C8.99243 16.9283 9.36118 17.8185 10.0176 18.4749C10.6739 19.1313 11.5642 19.5 12.4924 19.5C13.4207 19.5 14.3109 19.1313 14.9673 18.4749C15.6237 17.8185 15.9924 16.9283 15.9924 16C15.9924 15.0717 15.6237 14.1815 14.9673 13.5251C14.3109 12.8687 13.4207 12.5 12.4924 12.5ZM10.9924 16C10.9924 15.6022 11.1505 15.2206 11.4318 14.9393C11.7131 14.658 12.0946 14.5 12.4924 14.5C12.8903 14.5 13.2718 14.658 13.5531 14.9393C13.8344 15.2206 13.9924 15.6022 13.9924 16C13.9924 16.3978 13.8344 16.7794 13.5531 17.0607C13.2718 17.342 12.8903 17.5 12.4924 17.5C12.0946 17.5 11.7131 17.342 11.4318 17.0607C11.1505 16.7794 10.9924 16.3978 10.9924 16Z" fill="#5D2EDE"/>
<path d="M18.0184 5.11594L14.8394 0.658936L3.15043 9.99693L2.50243 9.98993V9.99994H1.99243V21.9999H22.9924V9.99994H22.0304L20.1164 4.40094L18.0184 5.11594ZM19.9174 9.99994H9.88943L17.3584 7.45394L18.8804 6.96694L19.9174 9.99994ZM16.0424 5.78994L8.33243 8.41794L14.4384 3.53994L16.0424 5.78994ZM3.99243 18.1689V13.8289C4.41433 13.6794 4.79754 13.4377 5.11413 13.1212C5.43072 12.8048 5.6727 12.4217 5.82243 11.9999H19.1624C19.3121 12.4219 19.554 12.8051 19.8706 13.1217C20.1872 13.4383 20.5705 13.6803 20.9924 13.8299V18.1699C20.5705 18.3196 20.1872 18.5616 19.8706 18.8781C19.554 19.1947 19.3121 19.578 19.1624 19.9999H5.82443C5.67462 19.5776 5.4324 19.1941 5.11545 18.8773C4.79851 18.5605 4.41483 18.3185 3.99243 18.1689Z" fill="#5D2EDE"/>
</svg>
