<?xml version="1.0" encoding="UTF-8"?>
<!DOCTYPE svg PUBLIC "-//W3C//DTD SVG 1.1//EN" "http://www.w3.org/Graphics/SVG/1.1/DTD/svg11.dtd">
<svg xmlns="http://www.w3.org/2000/svg" version="1.1" width="512px" height="512px" style="shape-rendering:geometricPrecision; text-rendering:geometricPrecision; image-rendering:optimizeQuality; fill-rule:evenodd; clip-rule:evenodd" xmlns:xlink="http://www.w3.org/1999/xlink">
<g><path style="opacity:0.963" fill="#000000" d="M 38.5,39.5 C 183.167,39.3333 327.834,39.5 472.5,40C 484.433,43.599 491.933,51.4323 495,63.5C 495.667,119.5 495.667,175.5 495,231.5C 491.184,237.742 486.017,239.075 479.5,235.5C 478.667,234.5 477.833,233.5 477,232.5C 476.5,201.835 476.333,171.168 476.5,140.5C 329.167,140.5 181.833,140.5 34.5,140.5C 34.3333,240.167 34.5,339.834 35,439.5C 36.5,443.667 39.3333,446.5 43.5,448C 184.5,448.667 325.5,448.667 466.5,448C 472.357,446.482 475.524,442.648 476,436.5C 476.333,401.167 476.667,365.833 477,330.5C 480.956,324.241 486.122,323.074 492.5,327C 493.701,327.903 494.535,329.069 495,330.5C 495.667,368.167 495.667,405.833 495,443.5C 491.28,457.221 482.447,465.388 468.5,468C 326.5,468.667 184.5,468.667 42.5,468C 26.6667,465.5 17.5,456.333 15,440.5C 14.3333,315.833 14.3333,191.167 15,66.5C 17.7242,52.949 25.5576,43.949 38.5,39.5 Z M 44.5,58.5 C 185.167,58.3333 325.834,58.5 466.5,59C 472.338,61.167 475.504,65.3337 476,71.5C 476.5,88.1633 476.667,104.83 476.5,121.5C 329.167,121.5 181.833,121.5 34.5,121.5C 34.3334,103.497 34.5001,85.4969 35,67.5C 36.775,62.888 39.9417,59.888 44.5,58.5 Z"/></g>
<g><path style="opacity:0.921" fill="#000000" d="M 80.5,80.5 C 86.6208,80.0899 92.6208,80.5899 98.5,82C 104.21,88.4448 103.543,94.1115 96.5,99C 90.8333,99.6667 85.1667,99.6667 79.5,99C 72.6215,92.3498 72.9548,86.1831 80.5,80.5 Z"/></g>
<g><path style="opacity:0.922" fill="#000000" d="M 126.5,80.5 C 132.621,80.0899 138.621,80.5899 144.5,82C 150.032,87.9642 149.698,93.6308 143.5,99C 137.056,99.9148 130.723,99.5815 124.5,98C 118.855,91.4038 119.521,85.5705 126.5,80.5 Z"/></g>
<g><path style="opacity:0.923" fill="#000000" d="M 172.5,80.5 C 178.176,80.3339 183.843,80.5006 189.5,81C 194.22,84.2985 195.72,88.7985 194,94.5C 192.833,96.3333 191.333,97.8333 189.5,99C 183.056,99.9148 176.723,99.5815 170.5,98C 165.387,91.5897 166.053,85.7563 172.5,80.5 Z"/></g>
<g><path style="opacity:0.976" fill="#000000" d="M 229.5,80.5 C 283.834,80.3333 338.168,80.5 392.5,81C 396.235,82.7997 397.902,85.7997 397.5,90C 397.902,94.2003 396.235,97.2003 392.5,99C 338.167,99.6667 283.833,99.6667 229.5,99C 221.565,92.8375 221.565,86.6709 229.5,80.5 Z"/></g>
<g><path style="opacity:0.893" fill="#000000" d="M 421.5,80.5 C 429.846,78.6615 434.846,81.8282 436.5,90C 434.845,98.3344 429.845,101.334 421.5,99C 414.87,92.8817 414.87,86.7151 421.5,80.5 Z"/></g>
<g><path style="opacity:0.945" fill="#000000" d="M 155.5,206.5 C 178.205,204.387 190.872,214.553 193.5,237C 193.331,244.174 191.164,250.674 187,256.5C 170.167,273.333 153.333,290.167 136.5,307C 153.667,324.167 170.833,341.333 188,358.5C 195.537,371.382 195.204,384.048 187,396.5C 173.7,409.285 159.2,410.785 143.5,401C 118.333,375.833 93.1667,350.667 68,325.5C 60.6713,313.129 60.6713,300.796 68,288.5C 93.5,263 119,237.5 144.5,212C 148.017,209.674 151.683,207.84 155.5,206.5 Z M 161.5,225.5 C 171.618,227.068 175.118,232.735 172,242.5C 153.029,262.472 133.695,282.138 114,301.5C 112,305.167 112,308.833 114,312.5C 134.029,332.195 153.695,352.195 173,372.5C 174.821,381.003 171.487,386.003 163,387.5C 160.268,387.385 157.768,386.552 155.5,385C 132,361.5 108.5,338 85,314.5C 81.3404,309.939 81.0071,305.272 84,300.5C 108.167,276.333 132.333,252.167 156.5,228C 158.315,227.243 159.981,226.41 161.5,225.5 Z"/></g>
<g><path style="opacity:0.934" fill="#000000" d="M 340.5,206.5 C 350.457,204.922 359.457,207.089 367.5,213C 392.333,237.833 417.167,262.667 442,287.5C 451.126,301.68 450.46,315.346 440,328.5C 416.5,352 393,375.5 369.5,399C 356.894,409.05 343.561,410.05 329.5,402C 315.026,388.347 313.192,373.181 324,356.5C 340.681,339.986 357.181,323.319 373.5,306.5C 356.514,289.014 339.347,271.681 322,254.5C 313.35,237.706 316.183,223.206 330.5,211C 333.815,209.17 337.149,207.67 340.5,206.5 Z M 346.5,225.5 C 349.811,225.909 352.811,227.076 355.5,229C 378.667,252.167 401.833,275.333 425,298.5C 428.703,302.72 429.37,307.386 427,312.5C 402.5,337 378,361.5 353.5,386C 344.071,389.618 338.405,386.452 336.5,376.5C 336.899,374.803 337.399,373.137 338,371.5C 357,352.5 376,333.5 395,314.5C 397.899,310.063 398.232,305.397 396,300.5C 377,281.5 358,262.5 339,243.5C 335.136,234.892 337.636,228.892 346.5,225.5 Z"/></g>
<g><path style="opacity:0.942" fill="#000000" d="M 264.5,210.5 C 291.656,208.822 304.156,221.489 302,248.5C 291.646,294.582 280.979,340.582 270,386.5C 258.912,403.649 244.079,407.816 225.5,399C 214.383,390.998 209.883,380.165 212,366.5C 222.354,320.418 233.021,274.418 244,228.5C 248.256,219.402 255.089,213.402 264.5,210.5 Z M 270.5,229.5 C 277.799,229.965 282.132,233.798 283.5,241C 273.255,285.48 263.088,329.98 253,374.5C 250.724,381.558 245.891,384.392 238.5,383C 235.667,381.5 233.5,379.333 232,376.5C 231.423,372.112 231.756,367.779 233,363.5C 242.491,322.536 251.824,281.536 261,240.5C 261.942,234.736 265.109,231.069 270.5,229.5 Z"/></g>
<g><path style="opacity:0.887" fill="#000000" d="M 483.5,272.5 C 493.024,272.522 496.858,277.189 495,286.5C 489.451,293.977 483.451,294.31 477,287.5C 474.885,280.414 477.051,275.414 483.5,272.5 Z"/></g>
</svg>
