<?xml version="1.0" encoding="UTF-8"?>
<!DOCTYPE svg PUBLIC "-//W3C//DTD SVG 1.1//EN" "http://www.w3.org/Graphics/SVG/1.1/DTD/svg11.dtd">
<svg xmlns="http://www.w3.org/2000/svg" version="1.1" width="512px" height="512px" style="shape-rendering:geometricPrecision; text-rendering:geometricPrecision; image-rendering:optimizeQuality; fill-rule:evenodd; clip-rule:evenodd" xmlns:xlink="http://www.w3.org/1999/xlink">
<g><path style="opacity:0.927" fill="#000000" d="M 40.5,6.5 C 183.834,6.33333 327.167,6.5 470.5,7C 485.973,9.29942 496.14,17.7994 501,32.5C 501.667,143.167 501.667,253.833 501,364.5C 496.525,380.641 486.025,390.141 469.5,393C 419.501,393.5 369.501,393.667 319.5,393.5C 319.5,410.167 319.5,426.833 319.5,443.5C 331.171,443.333 342.838,443.5 354.5,444C 372.001,448.839 380.168,460.339 379,478.5C 376.806,491.694 369.306,500.194 356.5,504C 288.5,504.667 220.5,504.667 152.5,504C 135.164,497.98 127.664,485.813 130,467.5C 133.279,454.554 141.446,446.721 154.5,444C 166.162,443.5 177.829,443.333 189.5,443.5C 189.5,426.833 189.5,410.167 189.5,393.5C 139.499,393.667 89.4989,393.5 39.5,393C 22.1204,389.954 11.6204,379.787 8,362.5C 7.33333,254.167 7.33333,145.833 8,37.5C 11.8942,19.7701 22.7275,9.43679 40.5,6.5 Z M 39.5,23.5 C 183.167,23.3333 326.834,23.5 470.5,24C 479.214,26.7128 484.381,32.5461 486,41.5C 486.5,137.166 486.667,232.833 486.5,328.5C 332.5,328.5 178.5,328.5 24.5,328.5C 24.3333,231.499 24.5,134.499 25,37.5C 27.774,30.5569 32.6073,25.8903 39.5,23.5 Z M 245.5,49.5 C 246.826,63.6722 246.826,78.0055 245.5,92.5C 231.958,99.2801 227.458,109.947 232,124.5C 238.705,137.598 249.205,142.098 263.5,138C 277.827,130.841 282.327,119.674 277,104.5C 273.965,98.2444 269.131,94.2444 262.5,92.5C 262.167,78.8171 262.501,65.1504 263.5,51.5C 280.788,59.0454 289.288,72.3787 289,91.5C 291.435,96.2238 295.269,97.7238 300.5,96C 301.416,95.6258 302.25,95.1258 303,94.5C 304.79,87.8926 304.957,81.2259 303.5,74.5C 320.269,70.5478 332.603,76.3811 340.5,92C 331.375,97.3969 323.709,104.397 317.5,113C 306.679,114.153 299.846,119.987 297,130.5C 294.326,149.161 302.326,159.827 321,162.5C 339.64,159.188 347.307,148.188 344,129.5C 342.324,124.822 339.491,120.989 335.5,118C 352.828,100.968 369.661,101.468 386,119.5C 394.152,134.074 392.652,147.574 381.5,160C 375.993,164.586 369.659,167.253 362.5,168C 291.167,168.667 219.833,168.667 148.5,168C 127.555,164.3 118.055,151.8 120,130.5C 124.779,113.075 136.279,104.908 154.5,106C 163.137,107.151 170.137,111.151 175.5,118C 163.784,129.134 162.618,141.301 172,154.5C 185.262,165.449 197.929,164.783 210,152.5C 216.218,141.987 215.885,131.654 209,121.5C 204.415,116.957 198.915,114.124 192.5,113C 184.173,99.5171 172.173,91.3505 156.5,88.5C 167.867,72.2078 182.367,68.5412 200,77.5C 200.101,82.9459 200.768,88.2793 202,93.5C 204.559,96.3492 207.726,97.1825 211.5,96C 213.667,95.1667 215.167,93.6667 216,91.5C 215.332,69.7574 225.165,55.7574 245.5,49.5 Z M 253.5,107.5 C 260.808,107.639 263.974,111.305 263,118.5C 260.774,122.861 257.274,124.361 252.5,123C 245.754,117.512 246.088,112.346 253.5,107.5 Z M 188.5,129.5 C 194.984,129.815 198.151,133.148 198,139.5C 193.421,147.1 188.421,147.433 183,140.5C 181.679,135.141 183.513,131.474 188.5,129.5 Z M 318.5,129.5 C 325.857,129.684 329.024,133.351 328,140.5C 322.579,147.433 317.579,147.1 313,139.5C 312.477,134.88 314.31,131.547 318.5,129.5 Z M 146.5,184.5 C 219.501,184.333 292.501,184.5 365.5,185C 386.362,191.213 394.529,205.046 390,226.5C 384.609,239.366 374.942,246.366 361,247.5C 351.016,246.925 342.849,242.758 336.5,235C 345.435,226.863 347.935,217.03 344,205.5C 336.514,191.889 325.347,187.723 310.5,193C 297.946,200.658 294.113,211.492 299,225.5C 303.589,233.41 310.422,238.243 319.5,240C 327.737,253.559 339.737,261.559 355.5,264C 344.351,280.579 329.851,284.412 312,275.5C 311.789,269.782 311.289,264.115 310.5,258.5C 305.345,254.276 300.512,254.61 296,259.5C 296.749,275.492 290.915,288.325 278.5,298C 274.526,300.602 270.193,302.102 265.5,302.5C 265.333,288.496 265.5,274.496 266,260.5C 279.374,253.744 284.041,243.077 280,228.5C 271.511,213.45 259.344,209.616 243.5,217C 232.143,226.091 229.643,237.258 236,250.5C 238.996,255.004 242.996,258.337 248,260.5C 248.5,273.829 248.667,287.163 248.5,300.5C 237.677,297.181 230.177,290.181 226,279.5C 224.721,273.55 223.721,267.55 223,261.5C 222.018,257.376 219.352,255.376 215,255.5C 212.594,255.703 210.594,256.703 209,258.5C 206.384,265.02 206.217,271.686 208.5,278.5C 192.397,282.369 180.231,277.036 172,262.5C 171.333,261.5 171.333,260.5 172,259.5C 180.876,255.125 188.043,248.792 193.5,240.5C 213.113,235.197 219.613,222.863 213,203.5C 203.343,190.045 191.177,187.211 176.5,195C 163.539,207.993 163.206,221.326 175.5,235C 167.159,245.225 156.493,248.892 143.5,246C 124.828,238.156 117.661,224.323 122,204.5C 126.519,193.182 134.685,186.515 146.5,184.5 Z M 187.5,206.5 C 196.162,206.317 199.328,210.317 197,218.5C 191.979,223.917 187.312,223.584 183,217.5C 181.776,212.626 183.276,208.959 187.5,206.5 Z M 317.5,206.5 C 325.658,205.823 329.158,209.49 328,217.5C 322.535,224.385 317.535,224.052 313,216.5C 312.596,212.308 314.096,208.975 317.5,206.5 Z M 252.5,228.5 C 261.56,228.046 264.727,232.046 262,240.5C 256.465,246.118 251.798,245.451 248,238.5C 247.077,234.017 248.577,230.683 252.5,228.5 Z M 24.5,345.5 C 178.5,345.5 332.5,345.5 486.5,345.5C 486.666,351.176 486.499,356.843 486,362.5C 483.406,369.428 478.573,373.928 471.5,376C 327.5,376.667 183.5,376.667 39.5,376C 31.3592,372.863 26.5258,367.03 25,358.5C 24.501,354.179 24.3343,349.846 24.5,345.5 Z M 206.5,393.5 C 238.833,393.5 271.167,393.5 303.5,393.5C 303.5,410.167 303.5,426.833 303.5,443.5C 271.167,443.5 238.833,443.5 206.5,443.5C 206.5,426.833 206.5,410.167 206.5,393.5 Z M 156.5,459.5 C 221.834,459.333 287.168,459.5 352.5,460C 362.986,464.139 365.819,471.305 361,481.5C 359.062,484.106 356.562,485.939 353.5,487C 287.833,487.667 222.167,487.667 156.5,487C 147.035,482.273 144.535,475.106 149,465.5C 151.114,462.879 153.614,460.879 156.5,459.5 Z"/></g>
<g><path style="opacity:0.949" fill="#000000" d="M 75.5,33.5 C 78.1873,33.3359 80.854,33.5026 83.5,34C 85.3333,34.5 86.5,35.6667 87,37.5C 87.6667,57.5 87.6667,77.5 87,97.5C 82,102.833 77,102.833 72,97.5C 71.3333,77.5 71.3333,57.5 72,37.5C 72.6897,35.6498 73.8564,34.3164 75.5,33.5 Z"/></g>
<g><path style="opacity:0.936" fill="#000000" d="M 248.5,33.5 C 269.411,33.121 285.744,41.4543 297.5,58.5C 317.194,53.0028 334.027,57.6695 348,72.5C 351.856,76.884 354.69,81.884 356.5,87.5C 387.148,89.9822 404.148,106.482 407.5,137C 406.768,152.965 400.101,165.799 387.5,175.5C 405.738,191.108 411.238,210.441 404,233.5C 398.599,247.899 388.432,257.066 373.5,261C 362.549,288.147 342.549,299.147 313.5,294C 310.488,293.22 307.655,292.053 305,290.5C 290.351,313.834 269.517,322.334 242.5,316C 230.043,311.701 220.043,304.201 212.5,293.5C 183.951,299.644 164.118,289.311 153,262.5C 132.053,263.247 116.72,254.247 107,235.5C 98.5818,212.169 103.748,192.502 122.5,176.5C 104.27,160.93 98.7702,141.596 106,118.5C 112.276,104.389 122.776,95.0559 137.5,90.5C 146.226,68.2943 162.559,56.6277 186.5,55.5C 193.116,56.0707 199.449,57.7374 205.5,60.5C 215.558,44.6402 229.892,35.6402 248.5,33.5 Z M 245.5,49.5 C 225.165,55.7574 215.332,69.7574 216,91.5C 215.167,93.6667 213.667,95.1667 211.5,96C 207.726,97.1825 204.559,96.3492 202,93.5C 200.768,88.2793 200.101,82.9459 200,77.5C 182.367,68.5412 167.867,72.2078 156.5,88.5C 172.173,91.3505 184.173,99.5171 192.5,113C 198.915,114.124 204.415,116.957 209,121.5C 215.885,131.654 216.218,141.987 210,152.5C 197.929,164.783 185.262,165.449 172,154.5C 162.618,141.301 163.784,129.134 175.5,118C 170.137,111.151 163.137,107.151 154.5,106C 136.279,104.908 124.779,113.075 120,130.5C 118.055,151.8 127.555,164.3 148.5,168C 219.833,168.667 291.167,168.667 362.5,168C 369.659,167.253 375.993,164.586 381.5,160C 392.652,147.574 394.152,134.074 386,119.5C 369.661,101.468 352.828,100.968 335.5,118C 339.491,120.989 342.324,124.822 344,129.5C 347.307,148.188 339.64,159.188 321,162.5C 302.326,159.827 294.326,149.161 297,130.5C 299.846,119.987 306.679,114.153 317.5,113C 323.709,104.397 331.375,97.3969 340.5,92C 332.603,76.3811 320.269,70.5478 303.5,74.5C 304.957,81.2259 304.79,87.8926 303,94.5C 302.25,95.1258 301.416,95.6258 300.5,96C 295.269,97.7238 291.435,96.2238 289,91.5C 289.288,72.3787 280.788,59.0454 263.5,51.5C 262.501,65.1504 262.167,78.8171 262.5,92.5C 269.131,94.2444 273.965,98.2444 277,104.5C 282.327,119.674 277.827,130.841 263.5,138C 249.205,142.098 238.705,137.598 232,124.5C 227.458,109.947 231.958,99.2801 245.5,92.5C 246.826,78.0055 246.826,63.6722 245.5,49.5 Z M 253.5,107.5 C 246.088,112.346 245.754,117.512 252.5,123C 257.274,124.361 260.774,122.861 263,118.5C 263.974,111.305 260.808,107.639 253.5,107.5 Z M 188.5,129.5 C 183.513,131.474 181.679,135.141 183,140.5C 188.421,147.433 193.421,147.1 198,139.5C 198.151,133.148 194.984,129.815 188.5,129.5 Z M 318.5,129.5 C 314.31,131.547 312.477,134.88 313,139.5C 317.579,147.1 322.579,147.433 328,140.5C 329.024,133.351 325.857,129.684 318.5,129.5 Z M 146.5,184.5 C 134.685,186.515 126.519,193.182 122,204.5C 117.661,224.323 124.828,238.156 143.5,246C 156.493,248.892 167.159,245.225 175.5,235C 163.206,221.326 163.539,207.993 176.5,195C 191.177,187.211 203.343,190.045 213,203.5C 219.613,222.863 213.113,235.197 193.5,240.5C 188.043,248.792 180.876,255.125 172,259.5C 171.333,260.5 171.333,261.5 172,262.5C 180.231,277.036 192.397,282.369 208.5,278.5C 206.217,271.686 206.384,265.02 209,258.5C 210.594,256.703 212.594,255.703 215,255.5C 219.352,255.376 222.018,257.376 223,261.5C 223.721,267.55 224.721,273.55 226,279.5C 230.177,290.181 237.677,297.181 248.5,300.5C 248.667,287.163 248.5,273.829 248,260.5C 242.996,258.337 238.996,255.004 236,250.5C 229.643,237.258 232.143,226.091 243.5,217C 259.344,209.616 271.511,213.45 280,228.5C 284.041,243.077 279.374,253.744 266,260.5C 265.5,274.496 265.333,288.496 265.5,302.5C 270.193,302.102 274.526,300.602 278.5,298C 290.915,288.325 296.749,275.492 296,259.5C 300.512,254.61 305.345,254.276 310.5,258.5C 311.289,264.115 311.789,269.782 312,275.5C 329.851,284.412 344.351,280.579 355.5,264C 339.737,261.559 327.737,253.559 319.5,240C 310.422,238.243 303.589,233.41 299,225.5C 294.113,211.492 297.946,200.658 310.5,193C 325.347,187.723 336.514,191.889 344,205.5C 347.935,217.03 345.435,226.863 336.5,235C 342.849,242.758 351.016,246.925 361,247.5C 374.942,246.366 384.609,239.366 390,226.5C 394.529,205.046 386.362,191.213 365.5,185C 292.501,184.5 219.501,184.333 146.5,184.5 Z M 187.5,206.5 C 183.276,208.959 181.776,212.626 183,217.5C 187.312,223.584 191.979,223.917 197,218.5C 199.328,210.317 196.162,206.317 187.5,206.5 Z M 317.5,206.5 C 314.096,208.975 312.596,212.308 313,216.5C 317.535,224.052 322.535,224.385 328,217.5C 329.158,209.49 325.658,205.823 317.5,206.5 Z M 252.5,228.5 C 248.577,230.683 247.077,234.017 248,238.5C 251.798,245.451 256.465,246.118 262,240.5C 264.727,232.046 261.56,228.046 252.5,228.5 Z"/></g>
<g><path style="opacity:0.911" fill="#000000" d="M 76.5,107.5 C 81.2797,106.641 84.7797,108.308 87,112.5C 87.6667,117.833 87.6667,123.167 87,128.5C 82.4865,134.747 77.4865,135.08 72,129.5C 71.3333,123.5 71.3333,117.5 72,111.5C 73.3968,109.93 74.8968,108.596 76.5,107.5 Z"/></g>
<g><path style="opacity:0.908" fill="#000000" d="M 76.5,138.5 C 81.2797,137.641 84.7797,139.308 87,143.5C 87.6667,148.833 87.6667,154.167 87,159.5C 82.4865,165.747 77.4865,166.08 72,160.5C 71.3333,154.5 71.3333,148.5 72,142.5C 73.3968,140.93 74.8968,139.596 76.5,138.5 Z"/></g>
<g><path style="opacity:0.882" fill="#000000" d="M 434.5,187.5 C 440.706,186.178 444.539,188.511 446,194.5C 446.932,199.989 446.432,205.323 444.5,210.5C 438.86,214.975 434.027,214.309 430,208.5C 429.333,203.167 429.333,197.833 430,192.5C 431.025,190.313 432.525,188.646 434.5,187.5 Z"/></g>
<g><path style="opacity:0.882" fill="#000000" d="M 434.5,218.5 C 440.601,217.448 444.434,219.781 446,225.5C 446.826,230.589 446.492,235.589 445,240.5C 439.186,246.205 434.186,245.538 430,238.5C 429.333,233.5 429.333,228.5 430,223.5C 431.025,221.313 432.525,219.646 434.5,218.5 Z"/></g>
<g><path style="opacity:0.905" fill="#000000" d="M 434.5,250.5 C 440.706,249.178 444.539,251.511 446,257.5C 446.667,275.5 446.667,293.5 446,311.5C 444.295,317.939 440.128,320.106 433.5,318C 431.951,316.786 430.785,315.286 430,313.5C 429.333,294.167 429.333,274.833 430,255.5C 431.025,253.313 432.525,251.646 434.5,250.5 Z"/></g>
<g><path style="opacity:0.904" fill="#000000" d="M 214.5,352.5 C 241.835,352.333 269.169,352.5 296.5,353C 300.666,353.985 302.666,356.652 302.5,361C 302.666,365.348 300.666,368.015 296.5,369C 269.167,369.667 241.833,369.667 214.5,369C 210.334,368.015 208.334,365.348 208.5,361C 208.451,356.572 210.451,353.738 214.5,352.5 Z"/></g>
</svg>
